<?xml version="1.0" encoding="UTF-8" standalone="no"?>
<svg
   xmlns:ooo="http://xml.openoffice.org/svg/export"
   xmlns:dc="http://purl.org/dc/elements/1.1/"
   xmlns:cc="http://creativecommons.org/ns#"
   xmlns:rdf="http://www.w3.org/1999/02/22-rdf-syntax-ns#"
   xmlns:svg="http://www.w3.org/2000/svg"
   xmlns="http://www.w3.org/2000/svg"
   xmlns:sodipodi="http://sodipodi.sourceforge.net/DTD/sodipodi-0.dtd"
   xmlns:inkscape="http://www.inkscape.org/namespaces/inkscape"
   version="1.2"
   width="12.96mm"
   height="12.96mm"
   viewBox="0 0 1296 1296"
   preserveAspectRatio="xMidYMid"
   fill-rule="evenodd"
   stroke-width="28.222"
   stroke-linejoin="round"
   xml:space="preserve"
   id="svg72"
   sodipodi:docname="icon.svg"
   inkscape:export-filename="C:\Users\Formacion\Desktop\iconos Adaptable\Gris oscuro\pix_plugins\mod\flashcard\icon.png"
   inkscape:export-xdpi="94.07"
   inkscape:export-ydpi="94.07"
   inkscape:version="1.0.1 (3bc2e813f5, 2020-09-07)"><metadata
   id="metadata76"><rdf:RDF><cc:Work
       rdf:about=""><dc:format>image/svg+xml</dc:format><dc:type
         rdf:resource="http://purl.org/dc/dcmitype/StillImage" /></cc:Work></rdf:RDF></metadata><sodipodi:namedview
   pagecolor="#ffffff"
   bordercolor="#666666"
   borderopacity="1"
   objecttolerance="10"
   gridtolerance="10"
   guidetolerance="10"
   inkscape:pageopacity="0"
   inkscape:pageshadow="2"
   inkscape:window-width="1366"
   inkscape:window-height="705"
   id="namedview74"
   showgrid="false"
   inkscape:zoom="10.983475"
   inkscape:cx="24.491339"
   inkscape:cy="24.491339"
   inkscape:window-x="-8"
   inkscape:window-y="-8"
   inkscape:window-maximized="1"
   inkscape:current-layer="svg72"
   inkscape:document-rotation="0" />
 <defs
   class="ClipPathGroup"
   id="defs8">
  <clipPath
   id="presentation_clip_path"
   clipPathUnits="userSpaceOnUse">
   <rect
   x="0"
   y="0"
   width="1296"
   height="1296"
   id="rect2" />
  </clipPath>
  <clipPath
   id="presentation_clip_path_shrink"
   clipPathUnits="userSpaceOnUse">
   <rect
   x="1"
   y="1"
   width="1294"
   height="1294"
   id="rect5" />
  </clipPath>
 </defs>
 <defs
   class="TextShapeIndex"
   id="defs12">
  <g
   ooo:slide="id1"
   ooo:id-list="id3"
   id="g10" />
 </defs>
 <defs
   class="EmbeddedBulletChars"
   id="defs44">
  <g
   id="bullet-char-template-57356"
   transform="scale(0.00048828125,-0.00048828125)">
   <path
   d="M 580,1141 L 1163,571 580,0 -4,571 580,1141 Z"
   id="path14" />
  </g>
  <g
   id="bullet-char-template-57354"
   transform="scale(0.00048828125,-0.00048828125)">
   <path
   d="M 8,1128 L 1137,1128 1137,0 8,0 8,1128 Z"
   id="path17" />
  </g>
  <g
   id="bullet-char-template-10146"
   transform="scale(0.00048828125,-0.00048828125)">
   <path
   d="M 174,0 L 602,739 174,1481 1456,739 174,0 Z M 1358,739 L 309,1346 659,739 1358,739 Z"
   id="path20" />
  </g>
  <g
   id="bullet-char-template-10132"
   transform="scale(0.00048828125,-0.00048828125)">
   <path
   d="M 2015,739 L 1276,0 717,0 1260,543 174,543 174,936 1260,936 717,1481 1274,1481 2015,739 Z"
   id="path23" />
  </g>
  <g
   id="bullet-char-template-10007"
   transform="scale(0.00048828125,-0.00048828125)">
   <path
   d="M 0,-2 C -7,14 -16,27 -25,37 L 356,567 C 262,823 215,952 215,954 215,979 228,992 255,992 264,992 276,990 289,987 310,991 331,999 354,1012 L 381,999 492,748 772,1049 836,1024 860,1049 C 881,1039 901,1025 922,1006 886,937 835,863 770,784 769,783 710,716 594,584 L 774,223 C 774,196 753,168 711,139 L 727,119 C 717,90 699,76 672,76 641,76 570,178 457,381 L 164,-76 C 142,-110 111,-127 72,-127 30,-127 9,-110 8,-76 1,-67 -2,-52 -2,-32 -2,-23 -1,-13 0,-2 Z"
   id="path26" />
  </g>
  <g
   id="bullet-char-template-10004"
   transform="scale(0.00048828125,-0.00048828125)">
   <path
   d="M 285,-33 C 182,-33 111,30 74,156 52,228 41,333 41,471 41,549 55,616 82,672 116,743 169,778 240,778 293,778 328,747 346,684 L 369,508 C 377,444 397,411 428,410 L 1163,1116 C 1174,1127 1196,1133 1229,1133 1271,1133 1292,1118 1292,1087 L 1292,965 C 1292,929 1282,901 1262,881 L 442,47 C 390,-6 338,-33 285,-33 Z"
   id="path29" />
  </g>
  <g
   id="bullet-char-template-9679"
   transform="scale(0.00048828125,-0.00048828125)">
   <path
   d="M 813,0 C 632,0 489,54 383,161 276,268 223,411 223,592 223,773 276,916 383,1023 489,1130 632,1184 813,1184 992,1184 1136,1130 1245,1023 1353,916 1407,772 1407,592 1407,412 1353,268 1245,161 1136,54 992,0 813,0 Z"
   id="path32" />
  </g>
  <g
   id="bullet-char-template-8226"
   transform="scale(0.00048828125,-0.00048828125)">
   <path
   d="M 346,457 C 273,457 209,483 155,535 101,586 74,649 74,723 74,796 101,859 155,911 209,963 273,989 346,989 419,989 480,963 531,910 582,859 608,796 608,723 608,648 583,586 532,535 482,483 420,457 346,457 Z"
   id="path35" />
  </g>
  <g
   id="bullet-char-template-8211"
   transform="scale(0.00048828125,-0.00048828125)">
   <path
   d="M -4,459 L 1135,459 1135,606 -4,606 -4,459 Z"
   id="path38" />
  </g>
  <g
   id="bullet-char-template-61548"
   transform="scale(0.00048828125,-0.00048828125)">
   <path
   d="M 173,740 C 173,903 231,1043 346,1159 462,1274 601,1332 765,1332 928,1332 1067,1274 1183,1159 1299,1043 1357,903 1357,740 1357,577 1299,437 1183,322 1067,206 928,148 765,148 601,148 462,206 346,322 231,437 173,577 173,740 Z"
   id="path41" />
  </g>
 </defs>
 <defs
   class="TextEmbeddedBitmaps"
   id="defs46" />
 <g
   id="g51">
  <g
   id="id2"
   class="Master_Slide">
   <g
   id="bg-id2"
   class="Background" />
   <g
   id="bo-id2"
   class="BackgroundObjects" />
  </g>
 </g>
 
<path
   style="fill:#008fb4;stroke-width:95.1786"
   d="m 795.53209,1203.5579 c -6.49204,-1.4417 -80.85544,-31.3029 -165.25203,-66.3582 l -153.44832,-63.737 -106.23346,-1.6861 -106.23346,-1.6862 -19.27189,-9.4637 c -23.40793,-11.4948 -42.68886,-32.5675 -51.03527,-55.7781 -5.90648,-16.42535 -6.22074,-36.77345 -6.25411,-404.91482 -0.0408,-434.39874 -1.59131,-406.8427 24.58962,-436.58593 7.38533,-8.39016 21.53747,-19.22252 31.44916,-24.07186 l 18.02129,-8.817 260.93242,0.22596 260.93235,0.22595 20.88791,10.20509 c 20.41025,9.97169 34.84076,24.21021 45.54787,44.94192 4.45093,8.61811 20.29995,15.85787 144.65093,66.07599 76.8088,31.01862 145.9113,59.60497 153.5612,63.52524 28.4061,14.55704 48.3956,49.48141 48.4492,84.64765 0.03,20.60906 -6.4966,37.87444 -145.3668,384.46394 -79.96985,199.58724 -147.40572,366.79397 -149.85747,371.57057 -5.86803,11.4322 -28.32528,31.5237 -44.40444,39.7267 -14.94761,7.6257 -44.75007,11.2451 -61.6647,7.489 z m 41.9572,-68.5473 c 6.44677,-5.6826 44.60299,-97.318 151.95018,-364.92137 78.83793,-196.53334 143.34173,-361.71984 143.34173,-367.08114 0,-13.29129 -9.2114,-27.83955 -21.6844,-34.24791 -16.9452,-8.70605 -242.54722,-99.63649 -247.2021,-99.63649 -3.43894,0 -4.28527,71.80887 -4.28527,363.56681 v 363.56681 l -8.69561,17.44979 c -4.78256,9.5974 -16.1735,24.1731 -25.31323,32.3905 -25.68844,23.096 -37.10412,25.6465 -115.82466,25.8772 -47.90473,0.1407 -66.19698,1.2223 -62.57731,3.7019 2.81332,1.9269 39.23609,17.6475 80.93979,34.9344 82.03988,34.007 95.13637,36.9293 109.35088,24.3995 z m -50.00895,-138.82015 11.50873,-11.50874 -0.88529,-386.72229 -0.8853,-386.72226 -11.12913,-9.94342 -11.12913,-9.94343 -250.2389,0.94604 c -232.60381,0.87937 -250.85583,1.36536 -258.99344,6.89535 -4.81501,3.27189 -10.50606,9.79329 -12.64684,14.49177 -6.07858,13.34104 -5.29003,765.76874 0.81417,776.78189 9.66488,17.43754 2.50698,16.98604 271.33202,17.11414 l 250.74467,0.1185 z"
   id="path52" /><path
   style="fill:#008fb4;stroke-width:95.1786"
   d="m 387.42831,705.82875 -65.73114,-65.79604 v -15.43574 c 0,-12.73111 1.65798,-16.86189 9.4624,-23.57498 11.43365,-9.83479 24.16754,-10.34778 37.75246,-1.52093 5.56462,3.61563 27.09565,24.47294 47.84672,46.34953 l 37.72923,39.7756 112.3466,-111.97777 c 63.2405,-63.03288 116.6714,-113.58731 122.24105,-115.66009 13.01074,-4.84208 27.50089,1.01754 34.10697,13.79228 11.54559,22.32668 14.76937,18.28414 -130.78697,164.0045 -74.6277,74.71178 -136.48532,135.8396 -137.46144,135.8396 -0.97605,0 -31.35377,-29.60821 -67.50588,-65.79603 z"
   id="path54" /></svg>
