<?xml version="1.0" encoding="UTF-8" standalone="no"?>
<svg
   xmlns:dc="http://purl.org/dc/elements/1.1/"
   xmlns:cc="http://creativecommons.org/ns#"
   xmlns:rdf="http://www.w3.org/1999/02/22-rdf-syntax-ns#"
   xmlns:svg="http://www.w3.org/2000/svg"
   xmlns="http://www.w3.org/2000/svg"
   xmlns:sodipodi="http://sodipodi.sourceforge.net/DTD/sodipodi-0.dtd"
   xmlns:inkscape="http://www.inkscape.org/namespaces/inkscape"
   width="24"
   height="24"
   viewBox="0 0 24 24"
   preserveAspectRatio="xMinYMid meet"
   version="1.1"
   id="svg8"
   sodipodi:docname="icon.svg"
   inkscape:version="1.0.1 (3bc2e813f5, 2020-09-07)">
  <metadata
     id="metadata14">
    <rdf:RDF>
      <cc:Work
         rdf:about="">
        <dc:format>image/svg+xml</dc:format>
        <dc:type
           rdf:resource="http://purl.org/dc/dcmitype/StillImage" />
      </cc:Work>
    </rdf:RDF>
  </metadata>
  <defs
     id="defs12" />
  <sodipodi:namedview
     pagecolor="#ffffff"
     bordercolor="#666666"
     borderopacity="1"
     objecttolerance="10"
     gridtolerance="10"
     guidetolerance="10"
     inkscape:pageopacity="0"
     inkscape:pageshadow="2"
     inkscape:window-width="1366"
     inkscape:window-height="705"
     id="namedview10"
     showgrid="false"
     inkscape:zoom="22.416667"
     inkscape:cx="10.449085"
     inkscape:cy="10.215613"
     inkscape:window-x="-8"
     inkscape:window-y="-8"
     inkscape:window-maximized="1"
     inkscape:current-layer="svg8"
     inkscape:document-rotation="0" />
  <title
     id="title2">h5p</title>
  <path
     d="m 23.110674,7.6000159 a 3.707,3.707 0 0 0 -2.662,-0.847 h -3.993 v 2.2 h -4.774 l -0.396,1.6060001 a 6.963,6.963 0 0 1 1.1,-0.385 3.839,3.839 0 0 1 0.946,-0.066 3.564,3.564 0 0 1 2.585,0.968 3.223,3.223 0 0 1 0.99,2.42 4.092,4.092 0 0 1 -0.506,2.013 3.476,3.476 0 0 1 -1.441,1.452 3.751,3.751 0 0 1 -0.737,0.297 h 4.048 v -3.85 h 1.815 a 4.18,4.18 0 0 0 2.915,-0.902 3.3,3.3 0 0 0 0.968,-2.5080001 3.19,3.19 0 0 0 -0.858,-2.398 z m -2.684,3.3000001 a 2.068,2.068 0 0 1 -1.331,0.319 h -0.825 V 8.9200159 h 0.957 a 1.716,1.716 0 0 1 1.243,0.341 1.1,1.1 0 0 1 0.33,0.8360001 1.034,1.034 0 0 1 -0.374,0.803 z m -6.677,2.596 a 1.452,1.452 0 0 1 -2.75,0.649 l -2.8709997,0.418 a 4.4,4.4 0 0 0 0.572,1.21 3.52,3.52 0 0 0 0.847,0.891 3.971,3.971 0 0 0 1.2429997,0.583 H 6.8196743 v -3.839 h -3.619 v 3.839 H 0.01067433 V 6.7530159 H 3.2006743 v 4.4880001 h 3.619 V 6.7530159 h 2.596 l -1.287,5.7200001 2.8599997,0.407 a 1.452,1.452 0 0 1 2.761,0.649 z"
     fill="#ffffff"
     id="path6"
     style="stroke-width:1.1" />
  <path
     style="fill:#008fb4;fill-opacity:1;stroke-width:0.0490707"
     d="M 0.02744009,12.000016 V 6.798529 H 1.5977003 3.1679605 V 9.0312426 11.263956 H 5.0081093 6.8482579 V 9.0312426 6.798529 h 1.2513012 c 0.9681768,0 1.2513649,0.013879 1.2515827,0.061338 1.473e-4,0.033736 -0.2792791,1.3037068 -0.6209653,2.8221572 -0.3416861,1.5184498 -0.608623,2.7734438 -0.5931927,2.7888728 0.028639,0.02864 2.5798502,0.408298 2.7613952,0.410937 0.06344,9.23e-4 0.165362,-0.08619 0.279113,-0.238549 0.398139,-0.533292 1.135275,-0.700112 1.74572,-0.395068 0.318753,0.159282 0.487503,0.326095 0.661487,0.65389 0.153963,0.290078 0.152608,0.901518 -0.0026,1.194314 -0.28447,0.536481 -0.723301,0.813819 -1.282169,0.810321 -0.519512,-0.0033 -0.904249,-0.216649 -1.231553,-0.683086 l -0.0736,-0.104896 -1.3249068,0.191091 c -1.6698829,0.240848 -1.5624575,0.214164 -1.5255019,0.378917 0.016386,0.07304 0.14475,0.364666 0.2852559,0.64805 0.2191407,0.44198 0.3185004,0.57878 0.698785,0.962096 0.3712767,0.374237 0.5178929,0.483885 0.9022118,0.674721 l 0.458891,0.227867 H 8.6688594 6.8482579 V 15.287749 13.373994 H 5.0081093 3.1679605 v 1.913755 1.913754 H 1.5977003 0.02744009 Z"
     id="path22" />
  <path
     style="fill:#008fb4;fill-opacity:1;stroke-width:0.0490707"
     d="m 14.654667,17.132505 c 1.06032,-0.440737 1.830075,-1.367537 2.135362,-2.571016 0.142796,-0.562916 0.163258,-1.477789 0.04361,-1.950048 -0.131509,-0.5191 -0.44258,-1.07933 -0.802027,-1.444433 -0.742539,-0.754221 -1.58116,-1.081716 -2.765305,-1.079894 -0.631206,9.7e-4 -1.03429,0.07369 -1.577427,0.284594 -0.314117,0.121972 -0.374819,0.133228 -0.35484,0.06579 0.01326,-0.04475 0.08155,-0.31321 0.151777,-0.5965928 0.07022,-0.2833832 0.149395,-0.5980487 0.175942,-0.6992568 l 0.04827,-0.1840149 h 2.378034 2.378035 V 7.8780828 6.798529 l 2.024163,-0.012268 c 2.512373,-0.015226 2.716133,-0.00928 3.120596,0.090928 0.686378,0.1700708 1.367712,0.5706901 1.690559,0.994035 0.210343,0.2758209 0.484665,0.8546279 0.573039,1.2090886 0.08549,0.3429042 0.0713,1.4935114 -0.023,1.8646834 -0.1104,0.434533 -0.426925,1.042481 -0.702579,1.349443 -0.305784,0.340515 -0.875681,0.683909 -1.481286,0.892558 l -0.466171,0.160611 -1.484386,0.01698 -1.484387,0.01698 v 1.934501 1.9345 l -1.926023,-0.0021 -1.926021,-0.0021 0.274067,-0.11392 z m 5.062416,-5.923584 c 0.451998,-0.09077 0.772468,-0.279547 0.943095,-0.555529 0.12927,-0.209088 0.148675,-0.286314 0.148675,-0.591666 0,-0.4821765 -0.170859,-0.7677628 -0.586704,-0.980661 C 19.938297,8.9357425 19.917962,8.932826 19.082891,8.9176707 l -0.850246,-0.015431 v 1.1808593 1.180857 h 0.605198 c 0.33286,0 0.728517,-0.02476 0.87924,-0.05503 z"
     id="path24" />
</svg>
