<?xml version="1.0" encoding="UTF-8" standalone="no"?>
<svg
   xmlns:ooo="http://xml.openoffice.org/svg/export"
   xmlns:dc="http://purl.org/dc/elements/1.1/"
   xmlns:cc="http://creativecommons.org/ns#"
   xmlns:rdf="http://www.w3.org/1999/02/22-rdf-syntax-ns#"
   xmlns:svg="http://www.w3.org/2000/svg"
   xmlns="http://www.w3.org/2000/svg"
   xmlns:sodipodi="http://sodipodi.sourceforge.net/DTD/sodipodi-0.dtd"
   xmlns:inkscape="http://www.inkscape.org/namespaces/inkscape"
   version="1.2"
   width="12.7mm"
   height="12.7mm"
   viewBox="0 0 1270 1270"
   preserveAspectRatio="xMidYMid"
   fill-rule="evenodd"
   stroke-width="28.222"
   stroke-linejoin="round"
   xml:space="preserve"
   id="svg89"
   sodipodi:docname="icon.svg"
   inkscape:export-filename="C:\Users\Formacion\Desktop\iconos Adaptable\Gris oscuro\pix_plugins\mod\hotpot\icon.png"
   inkscape:export-xdpi="96"
   inkscape:export-ydpi="96"
   inkscape:version="1.0.1 (3bc2e813f5, 2020-09-07)"><metadata
   id="metadata93"><rdf:RDF><cc:Work
       rdf:about=""><dc:format>image/svg+xml</dc:format><dc:type
         rdf:resource="http://purl.org/dc/dcmitype/StillImage" /></cc:Work></rdf:RDF></metadata><sodipodi:namedview
   pagecolor="#ffffff"
   bordercolor="#666666"
   borderopacity="1"
   objecttolerance="10"
   gridtolerance="10"
   guidetolerance="10"
   inkscape:pageopacity="0"
   inkscape:pageshadow="2"
   inkscape:window-width="1366"
   inkscape:window-height="705"
   id="namedview91"
   showgrid="false"
   inkscape:zoom="11.208334"
   inkscape:cx="24"
   inkscape:cy="24"
   inkscape:window-x="-8"
   inkscape:window-y="-8"
   inkscape:window-maximized="1"
   inkscape:current-layer="svg89"
   inkscape:document-rotation="0" />
 <defs
   class="ClipPathGroup"
   id="defs8">
  <clipPath
   id="presentation_clip_path"
   clipPathUnits="userSpaceOnUse">
   <rect
   x="0"
   y="0"
   width="1270"
   height="1270"
   id="rect2" />
  </clipPath>
  <clipPath
   id="presentation_clip_path_shrink"
   clipPathUnits="userSpaceOnUse">
   <rect
   x="1"
   y="1"
   width="1268"
   height="1268"
   id="rect5" />
  </clipPath>
 </defs>
 <defs
   class="TextShapeIndex"
   id="defs12">
  <g
   ooo:slide="id1"
   ooo:id-list="id3"
   id="g10" />
 </defs>
 <defs
   class="EmbeddedBulletChars"
   id="defs44">
  <g
   id="bullet-char-template-57356"
   transform="scale(0.00048828125,-0.00048828125)">
   <path
   d="M 580,1141 L 1163,571 580,0 -4,571 580,1141 Z"
   id="path14" />
  </g>
  <g
   id="bullet-char-template-57354"
   transform="scale(0.00048828125,-0.00048828125)">
   <path
   d="M 8,1128 L 1137,1128 1137,0 8,0 8,1128 Z"
   id="path17" />
  </g>
  <g
   id="bullet-char-template-10146"
   transform="scale(0.00048828125,-0.00048828125)">
   <path
   d="M 174,0 L 602,739 174,1481 1456,739 174,0 Z M 1358,739 L 309,1346 659,739 1358,739 Z"
   id="path20" />
  </g>
  <g
   id="bullet-char-template-10132"
   transform="scale(0.00048828125,-0.00048828125)">
   <path
   d="M 2015,739 L 1276,0 717,0 1260,543 174,543 174,936 1260,936 717,1481 1274,1481 2015,739 Z"
   id="path23" />
  </g>
  <g
   id="bullet-char-template-10007"
   transform="scale(0.00048828125,-0.00048828125)">
   <path
   d="M 0,-2 C -7,14 -16,27 -25,37 L 356,567 C 262,823 215,952 215,954 215,979 228,992 255,992 264,992 276,990 289,987 310,991 331,999 354,1012 L 381,999 492,748 772,1049 836,1024 860,1049 C 881,1039 901,1025 922,1006 886,937 835,863 770,784 769,783 710,716 594,584 L 774,223 C 774,196 753,168 711,139 L 727,119 C 717,90 699,76 672,76 641,76 570,178 457,381 L 164,-76 C 142,-110 111,-127 72,-127 30,-127 9,-110 8,-76 1,-67 -2,-52 -2,-32 -2,-23 -1,-13 0,-2 Z"
   id="path26" />
  </g>
  <g
   id="bullet-char-template-10004"
   transform="scale(0.00048828125,-0.00048828125)">
   <path
   d="M 285,-33 C 182,-33 111,30 74,156 52,228 41,333 41,471 41,549 55,616 82,672 116,743 169,778 240,778 293,778 328,747 346,684 L 369,508 C 377,444 397,411 428,410 L 1163,1116 C 1174,1127 1196,1133 1229,1133 1271,1133 1292,1118 1292,1087 L 1292,965 C 1292,929 1282,901 1262,881 L 442,47 C 390,-6 338,-33 285,-33 Z"
   id="path29" />
  </g>
  <g
   id="bullet-char-template-9679"
   transform="scale(0.00048828125,-0.00048828125)">
   <path
   d="M 813,0 C 632,0 489,54 383,161 276,268 223,411 223,592 223,773 276,916 383,1023 489,1130 632,1184 813,1184 992,1184 1136,1130 1245,1023 1353,916 1407,772 1407,592 1407,412 1353,268 1245,161 1136,54 992,0 813,0 Z"
   id="path32" />
  </g>
  <g
   id="bullet-char-template-8226"
   transform="scale(0.00048828125,-0.00048828125)">
   <path
   d="M 346,457 C 273,457 209,483 155,535 101,586 74,649 74,723 74,796 101,859 155,911 209,963 273,989 346,989 419,989 480,963 531,910 582,859 608,796 608,723 608,648 583,586 532,535 482,483 420,457 346,457 Z"
   id="path35" />
  </g>
  <g
   id="bullet-char-template-8211"
   transform="scale(0.00048828125,-0.00048828125)">
   <path
   d="M -4,459 L 1135,459 1135,606 -4,606 -4,459 Z"
   id="path38" />
  </g>
  <g
   id="bullet-char-template-61548"
   transform="scale(0.00048828125,-0.00048828125)">
   <path
   d="M 173,740 C 173,903 231,1043 346,1159 462,1274 601,1332 765,1332 928,1332 1067,1274 1183,1159 1299,1043 1357,903 1357,740 1357,577 1299,437 1183,322 1067,206 928,148 765,148 601,148 462,206 346,322 231,437 173,577 173,740 Z"
   id="path41" />
  </g>
 </defs>
 <defs
   class="TextEmbeddedBitmaps"
   id="defs46" />
 <g
   id="g51">
  <g
   id="id2"
   class="Master_Slide">
   <g
   id="bg-id2"
   class="Background" />
   <g
   id="bo-id2"
   class="BackgroundObjects" />
  </g>
 </g>
 
<path
   style="fill:#008fb4;stroke-width:93.2691"
   d="m 739.22783,815.17656 c -5.45298,-1.51797 -23.35855,-6.45581 -39.7902,-10.97286 -16.43161,-4.51708 -40.47569,-12.86523 -53.43123,-18.55146 -12.95558,-5.68623 -25.41844,-10.33859 -27.69531,-10.33859 -4.2595,0 -33.40459,-12.3867 -74.06837,-31.47908 -12.72363,-5.97394 -28.76537,-13.17939 -35.64842,-16.01212 -35.18247,-14.47936 -77.49898,-42.14356 -100.18948,-65.49844 -38.18748,-39.30565 -43.23948,-48.60982 -45.68553,-84.13837 -4.13666,-60.08362 -23.1673,-106.12204 -60.94002,-147.42435 l -8.33315,-9.11184 7.40281,-22.1714 c 11.79907,-35.33819 29.646,-58.86625 65.47518,-86.31745 26.97437,-20.66696 47.5069,-27.48392 93.18194,-30.93728 54.26019,-4.10244 78.13895,-2.48401 86.27768,5.8477 3.43265,3.51414 8.63622,15.31254 11.56311,26.21849 2.92703,10.90596 8.10871,30.23923 11.51521,42.96282 11.97331,44.7214 15.51668,48.7885 47.6877,54.73562 25.30346,4.67762 49.9348,-0.59674 71.93925,-15.40474 9.33006,-6.27868 17.65288,-10.72668 18.49506,-9.88442 0.84232,0.84232 2.58402,18.72919 3.87029,39.74878 2.15287,35.17662 3.12336,39.33477 12.19816,52.26016 14.89386,21.2138 34.08463,30.56389 62.73476,30.56556 20.62084,0.001 25.46808,-1.26831 40.48421,-10.60288 l 17.05858,-10.60418 v 16.52147 c 0,29.55466 19.25492,46.55982 53.08037,46.87846 27.6073,0.25929 37.57818,-5.10638 51.552,-27.74577 6.58693,-10.67167 13.0826,-19.40302 14.43477,-19.40302 5.62726,0 12.90383,23.80861 18.06407,59.10476 7.84391,53.65267 1.37869,86.0635 -28.15059,141.12445 -14.93905,27.85559 -27.88886,44.8176 -54.45088,71.32132 -18.70597,18.66485 -26.74431,23.46442 -55.62243,33.21123 -22.22323,7.50068 -84.68711,11.1981 -103.00954,6.09743 z M 541.3738,647.07621 c 9.00294,-4.81823 17.74067,-18.36233 17.74067,-27.49932 0,-3.98854 -6.1028,-15.33492 -13.56174,-25.21423 -19.36471,-25.64839 -39.53272,-32.77483 -63.91832,-22.58589 -26.80283,11.19895 -31.82938,29.4895 -15.27706,55.58983 10.64415,16.7841 16.68631,21.0453 35.55134,25.07228 13.22409,2.82295 27.89541,0.82937 39.46511,-5.36267 z m 158.48414,1.02532 c 10.98252,-16.76147 -3.47784,-39.67329 -27.2933,-43.24463 -13.59644,-2.03877 -15.91476,-1.43055 -21.31659,5.59466 -9.09136,11.82344 -7.61313,22.0099 5.02848,34.65152 9.10388,9.10388 13.79354,11.23644 24.71005,11.23644 10.71457,0 14.57897,-1.68688 18.87136,-8.23799 z m 185.35269,-12.31136 c 11.04382,-11.04382 13.82606,-31.62573 5.54447,-41.01523 -13.67334,-15.50253 -79.28265,-28.33932 -91.78996,-17.95917 -7.81994,6.48999 -12.47319,24.49087 -8.81688,34.1077 3.86756,10.17242 22.46566,24.89537 38.34291,30.35376 6.38728,2.19583 19.92037,3.7012 30.0735,3.3456 14.71765,-0.51562 20.11988,-2.30658 26.64596,-8.83251 z M 511.91297,483.53374 c 2.93704,-2.93703 5.34026,-10.17279 5.34026,-16.0792 0,-15.55183 -27.53948,-39.72737 -53.57799,-47.03339 -39.11033,-10.97382 -63.19275,-4.92114 -63.19275,15.88232 0,8.83606 3.13521,13.85991 16.38261,26.25124 9.01038,8.4282 16.87514,15.32399 17.47722,15.32399 0.60192,0 9.21704,3.00149 19.14435,6.66976 21.24903,7.85191 50.06004,7.35155 58.4263,-1.01457 z m 116.63899,-8.32449 c 14.28219,-11.56503 0.60489,-35.91545 -21.18628,-37.71893 -10.0963,-0.83566 -25.1174,6.95076 -25.1174,13.01989 0,7.24286 9.36747,23.41663 15.69789,27.10375 8.9786,5.22955 22.48881,4.16804 30.60579,-2.40474 z"
   id="path65" /><path
   style="fill:#008fb4;stroke-width:93.2691"
   d="m 356.24382,265.04377 c -2.9337,-6.18207 -5.33382,-16.35479 -5.33382,-22.60598 0,-17.35257 17.42911,-48.47291 40.87063,-72.976 19.46465,-20.34618 22.18929,-22.06632 34.95233,-22.06632 7.61313,0 17.09043,1.73763 21.06067,3.86104 10.407,5.56644 59.31678,45.27251 64.38323,52.26779 7.8452,10.83187 1.61427,22.25401 -17.01931,31.19846 -22.44614,10.77453 -36.95366,13.02585 -55.01706,8.53769 -8.17947,-2.03247 -20.55246,-4.16537 -27.49555,-4.74011 -8.84522,-0.73231 -15.9124,-4.23238 -23.61062,-11.69379 -11.79273,-11.42999 -22.39176,-12.37696 -24.35627,-2.1762 -0.73268,3.80496 4.18234,11.58863 12.97526,20.54797 7.78519,7.93251 13.50405,14.9208 12.70858,15.52954 -25.19348,19.27889 -26.91432,19.49658 -34.11807,4.3158 z"
   id="path67" /><path
   style="fill:#008fb4;stroke-width:93.2691"
   d="m 616.65592,369.17963 c -13.45387,-8.20406 -24.49314,-22.56089 -24.49314,-31.85387 0,-19.33689 -31.52042,-106.25924 -40.22106,-110.91567 -8.14506,-4.3591 -12.65625,-1.20015 -12.65625,8.86222 0,4.49389 -2.2951,9.05139 -5.09979,10.12771 -7.85483,3.01408 -9.34639,-0.9479 -3.49932,-9.29572 2.91184,-4.1573 5.30888,-10.57395 5.32663,-14.25923 0.0593,-11.94538 15.13348,-39.52386 27.57974,-50.45182 19.46936,-17.09436 30.81822,-21.63545 49.56764,-19.83385 30.85033,2.96444 42.79838,25.22819 65.16059,121.41969 5.28203,22.72073 9.62131,48.82636 9.64287,58.01247 0.0341,14.54053 -1.35091,18.04289 -10.70153,27.0622 -18.84631,18.17846 -42.05418,22.43888 -60.60631,11.12587 z"
   id="path69" /><path
   style="fill:#008fb4;stroke-width:93.2691"
   d="m 765.6665,466.60381 c -27.32449,-12.14448 -30.67735,-25.07032 -31.11704,-119.96188 -0.28892,-61.99716 -0.19261,-61.52602 -14.57319,-71.43448 -5.79261,-3.99084 -5.80206,-4.74119 -0.23706,-18.89007 12.14629,-30.88293 24.27696,-39.53079 55.41937,-39.50808 20.60264,0.015 34.48164,7.69359 45.17249,24.99179 6.98528,11.30241 7.97863,18.19623 10.64441,73.87297 4.92432,102.84704 0.78973,137.2027 -18.10519,150.43713 -8.96271,6.27771 -33.60872,6.53489 -47.2036,0.49266 z"
   id="path71" /><path
   style="fill:#008fb4;stroke-width:93.2691"
   d="m 880.8266,506.37026 c -8.6419,-7.43345 -9.20493,-9.63839 -10.33793,-40.48421 -0.76342,-20.78515 0.57934,-40.90048 3.70047,-55.43552 5.06782,-23.60013 4.52575,-29.47113 -3.59601,-38.94638 -11.43709,-13.34326 30.24341,-45.31 53.41138,-40.96364 24.1658,4.53353 34.98152,25.08595 34.92725,66.36981 -0.10371,77.58281 -43.86418,138.91288 -78.10531,109.45994 z"
   id="path73" /><path
   style="fill:#008fb4;stroke-width:93.2691"
   d="m 702.87465,1159.6998 c -5.45294,-2.9255 -30.33357,-25.0512 -55.29024,-49.1678 C 569.72175,1035.2901 487.45469,968.13171 406.5514,913.76565 365.39803,886.11109 348.75255,868.54489 309.80368,811.66678 c -18.04803,-26.35603 -45.18176,-64.53491 -60.29713,-84.84201 -34.90618,-46.8953 -37.83988,-57.06772 -27.97905,-97.01516 10.72234,-43.43743 14.07413,-70.32542 15.17549,-121.73717 1.12495,-52.51379 1.41314,-53.19128 22.65572,-53.27696 14.97105,-0.0593 22.14502,6.60935 45.82784,42.60651 22.6436,34.4176 30.93527,62.7737 30.53014,104.40794 -0.3856,39.63843 -3.48636,48.33019 -21.23872,59.53681 -10.16068,6.41413 -13.29618,10.36729 -12.52149,15.78668 1.97098,13.78735 23.12222,11.41075 37.91288,-4.25998 5.15172,-5.45824 10.77472,-9.92409 12.49549,-9.92409 1.72096,0 15.18127,12.32683 29.91211,27.39298 43.67509,44.6691 81.64954,66.19179 202.77801,114.9278 26.082,10.49409 51.13372,22.54689 55.67036,26.78398 4.53668,4.23705 12.4893,17.02954 17.67247,28.4277 12.53723,27.5703 22.05105,40.41546 29.93389,40.41546 11.03297,0 11.08816,-9.74463 0.1815,-31.86417 -5.73309,-11.62608 -10.42375,-22.02253 -10.42375,-23.10322 0,-2.30399 10.60715,-0.38338 38.00557,6.88127 10.90595,2.89184 34.70074,6.12224 52.87731,7.17897 40.07916,2.32992 71.08607,-3.42673 103.37922,-19.19414 45.00147,-21.97201 100.15955,-90.83094 119.95873,-149.75557 l 8.88363,-26.43867 5.1774,11.89356 c 10.2733,23.59936 18.206,77.17253 21.9726,148.39084 2.0669,39.07962 5.3075,77.00259 7.2014,84.2732 1.8939,7.27065 10.2588,24.19469 18.5888,37.60903 l 15.1453,24.38972 -37.7892,37.00551 c -26.7297,26.1753 -50.89965,45.7681 -82.58628,66.9465 -68.12955,45.5358 -101.19772,60.5008 -174.4644,78.9537 -50.04836,12.6052 -57.48311,13.1907 -71.56379,5.636 z"
   id="path75" /></svg>
