<?xml version="1.0" encoding="UTF-8" standalone="no"?>
<svg
   xmlns:ooo="http://xml.openoffice.org/svg/export"
   xmlns:dc="http://purl.org/dc/elements/1.1/"
   xmlns:cc="http://creativecommons.org/ns#"
   xmlns:rdf="http://www.w3.org/1999/02/22-rdf-syntax-ns#"
   xmlns:svg="http://www.w3.org/2000/svg"
   xmlns="http://www.w3.org/2000/svg"
   xmlns:sodipodi="http://sodipodi.sourceforge.net/DTD/sodipodi-0.dtd"
   xmlns:inkscape="http://www.inkscape.org/namespaces/inkscape"
   version="1.2"
   width="12.7mm"
   height="12.7mm"
   viewBox="0 0 1270 1270"
   preserveAspectRatio="xMidYMid"
   fill-rule="evenodd"
   stroke-width="28.222"
   stroke-linejoin="round"
   xml:space="preserve"
   id="svg79"
   sodipodi:docname="icon old.svg"
   inkscape:version="1.0.1 (3bc2e813f5, 2020-09-07)"
   inkscape:export-filename="C:\Users\Formacion\Desktop\iconos Adaptable\Gris oscuro\pix_plugins\mod\certificate\icon.png"
   inkscape:export-xdpi="96"
   inkscape:export-ydpi="96"><metadata
   id="metadata83"><rdf:RDF><cc:Work
       rdf:about=""><dc:format>image/svg+xml</dc:format><dc:type
         rdf:resource="http://purl.org/dc/dcmitype/StillImage" /></cc:Work></rdf:RDF></metadata><sodipodi:namedview
   pagecolor="#ffffff"
   bordercolor="#666666"
   borderopacity="1"
   objecttolerance="10"
   gridtolerance="10"
   guidetolerance="10"
   inkscape:pageopacity="0"
   inkscape:pageshadow="2"
   inkscape:window-width="1366"
   inkscape:window-height="705"
   id="namedview81"
   showgrid="false"
   inkscape:zoom="11.208334"
   inkscape:cx="24"
   inkscape:cy="24"
   inkscape:window-x="-8"
   inkscape:window-y="-8"
   inkscape:window-maximized="1"
   inkscape:current-layer="svg79"
   inkscape:document-rotation="0" />
 <defs
   class="ClipPathGroup"
   id="defs8">
  <clipPath
   id="presentation_clip_path"
   clipPathUnits="userSpaceOnUse">
   <rect
   x="0"
   y="0"
   width="1270"
   height="1270"
   id="rect2" />
  </clipPath>
  <clipPath
   id="presentation_clip_path_shrink"
   clipPathUnits="userSpaceOnUse">
   <rect
   x="1"
   y="1"
   width="1268"
   height="1268"
   id="rect5" />
  </clipPath>
 </defs>
 <defs
   class="TextShapeIndex"
   id="defs12">
  <g
   ooo:slide="id1"
   ooo:id-list="id3"
   id="g10" />
 </defs>
 <defs
   class="EmbeddedBulletChars"
   id="defs44">
  <g
   id="bullet-char-template-57356"
   transform="scale(0.00048828125,-0.00048828125)">
   <path
   d="M 580,1141 L 1163,571 580,0 -4,571 580,1141 Z"
   id="path14" />
  </g>
  <g
   id="bullet-char-template-57354"
   transform="scale(0.00048828125,-0.00048828125)">
   <path
   d="M 8,1128 L 1137,1128 1137,0 8,0 8,1128 Z"
   id="path17" />
  </g>
  <g
   id="bullet-char-template-10146"
   transform="scale(0.00048828125,-0.00048828125)">
   <path
   d="M 174,0 L 602,739 174,1481 1456,739 174,0 Z M 1358,739 L 309,1346 659,739 1358,739 Z"
   id="path20" />
  </g>
  <g
   id="bullet-char-template-10132"
   transform="scale(0.00048828125,-0.00048828125)">
   <path
   d="M 2015,739 L 1276,0 717,0 1260,543 174,543 174,936 1260,936 717,1481 1274,1481 2015,739 Z"
   id="path23" />
  </g>
  <g
   id="bullet-char-template-10007"
   transform="scale(0.00048828125,-0.00048828125)">
   <path
   d="M 0,-2 C -7,14 -16,27 -25,37 L 356,567 C 262,823 215,952 215,954 215,979 228,992 255,992 264,992 276,990 289,987 310,991 331,999 354,1012 L 381,999 492,748 772,1049 836,1024 860,1049 C 881,1039 901,1025 922,1006 886,937 835,863 770,784 769,783 710,716 594,584 L 774,223 C 774,196 753,168 711,139 L 727,119 C 717,90 699,76 672,76 641,76 570,178 457,381 L 164,-76 C 142,-110 111,-127 72,-127 30,-127 9,-110 8,-76 1,-67 -2,-52 -2,-32 -2,-23 -1,-13 0,-2 Z"
   id="path26" />
  </g>
  <g
   id="bullet-char-template-10004"
   transform="scale(0.00048828125,-0.00048828125)">
   <path
   d="M 285,-33 C 182,-33 111,30 74,156 52,228 41,333 41,471 41,549 55,616 82,672 116,743 169,778 240,778 293,778 328,747 346,684 L 369,508 C 377,444 397,411 428,410 L 1163,1116 C 1174,1127 1196,1133 1229,1133 1271,1133 1292,1118 1292,1087 L 1292,965 C 1292,929 1282,901 1262,881 L 442,47 C 390,-6 338,-33 285,-33 Z"
   id="path29" />
  </g>
  <g
   id="bullet-char-template-9679"
   transform="scale(0.00048828125,-0.00048828125)">
   <path
   d="M 813,0 C 632,0 489,54 383,161 276,268 223,411 223,592 223,773 276,916 383,1023 489,1130 632,1184 813,1184 992,1184 1136,1130 1245,1023 1353,916 1407,772 1407,592 1407,412 1353,268 1245,161 1136,54 992,0 813,0 Z"
   id="path32" />
  </g>
  <g
   id="bullet-char-template-8226"
   transform="scale(0.00048828125,-0.00048828125)">
   <path
   d="M 346,457 C 273,457 209,483 155,535 101,586 74,649 74,723 74,796 101,859 155,911 209,963 273,989 346,989 419,989 480,963 531,910 582,859 608,796 608,723 608,648 583,586 532,535 482,483 420,457 346,457 Z"
   id="path35" />
  </g>
  <g
   id="bullet-char-template-8211"
   transform="scale(0.00048828125,-0.00048828125)">
   <path
   d="M -4,459 L 1135,459 1135,606 -4,606 -4,459 Z"
   id="path38" />
  </g>
  <g
   id="bullet-char-template-61548"
   transform="scale(0.00048828125,-0.00048828125)">
   <path
   d="M 173,740 C 173,903 231,1043 346,1159 462,1274 601,1332 765,1332 928,1332 1067,1274 1183,1159 1299,1043 1357,903 1357,740 1357,577 1299,437 1183,322 1067,206 928,148 765,148 601,148 462,206 346,322 231,437 173,577 173,740 Z"
   id="path41" />
  </g>
 </defs>
 <defs
   class="TextEmbeddedBitmaps"
   id="defs46" />
 <g
   id="g51">
  <g
   id="id2"
   class="Master_Slide">
   <g
   id="bg-id2"
   class="Background" />
   <g
   id="bo-id2"
   class="BackgroundObjects" />
  </g>
 </g>
 
<path
   style="fill:#008fb4;fill-opacity:1;stroke-width:93.2691"
   d="m 628.20518,1154.09 c -0.54377,-16.2482 -41.9039,-350.47723 -43.57811,-352.15144 -2.14249,-2.14249 -63.56272,40.22192 -161.82459,111.61769 -64.69449,47.00617 -87.53424,58.97608 -128.28907,67.23407 -48.77658,9.88338 -85.82095,0.27781 -126.09354,-32.69386 -39.86516,-32.63871 -63.90159,-82.54021 -69.441846,-144.16669 -3.204697,-35.64704 -2.965371,-39.38499 3.637606,-56.81276 9.33973,-24.65123 24.24305,-44.73285 38.10297,-51.3422 9.64416,-4.59898 12.73518,-4.73985 21.78142,-0.99271 11.55026,4.78426 22.94817,20.61735 22.96758,31.90476 0.007,3.95031 -3.6638,11.55115 -8.1568,16.89082 -11.2776,13.40263 -14.96469,24.58385 -14.96469,45.38085 0,42.5864 16.79232,84.84983 43.11687,108.51786 20.57387,18.49768 34.40719,23.28458 61.09719,21.1422 25.52816,-2.04915 49.68758,-12.71129 90.07952,-39.75412 l 30.70439,-20.55694 -2.12582,-24.78624 c -2.8648,-33.40107 -15.55731,-82.18535 -26.88425,-103.33073 -5.09563,-9.5126 -16.84566,-24.97349 -26.11115,-34.35759 -21.50102,-21.77606 -47.81894,-30.85812 -89.42051,-30.85812 -39.83861,0 -54.01749,-8.67478 -54.01749,-33.04835 0,-5.69197 1.49649,-13.1449 3.32523,-16.56207 1.82875,-3.41709 49.79022,-39.53842 106.58088,-80.26947 329.47514,-236.30409 596.32441,-414.94749 645.99188,-432.46205 53.33062,-18.806328 127.79175,5.7503 176.94495,58.35496 15.2024,16.26992 38.5098,57.93087 45.8768,82.00269 5.5485,18.13019 6.5977,28.42941 5.3868,52.87731 -1.8392,37.1332 -11.202,60.20912 -34.5671,85.19647 -17.3869,18.59402 -75.1358,65.14206 -158.85814,128.04648 -29.53695,22.19244 -53.69049,41.43036 -53.67449,42.75101 0.0198,1.76874 148.46473,99.76536 242.40573,160.02718 1.971,1.26423 2.6785,3.20411 1.5721,4.3105 -1.1064,1.10644 -37.3581,11.58041 -80.5594,23.27565 -43.2013,11.69524 -79.4324,22.13907 -80.5135,23.20846 -1.0813,1.06939 -8.70358,34.61496 -16.93876,74.54561 -8.23518,39.93062 -15.92229,72.90593 -17.08247,73.27838 -1.16014,0.37264 -44.65762,-56.57896 -96.661,-126.55881 -52.00343,-69.97982 -95.87432,-127.23605 -97.49089,-127.23605 -1.6165,0 -9.77822,4.82049 -18.13686,10.71226 l -15.1976,10.71227 4.59109,10.76916 c 2.52513,5.923 40.60307,93.30732 84.61772,194.18734 44.01465,100.88001 80.76932,185.19822 81.67706,187.37392 0.90789,2.1754 -39.50242,-15.2987 -89.80044,-38.8318 -50.29799,-23.5331 -92.43956,-42.78657 -93.64782,-42.78546 -1.2083,10e-4 -22.66757,33.83436 -47.68736,75.18496 -55.38926,91.5428 -58.52347,96.3483 -58.73405,90.0547 z m 64.56741,-221.42521 c 8.52451,-14.54049 16.66982,-26.43723 18.10074,-26.43723 1.43092,0 18.02029,7.41452 36.86527,16.47665 18.84499,9.06217 35.97306,16.49806 38.06239,16.52418 3.09965,0.037 -87.03202,-211.52344 -92.40336,-216.89478 -3.18966,-3.18965 -45.24114,29.81951 -45.24114,35.51307 0,6.91446 18.98363,174.54989 21.76357,192.18398 1.07569,6.82393 3.1704,11.65661 4.6547,10.73923 1.48426,-0.91752 9.67335,-13.56465 18.19783,-28.1051 z M 505.60601,774.78587 c 26.11256,-18.88421 57.71503,-40.89707 70.2277,-48.91748 l 22.75029,-14.5826 v -24.11357 c 0,-74.43252 -50.23639,-149.38474 -119.996,-179.03297 l -21.62055,-9.18885 -76.01598,53.81591 -76.01602,53.81595 28.97288,14.16318 c 56.7119,27.7232 93.49546,83.11083 109.48268,164.85575 5.42442,27.73598 5.87474,28.84286 10.58325,26.01477 2.28473,-1.3724 25.51919,-17.94591 51.63175,-36.83009 z m 439.34935,-40.15646 c 2.06396,-11.67557 5.20432,-22.12528 6.97832,-23.22168 1.77392,-1.09643 16.68801,-5.61126 33.14229,-10.03318 16.45433,-4.42185 29.85363,-8.84385 29.77613,-9.8266 -0.078,-0.98271 -33.63924,-23.66651 -74.58177,-50.40826 l -74.44093,-48.62137 -16.09823,12.2682 c -8.85404,6.74751 -15.81776,13.345 -15.47494,14.66105 1.69169,6.49452 103.28909,140.76937 104.98331,138.7499 1.07976,-1.28683 3.65156,-11.89249 5.71582,-23.56806 z m -253.00984,-94.13588 35.52696,-25.52944 -0.0482,-25.39333 c -0.10371,-53.45075 -18.66866,-97.86204 -57.61683,-137.82492 -22.587,-23.17557 -60.95832,-51.15762 -70.15143,-51.15762 -4.72329,0 -110.18744,72.68297 -110.05427,75.84637 0.0407,0.99938 10.82409,7.76586 23.96003,15.03651 14.94828,8.27373 33.81411,23.11048 50.4276,39.65799 37.75957,37.6097 56.43505,75.9872 69.69589,143.2229 l 1.52353,7.72478 10.60521,-8.02686 c 5.83288,-4.41484 26.59236,-19.51518 46.13217,-33.55638 z m 114.53339,-84.81904 c 45.39426,-33.03402 45.76064,-33.4048 47.81342,-48.38131 8.85781,-64.62459 -17.2682,-122.05136 -80.69072,-177.36409 -34.86632,-30.40798 -27.76817,-31.29957 -90.43678,11.3595 -30.16055,20.53053 -54.83733,38.34249 -54.83733,39.58213 0,1.23941 8.77713,7.6714 19.50477,14.29286 31.37255,19.36423 63.12833,56.08749 82.6244,95.54905 16.48224,33.36132 26.61517,66.55947 26.71045,87.51031 0.0264,5.9074 0.84047,10.74071 1.808,10.74071 0.96753,0 22.34424,-14.98009 47.5039,-33.28916 z M 970.37769,436.8076 C 1096.0683,341.51239 1104.846,332.95932 1109.1625,301.57507 c 6.1659,-44.83172 -31.8213,-105.69325 -80.1693,-128.44376 -29.4282,-13.84769 -52.36232,-16.14031 -72.47224,-7.24475 -20.56265,9.09584 -68.84476,38.7391 -135.52502,83.2068 l -53.54158,35.70583 40.35909,40.54415 c 32.62363,32.77316 43.00044,45.61151 54.14002,66.98277 14.74784,28.29369 22.74573,54.53641 25.9491,85.14405 1.3935,13.31441 3.16372,18.35726 5.8811,16.75439 2.13842,-1.26127 36.60554,-27.09883 76.59402,-57.41695 z"
   id="path63" /></svg>
