<?xml version="1.0" encoding="UTF-8" standalone="no"?>
<svg
   xmlns:ooo="http://xml.openoffice.org/svg/export"
   xmlns:dc="http://purl.org/dc/elements/1.1/"
   xmlns:cc="http://creativecommons.org/ns#"
   xmlns:rdf="http://www.w3.org/1999/02/22-rdf-syntax-ns#"
   xmlns:svg="http://www.w3.org/2000/svg"
   xmlns="http://www.w3.org/2000/svg"
   xmlns:sodipodi="http://sodipodi.sourceforge.net/DTD/sodipodi-0.dtd"
   xmlns:inkscape="http://www.inkscape.org/namespaces/inkscape"
   version="1.2"
   width="12.96mm"
   height="12.96mm"
   viewBox="0 0 1296 1296"
   preserveAspectRatio="xMidYMid"
   fill-rule="evenodd"
   stroke-width="28.222"
   stroke-linejoin="round"
   xml:space="preserve"
   id="svg70"
   sodipodi:docname="icon.svg"
   inkscape:export-filename="C:\Users\Formacion\Desktop\iconos Adaptable\Gris oscuro\pix_plugins\mod\hvp\icon.png"
   inkscape:export-xdpi="94.07"
   inkscape:export-ydpi="94.07"
   inkscape:version="1.0.1 (3bc2e813f5, 2020-09-07)"><metadata
   id="metadata74"><rdf:RDF><cc:Work
       rdf:about=""><dc:format>image/svg+xml</dc:format><dc:type
         rdf:resource="http://purl.org/dc/dcmitype/StillImage" /></cc:Work></rdf:RDF></metadata><sodipodi:namedview
   pagecolor="#ffffff"
   bordercolor="#666666"
   borderopacity="1"
   objecttolerance="10"
   gridtolerance="10"
   guidetolerance="10"
   inkscape:pageopacity="0"
   inkscape:pageshadow="2"
   inkscape:window-width="1366"
   inkscape:window-height="705"
   id="namedview72"
   showgrid="false"
   inkscape:zoom="10.983475"
   inkscape:cx="24.491339"
   inkscape:cy="24.491339"
   inkscape:window-x="-8"
   inkscape:window-y="-8"
   inkscape:window-maximized="1"
   inkscape:current-layer="svg70"
   inkscape:document-rotation="0" />
 <defs
   class="ClipPathGroup"
   id="defs8">
  <clipPath
   id="presentation_clip_path"
   clipPathUnits="userSpaceOnUse">
   <rect
   x="0"
   y="0"
   width="1296"
   height="1296"
   id="rect2" />
  </clipPath>
  <clipPath
   id="presentation_clip_path_shrink"
   clipPathUnits="userSpaceOnUse">
   <rect
   x="1"
   y="1"
   width="1294"
   height="1294"
   id="rect5" />
  </clipPath>
 </defs>
 <defs
   class="TextShapeIndex"
   id="defs12">
  <g
   ooo:slide="id1"
   ooo:id-list="id3"
   id="g10" />
 </defs>
 <defs
   class="EmbeddedBulletChars"
   id="defs44">
  <g
   id="bullet-char-template-57356"
   transform="scale(0.00048828125,-0.00048828125)">
   <path
   d="M 580,1141 L 1163,571 580,0 -4,571 580,1141 Z"
   id="path14" />
  </g>
  <g
   id="bullet-char-template-57354"
   transform="scale(0.00048828125,-0.00048828125)">
   <path
   d="M 8,1128 L 1137,1128 1137,0 8,0 8,1128 Z"
   id="path17" />
  </g>
  <g
   id="bullet-char-template-10146"
   transform="scale(0.00048828125,-0.00048828125)">
   <path
   d="M 174,0 L 602,739 174,1481 1456,739 174,0 Z M 1358,739 L 309,1346 659,739 1358,739 Z"
   id="path20" />
  </g>
  <g
   id="bullet-char-template-10132"
   transform="scale(0.00048828125,-0.00048828125)">
   <path
   d="M 2015,739 L 1276,0 717,0 1260,543 174,543 174,936 1260,936 717,1481 1274,1481 2015,739 Z"
   id="path23" />
  </g>
  <g
   id="bullet-char-template-10007"
   transform="scale(0.00048828125,-0.00048828125)">
   <path
   d="M 0,-2 C -7,14 -16,27 -25,37 L 356,567 C 262,823 215,952 215,954 215,979 228,992 255,992 264,992 276,990 289,987 310,991 331,999 354,1012 L 381,999 492,748 772,1049 836,1024 860,1049 C 881,1039 901,1025 922,1006 886,937 835,863 770,784 769,783 710,716 594,584 L 774,223 C 774,196 753,168 711,139 L 727,119 C 717,90 699,76 672,76 641,76 570,178 457,381 L 164,-76 C 142,-110 111,-127 72,-127 30,-127 9,-110 8,-76 1,-67 -2,-52 -2,-32 -2,-23 -1,-13 0,-2 Z"
   id="path26" />
  </g>
  <g
   id="bullet-char-template-10004"
   transform="scale(0.00048828125,-0.00048828125)">
   <path
   d="M 285,-33 C 182,-33 111,30 74,156 52,228 41,333 41,471 41,549 55,616 82,672 116,743 169,778 240,778 293,778 328,747 346,684 L 369,508 C 377,444 397,411 428,410 L 1163,1116 C 1174,1127 1196,1133 1229,1133 1271,1133 1292,1118 1292,1087 L 1292,965 C 1292,929 1282,901 1262,881 L 442,47 C 390,-6 338,-33 285,-33 Z"
   id="path29" />
  </g>
  <g
   id="bullet-char-template-9679"
   transform="scale(0.00048828125,-0.00048828125)">
   <path
   d="M 813,0 C 632,0 489,54 383,161 276,268 223,411 223,592 223,773 276,916 383,1023 489,1130 632,1184 813,1184 992,1184 1136,1130 1245,1023 1353,916 1407,772 1407,592 1407,412 1353,268 1245,161 1136,54 992,0 813,0 Z"
   id="path32" />
  </g>
  <g
   id="bullet-char-template-8226"
   transform="scale(0.00048828125,-0.00048828125)">
   <path
   d="M 346,457 C 273,457 209,483 155,535 101,586 74,649 74,723 74,796 101,859 155,911 209,963 273,989 346,989 419,989 480,963 531,910 582,859 608,796 608,723 608,648 583,586 532,535 482,483 420,457 346,457 Z"
   id="path35" />
  </g>
  <g
   id="bullet-char-template-8211"
   transform="scale(0.00048828125,-0.00048828125)">
   <path
   d="M -4,459 L 1135,459 1135,606 -4,606 -4,459 Z"
   id="path38" />
  </g>
  <g
   id="bullet-char-template-61548"
   transform="scale(0.00048828125,-0.00048828125)">
   <path
   d="M 173,740 C 173,903 231,1043 346,1159 462,1274 601,1332 765,1332 928,1332 1067,1274 1183,1159 1299,1043 1357,903 1357,740 1357,577 1299,437 1183,322 1067,206 928,148 765,148 601,148 462,206 346,322 231,437 173,577 173,740 Z"
   id="path41" />
  </g>
 </defs>
 <defs
   class="TextEmbeddedBitmaps"
   id="defs46" />
 <g
   id="g51">
  <g
   id="id2"
   class="Master_Slide">
   <g
   id="bg-id2"
   class="Background" />
   <g
   id="bo-id2"
   class="BackgroundObjects" />
  </g>
 </g>
 
<path
   style="fill:#008fb4;stroke-width:81.5816"
   d="M 86.962103,886.00135 C 85.902161,884.94153 85.034974,776.97356 85.034974,646.07276 V 408.07127 h 49.040276 49.04027 l 0.82454,106.81459 c 0.63977,82.90829 1.66561,107.65501 4.58232,110.56953 2.95815,2.95592 28.69079,3.75491 120.92,3.75491 112.64138,0 117.32041,-0.2159 121.26513,-5.61124 3.36521,-4.60219 4.10305,-24.48522 4.10305,-110.5695 V 408.07127 h 33.6056 33.60562 l -1.30968,23.84831 c -1.18206,21.52111 -2.13424,24.71192 -9.75729,32.6979 -4.64613,4.86724 -10.53893,9.63349 -13.09519,10.59167 -6.94198,2.60223 -8.36047,15.01658 -8.36047,73.16864 v 52.86264 l -11.39641,1.92532 c -17.14341,2.89623 -18.83359,6.68067 -19.89919,44.55449 -1.26269,44.88564 -1.34969,44.77711 36.84,46.07906 22.15001,0.75501 29.14406,1.93643 29.14406,4.92271 0,2.1609 1.49257,7.2048 3.3166,11.20832 5.48628,12.04106 18.89211,14.67316 74.73249,14.67316 58.87516,0 67.6882,-2.51206 71.01436,-20.24211 l 1.89675,-10.11028 h 32.74431 32.74429 l 1.80625,12.2855 c 0.99346,6.75704 1.39827,21.39121 0.8998,32.52045 l -0.90646,20.23494 -11.52617,0.93821 c -13.60272,1.10712 -18.80251,4.72586 -18.89052,13.14672 l -0.0635,6.15017 -4.9945,-6.35565 c -6.59359,-8.39061 -15.88088,-11.58996 -40.76084,-14.04157 -20.15287,-1.98596 -20.60245,-2.20662 -20.60245,-10.12221 0,-10.3526 -6.1815,-16.44803 -19.147,-18.88033 -23.99836,-4.50215 -57.50302,5.88769 -63.84051,19.79698 -3.11976,6.84711 -4.15411,7.03393 -48.98898,8.84882 -58.19251,2.35553 -57.36114,1.69799 -55.08358,43.57859 1.7545,32.26263 6.23839,41.74341 21.86133,46.224 7.1929,2.06279 9.10885,4.18874 9.14006,10.14126 0.0826,15.98511 3.01879,20.23945 16.89869,24.49595 l 13.41428,4.11369 -32.40215,0.30163 -32.40211,0.30162 -0.84106,-89.8705 -0.84106,-89.8705 -6.82434,-5.52278 c -6.44963,-5.21961 -12.79833,-5.52066 -115.62826,-5.48336 -59.84215,0.0231 -111.70999,0.81852 -115.26187,1.77038 -10.63107,2.84957 -12.29829,17.18174 -12.3155,105.86892 l -0.0161,83.10781 h -47.21572 c -25.96818,0 -48.082081,-0.86709 -49.142007,-1.92722 z"
   id="path49" /><path
   style="fill:#008fb4;stroke-width:81.5816"
   d="m 892.96156,884.02266 c 16.67056,-3.87173 17.89643,-6.60162 18.47339,-41.13829 l 0.34195,-20.47313 13.62173,-2.65239 c 12.89161,-2.51048 13.7542,-3.27229 16.09284,-14.21534 2.9864,-13.97403 1.17284,-153.96387 -2.08915,-161.26142 -1.26937,-2.83972 -8.0044,-6.68683 -14.96673,-8.549 -11.42054,-3.05467 -12.66266,-4.24603 -12.69829,-12.18095 -0.0825,-18.07849 -2.2987,-20.98529 -17.55311,-23.00888 -13.84313,-1.83642 -14.20517,-2.1336 -14.20517,-11.66587 0,-16.70999 -2.06343,-18.92643 -17.61935,-18.92643 h -14.11011 l -1.86595,-11.66968 c -3.21341,-20.09565 -2.98608,-20.04946 -102.1882,-20.76158 -87.9194,-0.63119 -87.78913,-0.63913 35.19043,-2.16789 95.67031,-1.18935 124.28099,-2.37839 127.19107,-5.28599 2.77178,-2.76956 3.98704,-19.22593 4.64261,-62.87284 l 0.88805,-59.12142 h 128.47113 128.4711 v 8.35186 c 0,4.59353 2.4038,11.32044 5.3418,14.94867 4.629,5.71668 8.6785,6.77192 30.3524,7.90952 l 25.0106,1.31255 v 9.92026 c 0,13.77362 5.7561,36.07882 10.8247,41.94629 2.3256,2.69208 7.9959,5.72239 12.6007,6.73376 l 8.3724,1.83896 v 50.08337 50.08337 l -12.2855,3.88769 c -11.1244,3.52025 -12.6051,5.11712 -15.6662,16.89586 -1.8596,7.15451 -3.4855,19.05933 -3.6134,26.45521 l -0.2318,13.44701 -18.0669,1.95866 c -28.9908,3.14293 -38.425,6.41582 -42.1669,14.62849 -1.8488,4.058 -3.3617,9.07736 -3.3617,11.15406 0,5.39776 -31.3712,7.50659 -112.451,7.5592 -37.8809,0.026 -70.1465,1.26207 -72.55426,2.78257 -3.67516,2.32093 -4.47418,16.85313 -5.24227,95.34906 l -0.90615,92.61085 -48.23577,-0.27623 c -43.30433,-0.24765 -46.76073,-0.62008 -33.80804,-3.62836 z M 1120.8519,626.50857 c 9.0048,-4.13188 11.4366,-15.97019 12.8057,-62.33916 1.0744,-36.38496 0.4067,-47.94561 -3.5521,-61.51121 -7.6588,-26.24344 -8.3858,-26.48109 -84.4787,-27.61818 l -64.43336,-0.96298 -3.09657,8.14467 c -1.98216,5.2137 -2.76956,32.38633 -2.1879,75.50775 0.75502,55.9696 1.64211,67.84845 5.24485,70.23275 5.22154,3.45573 131.87088,2.13773 139.69798,-1.45383 z"
   id="path51" /></svg>
