<?xml version="1.0" encoding="UTF-8" standalone="no"?>
<svg
   xmlns:ooo="http://xml.openoffice.org/svg/export"
   xmlns:dc="http://purl.org/dc/elements/1.1/"
   xmlns:cc="http://creativecommons.org/ns#"
   xmlns:rdf="http://www.w3.org/1999/02/22-rdf-syntax-ns#"
   xmlns:svg="http://www.w3.org/2000/svg"
   xmlns="http://www.w3.org/2000/svg"
   xmlns:sodipodi="http://sodipodi.sourceforge.net/DTD/sodipodi-0.dtd"
   xmlns:inkscape="http://www.inkscape.org/namespaces/inkscape"
   version="1.2"
   width="12.96mm"
   height="12.96mm"
   viewBox="0 0 1296 1296"
   preserveAspectRatio="xMidYMid"
   fill-rule="evenodd"
   stroke-width="28.222"
   stroke-linejoin="round"
   xml:space="preserve"
   id="svg72"
   sodipodi:docname="icon.svg"
   inkscape:version="1.0.1 (3bc2e813f5, 2020-09-07)"
   inkscape:export-filename="C:\Users\Formacion\Desktop\iconos Adaptable\Gris oscuro\pix_plugins\mod\attendance\icon.png"
   inkscape:export-xdpi="94.074074"
   inkscape:export-ydpi="94.074074"><metadata
   id="metadata76"><rdf:RDF><cc:Work
       rdf:about=""><dc:format>image/svg+xml</dc:format><dc:type
         rdf:resource="http://purl.org/dc/dcmitype/StillImage" /><dc:title /></cc:Work></rdf:RDF></metadata><sodipodi:namedview
   pagecolor="#ffffff"
   bordercolor="#666666"
   borderopacity="1"
   objecttolerance="10"
   gridtolerance="10"
   guidetolerance="10"
   inkscape:pageopacity="0"
   inkscape:pageshadow="2"
   inkscape:window-width="1366"
   inkscape:window-height="705"
   id="namedview74"
   showgrid="false"
   inkscape:zoom="5.4917375"
   inkscape:cx="22.752517"
   inkscape:cy="24.491339"
   inkscape:window-x="-8"
   inkscape:window-y="-8"
   inkscape:window-maximized="1"
   inkscape:current-layer="svg72"
   inkscape:document-rotation="0" />
 <defs
   class="ClipPathGroup"
   id="defs8">
  <clipPath
   id="presentation_clip_path"
   clipPathUnits="userSpaceOnUse">
   <rect
   x="0"
   y="0"
   width="1296"
   height="1296"
   id="rect2" />
  </clipPath>
  <clipPath
   id="presentation_clip_path_shrink"
   clipPathUnits="userSpaceOnUse">
   <rect
   x="1"
   y="1"
   width="1294"
   height="1294"
   id="rect5" />
  </clipPath>
 </defs>
 <defs
   class="TextShapeIndex"
   id="defs12">
  <g
   ooo:slide="id1"
   ooo:id-list="id3"
   id="g10" />
 </defs>
 <defs
   class="EmbeddedBulletChars"
   id="defs44">
  <g
   id="bullet-char-template-57356"
   transform="scale(0.00048828125,-0.00048828125)">
   <path
   d="M 580,1141 L 1163,571 580,0 -4,571 580,1141 Z"
   id="path14" />
  </g>
  <g
   id="bullet-char-template-57354"
   transform="scale(0.00048828125,-0.00048828125)">
   <path
   d="M 8,1128 L 1137,1128 1137,0 8,0 8,1128 Z"
   id="path17" />
  </g>
  <g
   id="bullet-char-template-10146"
   transform="scale(0.00048828125,-0.00048828125)">
   <path
   d="M 174,0 L 602,739 174,1481 1456,739 174,0 Z M 1358,739 L 309,1346 659,739 1358,739 Z"
   id="path20" />
  </g>
  <g
   id="bullet-char-template-10132"
   transform="scale(0.00048828125,-0.00048828125)">
   <path
   d="M 2015,739 L 1276,0 717,0 1260,543 174,543 174,936 1260,936 717,1481 1274,1481 2015,739 Z"
   id="path23" />
  </g>
  <g
   id="bullet-char-template-10007"
   transform="scale(0.00048828125,-0.00048828125)">
   <path
   d="M 0,-2 C -7,14 -16,27 -25,37 L 356,567 C 262,823 215,952 215,954 215,979 228,992 255,992 264,992 276,990 289,987 310,991 331,999 354,1012 L 381,999 492,748 772,1049 836,1024 860,1049 C 881,1039 901,1025 922,1006 886,937 835,863 770,784 769,783 710,716 594,584 L 774,223 C 774,196 753,168 711,139 L 727,119 C 717,90 699,76 672,76 641,76 570,178 457,381 L 164,-76 C 142,-110 111,-127 72,-127 30,-127 9,-110 8,-76 1,-67 -2,-52 -2,-32 -2,-23 -1,-13 0,-2 Z"
   id="path26" />
  </g>
  <g
   id="bullet-char-template-10004"
   transform="scale(0.00048828125,-0.00048828125)">
   <path
   d="M 285,-33 C 182,-33 111,30 74,156 52,228 41,333 41,471 41,549 55,616 82,672 116,743 169,778 240,778 293,778 328,747 346,684 L 369,508 C 377,444 397,411 428,410 L 1163,1116 C 1174,1127 1196,1133 1229,1133 1271,1133 1292,1118 1292,1087 L 1292,965 C 1292,929 1282,901 1262,881 L 442,47 C 390,-6 338,-33 285,-33 Z"
   id="path29" />
  </g>
  <g
   id="bullet-char-template-9679"
   transform="scale(0.00048828125,-0.00048828125)">
   <path
   d="M 813,0 C 632,0 489,54 383,161 276,268 223,411 223,592 223,773 276,916 383,1023 489,1130 632,1184 813,1184 992,1184 1136,1130 1245,1023 1353,916 1407,772 1407,592 1407,412 1353,268 1245,161 1136,54 992,0 813,0 Z"
   id="path32" />
  </g>
  <g
   id="bullet-char-template-8226"
   transform="scale(0.00048828125,-0.00048828125)">
   <path
   d="M 346,457 C 273,457 209,483 155,535 101,586 74,649 74,723 74,796 101,859 155,911 209,963 273,989 346,989 419,989 480,963 531,910 582,859 608,796 608,723 608,648 583,586 532,535 482,483 420,457 346,457 Z"
   id="path35" />
  </g>
  <g
   id="bullet-char-template-8211"
   transform="scale(0.00048828125,-0.00048828125)">
   <path
   d="M -4,459 L 1135,459 1135,606 -4,606 -4,459 Z"
   id="path38" />
  </g>
  <g
   id="bullet-char-template-61548"
   transform="scale(0.00048828125,-0.00048828125)">
   <path
   d="M 173,740 C 173,903 231,1043 346,1159 462,1274 601,1332 765,1332 928,1332 1067,1274 1183,1159 1299,1043 1357,903 1357,740 1357,577 1299,437 1183,322 1067,206 928,148 765,148 601,148 462,206 346,322 231,437 173,577 173,740 Z"
   id="path41" />
  </g>
 </defs>
 <defs
   class="TextEmbeddedBitmaps"
   id="defs46" />
 <g
   id="g51">
  <g
   id="id2"
   class="Master_Slide">
   <g
   id="bg-id2"
   class="Background" />
   <g
   id="bo-id2"
   class="BackgroundObjects" />
  </g>
 </g>
 
<path
   style="fill:#4d4d4d;stroke-width:95.1786"
   d="m 617.0299,909.57229 c -11.6259,-7.89999 -23.14015,-28.46745 -23.14015,-41.33436 0,-11.65027 14.31245,-34.9737 24.79591,-40.40719 27.75591,-14.38562 46.32405,-11.44755 65.47089,10.35948 9.51641,10.83861 10.90792,14.83129 10.90792,31.29854 0,17.78959 -0.84715,19.72235 -14.73247,33.60753 -13.75695,13.75694 -15.93822,14.73247 -32.94205,14.73247 -13.76372,0 -21.17609,-2.01581 -30.36005,-8.25647 z"
   id="path80" /><path
   style="fill:#4d4d4d;stroke-width:95.1786"
   d="m 281.79004,911.54572 c -22.03398,-13.43672 -29.67289,-38.16418 -19.14339,-61.9679 20.40729,-46.13402 89.56001,-36.14874 94.34238,13.62256 1.89653,19.73854 -4.30724,33.62127 -20.5665,46.02282 -14.07375,10.73457 -39.09392,11.79822 -54.63249,2.32252 z"
   id="path82" /><path
   style="fill:#4d4d4d;stroke-width:95.1786"
   d="m 958.93103,911.10199 c -43.2447,-26.36659 -24.62304,-91.02078 26.22787,-91.06286 38.793,-0.0321 63.2405,44.07099 42.2163,76.15793 -13.7576,20.99684 -46.69019,28.16852 -68.44417,14.90493 z"
   id="path84" /><path
   style="fill:#4d4d4d;stroke-width:95.1786"
   d="M 310.60053,411.95517 V 209.60574 H 647.8496 985.09867 V 411.95517 614.30461 H 647.8496 310.60053 Z M 614.12468,563.71725 V 543.48231 H 494.40128 374.67783 v 20.23494 20.23493 h 119.72345 119.7234 z m 0,-69.13605 V 476.03248 H 494.40128 374.67783 v 18.54872 18.54869 h 119.72345 119.7234 z m 236.00709,12.87428 c 22.78718,-7.35944 47.74578,-29.864 59.29074,-53.46098 18.4169,-37.64282 9.52568,-87.95333 -20.81319,-117.77061 -20.71266,-20.35658 -38.55319,-27.05816 -72.1352,-27.09675 -33.03365,-0.0371 -51.15087,6.86945 -72.56448,27.66608 -28.09684,27.28734 -38.2047,77.79306 -22.61993,113.02491 12.28612,27.77491 38.83537,51.19199 68.20448,60.15803 14.73114,4.49727 42.47935,3.34375 60.63758,-2.52068 z M 614.12468,427.13136 V 408.58268 H 494.40128 374.67783 v 18.54868 18.54873 h 119.72345 119.7234 z m -55.81427,-106.74545 49.43822,-51.09938 -12.72485,-13.03145 -12.72489,-13.03148 -38.04283,37.93489 -38.04279,37.93489 -32.94245,-32.81884 -32.94245,-32.81881 -40.35889,40.46432 -40.35894,40.46435 12.58091,12.58087 12.5809,12.58091 27.02023,-26.8618 27.02027,-26.86177 32.83132,32.83133 c 18.05722,18.05725 33.8206,32.83132 35.02968,32.83132 1.20904,0 24.44553,-22.99469 51.63656,-51.09935 z"
   id="path86" /><path
   style="fill:#4d4d4d;stroke-width:95.1786"
   d="m 787.41645,469.58052 c -32.02896,-14.54493 -46.03616,-55.92528 -29.78035,-87.97777 10.17409,-20.06081 37.61537,-37.09742 59.75376,-37.09742 6.18744,0 19.15799,3.94079 28.82342,8.75728 27.75732,13.83207 41.90839,43.90208 34.23328,72.74343 -10.92996,41.07243 -54.05716,61.27284 -93.03011,43.57448 z"
   id="path88"
   inkscape:export-xdpi="1297.9113"
   inkscape:export-ydpi="1297.9113" /><path
   style="fill:#008080;fill-opacity:0;stroke-width:95.1786"
   d="m 108.2511,1144.2459 c 0,-21.5046 7.48045,-47.6227 22.20562,-77.5311 19.0156,-38.6228 49.09851,-70.75924 82.34159,-87.9625 12.05665,-6.2393 22.51344,-11.83607 23.23727,-12.43729 0.7238,-0.60119 -4.38269,-7.40097 -11.34786,-15.1106 -21.42657,-23.71663 -30.28008,-47.2143 -30.36509,-80.59051 -0.063,-24.8767 1.21719,-31.29384 9.68699,-48.54362 12.84475,-26.16001 31.36606,-44.15074 58.86598,-57.17974 19.11391,-9.05584 26.17194,-10.60674 47.72493,-10.48665 32.50299,0.18151 57.07295,10.96352 82.16894,36.05947 25.19385,25.19389 33.63005,48.29204 31.73711,86.89553 -1.60427,32.71998 -8.3396,49.05983 -29.83336,72.37782 -13.62918,14.78592 -15.69737,18.67941 -9.92228,18.67941 9.65106,0 53.90122,31.31862 72.40453,51.24518 l 20.96625,22.579 12.69459,-16.6463 c 14.50296,-19.0175 47.41759,-45.02251 68.50541,-54.12431 7.88321,-3.40265 14.33309,-7.56713 14.33309,-9.25479 0,-1.68762 -5.04581,-8.57722 -11.21296,-15.31013 -22.01371,-24.03338 -27.5707,-40.08987 -27.5707,-79.66337 0,-32.85062 0.71453,-36.70073 9.88083,-53.24621 12.6115,-22.76399 34.38107,-42.80527 58.48205,-53.83902 53.84087,-24.64919 121.83559,2.2751 149.81376,59.32286 5.56688,11.35086 8.03648,23.22705 8.88018,42.70367 1.475,34.05047 -6.8843,58.3391 -28.26112,82.11526 -8.24722,9.17289 -14.99495,17.51334 -14.99495,18.53435 0,1.02087 7.96751,5.84766 17.70558,10.7259 25.77656,12.91265 51.46725,33.29359 65.26671,51.77739 l 12.07585,16.1751 27.51384,-27.283 c 17.93769,-17.78715 34.55658,-30.72229 47.74878,-37.16468 11.12925,-5.43494 20.83627,-10.33167 21.57118,-10.88159 0.73491,-0.55006 -5.09138,-7.97296 -12.94736,-16.49569 -19.15958,-20.78567 -27.92375,-41.73929 -29.84017,-71.34236 -3.65009,-56.38201 28.77759,-102.07016 84.78519,-119.45637 28.48808,-8.84344 48.5079,-7.15186 77.8473,6.57767 28.7555,13.45635 43.7518,27.73777 56.6484,53.94775 10.0207,20.36521 11.0216,25.19896 10.9391,52.82823 -0.078,26.49983 -1.3012,32.79795 -9.5018,48.9606 -5.1761,10.20179 -14.9012,24.21191 -21.6113,31.13363 -6.7101,6.92172 -11.54,13.19176 -10.7331,13.93337 0.8068,0.74157 11.3316,6.27767 23.3883,12.30228 55.2541,27.60996 104.5472,104.79076 104.5472,163.69486 v 11.6377 h -29.8648 -29.8646 l -2.0581,-22.0394 c -4.2894,-45.9345 -33.6779,-85.7896 -78.8457,-106.9261 -83.24517,-38.95514 -185.25862,17.9886 -192.43715,107.4181 l -1.72947,21.5474 h -30.97795 -30.97798 l -3.69046,-23.8418 c -7.36581,-47.5873 -35.07413,-85.1862 -77.63545,-105.3477 -21.08319,-9.9872 -25.30835,-10.7688 -58.2152,-10.7688 -33.57668,0 -36.74,0.6193 -58.90799,11.5325 -43.13213,21.2339 -69.44579,57.0667 -76.80078,104.584 l -3.69046,23.8418 h -30.97799 -30.97794 l -1.7743,-22.1023 c -2.48846,-31.0018 -17.28408,-59.7892 -42.93477,-83.5372 -28.32591,-26.2248 -49.55197,-34.0473 -92.80041,-34.1998 -30.99677,-0.1112 -35.54719,0.7441 -56.25181,10.5533 -43.88926,20.7929 -70.37906,56.5834 -78.08083,105.4955 l -3.74588,23.7905 H 139.54334 108.2511 Z M 337.58216,913.61316 c 43.05271,-29.3873 23.63381,-96.95912 -27.8643,-96.95912 -30.57815,0 -56.44964,23.64151 -56.44964,51.58389 0,16.19173 10.41271,36.17512 23.22834,44.57828 16.88697,11.07272 45.48491,11.44584 61.0856,0.79677 z m 336.43508,0.86122 c 32.96816,-20.10092 33.00813,-67.79336 0.0778,-92.18623 -6.54034,-4.84464 -13.96723,-6.68031 -25.92528,-6.40794 -60.02009,1.3672 -77.98856,72.49813 -25.61338,101.39452 11.23092,6.19629 39.20208,4.67421 51.46132,-2.80035 z m 340.59086,-0.53933 c 12.8748,-7.9571 24.2572,-28.86953 24.3763,-44.78582 0.3075,-41.15614 -50.77241,-67.29685 -85.45278,-43.73094 -30.18248,20.50952 -29.71653,67.69427 0.87011,88.12757 15.56698,10.39941 43.71494,10.58136 60.20627,0.3893 z"
   id="path55" /><path
   style="fill:#008080;fill-opacity:0;stroke-width:95.1786"
   d="m 551.73363,1527.8678 c -51.35694,-5.5019 -128.27811,-22.567 -181.72686,-40.3162 C 259.22433,1450.7628 127.15627,1372.9339 46.416977,1296.8573 -79.286602,1178.413 -169.20139,1027.438 -210.43671,865.5769 c -22.26835,-87.41004 -23.65018,-100.39996 -23.32138,-219.23362 0.26197,-94.68535 1.17549,-112.67579 7.44923,-146.70334 47.88616,-259.72508 199.854671,-480.282658 422.24473,-612.81957 108.65532,-64.75487 239.52956,-108.78268 354.84916,-119.37588 62.1518,-5.70923 196.65517,-2.04046 244.96276,6.68171 137.791,24.87883 263.85671,79.31494 379.89661,164.042224 168.9992,123.395895 291.3536,314.261366 337.2309,526.060356 23.8921,110.30156 24.6634,241.56389 2.1032,357.94377 -35.8682,185.03075 -143.2973,367.90885 -290.2087,494.02665 -128.5328,110.3405 -281.92826,181.1565 -448.76555,207.1758 -42.36248,6.6066 -178.99019,9.3437 -224.27062,4.4928 z m -374.296,-383.239 c 9.64824,-59.7458 34.79464,-94.9811 83.79499,-117.4142 17.41255,-7.9717 22.49403,-8.7216 52.03795,-7.6796 27.97601,0.9868 35.51114,2.5585 51.77384,10.7989 10.46801,5.3043 26.17945,16.6864 34.91444,25.2937 25.39832,25.027 35.65123,46.6713 40.56258,85.6287 l 2.01951,16.0193 h 36.40307 36.40307 l 2.07767,-22.2514 c 1.16385,-12.4638 5.75905,-30.2921 10.44675,-40.5314 10.81831,-23.6304 38.73484,-51.3563 64.33178,-63.8928 18.48127,-9.0514 23.30384,-9.9103 55.6461,-9.9103 31.36103,0 37.61678,1.0339 54.69528,9.0385 45.10312,21.1398 69.15716,56.3508 78.49333,114.9006 l 2.01655,12.6468 h 34.83676 34.83676 l 2.10767,-10.539 c 1.1594,-5.7965 2.10767,-14.0865 2.10767,-18.4222 0,-30.2844 36.74052,-79.3335 73.12058,-97.6171 16.81459,-8.4506 24.32923,-10.0382 52.50838,-11.094 30.90124,-1.1579 34.20974,-0.6123 54.83174,9.0378 27.4519,12.8463 55.1421,38.707 66.6836,62.2777 7.0537,14.4056 15.7381,49.3016 15.8845,63.8274 0.014,1.3913 15.2017,2.5296 33.7504,2.5296 h 33.7249 l -0.085,-21.0781 c -0.1037,-24.9652 -10.1229,-56.7194 -26.9315,-85.3504 -15.6022,-26.5759 -54.6709,-65.80814 -76.5787,-76.89927 l -17.5988,-8.90959 13.2209,-18.87343 c 19.169,-27.36476 24.5603,-46.38995 23.1313,-81.62739 -0.9171,-22.61701 -3.0833,-33.19622 -9.4591,-46.19714 -11.0898,-22.61313 -34.5928,-45.45998 -59.1884,-57.53597 -17.8013,-8.74006 -23.7856,-9.91383 -50.54439,-9.91383 -26.75686,0 -32.7495,1.17533 -50.58736,9.92057 -46.76692,22.92846 -69.19561,59.45076 -69.062,112.45872 0.0815,32.79362 4.97922,47.33847 25.21867,74.91014 l 11.74999,16.00667 -21.46802,12.55497 c -11.8074,6.90524 -31.04851,22.22141 -42.75801,34.03595 l -21.29003,21.481 -18.87754,-19.3522 c -16.84833,-17.27194 -53.72601,-44.94136 -64.83125,-48.64308 -2.72738,-0.90901 0.15928,-7.29406 8.33182,-18.42683 21.52843,-29.32759 25.89086,-42.57898 25.97402,-78.89945 0.0667,-29.41712 -0.86048,-34.21361 -10.25765,-53.0187 -12.07747,-24.16917 -33.96473,-45.00973 -60.4906,-57.59783 -15.82205,-7.50849 -23.01043,-8.78395 -48.90111,-8.6766 -37.03492,0.15187 -54.17229,6.89553 -80.27244,31.57999 -26.43501,25.00112 -34.08189,42.35999 -35.54592,80.69119 -1.56057,40.85911 3.07446,58.39363 21.73953,82.24257 l 15.08155,19.27012 -17.28349,8.7582 c -9.50589,4.81697 -29.67971,20.65914 -44.83079,35.20472 l -27.54733,26.4465 -24.30745,-23.1793 c -13.36911,-12.7487 -32.76872,-27.95464 -43.11027,-33.79107 l -18.80276,-10.61163 8.58544,-10.56635 c 4.72204,-5.81147 12.74719,-18.15442 17.83375,-27.42876 8.56907,-15.62399 9.2483,-19.71088 9.2483,-55.64611 0,-36.5799 -0.56155,-39.79704 -9.88082,-56.6187 -12.56369,-22.67769 -34.24721,-42.68611 -58.66456,-54.13251 -16.34408,-7.66177 -23.57239,-8.96075 -49.49181,-8.8937 -36.95125,0.0963 -58.99871,8.86537 -83.24644,33.11314 -22.91635,22.9163 -33.91306,47.50604 -35.7967,80.04504 -1.86171,32.15824 4.21234,53.52724 23.10363,81.28164 l 13.03381,19.14883 -19.252,10.82832 c -23.71003,13.33585 -59.13453,49.13876 -74.85939,75.65906 -16.74835,28.2466 -26.8281,60.1169 -26.9315,85.1525 l -0.0871,21.0781 h 35.25836 35.2583 z M 1055.921,410.26892 V 138.78344 H 647.8496 239.77823 V 410.26892 681.75444 H 647.8496 1055.921 Z"
   id="path882" /><path
   style="fill:none;fill-opacity:0;stroke-width:95.1786"
   d="m 108.2511,1144.2459 c 0,-21.5046 7.48045,-47.6227 22.20562,-77.5311 19.0156,-38.6228 49.09851,-70.75924 82.34159,-87.9625 12.05665,-6.2393 22.51344,-11.83607 23.23727,-12.43729 0.7238,-0.60119 -4.38269,-7.40097 -11.34786,-15.1106 -21.42657,-23.71663 -30.28008,-47.2143 -30.36509,-80.59051 -0.063,-24.8767 1.21719,-31.29384 9.68699,-48.54362 12.84475,-26.16001 31.36606,-44.15074 58.86598,-57.17974 19.11391,-9.05584 26.17194,-10.60674 47.72493,-10.48665 32.50299,0.18151 57.07295,10.96352 82.16894,36.05947 25.19385,25.19389 33.63005,48.29204 31.73711,86.89553 -1.60427,32.71998 -8.3396,49.05983 -29.83336,72.37782 -13.62918,14.78592 -15.69737,18.67941 -9.92228,18.67941 9.65106,0 53.90122,31.31862 72.40453,51.24518 l 20.96625,22.579 12.69459,-16.6463 c 14.50296,-19.0175 47.41759,-45.02251 68.50541,-54.12431 7.88321,-3.40265 14.33309,-7.56713 14.33309,-9.25479 0,-1.68762 -5.04581,-8.57722 -11.21296,-15.31013 -22.01371,-24.03338 -27.5707,-40.08987 -27.5707,-79.66337 0,-32.85062 0.71453,-36.70073 9.88083,-53.24621 12.6115,-22.76399 34.38107,-42.80527 58.48205,-53.83902 53.84087,-24.64919 121.83559,2.2751 149.81376,59.32286 5.56688,11.35086 8.03648,23.22705 8.88018,42.70367 1.475,34.05047 -6.8843,58.3391 -28.26112,82.11526 -8.24722,9.17289 -14.99495,17.51334 -14.99495,18.53435 0,1.02087 7.96751,5.84766 17.70558,10.7259 25.77656,12.91265 51.46725,33.29359 65.26671,51.77739 l 12.07585,16.1751 27.51384,-27.283 c 17.93769,-17.78715 34.55658,-30.72229 47.74878,-37.16468 11.12925,-5.43494 20.83627,-10.33167 21.57118,-10.88159 0.73491,-0.55006 -5.09138,-7.97296 -12.94736,-16.49569 -19.15958,-20.78567 -27.92375,-41.73929 -29.84017,-71.34236 -3.65009,-56.38201 28.77759,-102.07016 84.78519,-119.45637 28.48808,-8.84344 48.5079,-7.15186 77.8473,6.57767 28.7555,13.45635 43.7518,27.73777 56.6484,53.94775 10.0207,20.36521 11.0216,25.19896 10.9391,52.82823 -0.078,26.49983 -1.3012,32.79795 -9.5018,48.9606 -5.1761,10.20179 -14.9012,24.21191 -21.6113,31.13363 -6.7101,6.92172 -11.54,13.19176 -10.7331,13.93337 0.8068,0.74157 11.3316,6.27767 23.3883,12.30228 55.2541,27.60996 104.5472,104.79076 104.5472,163.69486 v 11.6377 h -29.8648 -29.8646 l -2.0581,-22.0394 c -4.2894,-45.9345 -33.6779,-85.7896 -78.8457,-106.9261 -83.24517,-38.95514 -185.25862,17.9886 -192.43715,107.4181 l -1.72947,21.5474 h -30.97795 -30.97798 l -3.69046,-23.8418 c -7.36581,-47.5873 -35.07413,-85.1862 -77.63545,-105.3477 -21.08319,-9.9872 -25.30835,-10.7688 -58.2152,-10.7688 -33.57668,0 -36.74,0.6193 -58.90799,11.5325 -43.13213,21.2339 -69.44579,57.0667 -76.80078,104.584 l -3.69046,23.8418 h -30.97799 -30.97794 l -1.7743,-22.1023 c -2.48846,-31.0018 -17.28408,-59.7892 -42.93477,-83.5372 -28.32591,-26.2248 -49.55197,-34.0473 -92.80041,-34.1998 -30.99677,-0.1112 -35.54719,0.7441 -56.25181,10.5533 -43.88926,20.7929 -70.37906,56.5834 -78.08083,105.4955 l -3.74588,23.7905 H 139.54334 108.2511 Z M 337.58216,913.61316 c 43.05271,-29.3873 23.63381,-96.95912 -27.8643,-96.95912 -30.57815,0 -56.44964,23.64151 -56.44964,51.58389 0,16.19173 10.41271,36.17512 23.22834,44.57828 16.88697,11.07272 45.48491,11.44584 61.0856,0.79677 z m 336.43508,0.86122 c 32.96816,-20.10092 33.00813,-67.79336 0.0778,-92.18623 -6.54034,-4.84464 -13.96723,-6.68031 -25.92528,-6.40794 -60.02009,1.3672 -77.98856,72.49813 -25.61338,101.39452 11.23092,6.19629 39.20208,4.67421 51.46132,-2.80035 z m 340.59086,-0.53933 c 12.8748,-7.9571 24.2572,-28.86953 24.3763,-44.78582 0.3075,-41.15614 -50.77241,-67.29685 -85.45278,-43.73094 -30.18248,20.50952 -29.71653,67.69427 0.87011,88.12757 15.56698,10.39941 43.71494,10.58136 60.20627,0.3893 z"
   id="path884" /><path
   style="fill:none;fill-opacity:0;stroke-width:95.1786"
   d="m 551.73363,1527.8678 c -51.35694,-5.5019 -128.27811,-22.567 -181.72686,-40.3162 C 259.22433,1450.7628 127.15627,1372.9339 46.416977,1296.8573 -79.286602,1178.413 -169.20139,1027.438 -210.43671,865.5769 c -22.26835,-87.41004 -23.65018,-100.39996 -23.32138,-219.23362 0.26197,-94.68535 1.17549,-112.67579 7.44923,-146.70334 47.88616,-259.72508 199.854671,-480.282658 422.24473,-612.81957 108.65532,-64.75487 239.52956,-108.78268 354.84916,-119.37588 62.1518,-5.70923 196.65517,-2.04046 244.96276,6.68171 137.791,24.87883 263.85671,79.31494 379.89661,164.042224 168.9992,123.395895 291.3536,314.261366 337.2309,526.060356 23.8921,110.30156 24.6634,241.56389 2.1032,357.94377 -35.8682,185.03075 -143.2973,367.90885 -290.2087,494.02665 -128.5328,110.3405 -281.92826,181.1565 -448.76555,207.1758 -42.36248,6.6066 -178.99019,9.3437 -224.27062,4.4928 z m -374.296,-383.239 c 9.64824,-59.7458 34.79464,-94.9811 83.79499,-117.4142 17.41255,-7.9717 22.49403,-8.7216 52.03795,-7.6796 27.97601,0.9868 35.51114,2.5585 51.77384,10.7989 10.46801,5.3043 26.17945,16.6864 34.91444,25.2937 25.39832,25.027 35.65123,46.6713 40.56258,85.6287 l 2.01951,16.0193 h 36.40307 36.40307 l 2.07767,-22.2514 c 1.16385,-12.4638 5.75905,-30.2921 10.44675,-40.5314 10.81831,-23.6304 38.73484,-51.3563 64.33178,-63.8928 18.48127,-9.0514 23.30384,-9.9103 55.6461,-9.9103 31.36103,0 37.61678,1.0339 54.69528,9.0385 45.10312,21.1398 69.15716,56.3508 78.49333,114.9006 l 2.01655,12.6468 h 34.83676 34.83676 l 2.10767,-10.539 c 1.1594,-5.7965 2.10767,-14.0865 2.10767,-18.4222 0,-30.2844 36.74052,-79.3335 73.12058,-97.6171 16.81459,-8.4506 24.32923,-10.0382 52.50838,-11.094 30.90124,-1.1579 34.20974,-0.6123 54.83174,9.0378 27.4519,12.8463 55.1421,38.707 66.6836,62.2777 7.0537,14.4056 15.7381,49.3016 15.8845,63.8274 0.014,1.3913 15.2017,2.5296 33.7504,2.5296 h 33.7249 l -0.085,-21.0781 c -0.1037,-24.9652 -10.1229,-56.7194 -26.9315,-85.3504 -15.6022,-26.5759 -54.6709,-65.80814 -76.5787,-76.89927 l -17.5988,-8.90959 13.2209,-18.87343 c 19.169,-27.36476 24.5603,-46.38995 23.1313,-81.62739 -0.9171,-22.61701 -3.0833,-33.19622 -9.4591,-46.19714 -11.0898,-22.61313 -34.5928,-45.45998 -59.1884,-57.53597 -17.8013,-8.74006 -23.7856,-9.91383 -50.54439,-9.91383 -26.75686,0 -32.7495,1.17533 -50.58736,9.92057 -46.76692,22.92846 -69.19561,59.45076 -69.062,112.45872 0.0815,32.79362 4.97922,47.33847 25.21867,74.91014 l 11.74999,16.00667 -21.46802,12.55497 c -11.8074,6.90524 -31.04851,22.22141 -42.75801,34.03595 l -21.29003,21.481 -18.87754,-19.3522 c -16.84833,-17.27194 -53.72601,-44.94136 -64.83125,-48.64308 -2.72738,-0.90901 0.15928,-7.29406 8.33182,-18.42683 21.52843,-29.32759 25.89086,-42.57898 25.97402,-78.89945 0.0667,-29.41712 -0.86048,-34.21361 -10.25765,-53.0187 -12.07747,-24.16917 -33.96473,-45.00973 -60.4906,-57.59783 -15.82205,-7.50849 -23.01043,-8.78395 -48.90111,-8.6766 -37.03492,0.15187 -54.17229,6.89553 -80.27244,31.57999 -26.43501,25.00112 -34.08189,42.35999 -35.54592,80.69119 -1.56057,40.85911 3.07446,58.39363 21.73953,82.24257 l 15.08155,19.27012 -17.28349,8.7582 c -9.50589,4.81697 -29.67971,20.65914 -44.83079,35.20472 l -27.54733,26.4465 -24.30745,-23.1793 c -13.36911,-12.7487 -32.76872,-27.95464 -43.11027,-33.79107 l -18.80276,-10.61163 8.58544,-10.56635 c 4.72204,-5.81147 12.74719,-18.15442 17.83375,-27.42876 8.56907,-15.62399 9.2483,-19.71088 9.2483,-55.64611 0,-36.5799 -0.56155,-39.79704 -9.88082,-56.6187 -12.56369,-22.67769 -34.24721,-42.68611 -58.66456,-54.13251 -16.34408,-7.66177 -23.57239,-8.96075 -49.49181,-8.8937 -36.95125,0.0963 -58.99871,8.86537 -83.24644,33.11314 -22.91635,22.9163 -33.91306,47.50604 -35.7967,80.04504 -1.86171,32.15824 4.21234,53.52724 23.10363,81.28164 l 13.03381,19.14883 -19.252,10.82832 c -23.71003,13.33585 -59.13453,49.13876 -74.85939,75.65906 -16.74835,28.2466 -26.8281,60.1169 -26.9315,85.1525 l -0.0871,21.0781 h 35.25836 35.2583 z M 1055.921,410.26892 V 138.78344 H 647.8496 239.77823 V 410.26892 681.75444 H 647.8496 1055.921 Z"
   id="path886" /><path
   style="fill:none;fill-opacity:0;stroke-width:95.1786"
   d="M 571.9686,1529.4042 C 451.80081,1517.814 342.2693,1485.938 239.77827,1432.7296 201.66792,1412.9446 109.12733,1350.875 73.90462,1321.4734 -82.634932,1190.8049 -198.74093,982.24337 -228.71869,777.87042 -239.43897,704.78503 -237.06442,555.09247 -224.13831,489.12144 -196.5696,348.41893 -141.63446,225.29959 -54.468345,108.86109 -20.406977,63.361129 66.13939,-22.490059 113.30987,-57.569477 229.78073,-144.18568 368.20217,-204.23977 504.5188,-227.29533 c 42.6883,-7.21998 184.26118,-10.42509 236.07436,-5.34455 156.52448,15.34801 307.39784,75.91261 445.16874,178.702687 170.7476,127.39381 296.4716,335.629453 333.7871,552.848973 38.9809,226.91417 -12.5911,458.97799 -144.4357,649.93262 -44.6451,64.6609 -118.1851,143.6073 -177.5477,190.6003 -129.6956,102.6707 -286.80277,168.0049 -450.20682,187.222 -37.5364,4.4145 -141.22365,6.0328 -175.39018,2.7375 z M 178.30033,1139.57 c 4.53968,-43.2887 34.31688,-87.1485 73.89112,-108.8365 15.77794,-8.6469 22.08858,-9.9913 52.37929,-11.1585 32.7615,-1.2623 35.51859,-0.8223 56.56959,9.0286 27.47688,12.858 56.31133,40.8997 67.75187,65.8892 4.6877,10.2393 9.2829,28.0676 10.44679,40.5314 l 2.07804,22.2514 h 36.54545 c 41.38432,0 37.83818,2.8289 41.3718,-33.0029 3.46451,-35.132 36.15415,-76.1039 75.38991,-94.4911 17.2283,-8.0738 23.36592,-9.0887 54.81188,-9.0636 33.18211,0.027 36.70218,0.7016 55.92077,10.7222 40.40612,21.0681 66.27854,57.1157 73.38476,102.2458 l 3.71447,23.5896 h 35.86329 35.8633 l 2.11026,-22.6004 c 4.07803,-43.6705 34.64126,-85.5255 77.12972,-105.6259 18.93125,-8.956 24.68423,-10.0372 53.26232,-10.0102 36.24424,0.034 56.59904,7.1229 83.31584,29.0154 27.5463,22.5721 48.2113,63.7345 48.2113,96.0316 v 13.1895 h 35.4111 35.4112 v -13.3239 c 0,-34.481 -17.9237,-81.232 -44.671,-116.517 -16.9534,-22.3649 -32.9486,-36.29641 -61.2397,-53.3388 l -18.7943,-11.32152 8.4502,-7.93851 c 4.6476,-4.36625 12.9772,-16.99783 18.5101,-28.07021 9.23,-18.47076 10.0599,-23.02599 10.0599,-55.21302 0,-30.4718 -1.1142,-37.43634 -8.4789,-53.00429 -10.0482,-21.24024 -34.1677,-44.8386 -59.3662,-58.08355 -16.2295,-8.53066 -21.5488,-9.5419 -50.19204,-9.5419 -28.64328,0 -33.96254,1.01124 -50.19208,9.5419 -24.58767,12.92391 -48.91912,36.39655 -59.27956,57.18729 -7.59917,15.2495 -8.56551,21.34126 -8.56551,53.99505 0,34.67507 0.60377,37.93944 10.431,56.37686 5.73705,10.76379 14.02035,22.94257 18.40734,27.06394 l 7.9764,7.49341 -20.27079,12.25694 c -11.14891,6.74133 -30.83693,21.83399 -43.75106,33.53931 l -23.4803,21.2823 -24.11624,-22.3279 c -13.26392,-12.28037 -32.16865,-27.19845 -42.01047,-33.15127 -9.84182,-5.95286 -17.93728,-12.12189 -17.98988,-13.70897 -0.0519,-1.58724 3.78247,-7.49457 8.5224,-13.12761 4.73992,-5.63307 12.32802,-17.56327 16.86244,-26.51153 7.26746,-14.34165 8.24444,-20.69214 8.24444,-53.59122 0,-32.76694 -0.99309,-39.28168 -8.1388,-53.38278 -10.99463,-21.69682 -32.86673,-42.83865 -57.48481,-55.56546 -18.31373,-9.46763 -23.4526,-10.54543 -50.79824,-10.65419 -27.70661,-0.11112 -32.43394,0.869 -52.93921,10.96356 -24.89848,12.25749 -44.97158,32.3892 -56.27777,56.44202 -5.8804,12.51 -7.05062,21.38485 -6.98899,53.00321 0.0815,42.21617 4.14967,55.85509 23.08974,77.42664 5.80862,6.61564 10.56114,13.40897 10.56114,15.0963 0,1.68724 -7.98596,6.9845 -17.74655,11.77154 -9.76063,4.78704 -29.47384,19.65572 -43.80715,33.04146 l -26.06059,24.3377 -22.79955,-20.8118 c -12.53975,-11.44655 -30.76703,-25.38504 -40.50502,-30.97455 -9.738,-5.58948 -18.54606,-11.52274 -19.57345,-13.18505 -1.02717,-1.66243 2.69737,-8.72617 8.27737,-15.69745 43.72491,-54.6279 32.53266,-138.8602 -23.50424,-176.89162 -78.73754,-53.43801 -179.43475,-6.23975 -190.6719,89.37072 -2.86073,24.34056 5.8591,56.66445 21.55547,79.90454 6.89031,10.2018 12.98188,19.53167 13.53695,20.73304 0.55489,1.20126 -8.06197,7.69474 -19.14894,14.42973 -54.91009,33.35614 -101.58363,109.72234 -101.58363,166.20904 v 14.4676 H 139.818 176.44354 Z M 1057.6073,410.26892 V 138.78344 H 647.84964 238.09202 v 271.48548 271.48552 h 409.75762 409.75766 z"
   id="path888" /><path
   style="fill:none;fill-opacity:0;stroke-width:95.1786"
   d="M 571.9686,1529.4042 C 451.80081,1517.814 342.2693,1485.938 239.77827,1432.7296 201.66792,1412.9446 109.12733,1350.875 73.90462,1321.4734 -82.634932,1190.8049 -198.74093,982.24337 -228.71869,777.87042 -239.43897,704.78503 -237.06442,555.09247 -224.13831,489.12144 -196.5696,348.41893 -141.63446,225.29959 -54.468345,108.86109 -20.406977,63.361129 66.13939,-22.490059 113.30987,-57.569477 229.78073,-144.18568 368.20217,-204.23977 504.5188,-227.29533 c 42.6883,-7.21998 184.26118,-10.42509 236.07436,-5.34455 156.52448,15.34801 307.39784,75.91261 445.16874,178.702687 170.7476,127.39381 296.4716,335.629453 333.7871,552.848973 38.9809,226.91417 -12.5911,458.97799 -144.4357,649.93262 -44.6451,64.6609 -118.1851,143.6073 -177.5477,190.6003 -129.6956,102.6707 -286.80277,168.0049 -450.20682,187.222 -37.5364,4.4145 -141.22365,6.0328 -175.39018,2.7375 z M 178.30033,1139.57 c 4.53968,-43.2887 34.31688,-87.1485 73.89112,-108.8365 15.77794,-8.6469 22.08858,-9.9913 52.37929,-11.1585 32.7615,-1.2623 35.51859,-0.8223 56.56959,9.0286 27.47688,12.858 56.31133,40.8997 67.75187,65.8892 4.6877,10.2393 9.2829,28.0676 10.44679,40.5314 l 2.07804,22.2514 h 36.54545 c 41.38432,0 37.83818,2.8289 41.3718,-33.0029 3.46451,-35.132 36.15415,-76.1039 75.38991,-94.4911 17.2283,-8.0738 23.36592,-9.0887 54.81188,-9.0636 33.18211,0.027 36.70218,0.7016 55.92077,10.7222 40.40612,21.0681 66.27854,57.1157 73.38476,102.2458 l 3.71447,23.5896 h 35.86329 35.8633 l 2.11026,-22.6004 c 4.07803,-43.6705 34.64126,-85.5255 77.12972,-105.6259 18.93125,-8.956 24.68423,-10.0372 53.26232,-10.0102 36.24424,0.034 56.59904,7.1229 83.31584,29.0154 27.5463,22.5721 48.2113,63.7345 48.2113,96.0316 v 13.1895 h 35.4111 35.4112 v -13.3239 c 0,-34.481 -17.9237,-81.232 -44.671,-116.517 -16.9534,-22.3649 -32.9486,-36.29641 -61.2397,-53.3388 l -18.7943,-11.32152 8.4502,-7.93851 c 4.6476,-4.36625 12.9772,-16.99783 18.5101,-28.07021 9.23,-18.47076 10.0599,-23.02599 10.0599,-55.21302 0,-30.4718 -1.1142,-37.43634 -8.4789,-53.00429 -10.0482,-21.24024 -34.1677,-44.8386 -59.3662,-58.08355 -16.2295,-8.53066 -21.5488,-9.5419 -50.19204,-9.5419 -28.64328,0 -33.96254,1.01124 -50.19208,9.5419 -24.58767,12.92391 -48.91912,36.39655 -59.27956,57.18729 -7.59917,15.2495 -8.56551,21.34126 -8.56551,53.99505 0,34.67507 0.60377,37.93944 10.431,56.37686 5.73705,10.76379 14.02035,22.94257 18.40734,27.06394 l 7.9764,7.49341 -20.27079,12.25694 c -11.14891,6.74133 -30.83693,21.83399 -43.75106,33.53931 l -23.4803,21.2823 -24.11624,-22.3279 c -13.26392,-12.28037 -32.16865,-27.19845 -42.01047,-33.15127 -9.84182,-5.95286 -17.93728,-12.12189 -17.98988,-13.70897 -0.0519,-1.58724 3.78247,-7.49457 8.5224,-13.12761 4.73992,-5.63307 12.32802,-17.56327 16.86244,-26.51153 7.26746,-14.34165 8.24444,-20.69214 8.24444,-53.59122 0,-32.76694 -0.99309,-39.28168 -8.1388,-53.38278 -10.99463,-21.69682 -32.86673,-42.83865 -57.48481,-55.56546 -18.31373,-9.46763 -23.4526,-10.54543 -50.79824,-10.65419 -27.70661,-0.11112 -32.43394,0.869 -52.93921,10.96356 -24.89848,12.25749 -44.97158,32.3892 -56.27777,56.44202 -5.8804,12.51 -7.05062,21.38485 -6.98899,53.00321 0.0815,42.21617 4.14967,55.85509 23.08974,77.42664 5.80862,6.61564 10.56114,13.40897 10.56114,15.0963 0,1.68724 -7.98596,6.9845 -17.74655,11.77154 -9.76063,4.78704 -29.47384,19.65572 -43.80715,33.04146 l -26.06059,24.3377 -22.79955,-20.8118 c -12.53975,-11.44655 -30.76703,-25.38504 -40.50502,-30.97455 -9.738,-5.58948 -18.54606,-11.52274 -19.57345,-13.18505 -1.02717,-1.66243 2.69737,-8.72617 8.27737,-15.69745 43.72491,-54.6279 32.53266,-138.8602 -23.50424,-176.89162 -78.73754,-53.43801 -179.43475,-6.23975 -190.6719,89.37072 -2.86073,24.34056 5.8591,56.66445 21.55547,79.90454 6.89031,10.2018 12.98188,19.53167 13.53695,20.73304 0.55489,1.20126 -8.06197,7.69474 -19.14894,14.42973 -54.91009,33.35614 -101.58363,109.72234 -101.58363,166.20904 v 14.4676 H 139.818 176.44354 Z M 1057.6073,410.26892 V 138.78344 H 647.84964 238.09202 v 271.48548 271.48552 h 409.75762 409.75766 z"
   id="path890" /><path
   style="fill:none;fill-opacity:0;stroke-width:95.1786"
   d="M 241.46452,410.26892 V 142.15594 H 646.16339 1050.8623 V 410.26892 678.38195 H 646.16339 241.46452 Z m 745.32044,1.68614 V 206.23324 H 647.84964 308.91436 V 411.95517 617.6771 h 338.93528 338.93532 z"
   id="path892" /><path
   style="fill:#008fb4;fill-opacity:1;stroke-width:95.1786"
   d="m 108.11108,1139.57 c 6.65946,-44.6228 19.52696,-76.0028 45.29014,-110.449 15.16789,-20.28 43.14765,-43.13946 68.57094,-56.02241 l 16.26351,-8.24136 -12.22475,-12.55364 c -20.73214,-21.28992 -29.38311,-42.20691 -30.99598,-74.9447 -1.15681,-23.48368 -0.10002,-32.14246 5.83747,-47.89488 10.01147,-26.55357 32.45261,-50.50053 60.06273,-64.09297 19.32222,-9.5123 25.88667,-11.0193 47.99922,-11.0193 22.07835,0 28.68673,1.51167 47.85379,10.94774 27.29378,13.43668 46.76166,32.38767 59.1172,57.54763 8.05331,16.39916 9.36958,23.15497 9.30691,47.76679 -0.0852,33.99669 -9.09832,57.30816 -31.09185,80.42812 l -13.58614,14.28205 15.63051,7.93084 c 24.94615,12.65758 56.34707,37.34719 68.4953,53.85589 6.16692,8.3804 12.02357,15.2963 13.01477,15.3686 0.99124,0.074 4.38214,-4.2359 7.53531,-9.5738 9.79078,-16.5745 45.12068,-46.61954 68.15282,-57.95826 12.09895,-5.9563 21.99812,-11.69553 21.99812,-12.75385 0,-1.05828 -5.20932,-7.29987 -11.57623,-13.8701 -6.36694,-6.57027 -15.47267,-19.75443 -20.23497,-29.29815 -7.54713,-15.1247 -8.65445,-21.6187 -8.62575,-50.58735 0.027,-27.93364 1.32017,-36.00002 8.10354,-50.56825 11.4681,-24.63 28.72325,-42.21639 54.01875,-55.0557 19.10857,-9.69902 25.31334,-11.14765 48.38393,-11.29622 22.63716,-0.14446 29.60433,1.30572 48.17673,10.03751 25.78785,12.124 46.72335,32.11209 58.60254,55.95055 7.46775,14.98576 8.63401,21.70156 8.60548,49.55467 -0.0407,38.19352 -7.58494,58.38626 -30.31138,81.1127 -7.73307,7.73304 -13.55425,14.46562 -12.93595,14.96127 0.61823,0.49562 10.92996,6.06028 22.91479,12.36581 23.32447,12.27161 57.28516,41.51127 66.67404,57.40537 3.15336,5.3379 6.54408,9.6584 7.53535,9.601 0.99123,-0.055 7.11389,-7.1621 13.60592,-15.7884 12.89021,-17.1277 43.13061,-40.89342 68.25524,-53.6412 l 15.98162,-8.10875 -12.86912,-12.86913 c -7.078,-7.07803 -16.54618,-20.34025 -21.04037,-29.47161 -7.0737,-14.3725 -8.17125,-21.35867 -8.17125,-52.01361 0,-30.94713 1.04347,-37.45368 8.27744,-51.61379 10.79635,-21.13319 35.97828,-44.41203 60.12318,-55.57939 27.17077,-12.56683 61.92957,-12.59272 89.01087,-0.0667 25.8526,11.95809 47.7126,32.91967 60.0241,57.55723 9.0158,18.04233 10.2075,23.85487 10.2075,49.78778 0,26.87987 -1.0094,31.37844 -11.9475,53.24243 -6.5712,13.13501 -16.4854,27.70013 -22.0316,32.36693 l -10.084,8.4851 14.4435,7.28065 c 57.5049,28.98706 99.4256,82.42806 112.2088,143.04496 8.5858,40.713 9.8125,38.7836 -24.6578,38.7836 h -29.7535 l -3.6904,-23.8418 c -7.2653,-46.9373 -34.417,-83.7185 -77.4335,-104.8954 -21.4547,-10.5622 -24.8812,-11.2211 -58.34625,-11.2211 -33.65743,0 -36.80197,0.6149 -58.97893,11.5325 -43.03067,21.1839 -69.58777,57.3081 -77.07159,104.8362 l -3.71447,23.5896 h -30.83052 -30.83048 l -1.77429,-22.1023 c -2.48846,-31.0018 -17.28409,-59.7892 -42.93478,-83.5372 -28.32591,-26.2248 -49.55197,-34.0473 -92.80041,-34.1999 -31.04155,-0.1111 -35.529,0.7357 -56.39927,10.6224 -45.71082,21.6541 -75.72921,62.1832 -79.33588,107.1147 l -1.77429,22.1023 h -30.83049 -30.83048 l -3.71446,-23.5896 c -7.49516,-47.6 -35.44562,-85.4861 -77.90626,-105.5999 -21.08371,-9.9875 -25.30783,-10.7688 -58.2192,-10.7688 -33.09528,0 -36.96029,0.726 -57.36806,10.7744 -42.92581,21.1362 -73.0918,63.3029 -76.60594,107.0816 l -1.7743,22.1023 H 139.53163 105.97204 Z M 337.10399,914.80068 c 16.04067,-10.57543 22.35072,-23.36518 22.3755,-45.35267 0.0266,-23.73496 -6.30505,-35.93175 -23.74063,-45.73108 -26.31866,-14.79193 -62.71154,-5.2494 -75.68905,19.84629 -12.28024,23.74738 -3.16373,57.2 19.32441,70.91127 14.68765,8.95516 44.38688,9.12296 57.72977,0.32597 z m 340.00123,-1.93876 c 32.9789,-22.40973 28.02821,-74.90021 -8.74317,-92.70096 -12.77185,-6.18273 -16.70056,-6.62842 -30.72513,-3.48562 -20.28313,4.54553 -32.96731,13.51136 -39.95885,28.24494 -11.52677,24.29081 -3.76739,54.22529 17.78852,68.62558 16.47339,11.00493 44.90098,10.68941 61.63863,-0.68416 z m 335.84738,1.61279 c 32.9417,-20.08484 32.9417,-71.0088 0,-91.09368 -23.36685,-14.24693 -61.51665,-5.15305 -75.14132,17.91165 -7.50582,12.70636 -8.40193,37.02433 -1.92987,52.37017 10.57147,25.0658 51.82385,36.20534 77.07119,20.81186 z"
   id="path912" /><path
   style="fill:#008080;fill-opacity:1;stroke-width:95.1786"
   d="m 791.18051,506.80562 c -29.14397,-9.59531 -50.05792,-27.43743 -64.84136,-55.31743 -11.49729,-21.68268 -10.78379,-61.9996 1.51278,-85.47761 38.16211,-72.8637 139.08257,-72.8637 177.24464,0 7.62369,14.55608 9.0495,21.52932 9.0495,44.25834 0,22.65939 -1.42648,29.68031 -8.908,43.84241 -17.59094,33.29879 -47.23898,52.55901 -83.7051,54.3772 -12.05665,0.60119 -25.71521,-0.15557 -30.35238,-1.6828 z m 55.78561,-33.73977 c 51.39998,-23.34777 51.7009,-99.87938 0.48635,-123.72454 -22.14339,-10.30984 -39.81349,-10.30984 -61.95689,0 -51.2144,23.84516 -50.91347,100.37677 0.48636,123.72454 17.42199,7.91369 43.56189,7.91369 60.98388,0 z"
   id="path914" /><path
   style="fill:#008080;fill-opacity:1;stroke-width:95.1786"
   d="M 241.46452,410.26892 V 142.15594 H 646.16339 1050.8623 V 410.26892 678.38195 H 646.16339 241.46452 Z m 745.32044,1.68614 V 206.23324 H 647.84964 308.91436 V 411.95517 617.6771 h 338.93528 338.93532 z"
   id="path916" /><path
   style="fill:#008080;fill-opacity:1;stroke-width:95.1786"
   d="m 471.38473,333.11502 -32.85577,-32.28018 -26.00484,26.00484 -26.00484,26.00488 -10.1326,-10.13263 -10.13264,-10.13264 37.11168,-36.99663 37.11171,-36.99662 32.82662,32.82666 32.82666,32.82662 37.89733,-37.7898 37.89729,-37.78983 10.05596,9.6342 10.05592,9.63421 -45.75379,47.56298 c -25.16455,26.15964 -47.16882,48.08975 -48.89833,48.73353 -1.72948,0.64379 -17.92969,-13.35552 -36.00036,-31.10959 z"
   id="path918" /><path
   style="fill:#008080;fill-opacity:1;stroke-width:95.1786"
   d="m 376.36416,427.1314 v -15.17623 h 118.03715 118.0372 v 15.17623 15.17619 H 494.40131 376.36416 Z"
   id="path920" /><path
   style="fill:#008080;fill-opacity:1;stroke-width:95.1786"
   d="m 376.36416,494.5812 v -15.17619 h 118.03715 118.0372 v 15.17619 15.17619 H 494.40131 376.36416 Z"
   id="path922" /><path
   style="fill:#ffffff;fill-opacity:1;stroke-width:95.1786"
   d="m 376.36416,563.71725 v -16.86244 h 118.03715 118.0372 v 16.86244 16.86248 H 494.40131 376.36416 Z"
   id="path924" /><path
   style="fill:#ffffff;fill-opacity:1;stroke-width:95.1786"
   d="m 376.36416,563.71725 v -16.86244 h 118.03715 118.0372 v 16.86244 16.86248 H 494.40131 376.36416 Z"
   id="path928" /><path
   style="fill:#ffffff;fill-opacity:1;stroke-width:95.1786"
   d="m 634.44007,914.46601 c -16.07008,-3.07816 -34.27372,-22.12729 -37.48068,-39.22198 -4.13022,-22.01593 17.91368,-48.83266 44.1943,-53.76294 25.45526,-4.77545 52.22457,20.53531 52.22457,49.37899 0,13.64033 -1.68318,17.25986 -13.74954,29.56954 -7.56228,7.71467 -15.78508,14.02665 -18.27287,14.02665 -2.48772,0 -6.54445,0.58007 -9.01476,1.28905 -2.47031,0.70897 -10.52576,0.13335 -17.90102,-1.27942 z"
   id="path930" /><path
   style="fill:#ffffff;fill-opacity:1;stroke-width:95.1786"
   d="m 293.73813,914.14393 c -24.01549,-7.46578 -38.1198,-31.06377 -32.04675,-53.61748 9.77496,-36.30135 44.81756,-49.3652 76.58461,-28.5506 9.34298,6.12173 17.85323,23.8432 17.85323,37.17694 0,29.73379 -33.57897,53.94807 -62.39109,44.99114 z"
   id="path932" /><path
   style="fill:#ffffff;fill-opacity:1;stroke-width:95.1786"
   d="m 957.84886,908.09684 c -11.74565,-7.16249 -21.65126,-25.33991 -21.65126,-39.73148 0,-13.74457 10.78357,-32.11561 23.09537,-39.34551 14.0702,-8.26248 39.34718,-8.15832 50.55343,0.20743 40.8692,30.51326 24.7162,85.25362 -25.14577,85.21543 -10.15387,-0.008 -20.44567,-2.44031 -26.85177,-6.34683 z"
   id="path934" /><path
   style="fill:#ffffff;fill-opacity:1;stroke-width:95.1786"
   d="M 312.28685,411.95517 V 209.60574 H 647.84964 983.41246 V 411.95517 614.30461 H 647.84964 312.28685 Z M 615.81101,563.71725 V 543.48231 H 494.40131 372.99166 v 20.23494 20.23497 h 121.40965 121.4097 z m 0,-69.13605 V 476.03251 H 494.40131 372.99166 v 18.54869 18.54869 h 121.40965 121.4097 z m 238.00292,12.92147 c 22.12058,-7.48964 52.36922,-37.91504 60.02102,-60.37184 17.17259,-50.39882 -4.15666,-106.19309 -49.97283,-130.72178 -19.64061,-10.51506 -74.74716,-10.48939 -94.60283,0.0445 -34.4952,18.29973 -52.79063,48.5907 -55.02161,91.09697 -1.3172,25.09592 -0.55266,29.77687 7.57583,46.39121 10.03789,20.51671 33.50863,43.31278 54.19077,52.63306 17.67744,7.96618 55.68404,8.41964 77.80965,0.92826 z M 615.81101,427.1314 V 408.58268 H 494.40131 372.99166 v 18.54872 18.54869 h 121.40965 121.4097 z M 560.1612,320.90164 610.66051,270.31803 596.37598,256.0335 582.0915,241.74901 l -37.98038,37.87266 -37.98041,37.87266 -32.84681,-32.84681 -32.84685,-32.84681 -41.222,41.22201 -41.222,41.22204 13.28595,13.60603 13.28596,13.60607 27.16365,-27.02252 27.16366,-27.02253 31.90354,32.03674 c 17.54693,17.62021 33.47011,32.03675 35.38479,32.03675 1.91469,0 26.20594,-22.76266 53.9806,-50.58366 z"
   id="path936" /><path
   style="fill:#ffffff;fill-opacity:1;stroke-width:95.1786"
   d="M 804.38902,472.61864 C 774.15809,467.39869 754.0831,442.9862 754.0831,411.4434 c 0,-22.59697 8.04234,-38.48203 25.89116,-51.13976 19.38839,-13.74953 34.00633,-16.1768 54.87538,-9.11191 29.88733,10.11785 44.97918,29.94 44.97918,59.07719 0,9.36121 -2.41586,21.69179 -5.36823,27.40139 -7.07722,13.68582 -27.11639,31.0301 -38.65642,33.45785 -16.5307,3.47784 -19.17877,3.60341 -31.41515,1.49056 z"
   id="path938" /><path
   style="fill:#ffffff;fill-opacity:1;stroke-width:95.1786"
   d="m 376.36416,563.71725 v -16.86244 h 118.03715 118.0372 v 16.86244 16.86248 H 494.40131 376.36416 Z"
   id="path940" /><path
   style="fill:#ffffff;fill-opacity:1;stroke-width:95.1786"
   d="m 376.36416,563.71725 v -16.86244 h 118.03715 118.0372 v 16.86244 16.86248 H 494.40131 376.36416 Z"
   id="path942" /><path
   style="fill:#008080;fill-opacity:1;stroke-width:95.1786"
   d="m 376.36416,563.71725 v -16.86244 h 118.03715 118.0372 v 16.86244 16.86248 H 494.40131 376.36416 Z"
   id="path944" /><path
   style="fill:#008fb4;fill-opacity:1;stroke-width:190.357"
   d="M 242.19465,408.58268 V 142.15594 H 643.52102 1044.8474 V 408.58268 675.00945 H 643.52102 242.19465 Z m 748.6929,3.37264 V 202.86093 H 646.89352 302.89946 v 209.09439 209.09443 h 343.99406 343.99403 z"
   id="path953" /><path
   style="fill:#008fb4;fill-opacity:1;stroke-width:190.357"
   d="m 768.29977,491.20871 c -32.3759,-22.09943 -48.71757,-55.75119 -44.91525,-92.49223 2.53328,-24.47832 8.23074,-34.87288 30.5007,-55.64607 23.44879,-21.8728 31.8345,-25.54497 58.33411,-25.54497 38.61071,0 67.44621,14.49548 84.51156,42.48361 49.83719,81.7357 -50.59317,184.331 -128.43112,131.19966 z m 92.00275,-21.65256 c 50.38482,-35.29086 29.16665,-119.37107 -32.65578,-129.40347 -69.27395,-11.24163 -112.29733,75.84877 -60.96944,123.41787 20.15726,18.68111 70.87097,21.92333 93.62522,5.9856 z"
   id="path955" /><path
   style="fill:#008fb4;fill-opacity:1;stroke-width:190.357"
   d="m 469.86466,326.16108 -31.83424,-31.83424 -26.48672,25.86364 c -15.81609,15.44397 -29.71527,23.86828 -34.50053,20.91084 -5.37053,-3.31931 3.80755,-16.92275 27.82629,-41.2436 l 35.84003,-36.29083 31.92666,31.44656 31.92666,31.44656 29.00921,-26.01859 c 15.95507,-14.31023 32.59893,-30.73792 36.98637,-36.50597 6.42369,-8.44502 9.65572,-8.83151 16.59674,-1.98469 6.97161,6.87715 0.32597,16.87111 -34.76223,52.2736 -23.85999,24.07398 -45.02704,43.77085 -47.03788,43.77085 -2.011,0 -17.98151,-14.32539 -35.49036,-31.83424 z"
   id="path957" /><path
   style="fill:#008fb4;fill-opacity:1;stroke-width:67.3014"
   d="m 376.72124,426.2514 v -14.30827 h 116.85082 116.85087 v 14.30827 14.30827 H 493.57206 376.72124 Z"
   id="path959" /><path
   style="fill:#008fb4;fill-opacity:1;stroke-width:67.3014"
   d="m 376.72124,495.40801 v -14.30823 h 116.85082 116.85087 v 14.30823 14.30827 H 493.57206 376.72124 Z"
   id="path961" /><path
   style="fill:#008fb4;fill-opacity:1;stroke-width:67.3014"
   d="m 434.5505,579.47103 c 32.46187,-0.37486 85.58129,-0.37486 118.04316,0 32.46191,0.37486 5.90218,0.68157 -59.0216,0.68157 -64.92374,0 -91.48347,-0.30745 -59.02156,-0.68157 z"
   id="path963" /><path
   style="fill:#008fb4;fill-opacity:1;stroke-width:67.3014"
   d="m 378.35559,563.37228 v -15.5006 h 116.85086 116.85083 v 15.5006 15.50064 H 495.20645 378.35559 Z"
   id="path965" /></svg>
