<?xml version="1.0" encoding="UTF-8" standalone="no"?>
<svg
   xmlns:ooo="http://xml.openoffice.org/svg/export"
   xmlns:dc="http://purl.org/dc/elements/1.1/"
   xmlns:cc="http://creativecommons.org/ns#"
   xmlns:rdf="http://www.w3.org/1999/02/22-rdf-syntax-ns#"
   xmlns:svg="http://www.w3.org/2000/svg"
   xmlns="http://www.w3.org/2000/svg"
   xmlns:sodipodi="http://sodipodi.sourceforge.net/DTD/sodipodi-0.dtd"
   xmlns:inkscape="http://www.inkscape.org/namespaces/inkscape"
   version="1.2"
   width="12.96mm"
   height="12.96mm"
   viewBox="0 0 1296 1296"
   preserveAspectRatio="xMidYMid"
   fill-rule="evenodd"
   stroke-width="28.222"
   stroke-linejoin="round"
   xml:space="preserve"
   id="svg70"
   sodipodi:docname="bmp.svg"
   inkscape:version="1.0.1 (3bc2e813f5, 2020-09-07)"><metadata
   id="metadata74"><rdf:RDF><cc:Work
       rdf:about=""><dc:format>image/svg+xml</dc:format><dc:type
         rdf:resource="http://purl.org/dc/dcmitype/StillImage" /></cc:Work></rdf:RDF></metadata><sodipodi:namedview
   pagecolor="#ffffff"
   bordercolor="#666666"
   borderopacity="1"
   objecttolerance="10"
   gridtolerance="10"
   guidetolerance="10"
   inkscape:pageopacity="0"
   inkscape:pageshadow="2"
   inkscape:window-width="1366"
   inkscape:window-height="705"
   id="namedview72"
   showgrid="false"
   inkscape:zoom="7.7664897"
   inkscape:cx="24.491339"
   inkscape:cy="30.929254"
   inkscape:window-x="-8"
   inkscape:window-y="-8"
   inkscape:window-maximized="1"
   inkscape:current-layer="svg70"
   inkscape:document-rotation="0" />
 <defs
   class="ClipPathGroup"
   id="defs8">
  <clipPath
   id="presentation_clip_path"
   clipPathUnits="userSpaceOnUse">
   <rect
   x="0"
   y="0"
   width="1296"
   height="1296"
   id="rect2" />
  </clipPath>
  <clipPath
   id="presentation_clip_path_shrink"
   clipPathUnits="userSpaceOnUse">
   <rect
   x="1"
   y="1"
   width="1294"
   height="1294"
   id="rect5" />
  </clipPath>
 </defs>
 <defs
   class="TextShapeIndex"
   id="defs12">
  <g
   ooo:slide="id1"
   ooo:id-list="id3"
   id="g10" />
 </defs>
 <defs
   class="EmbeddedBulletChars"
   id="defs44">
  <g
   id="bullet-char-template-57356"
   transform="scale(0.00048828125,-0.00048828125)">
   <path
   d="M 580,1141 L 1163,571 580,0 -4,571 580,1141 Z"
   id="path14" />
  </g>
  <g
   id="bullet-char-template-57354"
   transform="scale(0.00048828125,-0.00048828125)">
   <path
   d="M 8,1128 L 1137,1128 1137,0 8,0 8,1128 Z"
   id="path17" />
  </g>
  <g
   id="bullet-char-template-10146"
   transform="scale(0.00048828125,-0.00048828125)">
   <path
   d="M 174,0 L 602,739 174,1481 1456,739 174,0 Z M 1358,739 L 309,1346 659,739 1358,739 Z"
   id="path20" />
  </g>
  <g
   id="bullet-char-template-10132"
   transform="scale(0.00048828125,-0.00048828125)">
   <path
   d="M 2015,739 L 1276,0 717,0 1260,543 174,543 174,936 1260,936 717,1481 1274,1481 2015,739 Z"
   id="path23" />
  </g>
  <g
   id="bullet-char-template-10007"
   transform="scale(0.00048828125,-0.00048828125)">
   <path
   d="M 0,-2 C -7,14 -16,27 -25,37 L 356,567 C 262,823 215,952 215,954 215,979 228,992 255,992 264,992 276,990 289,987 310,991 331,999 354,1012 L 381,999 492,748 772,1049 836,1024 860,1049 C 881,1039 901,1025 922,1006 886,937 835,863 770,784 769,783 710,716 594,584 L 774,223 C 774,196 753,168 711,139 L 727,119 C 717,90 699,76 672,76 641,76 570,178 457,381 L 164,-76 C 142,-110 111,-127 72,-127 30,-127 9,-110 8,-76 1,-67 -2,-52 -2,-32 -2,-23 -1,-13 0,-2 Z"
   id="path26" />
  </g>
  <g
   id="bullet-char-template-10004"
   transform="scale(0.00048828125,-0.00048828125)">
   <path
   d="M 285,-33 C 182,-33 111,30 74,156 52,228 41,333 41,471 41,549 55,616 82,672 116,743 169,778 240,778 293,778 328,747 346,684 L 369,508 C 377,444 397,411 428,410 L 1163,1116 C 1174,1127 1196,1133 1229,1133 1271,1133 1292,1118 1292,1087 L 1292,965 C 1292,929 1282,901 1262,881 L 442,47 C 390,-6 338,-33 285,-33 Z"
   id="path29" />
  </g>
  <g
   id="bullet-char-template-9679"
   transform="scale(0.00048828125,-0.00048828125)">
   <path
   d="M 813,0 C 632,0 489,54 383,161 276,268 223,411 223,592 223,773 276,916 383,1023 489,1130 632,1184 813,1184 992,1184 1136,1130 1245,1023 1353,916 1407,772 1407,592 1407,412 1353,268 1245,161 1136,54 992,0 813,0 Z"
   id="path32" />
  </g>
  <g
   id="bullet-char-template-8226"
   transform="scale(0.00048828125,-0.00048828125)">
   <path
   d="M 346,457 C 273,457 209,483 155,535 101,586 74,649 74,723 74,796 101,859 155,911 209,963 273,989 346,989 419,989 480,963 531,910 582,859 608,796 608,723 608,648 583,586 532,535 482,483 420,457 346,457 Z"
   id="path35" />
  </g>
  <g
   id="bullet-char-template-8211"
   transform="scale(0.00048828125,-0.00048828125)">
   <path
   d="M -4,459 L 1135,459 1135,606 -4,606 -4,459 Z"
   id="path38" />
  </g>
  <g
   id="bullet-char-template-61548"
   transform="scale(0.00048828125,-0.00048828125)">
   <path
   d="M 173,740 C 173,903 231,1043 346,1159 462,1274 601,1332 765,1332 928,1332 1067,1274 1183,1159 1299,1043 1357,903 1357,740 1357,577 1299,437 1183,322 1067,206 928,148 765,148 601,148 462,206 346,322 231,437 173,577 173,740 Z"
   id="path41" />
  </g>
 </defs>
 <defs
   class="TextEmbeddedBitmaps"
   id="defs46" />
 <g
   id="g51">
  <g
   id="id2"
   class="Master_Slide">
   <g
   id="bg-id2"
   class="Background" />
   <g
   id="bo-id2"
   class="BackgroundObjects" />
  </g>
 </g>
 
<path
   style="fill:#008fb4;stroke-width:95.1786"
   d="M 280.87996,648 V 169.10634 l 257.1524,0.0228 257.15239,0.0228 108.60483,105.36754 108.60482,105.36757 0.1593,373.50331 0.1593,373.50334 H 646.79517 280.87996 Z m 257.86056,417.1558 c 27.73261,-15.2699 28.81738,-55.9596 1.87394,-70.28597 -6.46311,-3.43672 -9.80879,-6.24826 -7.43482,-6.24826 2.374,0 8.04137,-3.72509 12.59424,-8.27796 6.25559,-6.25563 8.27792,-11.86756 8.27792,-22.9715 0,-16.84018 -7.77749,-27.41272 -25.66298,-34.88577 -11.63535,-4.86157 -46.61768,-6.2503 -64.97272,-2.57921 l -10.53902,2.10767 v 75.23548 75.23552 l 9.27435,1.6105 c 20.67984,3.5916 62.74747,-1.319 76.5892,-8.9407 z m 76.03135,-9.9276 c 0.0101,-9.738 1.00235,-34.8344 2.20843,-55.76965 l 2.19323,-38.06416 16.24474,53.24031 c 8.93456,29.2822 16.28762,54.4702 16.34008,55.9733 0.0519,1.5032 5.76664,2.2622 12.69814,1.6862 l 12.60272,-1.0468 19.43595,-57.3141 19.43591,-57.31417 0.0169,25.27545 c 0.0101,13.90152 0.99716,40.07232 2.19509,58.15732 l 2.17731,32.8817 h 14.89312 14.89312 l -2.21472,-34.568 c -1.21793,-19.0124 -3.2167,-53.53828 -4.44122,-76.72414 l -2.22576,-42.15597 H 721.41213 701.5994 l -11.18766,32.03867 c -6.15317,17.62127 -13.88018,41.9032 -17.171,53.95984 l -5.98341,21.9212 -4.58565,-16.8624 c -2.52216,-9.2744 -9.83415,-33.93573 -16.24895,-54.80304 l -11.66331,-37.94052 h -20.11896 c -18.58725,0 -20.12618,0.57785 -20.21494,7.58813 -0.0519,4.17345 -2.28621,35.66409 -4.96269,69.97916 -6.70995,86.02347 -7.81294,77.56727 10.11749,77.56727 h 15.17619 l 0.0169,-17.7056 z m 195.61649,-10.1174 0.027,-27.8231 18.34055,-0.5256 c 34.43005,-0.9868 57.10399,-21.51255 57.08903,-51.67988 -0.0101,-17.96861 -8.00423,-31.86002 -22.71603,-39.46782 -12.36784,-6.39561 -46.15536,-9.57257 -67.60222,-6.35639 l -15.51809,2.32733 v 75.67438 75.67438 h 15.17619 15.17623 l 0.027,-27.823 z M 945.26058,637.88252 V 422.04314 H 852.5171 759.77362 V 329.29966 236.55614 H 554.05169 348.32976 v 308.5829 308.58289 h 298.46541 298.46541 z"
   id="path53" /><path
   style="fill:#008fb4;stroke-width:95.1786"
   d="m 807.9582,568.4904 c -13.90896,-7.08992 -25.85456,-30.50478 -22.50248,-44.10755 5.27985,-21.42549 21.39845,-34.88992 41.7677,-34.88992 23.96148,0 40.46987,17.83601 40.46987,43.72443 0,29.00177 -33.37531,48.70961 -59.73509,35.27304 z"
   id="path56" /><path
   style="fill:#008fb4;stroke-width:95.1786"
   d="m 427.24369,797.23273 c 1.03532,-5.1009 7.28873,-49.42711 13.89626,-98.50265 6.60753,-49.07557 12.51482,-89.72943 13.12734,-90.34199 0.61267,-0.61267 15.30081,17.91413 32.64064,41.17029 17.33983,23.25621 32.5973,42.28399 33.90546,42.28399 1.30831,0 4.51056,-7.20868 7.11641,-16.01933 2.60588,-8.81062 15.9714,-53.613 29.70126,-99.56085 l 24.96338,-83.54152 27.90745,98.71775 c 15.34911,54.29474 29.59729,104.7882 31.6627,112.20769 5.24469,18.84046 6.58101,13.85873 20.12866,-75.03794 6.28961,-41.27086 12.20486,-75.00352 13.14498,-74.96151 0.94012,0.0407 23.4879,38.74132 50.10608,85.99852 26.61821,47.25717 49.21889,85.92211 50.22376,85.92211 1.00494,0 9.90627,-6.90231 19.78087,-15.33847 l 17.95388,-15.33844 15.75497,31.35777 c 8.66523,17.24679 20.77174,42.36056 26.90336,55.80835 l 11.14839,24.45057 H 646.33533 425.36113 Z"
   id="path58" /><path
   style="fill:#008fb4;stroke-width:95.1786"
   d="m 811.05633,967.54349 0.99086,-24.45057 14.29775,0.28892 c 39.69326,0.80084 36.64769,48.61263 -3.09668,48.61263 h -13.18291 z"
   id="path68" /><path
   style="fill:#008fb4;stroke-width:95.1786"
   d="m 483.2294,962.0857 v -20.67903 h 12.73955 c 36.19771,0 37.08589,34.675 1.01235,39.51353 l -13.75172,1.84431 z"
   id="path70" /><path
   style="fill:#008fb4;stroke-width:95.1786"
   d="m 483.2294,1027.1486 v -25.6299 l 14.33305,2.3743 c 24.85447,4.1173 32.58496,12.485 28.08777,30.4033 -2.41734,9.6317 -8.83418,13.3541 -28.08777,16.2939 l -14.33305,2.1884 z"
   id="path72" /></svg>
