<?xml version="1.0" encoding="UTF-8" standalone="no"?>
<svg
   xmlns:dc="http://purl.org/dc/elements/1.1/"
   xmlns:cc="http://creativecommons.org/ns#"
   xmlns:rdf="http://www.w3.org/1999/02/22-rdf-syntax-ns#"
   xmlns:svg="http://www.w3.org/2000/svg"
   xmlns="http://www.w3.org/2000/svg"
   xmlns:sodipodi="http://sodipodi.sourceforge.net/DTD/sodipodi-0.dtd"
   xmlns:inkscape="http://www.inkscape.org/namespaces/inkscape"
   height="48"
   width="48"
   viewBox="0 0 48 48"
   version="1.1"
   id="svg7"
   sodipodi:docname="calc.svg"
   inkscape:version="1.0.1 (3bc2e813f5, 2020-09-07)">
  <metadata
     id="metadata13">
    <rdf:RDF>
      <cc:Work
         rdf:about="">
        <dc:format>image/svg+xml</dc:format>
        <dc:type
           rdf:resource="http://purl.org/dc/dcmitype/StillImage" />
      </cc:Work>
    </rdf:RDF>
  </metadata>
  <defs
     id="defs11" />
  <sodipodi:namedview
     pagecolor="#ffffff"
     bordercolor="#666666"
     borderopacity="1"
     objecttolerance="10"
     gridtolerance="10"
     guidetolerance="10"
     inkscape:pageopacity="0"
     inkscape:pageshadow="2"
     inkscape:window-width="1366"
     inkscape:window-height="705"
     id="namedview9"
     showgrid="false"
     inkscape:zoom="11.208333"
     inkscape:cx="24"
     inkscape:cy="16.862453"
     inkscape:window-x="-8"
     inkscape:window-y="-8"
     inkscape:window-maximized="1"
     inkscape:current-layer="svg7"
     inkscape:document-rotation="0" />
  <path
     style="fill:#008fb4;stroke-width:0.124907"
     d="m 13.732924,41.805668 c -1.068895,-0.441414 -1.781807,-1.105445 -2.362695,-2.2007 l -0.29811,-0.562082 V 23.991584 8.940282 L 11.404782,8.3100454 C 11.854651,7.4577618 12.67749,6.658219 13.507806,6.266562 L 14.194795,5.9425124 H 24 33.805205 l 0.686989,0.3240496 c 0.830316,0.391657 1.653155,1.1911998 2.103024,2.0434834 l 0.332663,0.6302366 v 15.051302 15.051302 l -0.332663,0.630235 c -0.449869,0.852285 -1.272708,1.651828 -2.103024,2.043484 l -0.686989,0.324051 -9.680298,0.02946 -9.680298,0.02946 z m 4.059447,-5.206832 c 0.738676,-0.205124 0.983306,-0.700351 0.935823,-1.894467 -0.03423,-0.860713 -0.07582,-1.003429 -0.381507,-1.309119 -0.299256,-0.299256 -0.459465,-0.348969 -1.253891,-0.389086 -1.63269,-0.08245 -2.211251,0.409422 -2.210818,1.879549 2.63e-4,0.890146 0.312694,1.491741 0.874156,1.683208 0.551335,0.188014 1.420899,0.200789 2.036237,0.02992 z m 7.541492,-0.120358 c 0.405189,-0.253222 0.539743,-0.660079 0.539743,-1.632054 0,-1.468341 -0.395738,-1.861527 -1.873606,-1.861527 -1.48223,0 -1.873606,0.391794 -1.873606,1.875615 0,1.159439 0.182836,1.505442 0.936803,1.772831 0.39495,0.140066 1.9707,0.03259 2.270666,-0.154865 z m 6.910003,0.09045 c 0.561462,-0.191467 0.873894,-0.793062 0.874156,-1.683207 3.75e-4,-1.470128 -0.578128,-1.961997 -2.210818,-1.879549 -0.795021,0.04015 -0.954516,0.08971 -1.254726,0.389921 -0.323613,0.323612 -0.343927,0.409385 -0.343927,1.452138 0,1.238873 0.149808,1.542169 0.86419,1.749597 0.549197,0.159466 1.560128,0.145358 2.071125,-0.0289 z M 18.148154,30.351791 c 0.56937,-0.304717 0.812423,-1.952348 0.412369,-2.795398 -0.260396,-0.548747 -0.634783,-0.691946 -1.80904,-0.691946 -0.918862,0 -1.021258,0.02667 -1.399326,0.364427 -0.395652,0.353468 -0.40792,0.394198 -0.40792,1.354356 0,1.065635 0.165108,1.543188 0.607617,1.757458 0.356801,0.172768 2.278867,0.180987 2.5963,0.01106 z m 7.360339,-0.230153 c 0.346416,-0.346415 0.365113,-0.419618 0.365113,-1.429464 0,-0.945049 -0.0338,-1.103639 -0.301454,-1.414815 C 25.278591,26.936072 25.237443,26.9269 24,26.9269 c -1.237443,0 -1.278591,0.0091 -1.572154,0.350459 -0.267662,0.311176 -0.301452,0.469766 -0.301452,1.414815 0,1.009846 0.0187,1.083049 0.365113,1.429464 0.350364,0.350364 0.4113,0.365113 1.508493,0.365113 1.097194,0 1.158129,-0.01476 1.508493,-0.365113 z m 6.903134,0.226409 c 0.478191,-0.217877 0.644136,-0.672536 0.644136,-1.764817 0,-0.960158 -0.01232,-1.000888 -0.40792,-1.354356 -0.378068,-0.33776 -0.480464,-0.364427 -1.399326,-0.364427 -1.174257,0 -1.548642,0.143199 -1.809041,0.691946 -0.391,0.823974 -0.161998,2.469059 0.388226,2.788898 0.304634,0.177079 2.196896,0.179099 2.583925,0.0028 z m -14.06887,-6.388123 c 0.300668,-0.300708 0.349707,-0.459284 0.390237,-1.261897 0.05011,-0.992203 -0.142866,-1.582529 -0.596708,-1.825418 -0.132174,-0.07074 -0.752433,-0.128604 -1.378361,-0.128604 -1.031334,0 -1.165866,0.02782 -1.434638,0.296585 -0.52373,0.52373 -0.584843,2.320637 -0.09737,2.862933 0.347252,0.386304 0.651025,0.461109 1.745265,0.429769 0.935318,-0.02678 1.058601,-0.06035 1.371573,-0.373362 z m 6.908815,0.217728 c 0.522332,-0.270109 0.622034,-0.540404 0.622034,-1.686349 0,-0.957595 -0.02135,-1.03843 -0.365113,-1.382189 C 25.158129,20.758749 25.097194,20.744 24,20.744 c -1.097193,0 -1.158129,0.01476 -1.508493,0.365114 -0.34376,0.343759 -0.365113,0.424594 -0.365113,1.382189 0,1.132025 0.09874,1.410202 0.596449,1.680297 0.462291,0.250876 2.047951,0.25467 2.528729,0.006 z m 7.424936,-0.187167 c 0.58117,-0.581253 0.581294,-2.36881 2.5e-4,-2.949901 C 32.407941,20.771812 32.273408,20.744 31.242075,20.744 c -0.625927,0 -1.246191,0.05788 -1.378361,0.128604 -0.452032,0.24192 -0.646786,0.833711 -0.597243,1.814803 0.07113,1.408732 0.428319,1.692865 2.069026,1.645874 0.909621,-0.02605 1.063688,-0.06544 1.341011,-0.342802 z m -0.07204,-6.806337 c 0.801562,-0.473328 0.888477,-0.818932 0.888477,-3.532877 0,-2.596647 -0.04038,-2.796971 -0.685184,-3.399465 L 32.473555,9.939539 H 24 15.526445 l -0.334198,0.312267 c -0.644084,0.601818 -0.685184,0.804485 -0.685184,3.378638 0,2.971478 0.104384,3.288024 1.216661,3.68928 0.379988,0.137088 1.994853,0.164142 8.463637,0.141822 7.743535,-0.02673 8.007309,-0.03541 8.417099,-0.277398 z"
     id="path20" />
</svg>
