<?xml version="1.0" encoding="UTF-8" standalone="no"?>
<svg
   xmlns:ooo="http://xml.openoffice.org/svg/export"
   xmlns:dc="http://purl.org/dc/elements/1.1/"
   xmlns:cc="http://creativecommons.org/ns#"
   xmlns:rdf="http://www.w3.org/1999/02/22-rdf-syntax-ns#"
   xmlns:svg="http://www.w3.org/2000/svg"
   xmlns="http://www.w3.org/2000/svg"
   xmlns:sodipodi="http://sodipodi.sourceforge.net/DTD/sodipodi-0.dtd"
   xmlns:inkscape="http://www.inkscape.org/namespaces/inkscape"
   version="1.2"
   width="12.96mm"
   height="12.96mm"
   viewBox="0 0 1296 1296"
   preserveAspectRatio="xMidYMid"
   fill-rule="evenodd"
   stroke-width="28.222"
   stroke-linejoin="round"
   xml:space="preserve"
   id="svg70"
   sodipodi:docname="database.svg"
   inkscape:version="1.0.1 (3bc2e813f5, 2020-09-07)"><metadata
   id="metadata74"><rdf:RDF><cc:Work
       rdf:about=""><dc:format>image/svg+xml</dc:format><dc:type
         rdf:resource="http://purl.org/dc/dcmitype/StillImage" /></cc:Work></rdf:RDF></metadata><sodipodi:namedview
   pagecolor="#ffffff"
   bordercolor="#666666"
   borderopacity="1"
   objecttolerance="10"
   gridtolerance="10"
   guidetolerance="10"
   inkscape:pageopacity="0"
   inkscape:pageshadow="2"
   inkscape:window-width="1366"
   inkscape:window-height="705"
   id="namedview72"
   showgrid="false"
   inkscape:zoom="10.983475"
   inkscape:cx="24.491339"
   inkscape:cy="24.491339"
   inkscape:window-x="-8"
   inkscape:window-y="-8"
   inkscape:window-maximized="1"
   inkscape:current-layer="svg70"
   inkscape:document-rotation="0" />
 <defs
   class="ClipPathGroup"
   id="defs8">
  <clipPath
   id="presentation_clip_path"
   clipPathUnits="userSpaceOnUse">
   <rect
   x="0"
   y="0"
   width="1296"
   height="1296"
   id="rect2" />
  </clipPath>
  <clipPath
   id="presentation_clip_path_shrink"
   clipPathUnits="userSpaceOnUse">
   <rect
   x="1"
   y="1"
   width="1294"
   height="1294"
   id="rect5" />
  </clipPath>
 </defs>
 <defs
   class="TextShapeIndex"
   id="defs12">
  <g
   ooo:slide="id1"
   ooo:id-list="id3"
   id="g10" />
 </defs>
 <defs
   class="EmbeddedBulletChars"
   id="defs44">
  <g
   id="bullet-char-template-57356"
   transform="scale(0.00048828125,-0.00048828125)">
   <path
   d="M 580,1141 L 1163,571 580,0 -4,571 580,1141 Z"
   id="path14" />
  </g>
  <g
   id="bullet-char-template-57354"
   transform="scale(0.00048828125,-0.00048828125)">
   <path
   d="M 8,1128 L 1137,1128 1137,0 8,0 8,1128 Z"
   id="path17" />
  </g>
  <g
   id="bullet-char-template-10146"
   transform="scale(0.00048828125,-0.00048828125)">
   <path
   d="M 174,0 L 602,739 174,1481 1456,739 174,0 Z M 1358,739 L 309,1346 659,739 1358,739 Z"
   id="path20" />
  </g>
  <g
   id="bullet-char-template-10132"
   transform="scale(0.00048828125,-0.00048828125)">
   <path
   d="M 2015,739 L 1276,0 717,0 1260,543 174,543 174,936 1260,936 717,1481 1274,1481 2015,739 Z"
   id="path23" />
  </g>
  <g
   id="bullet-char-template-10007"
   transform="scale(0.00048828125,-0.00048828125)">
   <path
   d="M 0,-2 C -7,14 -16,27 -25,37 L 356,567 C 262,823 215,952 215,954 215,979 228,992 255,992 264,992 276,990 289,987 310,991 331,999 354,1012 L 381,999 492,748 772,1049 836,1024 860,1049 C 881,1039 901,1025 922,1006 886,937 835,863 770,784 769,783 710,716 594,584 L 774,223 C 774,196 753,168 711,139 L 727,119 C 717,90 699,76 672,76 641,76 570,178 457,381 L 164,-76 C 142,-110 111,-127 72,-127 30,-127 9,-110 8,-76 1,-67 -2,-52 -2,-32 -2,-23 -1,-13 0,-2 Z"
   id="path26" />
  </g>
  <g
   id="bullet-char-template-10004"
   transform="scale(0.00048828125,-0.00048828125)">
   <path
   d="M 285,-33 C 182,-33 111,30 74,156 52,228 41,333 41,471 41,549 55,616 82,672 116,743 169,778 240,778 293,778 328,747 346,684 L 369,508 C 377,444 397,411 428,410 L 1163,1116 C 1174,1127 1196,1133 1229,1133 1271,1133 1292,1118 1292,1087 L 1292,965 C 1292,929 1282,901 1262,881 L 442,47 C 390,-6 338,-33 285,-33 Z"
   id="path29" />
  </g>
  <g
   id="bullet-char-template-9679"
   transform="scale(0.00048828125,-0.00048828125)">
   <path
   d="M 813,0 C 632,0 489,54 383,161 276,268 223,411 223,592 223,773 276,916 383,1023 489,1130 632,1184 813,1184 992,1184 1136,1130 1245,1023 1353,916 1407,772 1407,592 1407,412 1353,268 1245,161 1136,54 992,0 813,0 Z"
   id="path32" />
  </g>
  <g
   id="bullet-char-template-8226"
   transform="scale(0.00048828125,-0.00048828125)">
   <path
   d="M 346,457 C 273,457 209,483 155,535 101,586 74,649 74,723 74,796 101,859 155,911 209,963 273,989 346,989 419,989 480,963 531,910 582,859 608,796 608,723 608,648 583,586 532,535 482,483 420,457 346,457 Z"
   id="path35" />
  </g>
  <g
   id="bullet-char-template-8211"
   transform="scale(0.00048828125,-0.00048828125)">
   <path
   d="M -4,459 L 1135,459 1135,606 -4,606 -4,459 Z"
   id="path38" />
  </g>
  <g
   id="bullet-char-template-61548"
   transform="scale(0.00048828125,-0.00048828125)">
   <path
   d="M 173,740 C 173,903 231,1043 346,1159 462,1274 601,1332 765,1332 928,1332 1067,1274 1183,1159 1299,1043 1357,903 1357,740 1357,577 1299,437 1183,322 1067,206 928,148 765,148 601,148 462,206 346,322 231,437 173,577 173,740 Z"
   id="path41" />
  </g>
 </defs>
 <defs
   class="TextEmbeddedBitmaps"
   id="defs46" />
 <g
   id="g51">
  <g
   id="id2"
   class="Master_Slide">
   <g
   id="bg-id2"
   class="Background" />
   <g
   id="bo-id2"
   class="BackgroundObjects" />
  </g>
 </g>
 
<path
   style="fill:#008fb4;stroke-width:95.1786"
   d="M 565.38262,1123.0437 C 406.15898,1109.2159 279.06114,1053.4987 240.66141,980.69252 l -9.15537,-17.35858 -0.94493,-309.9357 c -1.05198,-345.00078 -2.25287,-325.57246 22.11247,-357.73174 42.58662,-56.20947 135.29939,-98.01803 262.12161,-118.20299 46.57267,-7.41249 165.53031,-10.27021 219.66471,-5.277 143.88683,13.27177 258.44115,59.17429 306.6882,122.89166 26.5208,35.02474 25.3033,16.97215 24.2762,359.93379 l -0.913,304.94948 -9.5581,18.15338 c -40.8304,77.54778 -162.17285,130.78508 -331.06351,145.24938 -46.77955,4.0063 -110.16077,3.8781 -158.50707,-0.3186 z m 158.50707,-56.92 c 133.86514,-12.4063 240.45135,-52.2207 274.01487,-102.35597 l 10.96064,-16.3723 v -50.2062 c 0,-27.61345 -0.9316,-50.20624 -2.0707,-50.20624 -1.139,0 -12.90036,6.7421 -26.13676,14.98247 -54.27241,33.7874 -130.59962,57.30575 -226.41559,69.76446 -49.74644,6.4684 -175.7833,5.52439 -225.95687,-1.69244 -93.47468,-13.44501 -174.77173,-40.17543 -223.19204,-73.38547 -7.75367,-5.31799 -15.72119,-9.66909 -17.70555,-9.66909 -4.85345,0 -4.77252,81.57853 0.10002,99.48847 7.76819,28.56142 57.75829,64.94301 119.52353,86.98641 42.3101,15.1 103.90332,26.9016 176.92148,33.8989 27.52729,2.6381 105.61246,1.9499 139.95834,-1.2331 z m -0.58044,-189.02024 c 111.96069,-9.83079 210.5382,-42.30451 256.81831,-84.60191 27.11344,-24.78013 29.08534,-31.00872 27.98534,-88.39453 l -0.9342,-48.72972 -26.43702,16.31556 c -47.05636,29.04067 -109.09312,50.09245 -189.40238,64.27252 -51.29463,9.05705 -177.50436,12.69777 -234.84438,6.77458 -102.30794,-10.56843 -190.08631,-37.29614 -251.70286,-76.64124 -9.77408,-6.24123 -18.50039,-11.34768 -19.39184,-11.34768 -3.3193,0 -1.44166,86.50796 2.15916,99.48847 16.64142,59.98879 142.95957,112.91448 296.37182,124.17596 35.97564,2.64071 101.37033,2.02507 139.37797,-1.31201 z m 17.44288,-192.22595 c 101.98404,-9.70751 196.0798,-41.66554 239.48782,-81.33809 26.99185,-24.66897 28.97235,-30.94265 27.87305,-88.29185 l -0.9342,-48.72972 -26.87032,16.58285 c -47.111,29.07423 -120.04219,53.15001 -199.08655,65.72173 -45.82117,7.28762 -171.8271,10.09675 -223.01769,4.97181 -103.84727,-10.39663 -194.12389,-37.71997 -252.85256,-76.52897 -9.46633,-6.25556 -18.33185,-11.37372 -19.70113,-11.37372 -1.36943,0 -1.97099,22.38491 -1.3372,49.74425 1.0968,47.3497 1.60575,50.51517 10.56695,65.76011 20.25064,34.45031 81.4887,67.01008 165.955,88.23695 74.93351,18.83121 181.35044,24.62682 279.91672,15.24465 z M 754.91249,494.44079 C 925.07265,472.31246 1034.2481,404.05064 1003.4114,339.06711 984.75796,299.75786 903.3529,258.36988 809.21191,240.33214 746.26556,228.27141 708.64412,225.5887 626.65898,227.31455 c -105.52144,2.22139 -174.62141,14.56089 -244.54348,43.66953 -33.17541,13.81095 -73.09088,40.81555 -83.43613,56.44828 -20.99137,31.72015 -17.62869,52.80267 13.20879,82.81309 41.52908,40.41527 120.37416,69.60544 227.44265,84.20415 46.78103,6.37858 166.50214,6.37369 215.58168,-0.009 z"
   id="path53" /></svg>
