<?xml version="1.0" encoding="UTF-8" standalone="no"?>
<svg
   xmlns:ooo="http://xml.openoffice.org/svg/export"
   xmlns:dc="http://purl.org/dc/elements/1.1/"
   xmlns:cc="http://creativecommons.org/ns#"
   xmlns:rdf="http://www.w3.org/1999/02/22-rdf-syntax-ns#"
   xmlns:svg="http://www.w3.org/2000/svg"
   xmlns="http://www.w3.org/2000/svg"
   xmlns:sodipodi="http://sodipodi.sourceforge.net/DTD/sodipodi-0.dtd"
   xmlns:inkscape="http://www.inkscape.org/namespaces/inkscape"
   version="1.2"
   width="12.7mm"
   height="12.7mm"
   viewBox="0 0 1270 1270"
   preserveAspectRatio="xMidYMid"
   fill-rule="evenodd"
   stroke-width="28.222"
   stroke-linejoin="round"
   xml:space="preserve"
   id="svg87"
   sodipodi:docname="document.svg"
   inkscape:version="1.0.1 (3bc2e813f5, 2020-09-07)"><metadata
   id="metadata91"><rdf:RDF><cc:Work
       rdf:about=""><dc:format>image/svg+xml</dc:format><dc:type
         rdf:resource="http://purl.org/dc/dcmitype/StillImage" /></cc:Work></rdf:RDF></metadata><sodipodi:namedview
   pagecolor="#ffffff"
   bordercolor="#666666"
   borderopacity="1"
   objecttolerance="10"
   gridtolerance="10"
   guidetolerance="10"
   inkscape:pageopacity="0"
   inkscape:pageshadow="2"
   inkscape:window-width="1366"
   inkscape:window-height="705"
   id="namedview89"
   showgrid="false"
   inkscape:zoom="7.925489"
   inkscape:cx="24"
   inkscape:cy="16.429489"
   inkscape:window-x="-8"
   inkscape:window-y="-8"
   inkscape:window-maximized="1"
   inkscape:current-layer="svg87"
   inkscape:document-rotation="0" />
 <defs
   class="ClipPathGroup"
   id="defs8">
  <clipPath
   id="presentation_clip_path"
   clipPathUnits="userSpaceOnUse">
   <rect
   x="0"
   y="0"
   width="1270"
   height="1270"
   id="rect2" />
  </clipPath>
  <clipPath
   id="presentation_clip_path_shrink"
   clipPathUnits="userSpaceOnUse">
   <rect
   x="1"
   y="1"
   width="1268"
   height="1268"
   id="rect5" />
  </clipPath>
 </defs>
 <defs
   class="TextShapeIndex"
   id="defs12">
  <g
   ooo:slide="id1"
   ooo:id-list="id3"
   id="g10" />
 </defs>
 <defs
   class="EmbeddedBulletChars"
   id="defs44">
  <g
   id="bullet-char-template-57356"
   transform="scale(0.00048828125,-0.00048828125)">
   <path
   d="M 580,1141 L 1163,571 580,0 -4,571 580,1141 Z"
   id="path14" />
  </g>
  <g
   id="bullet-char-template-57354"
   transform="scale(0.00048828125,-0.00048828125)">
   <path
   d="M 8,1128 L 1137,1128 1137,0 8,0 8,1128 Z"
   id="path17" />
  </g>
  <g
   id="bullet-char-template-10146"
   transform="scale(0.00048828125,-0.00048828125)">
   <path
   d="M 174,0 L 602,739 174,1481 1456,739 174,0 Z M 1358,739 L 309,1346 659,739 1358,739 Z"
   id="path20" />
  </g>
  <g
   id="bullet-char-template-10132"
   transform="scale(0.00048828125,-0.00048828125)">
   <path
   d="M 2015,739 L 1276,0 717,0 1260,543 174,543 174,936 1260,936 717,1481 1274,1481 2015,739 Z"
   id="path23" />
  </g>
  <g
   id="bullet-char-template-10007"
   transform="scale(0.00048828125,-0.00048828125)">
   <path
   d="M 0,-2 C -7,14 -16,27 -25,37 L 356,567 C 262,823 215,952 215,954 215,979 228,992 255,992 264,992 276,990 289,987 310,991 331,999 354,1012 L 381,999 492,748 772,1049 836,1024 860,1049 C 881,1039 901,1025 922,1006 886,937 835,863 770,784 769,783 710,716 594,584 L 774,223 C 774,196 753,168 711,139 L 727,119 C 717,90 699,76 672,76 641,76 570,178 457,381 L 164,-76 C 142,-110 111,-127 72,-127 30,-127 9,-110 8,-76 1,-67 -2,-52 -2,-32 -2,-23 -1,-13 0,-2 Z"
   id="path26" />
  </g>
  <g
   id="bullet-char-template-10004"
   transform="scale(0.00048828125,-0.00048828125)">
   <path
   d="M 285,-33 C 182,-33 111,30 74,156 52,228 41,333 41,471 41,549 55,616 82,672 116,743 169,778 240,778 293,778 328,747 346,684 L 369,508 C 377,444 397,411 428,410 L 1163,1116 C 1174,1127 1196,1133 1229,1133 1271,1133 1292,1118 1292,1087 L 1292,965 C 1292,929 1282,901 1262,881 L 442,47 C 390,-6 338,-33 285,-33 Z"
   id="path29" />
  </g>
  <g
   id="bullet-char-template-9679"
   transform="scale(0.00048828125,-0.00048828125)">
   <path
   d="M 813,0 C 632,0 489,54 383,161 276,268 223,411 223,592 223,773 276,916 383,1023 489,1130 632,1184 813,1184 992,1184 1136,1130 1245,1023 1353,916 1407,772 1407,592 1407,412 1353,268 1245,161 1136,54 992,0 813,0 Z"
   id="path32" />
  </g>
  <g
   id="bullet-char-template-8226"
   transform="scale(0.00048828125,-0.00048828125)">
   <path
   d="M 346,457 C 273,457 209,483 155,535 101,586 74,649 74,723 74,796 101,859 155,911 209,963 273,989 346,989 419,989 480,963 531,910 582,859 608,796 608,723 608,648 583,586 532,535 482,483 420,457 346,457 Z"
   id="path35" />
  </g>
  <g
   id="bullet-char-template-8211"
   transform="scale(0.00048828125,-0.00048828125)">
   <path
   d="M -4,459 L 1135,459 1135,606 -4,606 -4,459 Z"
   id="path38" />
  </g>
  <g
   id="bullet-char-template-61548"
   transform="scale(0.00048828125,-0.00048828125)">
   <path
   d="M 173,740 C 173,903 231,1043 346,1159 462,1274 601,1332 765,1332 928,1332 1067,1274 1183,1159 1299,1043 1357,903 1357,740 1357,577 1299,437 1183,322 1067,206 928,148 765,148 601,148 462,206 346,322 231,437 173,577 173,740 Z"
   id="path41" />
  </g>
 </defs>
 <defs
   class="TextEmbeddedBitmaps"
   id="defs46" />
 <g
   id="g51">
  <g
   id="id2"
   class="Master_Slide">
   <g
   id="bg-id2"
   class="Background" />
   <g
   id="bo-id2"
   class="BackgroundObjects" />
  </g>
 </g>
 
<path
   style="fill:#008fb4;stroke-width:93.2691"
   d="M 227.56089,635.00004 V 96.312345 l 288.34663,0.0663 288.34663,0.0663 121.10606,118.081275 121.10599,118.08132 0.3482,420.53992 0.3482,420.53994 H 637.36011 227.56089 Z M 876.94957,1110.497 c 17.47174,-4.8504 39.33806,-26.9155 44.82638,-45.2339 4.06588,-13.5707 3.8753,-14.5857 -4.2678,-22.7288 -11.64264,-11.6426 -23.72766,-8.6949 -28.92576,7.0556 -2.06989,6.2717 -8.92945,15.939 -15.24353,21.4829 -9.44878,8.2961 -14.33876,10.0796 -27.63572,10.0796 -28.80297,0 -43.60719,-19.8461 -43.97557,-58.9523 -0.23706,-25.16989 5.56851,-41.13111 19.36754,-53.24681 9.45255,-8.29944 14.33668,-10.07966 27.65397,-10.07966 13.92622,0 17.69918,1.52945 27.14987,11.00448 6.03683,6.05246 13.64801,14.9755 16.91375,19.829 11.4831,17.06589 34.41219,7.79949 30.28601,-12.23953 -11.06213,-53.7242 -93.73339,-69.3873 -136.18899,-25.80278 -30.78747,31.6061 -33.22082,93.1323 -5.28029,133.5092 17.16719,24.8084 58.05067,35.6696 95.32014,25.323 z m -375.78215,-5.8891 c 28.43781,-14.5838 40.91748,-40.0799 41.19193,-84.1554 0.22225,-35.51173 -7.86143,-58.75771 -25.95262,-74.64199 -15.21827,-13.36182 -29.80387,-16.64052 -74.12259,-16.66193 -56.94812,-0.0276 -52.78645,-7.32344 -52.78645,92.54002 0,74.8652 0.52043,82.5724 5.78346,85.6378 3.18077,1.8528 25.54775,3.4137 49.70414,3.4689 36.80471,0.085 45.90725,-0.9182 56.18213,-6.1875 z m 182.84911,2.9303 c 33.42514,-9.2845 52.89361,-37.844 55.13585,-80.8821 0.75862,-14.5596 -0.31115,-32.72987 -2.37622,-40.37849 -5.42597,-20.09163 -22.49714,-40.9802 -41.00023,-50.16853 -18.99601,-9.43307 -53.59348,-12.77127 -74.30088,-7.16897 -17.13863,4.6368 -38.23619,22.89519 -47.69341,41.27516 -9.66276,18.77945 -11.69594,57.44843 -4.34932,82.71983 6.71225,23.0894 26.83854,46.0519 46.44658,52.992 15.52669,5.4955 51.12362,6.3372 68.13782,1.6113 z M 974.45305,623.43326 V 380.52809 H 868.69839 762.94376 V 276.42586 172.32363 H 531.60548 300.2672 v 347.00744 347.0074 h 337.09291 337.09294 z"
   id="path63" /><path
   style="fill:#008fb4;stroke-width:93.2691"
   d="m 419.35508,434.16205 c -5.60581,-4.53931 -11.62011,-22.52578 -26.79794,-80.1422 -20.72714,-78.68228 -21.89218,-85.53058 -15.61784,-91.80492 5.18028,-5.18024 17.43388,-5.08015 21.7978,0.1778 1.89135,2.27918 9.5246,30.79841 16.96245,63.37622 7.43782,32.57781 14.10358,59.81262 14.81278,60.52182 1.69392,1.69392 5.75754,-11.45235 20.02139,-64.76913 15.65225,-58.50631 18.21635,-63.12241 35.11809,-63.22216 15.78646,-0.0926 19.72288,8.14458 39.45653,82.57021 6.02431,22.72073 11.4378,41.93005 12.03002,42.68741 2.46475,3.15224 4.50356,-4.03932 15.84457,-55.89184 6.54389,-29.91948 14.11195,-57.77792 16.81788,-61.9077 5.77072,-8.80725 15.32177,-9.70162 22.88079,-2.14249 6.40343,6.40343 6.92375,3.45303 -16.82914,95.4313 -17.98981,69.66193 -21.61456,77.66356 -35.1814,77.66356 -17.64498,0 -20.88894,-7.15049 -42.35492,-93.36149 -5.77046,-23.17515 -11.79481,-42.13663 -13.38745,-42.13663 -1.59279,0 -2.89555,1.72799 -2.89555,3.8397 0,2.11174 -7.64103,31.17964 -16.98008,64.59515 -15.52806,55.5599 -17.77493,61.16646 -26.27455,65.56178 -11.51833,5.95634 -10.72208,5.99923 -19.42328,-1.04642 z"
   id="path65" /><path
   style="fill:#008fb4;stroke-width:93.2691"
   d="m 369.66869,520.98331 v -31.39589 h 267.69142 267.69145 v 31.39589 31.39592 H 637.36011 369.66869 Z"
   id="path67" /><path
   style="fill:#008fb4;stroke-width:93.2691"
   d="m 369.66869,646.56697 v -31.39593 h 267.69142 267.69145 v 31.39593 31.39588 H 637.36011 369.66869 Z"
   id="path69" /><path
   style="fill:#008fb4;stroke-width:93.2691"
   d="m 369.66869,765.54091 v -31.39589 h 267.69142 267.69145 v 31.39589 31.39592 H 637.36011 369.66869 Z"
   id="path71" /><path
   style="fill:#008fb4;stroke-width:93.2691"
   d="m 425.85082,1021.2408 v -59.91161 l 26.98808,1.56242 c 25.01346,1.44796 27.64797,2.30103 36.00754,11.65683 24.28955,27.18476 16.99745,89.83966 -11.85926,101.89676 -6.19633,2.5889 -20.23687,4.7073 -31.2012,4.7073 h -19.93516 z"
   id="path73" /><path
   style="fill:#008fb4;stroke-width:93.2691"
   d="m 630.98538,1075.3638 c -14.92353,-7.6097 -23.43226,-19.7392 -25.69836,-36.6341 -1.81652,-13.5427 -1.6865,-13.7594 8.25055,-13.7594 6.04002,0 14.18111,-3.4375 20.26417,-8.5559 8.55466,-7.1983 10.16804,-10.894 10.16804,-23.2916 0,-11.62235 -1.81467,-16.4175 -8.58836,-22.69521 l -8.58837,-7.95944 8.78506,-2.20509 c 14.53141,-3.64712 36.35658,0.41264 45.64733,8.49069 28.72192,24.97334 24.36175,89.52795 -7.13211,105.59495 -16.30437,8.3178 -28.2352,8.5988 -43.10795,1.0149 z"
   id="path75" /></svg>
