<?xml version="1.0" encoding="UTF-8" standalone="no"?>
<svg
   xmlns:ooo="http://xml.openoffice.org/svg/export"
   xmlns:dc="http://purl.org/dc/elements/1.1/"
   xmlns:cc="http://creativecommons.org/ns#"
   xmlns:rdf="http://www.w3.org/1999/02/22-rdf-syntax-ns#"
   xmlns:svg="http://www.w3.org/2000/svg"
   xmlns="http://www.w3.org/2000/svg"
   xmlns:sodipodi="http://sodipodi.sourceforge.net/DTD/sodipodi-0.dtd"
   xmlns:inkscape="http://www.inkscape.org/namespaces/inkscape"
   version="1.2"
   width="12.96mm"
   height="12.96mm"
   viewBox="0 0 1296 1296"
   preserveAspectRatio="xMidYMid"
   fill-rule="evenodd"
   stroke-width="28.222"
   stroke-linejoin="round"
   xml:space="preserve"
   id="svg70"
   sodipodi:docname="eps.svg"
   inkscape:version="1.0.1 (3bc2e813f5, 2020-09-07)"><metadata
   id="metadata74"><rdf:RDF><cc:Work
       rdf:about=""><dc:format>image/svg+xml</dc:format><dc:type
         rdf:resource="http://purl.org/dc/dcmitype/StillImage" /></cc:Work></rdf:RDF></metadata><sodipodi:namedview
   pagecolor="#ffffff"
   bordercolor="#666666"
   borderopacity="1"
   objecttolerance="10"
   gridtolerance="10"
   guidetolerance="10"
   inkscape:pageopacity="0"
   inkscape:pageshadow="2"
   inkscape:window-width="1366"
   inkscape:window-height="705"
   id="namedview72"
   showgrid="false"
   inkscape:zoom="7.7664897"
   inkscape:cx="24.491339"
   inkscape:cy="33.50442"
   inkscape:window-x="-8"
   inkscape:window-y="-8"
   inkscape:window-maximized="1"
   inkscape:current-layer="svg70"
   inkscape:document-rotation="0" />
 <defs
   class="ClipPathGroup"
   id="defs8">
  <clipPath
   id="presentation_clip_path"
   clipPathUnits="userSpaceOnUse">
   <rect
   x="0"
   y="0"
   width="1296"
   height="1296"
   id="rect2" />
  </clipPath>
  <clipPath
   id="presentation_clip_path_shrink"
   clipPathUnits="userSpaceOnUse">
   <rect
   x="1"
   y="1"
   width="1294"
   height="1294"
   id="rect5" />
  </clipPath>
 </defs>
 <defs
   class="TextShapeIndex"
   id="defs12">
  <g
   ooo:slide="id1"
   ooo:id-list="id3"
   id="g10" />
 </defs>
 <defs
   class="EmbeddedBulletChars"
   id="defs44">
  <g
   id="bullet-char-template-57356"
   transform="scale(0.00048828125,-0.00048828125)">
   <path
   d="M 580,1141 L 1163,571 580,0 -4,571 580,1141 Z"
   id="path14" />
  </g>
  <g
   id="bullet-char-template-57354"
   transform="scale(0.00048828125,-0.00048828125)">
   <path
   d="M 8,1128 L 1137,1128 1137,0 8,0 8,1128 Z"
   id="path17" />
  </g>
  <g
   id="bullet-char-template-10146"
   transform="scale(0.00048828125,-0.00048828125)">
   <path
   d="M 174,0 L 602,739 174,1481 1456,739 174,0 Z M 1358,739 L 309,1346 659,739 1358,739 Z"
   id="path20" />
  </g>
  <g
   id="bullet-char-template-10132"
   transform="scale(0.00048828125,-0.00048828125)">
   <path
   d="M 2015,739 L 1276,0 717,0 1260,543 174,543 174,936 1260,936 717,1481 1274,1481 2015,739 Z"
   id="path23" />
  </g>
  <g
   id="bullet-char-template-10007"
   transform="scale(0.00048828125,-0.00048828125)">
   <path
   d="M 0,-2 C -7,14 -16,27 -25,37 L 356,567 C 262,823 215,952 215,954 215,979 228,992 255,992 264,992 276,990 289,987 310,991 331,999 354,1012 L 381,999 492,748 772,1049 836,1024 860,1049 C 881,1039 901,1025 922,1006 886,937 835,863 770,784 769,783 710,716 594,584 L 774,223 C 774,196 753,168 711,139 L 727,119 C 717,90 699,76 672,76 641,76 570,178 457,381 L 164,-76 C 142,-110 111,-127 72,-127 30,-127 9,-110 8,-76 1,-67 -2,-52 -2,-32 -2,-23 -1,-13 0,-2 Z"
   id="path26" />
  </g>
  <g
   id="bullet-char-template-10004"
   transform="scale(0.00048828125,-0.00048828125)">
   <path
   d="M 285,-33 C 182,-33 111,30 74,156 52,228 41,333 41,471 41,549 55,616 82,672 116,743 169,778 240,778 293,778 328,747 346,684 L 369,508 C 377,444 397,411 428,410 L 1163,1116 C 1174,1127 1196,1133 1229,1133 1271,1133 1292,1118 1292,1087 L 1292,965 C 1292,929 1282,901 1262,881 L 442,47 C 390,-6 338,-33 285,-33 Z"
   id="path29" />
  </g>
  <g
   id="bullet-char-template-9679"
   transform="scale(0.00048828125,-0.00048828125)">
   <path
   d="M 813,0 C 632,0 489,54 383,161 276,268 223,411 223,592 223,773 276,916 383,1023 489,1130 632,1184 813,1184 992,1184 1136,1130 1245,1023 1353,916 1407,772 1407,592 1407,412 1353,268 1245,161 1136,54 992,0 813,0 Z"
   id="path32" />
  </g>
  <g
   id="bullet-char-template-8226"
   transform="scale(0.00048828125,-0.00048828125)">
   <path
   d="M 346,457 C 273,457 209,483 155,535 101,586 74,649 74,723 74,796 101,859 155,911 209,963 273,989 346,989 419,989 480,963 531,910 582,859 608,796 608,723 608,648 583,586 532,535 482,483 420,457 346,457 Z"
   id="path35" />
  </g>
  <g
   id="bullet-char-template-8211"
   transform="scale(0.00048828125,-0.00048828125)">
   <path
   d="M -4,459 L 1135,459 1135,606 -4,606 -4,459 Z"
   id="path38" />
  </g>
  <g
   id="bullet-char-template-61548"
   transform="scale(0.00048828125,-0.00048828125)">
   <path
   d="M 173,740 C 173,903 231,1043 346,1159 462,1274 601,1332 765,1332 928,1332 1067,1274 1183,1159 1299,1043 1357,903 1357,740 1357,577 1299,437 1183,322 1067,206 928,148 765,148 601,148 462,206 346,322 231,437 173,577 173,740 Z"
   id="path41" />
  </g>
 </defs>
 <defs
   class="TextEmbeddedBitmaps"
   id="defs46" />
 <g
   id="g51">
  <g
   id="id2"
   class="Master_Slide">
   <g
   id="bg-id2"
   class="Background" />
   <g
   id="bo-id2"
   class="BackgroundObjects" />
  </g>
 </g>
 
<path
   style="fill:#008fb4;stroke-width:95.1786"
   d="M 280.87996,648 V 169.10634 l 257.1524,0.0228 257.15239,0.0228 108.60483,105.36754 108.60482,105.36757 0.1593,373.50331 0.1593,373.50334 H 646.79517 280.87996 Z m 520.31499,420.3097 c 17.49033,-7.4525 26.81539,-20.0225 28.38691,-38.2651 2.06471,-23.9688 -6.30126,-34.96774 -38.50744,-50.62551 -21.64463,-10.5231 -26.41967,-14.28245 -27.2557,-21.45839 -1.80022,-15.45274 12.56887,-20.70573 41.86149,-15.30343 13.65249,2.51772 13.90207,2.38734 16.06149,-8.41005 1.24201,-6.21037 0.66527,-12.49589 -1.3298,-14.49088 -1.93765,-1.93765 -14.47714,-4.00847 -27.86522,-4.60154 -38.38887,-1.70059 -60.67291,14.1345 -60.67291,43.11435 0,19.65305 8.84729,30.01305 37.47327,43.88075 32.04878,15.5257 37.42894,23.7814 24.15132,37.059 -8.17547,8.1755 -28.59117,8.9805 -45.76543,1.8047 -11.52222,-4.8143 -11.90663,-4.7226 -15.06788,3.5919 -5.68527,14.9533 -3.94894,20.3814 7.71659,24.1236 16.00552,5.1345 48.30156,4.9117 60.81316,-0.4193 z m -223.53583,-10.5521 v -11.8037 h -32.03867 -32.03867 v -21.9212 -21.9212 h 28.66618 28.66617 v -11.80372 -11.8037 H 542.24796 513.58178 V 959.9554 941.40667 h 30.35242 30.35243 V 927.91673 914.42674 H 528.75801 483.2294 v 77.56729 77.56727 h 47.21486 47.21486 z m 57.33235,-14.7044 v -26.5081 l 18.68756,-1.9287 c 33.06135,-3.4123 51.95512,-20.20025 54.59242,-48.50798 2.6544,-28.49119 -14.89398,-46.5051 -49.26942,-50.57635 -9.12922,-1.08125 -25.09558,-0.90419 -35.48077,0.39338 l -18.88221,2.35918 v 75.63838 75.63839 h 15.17619 15.17623 z M 948.63308,637.88252 V 422.04314 H 854.20335 759.77362 V 329.29966 236.55614 H 554.05169 348.32976 v 308.5829 308.58289 h 300.15166 300.15166 z"
   id="path56" /><path
   style="fill:#008fb4;stroke-width:95.1786"
   d="m 844.08586,761.61009 c 0,-7.56191 -1.77281,-8.02656 -58.17545,-15.24657 -68.48223,-8.76628 -69.97919,-8.81436 -69.97919,-2.24769 0,3.93457 -4.49664,5.05874 -20.23494,5.05874 -19.236,0 -20.23494,-0.40857 -20.23494,-8.2784 0,-9.42733 3.83863,-8.37564 -68.47792,-18.76072 -55.69922,-7.9987 -52.93173,-7.91362 -52.93173,-1.62724 0,3.74721 -3.93457,5.05875 -15.17623,5.05875 h -15.17619 v -15.1762 -15.17623 h 14.94164 c 12.85583,0 15.09207,1.04347 16.01934,7.47542 1.01087,7.01069 4.53697,7.94444 56.72375,15.01991 30.60538,4.14945 56.96735,7.61481 58.58214,7.70078 1.61465,0.0852 -2.98074,-5.58577 -10.21242,-12.60383 -18.7459,-18.19228 -28.66662,-36.84772 -46.1211,-86.72832 -24.87459,-71.08541 -23.76845,-69.13605 -39.23031,-69.13605 H 561.1185 L 560.1143,535.956 c -0.98346,-20.55438 -1.28164,-21.14794 -14.494,-28.83134 -11.56177,-6.72358 -16.97934,-7.65303 -37.90236,-6.50245 -19.64635,1.08051 -27.527,3.26819 -40.3656,11.20555 -17.77326,10.98838 -33.07647,31.00914 -36.41752,47.64403 -1.9195,9.55764 -1.30349,10.96059 4.81157,10.96059 6.38298,0 7.01295,1.96914 7.01295,21.92119 v 21.92118 H 422.5244 402.28947 v -21.92118 c 0,-19.15792 0.79417,-21.92119 6.30093,-21.92119 4.84298,0 6.73692,-3.25077 8.18532,-14.0492 5.35978,-39.96018 59.5374,-77.79072 103.8835,-72.53858 18.91344,2.23991 38.57038,11.62375 49.99951,23.8685 6.04813,6.47974 11.53381,8.75943 21.07808,8.75943 h 12.90209 v 18.83194 c 0,14.00983 4.70055,32.51459 18.35733,72.26778 27.07383,78.80859 38.8236,97.75977 60.6111,97.75977 20.04109,0 31.63287,3.7388 33.47896,10.79828 2.42993,9.29167 16.42016,6.19029 52.43914,-11.62472 20.38592,-10.08289 35.11954,-20.64898 52.68292,-37.78109 22.7837,-22.22422 43.20455,-52.44974 35.43587,-52.44974 -1.98691,0 -3.44117,-9.26427 -3.44117,-21.92118 v -21.92119 h 20.23494 20.23494 v 21.92119 c 0,20.99388 -0.3482,21.92118 -8.23344,21.92118 -6.61657,0 -10.35174,3.97431 -19.02016,20.2379 -16.00133,30.02157 -55.73959,66.49676 -92.04498,84.48678 -16.00796,7.93225 -28.72274,14.77214 -28.25505,15.19975 0.80158,0.73269 91.30911,14.97521 95.16445,14.97521 0.99086,0 1.80171,-2.27658 1.80171,-5.05875 0,-3.7472 3.9346,-5.05874 15.17623,-5.05874 h 15.17619 v 15.17623 15.17619 h -15.17619 c -13.61189,0 -15.17623,-0.8038 -15.17623,-7.79956 z m 23.60743,-7.37663 c 0,-6.74499 -1.68613,-8.43123 -8.4312,-8.43123 -6.74499,0 -8.43124,1.68613 -8.43124,8.43123 0,6.745 1.68614,8.43121 8.43124,8.43121 6.74496,0 8.4312,-1.68614 8.4312,-8.43121 z M 547.3067,710.3911 c 0,-6.74499 -1.68614,-8.43124 -8.43124,-8.43124 -6.74495,0 -8.4312,1.68613 -8.4312,8.43124 0,6.74495 1.68614,8.4312 8.4312,8.4312 6.74499,0 8.43124,-1.68614 8.43124,-8.4312 z M 436.01449,592.3539 v -15.17619 h -13.48994 -13.48998 v 15.17619 15.17623 h 13.48998 13.48994 z m 451.91378,0 v -15.17619 h -13.48998 -13.48995 v 15.17619 15.17623 h 13.48995 13.48998 z M 597.89406,538.39405 v -15.1762 h -15.17619 -15.17623 v 15.1762 15.17623 h 15.17623 15.17619 z"
   id="path58" /><path
   style="fill:#008fb4;stroke-width:95.1786"
   d="m 634.99147,964.90827 c 0,-27.24081 2.82665,-30.12613 23.45749,-23.94495 16.98557,5.08901 23.35792,18.63651 15.71656,33.41325 -5.92845,11.46436 -11.32501,14.245 -27.64616,14.245 h -11.52789 z"
   id="path60" /></svg>
