<?xml version="1.0" encoding="UTF-8" standalone="no"?>
<svg
   xmlns:ooo="http://xml.openoffice.org/svg/export"
   xmlns:dc="http://purl.org/dc/elements/1.1/"
   xmlns:cc="http://creativecommons.org/ns#"
   xmlns:rdf="http://www.w3.org/1999/02/22-rdf-syntax-ns#"
   xmlns:svg="http://www.w3.org/2000/svg"
   xmlns="http://www.w3.org/2000/svg"
   xmlns:sodipodi="http://sodipodi.sourceforge.net/DTD/sodipodi-0.dtd"
   xmlns:inkscape="http://www.inkscape.org/namespaces/inkscape"
   version="1.2"
   width="12.7mm"
   height="12.7mm"
   viewBox="0 0 1270 1270"
   preserveAspectRatio="xMidYMid"
   fill-rule="evenodd"
   stroke-width="28.222"
   stroke-linejoin="round"
   xml:space="preserve"
   id="svg79"
   sodipodi:docname="jpeg.svg"
   inkscape:version="1.0.1 (3bc2e813f5, 2020-09-07)"><metadata
   id="metadata83"><rdf:RDF><cc:Work
       rdf:about=""><dc:format>image/svg+xml</dc:format><dc:type
         rdf:resource="http://purl.org/dc/dcmitype/StillImage" /></cc:Work></rdf:RDF></metadata><sodipodi:namedview
   pagecolor="#ffffff"
   bordercolor="#666666"
   borderopacity="1"
   objecttolerance="10"
   gridtolerance="10"
   guidetolerance="10"
   inkscape:pageopacity="0"
   inkscape:pageshadow="2"
   inkscape:window-width="1366"
   inkscape:window-height="705"
   id="namedview81"
   showgrid="false"
   inkscape:zoom="5.604167"
   inkscape:cx="24"
   inkscape:cy="39.141022"
   inkscape:window-x="-8"
   inkscape:window-y="-8"
   inkscape:window-maximized="1"
   inkscape:current-layer="svg79"
   inkscape:document-rotation="0" />
 <defs
   class="ClipPathGroup"
   id="defs8">
  <clipPath
   id="presentation_clip_path"
   clipPathUnits="userSpaceOnUse">
   <rect
   x="0"
   y="0"
   width="1270"
   height="1270"
   id="rect2" />
  </clipPath>
  <clipPath
   id="presentation_clip_path_shrink"
   clipPathUnits="userSpaceOnUse">
   <rect
   x="1"
   y="1"
   width="1268"
   height="1268"
   id="rect5" />
  </clipPath>
 </defs>
 <defs
   class="TextShapeIndex"
   id="defs12">
  <g
   ooo:slide="id1"
   ooo:id-list="id3"
   id="g10" />
 </defs>
 <defs
   class="EmbeddedBulletChars"
   id="defs44">
  <g
   id="bullet-char-template-57356"
   transform="scale(0.00048828125,-0.00048828125)">
   <path
   d="M 580,1141 L 1163,571 580,0 -4,571 580,1141 Z"
   id="path14" />
  </g>
  <g
   id="bullet-char-template-57354"
   transform="scale(0.00048828125,-0.00048828125)">
   <path
   d="M 8,1128 L 1137,1128 1137,0 8,0 8,1128 Z"
   id="path17" />
  </g>
  <g
   id="bullet-char-template-10146"
   transform="scale(0.00048828125,-0.00048828125)">
   <path
   d="M 174,0 L 602,739 174,1481 1456,739 174,0 Z M 1358,739 L 309,1346 659,739 1358,739 Z"
   id="path20" />
  </g>
  <g
   id="bullet-char-template-10132"
   transform="scale(0.00048828125,-0.00048828125)">
   <path
   d="M 2015,739 L 1276,0 717,0 1260,543 174,543 174,936 1260,936 717,1481 1274,1481 2015,739 Z"
   id="path23" />
  </g>
  <g
   id="bullet-char-template-10007"
   transform="scale(0.00048828125,-0.00048828125)">
   <path
   d="M 0,-2 C -7,14 -16,27 -25,37 L 356,567 C 262,823 215,952 215,954 215,979 228,992 255,992 264,992 276,990 289,987 310,991 331,999 354,1012 L 381,999 492,748 772,1049 836,1024 860,1049 C 881,1039 901,1025 922,1006 886,937 835,863 770,784 769,783 710,716 594,584 L 774,223 C 774,196 753,168 711,139 L 727,119 C 717,90 699,76 672,76 641,76 570,178 457,381 L 164,-76 C 142,-110 111,-127 72,-127 30,-127 9,-110 8,-76 1,-67 -2,-52 -2,-32 -2,-23 -1,-13 0,-2 Z"
   id="path26" />
  </g>
  <g
   id="bullet-char-template-10004"
   transform="scale(0.00048828125,-0.00048828125)">
   <path
   d="M 285,-33 C 182,-33 111,30 74,156 52,228 41,333 41,471 41,549 55,616 82,672 116,743 169,778 240,778 293,778 328,747 346,684 L 369,508 C 377,444 397,411 428,410 L 1163,1116 C 1174,1127 1196,1133 1229,1133 1271,1133 1292,1118 1292,1087 L 1292,965 C 1292,929 1282,901 1262,881 L 442,47 C 390,-6 338,-33 285,-33 Z"
   id="path29" />
  </g>
  <g
   id="bullet-char-template-9679"
   transform="scale(0.00048828125,-0.00048828125)">
   <path
   d="M 813,0 C 632,0 489,54 383,161 276,268 223,411 223,592 223,773 276,916 383,1023 489,1130 632,1184 813,1184 992,1184 1136,1130 1245,1023 1353,916 1407,772 1407,592 1407,412 1353,268 1245,161 1136,54 992,0 813,0 Z"
   id="path32" />
  </g>
  <g
   id="bullet-char-template-8226"
   transform="scale(0.00048828125,-0.00048828125)">
   <path
   d="M 346,457 C 273,457 209,483 155,535 101,586 74,649 74,723 74,796 101,859 155,911 209,963 273,989 346,989 419,989 480,963 531,910 582,859 608,796 608,723 608,648 583,586 532,535 482,483 420,457 346,457 Z"
   id="path35" />
  </g>
  <g
   id="bullet-char-template-8211"
   transform="scale(0.00048828125,-0.00048828125)">
   <path
   d="M -4,459 L 1135,459 1135,606 -4,606 -4,459 Z"
   id="path38" />
  </g>
  <g
   id="bullet-char-template-61548"
   transform="scale(0.00048828125,-0.00048828125)">
   <path
   d="M 173,740 C 173,903 231,1043 346,1159 462,1274 601,1332 765,1332 928,1332 1067,1274 1183,1159 1299,1043 1357,903 1357,740 1357,577 1299,437 1183,322 1067,206 928,148 765,148 601,148 462,206 346,322 231,437 173,577 173,740 Z"
   id="path41" />
  </g>
 </defs>
 <defs
   class="TextEmbeddedBitmaps"
   id="defs46" />
 <g
   id="g51">
  <g
   id="id2"
   class="Master_Slide">
   <g
   id="bg-id2"
   class="Background" />
   <g
   id="bo-id2"
   class="BackgroundObjects" />
  </g>
 </g>
 
<path
   style="fill:#008fb4;stroke-width:93.2691"
   d="M 227.56176,634.99999 V 96.312298 h 288.88903 288.88903 l 120.56062,118.147772 120.56056,118.14776 0.3482,420.53993 0.3482,420.53994 H 637.36097 227.56176 Z m 605.61054,485.68551 12.39314,-3.4908 v -51.0695 -51.0696 h -34.70075 -34.70074 v 14.8717 14.8718 h 16.67516 16.67516 l -0.97716,22.3076 -0.97716,22.3076 -17.99995,1.0216 c -23.78505,1.3498 -30.77222,-0.7223 -45.22355,-13.4107 -15.34358,-13.4718 -21.04974,-27.1507 -21.04974,-50.4605 0,-27.73124 11.0795,-46.56152 34.39901,-58.46304 10.51761,-5.36786 17.27171,-6.29216 36.35317,-4.97499 12.88954,0.88974 26.57076,2.64588 30.40269,3.90241 6.06435,1.98877 7.43122,0.45635 10.54839,-11.82422 1.9695,-7.75993 2.89888,-15.21312 2.0647,-16.56266 -4.13777,-6.69499 -36.82642,-10.16686 -61.00088,-6.47892 -59.97587,9.1497 -88.89422,39.46223 -91.69127,96.11182 -1.3198,26.7312 -0.84974,29.1243 9.71162,49.4373 19.15343,36.8384 48.19335,50.999 98.61395,48.0864 15.45008,-0.8923 33.66799,-3.1933 40.48417,-5.1133 z m -365.59143,-5.5935 c 20.54375,-14.654 22.59864,-23.947 23.76467,-107.4721 l 1.04976,-75.185 H 472.51867 452.642 l -1.00198,74.2474 c -1.16977,86.6741 -0.93419,86.0122 -30.62556,86.0742 -9.80101,0.02 -18.46031,0.7641 -19.24289,1.6524 -0.78269,0.8882 -2.26917,7.1038 -3.30338,13.8122 -2.28954,14.8501 -0.39523,15.6773 33.99336,14.843 19.71421,-0.4782 26.90077,-2.1095 35.1195,-7.9721 z m 100.37862,-27.3299 v -36.3532 l 20.65521,-0.074 c 55.04095,-0.1926 87.0248,-44.5052 64.44424,-89.28382 -13.48736,-26.74631 -38.68113,-34.20257 -95.84013,-28.3647 l -25.61246,2.61589 v 93.90573 93.9058 h 18.17657 18.17657 z M 974.45392,623.43307 V 380.52789 H 868.69926 762.94463 V 276.42566 172.32343 l -162.76301,0.009 c -89.51966,0.005 -192.87828,0.98457 -229.68585,2.17694 l -66.92288,2.16842 V 521.50781 866.33827 H 639.0134 974.45392 Z"
   id="path59" /><path
   style="fill:#008fb4;stroke-width:93.2691"
   d="M 376.27924,626.73792 V 436.71003 H 643.97065 911.66207 V 626.73792 816.76578 H 643.97065 376.27924 Z m 245.70129,135.74423 c 30.81508,-16.72487 84.64573,-38.72581 112.6359,-46.03505 10.48049,-2.73701 19.85322,-5.77387 20.82834,-6.74899 5.13553,-5.13554 -17.64187,-39.13082 -41.189,-61.47458 -14.11843,-13.39689 -35.72439,-33.99428 -48.01322,-45.77194 l -22.34335,-21.41397 -8.67427,7.9784 c -4.77086,4.38811 -12.93425,13.77843 -18.14086,20.86739 -11.66779,15.88598 -12.24064,10.54221 -1.20459,-11.23659 4.54412,-8.96742 8.26207,-17.27934 8.26207,-18.47094 0,-1.19163 -13.39705,-1.52611 -29.77117,-0.74305 -16.37416,0.78306 -28.64239,0.29633 -27.26278,-1.08495 1.3798,-1.37981 15.5781,-6.76826 31.55217,-11.97472 l 29.0437,-9.4663 -13.62874,-15.48308 c -15.67118,-17.80371 -13.62426,-20.14959 4.52672,-5.18798 6.86948,5.66237 12.88883,9.75211 13.37633,9.08828 0.48747,-0.66378 2.64626,-7.15567 4.79683,-14.42632 2.15063,-7.27061 7.01887,-16.93726 10.81809,-21.48139 5.65374,-6.76221 6.49625,-7.06221 4.64121,-1.65243 -1.24645,3.63527 -3.08335,15.21227 -4.08181,25.72655 l -1.81541,19.11691 13.45664,-2.15175 c 16.92697,-2.70664 43.21633,3.36894 66.79802,15.43726 20.11207,10.29277 16.88941,12.16582 -7.96111,4.62714 -21.1273,-6.40918 -51.6223,-6.41199 -59.98249,-0.006 -6.27657,4.80971 -6.23667,5.05782 1.84689,11.48503 4.54413,3.61304 31.2675,20.36232 59.38528,37.22069 36.61135,21.95082 57.90842,37.27703 75.02674,53.99219 l 23.90355,23.34062 24.94441,-4.82968 24.94445,-4.82956 V 581.63092 476.36809 H 640.66565 412.63219 V 626.738 777.10786 h 91.20039 91.2004 z"
   id="path61" /><path
   style="fill:#008fb4;stroke-width:93.2691"
   d="m 567.95949,998.53157 v -29.74349 h 15.12596 c 12.31176,0 16.9233,1.79726 24.78625,9.66028 5.40278,5.40275 9.66028,13.21717 9.66028,17.73088 0,11.74216 -11.69476,24.75156 -25.76278,28.65876 -23.95058,6.6518 -23.80971,6.8075 -23.80971,-26.30643 z"
   id="path63" /></svg>
