<?xml version="1.0" encoding="UTF-8" standalone="no"?>
<svg
   xmlns:ooo="http://xml.openoffice.org/svg/export"
   xmlns:dc="http://purl.org/dc/elements/1.1/"
   xmlns:cc="http://creativecommons.org/ns#"
   xmlns:rdf="http://www.w3.org/1999/02/22-rdf-syntax-ns#"
   xmlns:svg="http://www.w3.org/2000/svg"
   xmlns="http://www.w3.org/2000/svg"
   xmlns:sodipodi="http://sodipodi.sourceforge.net/DTD/sodipodi-0.dtd"
   xmlns:inkscape="http://www.inkscape.org/namespaces/inkscape"
   version="1.2"
   width="12.96mm"
   height="12.96mm"
   viewBox="0 0 1296 1296"
   preserveAspectRatio="xMidYMid"
   fill-rule="evenodd"
   stroke-width="28.222"
   stroke-linejoin="round"
   xml:space="preserve"
   id="svg72"
   sodipodi:docname="mp3.svg"
   inkscape:version="1.0.1 (3bc2e813f5, 2020-09-07)"><metadata
   id="metadata76"><rdf:RDF><cc:Work
       rdf:about=""><dc:format>image/svg+xml</dc:format><dc:type
         rdf:resource="http://purl.org/dc/dcmitype/StillImage" /></cc:Work></rdf:RDF></metadata><sodipodi:namedview
   pagecolor="#ffffff"
   bordercolor="#666666"
   borderopacity="1"
   objecttolerance="10"
   gridtolerance="10"
   guidetolerance="10"
   inkscape:pageopacity="0"
   inkscape:pageshadow="2"
   inkscape:window-width="1366"
   inkscape:window-height="705"
   id="namedview74"
   showgrid="false"
   inkscape:zoom="5.4917375"
   inkscape:cx="24.491339"
   inkscape:cy="36.327302"
   inkscape:window-x="-8"
   inkscape:window-y="-8"
   inkscape:window-maximized="1"
   inkscape:current-layer="svg72"
   inkscape:document-rotation="0" />
 <defs
   class="ClipPathGroup"
   id="defs8">
  <clipPath
   id="presentation_clip_path"
   clipPathUnits="userSpaceOnUse">
   <rect
   x="0"
   y="0"
   width="1296"
   height="1296"
   id="rect2" />
  </clipPath>
  <clipPath
   id="presentation_clip_path_shrink"
   clipPathUnits="userSpaceOnUse">
   <rect
   x="1"
   y="1"
   width="1294"
   height="1294"
   id="rect5" />
  </clipPath>
 </defs>
 <defs
   class="TextShapeIndex"
   id="defs12">
  <g
   ooo:slide="id1"
   ooo:id-list="id3"
   id="g10" />
 </defs>
 <defs
   class="EmbeddedBulletChars"
   id="defs44">
  <g
   id="bullet-char-template-57356"
   transform="scale(0.00048828125,-0.00048828125)">
   <path
   d="M 580,1141 L 1163,571 580,0 -4,571 580,1141 Z"
   id="path14" />
  </g>
  <g
   id="bullet-char-template-57354"
   transform="scale(0.00048828125,-0.00048828125)">
   <path
   d="M 8,1128 L 1137,1128 1137,0 8,0 8,1128 Z"
   id="path17" />
  </g>
  <g
   id="bullet-char-template-10146"
   transform="scale(0.00048828125,-0.00048828125)">
   <path
   d="M 174,0 L 602,739 174,1481 1456,739 174,0 Z M 1358,739 L 309,1346 659,739 1358,739 Z"
   id="path20" />
  </g>
  <g
   id="bullet-char-template-10132"
   transform="scale(0.00048828125,-0.00048828125)">
   <path
   d="M 2015,739 L 1276,0 717,0 1260,543 174,543 174,936 1260,936 717,1481 1274,1481 2015,739 Z"
   id="path23" />
  </g>
  <g
   id="bullet-char-template-10007"
   transform="scale(0.00048828125,-0.00048828125)">
   <path
   d="M 0,-2 C -7,14 -16,27 -25,37 L 356,567 C 262,823 215,952 215,954 215,979 228,992 255,992 264,992 276,990 289,987 310,991 331,999 354,1012 L 381,999 492,748 772,1049 836,1024 860,1049 C 881,1039 901,1025 922,1006 886,937 835,863 770,784 769,783 710,716 594,584 L 774,223 C 774,196 753,168 711,139 L 727,119 C 717,90 699,76 672,76 641,76 570,178 457,381 L 164,-76 C 142,-110 111,-127 72,-127 30,-127 9,-110 8,-76 1,-67 -2,-52 -2,-32 -2,-23 -1,-13 0,-2 Z"
   id="path26" />
  </g>
  <g
   id="bullet-char-template-10004"
   transform="scale(0.00048828125,-0.00048828125)">
   <path
   d="M 285,-33 C 182,-33 111,30 74,156 52,228 41,333 41,471 41,549 55,616 82,672 116,743 169,778 240,778 293,778 328,747 346,684 L 369,508 C 377,444 397,411 428,410 L 1163,1116 C 1174,1127 1196,1133 1229,1133 1271,1133 1292,1118 1292,1087 L 1292,965 C 1292,929 1282,901 1262,881 L 442,47 C 390,-6 338,-33 285,-33 Z"
   id="path29" />
  </g>
  <g
   id="bullet-char-template-9679"
   transform="scale(0.00048828125,-0.00048828125)">
   <path
   d="M 813,0 C 632,0 489,54 383,161 276,268 223,411 223,592 223,773 276,916 383,1023 489,1130 632,1184 813,1184 992,1184 1136,1130 1245,1023 1353,916 1407,772 1407,592 1407,412 1353,268 1245,161 1136,54 992,0 813,0 Z"
   id="path32" />
  </g>
  <g
   id="bullet-char-template-8226"
   transform="scale(0.00048828125,-0.00048828125)">
   <path
   d="M 346,457 C 273,457 209,483 155,535 101,586 74,649 74,723 74,796 101,859 155,911 209,963 273,989 346,989 419,989 480,963 531,910 582,859 608,796 608,723 608,648 583,586 532,535 482,483 420,457 346,457 Z"
   id="path35" />
  </g>
  <g
   id="bullet-char-template-8211"
   transform="scale(0.00048828125,-0.00048828125)">
   <path
   d="M -4,459 L 1135,459 1135,606 -4,606 -4,459 Z"
   id="path38" />
  </g>
  <g
   id="bullet-char-template-61548"
   transform="scale(0.00048828125,-0.00048828125)">
   <path
   d="M 173,740 C 173,903 231,1043 346,1159 462,1274 601,1332 765,1332 928,1332 1067,1274 1183,1159 1299,1043 1357,903 1357,740 1357,577 1299,437 1183,322 1067,206 928,148 765,148 601,148 462,206 346,322 231,437 173,577 173,740 Z"
   id="path41" />
  </g>
 </defs>
 <defs
   class="TextEmbeddedBitmaps"
   id="defs46" />
 <g
   id="g51">
  <g
   id="id2"
   class="Master_Slide">
   <g
   id="bg-id2"
   class="Background" />
   <g
   id="bo-id2"
   class="BackgroundObjects" />
  </g>
 </g>
 
<path
   style="fill:#008fb4;stroke-width:95.1786"
   d="m 514.11475,789.56366 c -14.10624,-7.1712 -27.99431,-27.81956 -27.99431,-41.62117 0,-10.73486 9.8043,-24.97871 19.52599,-28.36769 11.36165,-3.96068 28.79234,1.95987 32.24289,10.95203 7.13467,18.59259 -3.16114,38.88283 -19.73021,38.88283 -10.19968,0 -10.70486,3.64193 -1.6428,11.84311 9.42618,8.53058 34.46757,8.22865 46.45736,-0.56007 20.1187,-14.74748 24.06771,-34.26295 16.47317,-81.40807 l -3.9622,-24.59652 -23.60406,-1.03383 c -37.73097,-1.6528 -63.3088,-18.4862 -81.88093,-53.88784 -7.983,-15.21694 -9.0791,-21.14402 -9.12303,-49.33347 -0.0667,-43.8314 8.4325,-61.01544 51.47817,-104.06111 l 31.7596,-31.75956 -2.27991,-32.42128 c -1.65132,-23.48049 -0.88641,-39.04869 2.77294,-56.4539 9.06768,-43.12665 31.23168,-75.46147 45.53909,-66.43657 10.85592,6.84775 22.06076,47.38304 22.2593,80.52666 0.1704,28.66073 -0.59081,32.09308 -12.47278,56.13427 -6.96057,14.0838 -19.68331,33.4234 -28.27272,42.97686 l -15.61706,17.36995 2.97889,24.0979 2.97889,24.09793 15.54632,3.94564 c 32.85618,8.33886 51.42542,28.54494 55.38944,60.27198 2.44178,19.5437 -2.64774,35.73424 -17.25186,54.88138 -12.37829,16.22877 -16.03234,13.62826 -6.37413,-4.53638 9.92705,-18.67023 10.61766,-35.77981 2.09174,-51.82392 -10.7835,-20.29261 -40.97034,-35.68087 -40.97034,-20.88539 0,3.32301 2.29177,24.19035 5.09256,46.37176 2.80109,22.1814 5.75294,46.40028 6.56001,53.81976 0.80713,7.41948 3.2604,28.3238 5.45164,46.45403 3.53155,29.21939 3.32708,34.68522 -1.80245,48.11597 -11.48447,30.07176 -43.44813,42.76664 -71.61984,28.44497 z m 59.71984,-128.91682 c 0.0347,-8.9646 -10.69234,-98.14823 -11.99643,-99.73713 -2.43141,-2.96222 -22.11547,10.67022 -28.64232,19.83637 -5.972,8.3869 -7.10529,13.6513 -5.81947,27.03308 1.99692,20.781 -4.52023,17.49104 -10.96759,-5.53669 -3.4371,-12.2768 -3.4471,-18.05941 -0.0481,-29.4452 4.50678,-15.1037 26.82142,-39.46193 36.15118,-39.46193 4.66384,0 5.09178,-3.32708 3.13521,-24.37701 -1.24608,-13.40734 -3.61157,-25.7231 -5.25688,-27.36831 -5.29896,-5.29892 -56.39401,48.46324 -65.99966,69.44483 -26.33236,57.51741 9.16593,116.89357 70.0242,117.12604 17.87508,0.0667 19.39413,-0.51932 19.4212,-7.51405 z M 568.75803,414.8356 c 24.01633,-21.08663 42.74508,-66.43504 34.42493,-83.35397 -14.92561,-30.35083 -45.5774,-3.93401 -52.25227,45.03289 -3.08854,22.65727 -1.54464,48.90111 2.87665,48.90111 1.59539,0 8.32338,-4.761 14.95087,-10.58003 z"
   id="path58" /><path
   style="fill:#008fb4;stroke-width:95.1786"
   d="M 236.55614,648 V 108.4015 H 524.43582 812.31546 L 935.87968,228.83966 1059.4439,349.27782 V 768.43816 1187.5985 H 648 236.55614 Z m 622.14849,478.5045 c 7.46801,-2.0732 19.05353,-9.3636 26.13679,-16.4468 11.37805,-11.3781 12.72288,-14.5348 12.72288,-29.8648 0,-14.3646 -1.69576,-19.0733 -10.46682,-29.0629 -5.75676,-6.5566 -12.61002,-11.9211 -15.22943,-11.9211 -2.70663,0 -0.14816,-4.1231 5.92678,-9.5509 8.95579,-8.002 10.93718,-12.5395 12.21757,-27.9789 1.34053,-16.16696 0.44672,-19.71284 -7.28466,-28.90133 -15.41414,-18.31866 -53.88706,-22.39991 -81.27941,-8.62222 -5.56462,2.79887 -10.50372,5.40856 -10.97582,5.79932 -0.77491,0.64156 5.95941,22.45836 7.60225,24.62889 0.37597,0.49673 5.08304,-1.39092 10.4599,-4.19486 21.50283,-11.21381 51.23625,-2.76442 48.01222,13.6437 -1.74874,8.8995 -17.04702,18.6015 -32.62623,20.6911 -13.72875,1.8414 -14.04108,2.1737 -14.04108,14.9293 v 13.0459 h 16.4076 c 21.43401,0 34.17976,9.3284 34.17976,25.0157 0,20.9578 -19.29123,29.2658 -48.3439,20.82 -10.15179,-2.9511 -19.19354,-5.3659 -20.09281,-5.3659 -2.33399,0 -6.52677,23.963 -4.54027,25.9495 0.90901,0.909 7.45679,3.7226 14.55056,6.2523 15.80927,5.6379 38.78492,6.0977 56.66412,1.1339 z M 456.97387,1106.164 c 1.19163,-11.4013 2.34622,-35.3038 2.56551,-53.1167 0.21854,-17.8129 1.39128,-36.94 2.6044,-42.5045 2.05951,-9.4489 2.48475,-8.8916 6.43069,8.4312 2.32399,10.2017 10.07655,37.5189 17.22804,60.7048 l 13.0027,42.1561 14.73558,0.945 14.73562,0.9449 20.77967,-63.336 20.77967,-63.33603 0.31856,37.09743 c 0.1741,20.4035 1.29313,49.6177 2.48439,64.9204 l 2.16582,27.8231 h 16.36264 c 13.35522,0 16.35286,-1.0846 16.30967,-5.9019 -0.0304,-3.2459 -2.28955,-42.3248 -5.02333,-86.8416 -2.73368,-44.51691 -4.98633,-81.31921 -5.00578,-81.78294 -0.0203,-0.46376 -9.69332,-0.84307 -21.49739,-0.84307 h -21.4619 l -13.83392,39.62677 c -7.60865,21.79474 -16.48009,49.36024 -19.71431,61.25664 l -5.8804,21.6299 -4.50905,-18.2574 c -2.47994,-10.0416 -10.55539,-37.6071 -17.94524,-61.25664 l -13.43612,-42.99927 h -21.81836 c -12.00009,0 -21.84047,0.37931 -21.86744,0.84307 -0.027,0.46376 -2.28139,31.95436 -5.00966,69.97924 -2.72849,38.0248 -4.9827,77.1035 -5.00966,86.8416 l -0.0482,17.7056 h 14.69576 14.69577 z m 224.75105,-11.309 v -32.0386 h 14.67295 c 40.28559,0 67.04508,-22.8829 67.04508,-57.3324 0,-40.51102 -24.45206,-55.89742 -82.56117,-51.95141 L 648,955.76546 v 85.56404 85.5641 h 16.86244 16.86248 z M 985.24908,636.19627 V 395.06321 H 879.01561 772.78215 V 290.51599 185.96878 H 541.76654 310.75093 V 531.64909 877.32936 H 648 985.24908 Z"
   id="path60" /><path
   style="fill:#008fb4;stroke-width:95.1786"
   d="m 678.35243,1007.1703 v -28.66622 h 14.4258 c 25.14981,0 39.44022,16.56822 32.20124,37.33402 -4.08869,11.7288 -19.14102,19.9983 -36.40125,19.9983 h -10.22579 z"
   id="path62" /></svg>
