<?xml version="1.0" encoding="UTF-8" standalone="no"?>
<svg
   xmlns:dc="http://purl.org/dc/elements/1.1/"
   xmlns:cc="http://creativecommons.org/ns#"
   xmlns:rdf="http://www.w3.org/1999/02/22-rdf-syntax-ns#"
   xmlns:svg="http://www.w3.org/2000/svg"
   xmlns="http://www.w3.org/2000/svg"
   xmlns:sodipodi="http://sodipodi.sourceforge.net/DTD/sodipodi-0.dtd"
   xmlns:inkscape="http://www.inkscape.org/namespaces/inkscape"
   id="Layer_1"
   data-name="Layer 1"
   width="48"
   height="48"
   viewBox="0 0 48 48"
   version="1.1"
   sodipodi:docname="pdf.svg"
   inkscape:version="1.0.1 (3bc2e813f5, 2020-09-07)">
  <metadata
     id="metadata19">
    <rdf:RDF>
      <cc:Work
         rdf:about="">
        <dc:format>image/svg+xml</dc:format>
        <dc:type
           rdf:resource="http://purl.org/dc/dcmitype/StillImage" />
      </cc:Work>
    </rdf:RDF>
  </metadata>
  <sodipodi:namedview
     pagecolor="#ffffff"
     bordercolor="#666666"
     borderopacity="1"
     objecttolerance="10"
     gridtolerance="10"
     guidetolerance="10"
     inkscape:pageopacity="0"
     inkscape:pageshadow="2"
     inkscape:window-width="1366"
     inkscape:window-height="705"
     id="namedview17"
     showgrid="false"
     inkscape:zoom="5.6041665"
     inkscape:cx="24"
     inkscape:cy="32.121032"
     inkscape:window-x="-8"
     inkscape:window-y="-8"
     inkscape:window-maximized="1"
     inkscape:current-layer="Layer_1"
     inkscape:document-rotation="0" />
  <defs
     id="defs4">
    <style
       id="style2">.cls-1,.cls-4{fill:#da251c;}.cls-2{fill:#fff;}.cls-3{fill:none;}.cls-4{isolation:isolate;font-size:6.75px;font-family:ArialRoundedMTBold, Arial Rounded MT Bold;}</style>
    <filter
       style="color-interpolation-filters:sRGB;"
       inkscape:label="Greyscale"
       id="filter23">
      <feColorMatrix
         values="0.21 0.72 0.072 0 0 0.21 0.72 0.072 0 0 0.21 0.72 0.072 0 0 0 0 0 1 0 "
         id="feColorMatrix21" />
    </filter>
    <filter
       style="color-interpolation-filters:sRGB;"
       inkscape:label="Greyscale"
       id="filter27">
      <feColorMatrix
         values="0.21 0.72 0.072 0 0 0.21 0.72 0.072 0 0 0.21 0.72 0.072 0 0 0 0 0 1 0 "
         id="feColorMatrix25" />
    </filter>
  </defs>
  <title
     id="title6">48px_sourcefile_20170718_multi</title>
  <path
     id="path1"
     class="cls-2"
     d="m 23.022,36.472 c 0.812,0 1.316,0.392 1.316,1.106 0,0.714 -0.546,1.176 -1.4,1.176 a 1.876,1.876 0 0 1 -0.574,0 V 36.5 Z M 11.346,6.624 v 26.04 h 25.438 v -18.2 H 28.748 V 6.624 Z M 8.546,3.53 H 30.4 l 9.324,9.114 V 44.48 H 8.546 Z"
     style="stroke-width:1.4" />
  <rect
     class="cls-3"
     x="16.82"
     y="31.93"
     width="26.06"
     height="8.81"
     id="rect11" />
  <path
     id="path1-2"
     data-name="path1"
     class="cls-2"
     d="m 18.01,24.096 a 5.096,5.096 0 0 0 -2.31,1.68 c 0,-0.084 -0.126,0.154 -0.126,0.154 L 15.7,25.776 a 1.092,1.092 0 0 1 -0.084,0.238 c -0.21,0.532 0.42,0.532 0.42,0.532 1.764,-0.294 1.974,-2.45 1.974,-2.45 z M 28.146,22.29 a 4.676,4.676 0 0 0 -0.518,0 4.382,4.382 0 0 0 3.626,1.26 C 31.968,23.438 30.89,22.794 30.89,22.794 A 7,7 0 0 0 28.146,22.29 Z m -6.412,-4.438 a 16.072,16.072 0 0 1 -1.526,4.564 L 24.912,21.66 A 19.936,19.936 0 0 1 21.72,17.852 Z m 0.084,-6.454 v 0 c -0.084,0 -0.126,0.084 -0.182,0.21 A 7.966,7.966 0 0 0 22,15.066 5.838,5.838 0 0 0 22.126,12.042 c 0,0 -0.126,-0.644 -0.308,-0.644 z m -0.602,-1.4 c 0.504,0 0.938,1.022 0.938,1.022 a 5.824,5.824 0 0 1 0.084,5.278 12.6,12.6 0 0 0 4.2,5.376 12.6,12.6 0 0 1 4.676,0.574 c 1.554,0.868 1.022,1.708 1.022,1.708 -1.624,1.946 -6.398,-1.106 -6.398,-1.106 l -6.146,1.106 a 5.866,5.866 0 0 1 -3.864,4.046 c -1.4,0.21 -1.232,-1.4 -1.232,-1.4 a 5.81,5.81 0 0 1 3.85,-3.262 c 1.106,-1.26 2.884,-7.168 2.884,-7.168 -1.806,-4.354 -0.518,-5.824 -0.518,-5.824 0.196,-0.35 0.35,-0.35 0.504,-0.448 z"
     style="stroke-width:1.4" />
  <path
     style="fill:#008fb4;stroke-width:0.124907"
     d="m 15.116991,27.869248 c -0.697903,-0.281192 -0.708989,-1.09011 -0.0289,-2.108551 0.643371,-0.963454 1.318685,-1.517924 2.530889,-2.077998 0.914641,-0.422589 0.973259,-0.475419 1.345358,-1.212544 0.493878,-0.978366 1.32639,-3.134015 1.89426,-4.904869 l 0.440603,-1.373977 -0.42891,-1.276424 c -0.706879,-2.103655 -0.70348,-3.795741 0.0092,-4.623444 l 0.297513,-0.345486 0.340429,0.312267 c 0.474913,0.435626 1.033133,1.715528 1.17013,2.682908 0.127484,0.90016 0.01772,1.920046 -0.306138,2.844618 l -0.207957,0.593696 0.458602,0.902715 c 0.677218,1.33304 1.412834,2.299038 2.623218,3.444768 l 1.08046,1.022746 1.147091,0.0017 c 1.407874,0.002 3.333802,0.380773 3.896413,0.766279 1.32104,0.905192 0.824293,1.97854 -0.916148,1.979569 -0.962344,6.24e-4 -2.293229,-0.420601 -3.720194,-1.177285 l -1.012671,-0.536994 -2.964081,0.535944 c -1.630244,0.29477 -3.029613,0.561092 -3.109708,0.591827 -0.08009,0.03073 -0.221934,0.273742 -0.315196,0.540015 -0.446491,1.274776 -1.635087,2.566507 -2.921636,3.175147 -0.843034,0.398822 -0.893592,0.408269 -1.302713,0.243432 z m 1.589235,-1.500481 c 0.271982,-0.138754 0.62922,-0.461952 0.793862,-0.718215 0.323793,-0.503982 0.621194,-1.327451 0.553144,-1.531598 -0.0698,-0.209398 -1.310387,0.485575 -1.91399,1.07221 -0.408711,0.397221 -0.562015,0.644022 -0.562015,0.904779 0,0.19721 0.03748,0.396035 0.08327,0.441833 0.150706,0.150708 0.543456,0.08723 1.045729,-0.169009 z M 31.515443,23.47804 C 31.567563,23.3937 31.443933,23.188701 31.220621,22.989171 30.744644,22.563886 29.31212,22.2189 28.249055,22.273549 l -0.743204,0.03821 0.598142,0.437175 c 0.328978,0.240446 0.891059,0.532105 1.24907,0.648131 0.759852,0.246256 2.030818,0.293852 2.16238,0.08098 z m -8.693607,-1.424905 c 1.133531,-0.182576 2.084453,-0.353717 2.113159,-0.380311 0.0287,-0.0266 -0.340616,-0.455797 -0.820715,-0.953782 -0.480098,-0.497986 -1.200044,-1.342502 -1.599878,-1.876702 -0.399834,-0.534199 -0.756385,-0.941859 -0.792336,-0.905909 -0.03595,0.03595 -0.193345,0.571655 -0.349767,1.190455 -0.156422,0.6188 -0.484453,1.590854 -0.728958,2.160119 -0.244504,0.569265 -0.444553,1.075942 -0.444553,1.125949 0,0.05001 0.126462,0.06419 0.28104,0.03153 0.154573,-0.03266 1.208477,-0.208771 2.342008,-0.391349 z m -0.562454,-8.734689 c -3.74e-4,-1.382065 -0.157594,-2.009352 -0.476486,-1.901118 -0.211493,0.07178 -0.189635,2.633644 0.02783,3.262499 0.152225,0.440184 0.181921,0.464215 0.308724,0.249814 0.08099,-0.136934 0.140142,-0.818094 0.13993,-1.611195 z"
     id="path22" />
  <path
     style="fill:#008fb4;stroke-width:0.124907"
     d="M 8.6221404,24.057695 V 3.6353886 H 19.525893 30.429648 l 4.646888,4.5278806 4.64689,4.5278818 2.87e-4,15.894425 L 39.724,44.48 H 24.17307 8.6221404 Z m 7.2999806,17.771462 c 0.140133,-0.200067 0.194443,-0.583833 0.194443,-1.373976 V 39.35881 h 1.104518 c 1.31768,0 2.033778,-0.297145 2.41095,-1.000421 0.262297,-0.48908 0.312544,-1.606686 0.09157,-2.036787 -0.502236,-0.977569 -1.313609,-1.258073 -3.440591,-1.189471 -1.124597,0.03627 -1.336356,0.07679 -1.488248,0.284753 -0.275701,0.377475 -0.258444,6.215961 0.01919,6.493598 0.291341,0.291343 0.87725,0.248345 1.108159,-0.08133 z m 13.238309,0.08133 c 0.153344,-0.153343 0.196283,-0.481243 0.196283,-1.498884 v -1.302602 h 1.225197 c 1.407737,0 1.692243,-0.121198 1.627155,-0.693147 l -0.04194,-0.368563 -1.405204,-0.03532 -1.405205,-0.03532 v -0.797618 -0.797618 l 1.566132,-0.04141 c 1.223481,-0.03235 1.591993,-0.0824 1.684333,-0.228775 0.177061,-0.280662 0.146404,-0.582313 -0.08245,-0.811157 -0.176119,-0.176117 -0.487024,-0.199 -2.242418,-0.165055 -1.459615,0.02822 -2.083936,0.08543 -2.199995,0.201554 -0.121576,0.121646 -0.171438,0.912369 -0.199661,3.166075 -0.03213,2.566173 -0.009,3.047664 0.159014,3.304027 0.231095,0.352696 0.815628,0.406936 1.118751,0.10381 z m -3.987032,-0.161572 c 0.647336,-0.294079 1.259598,-0.997714 1.453347,-1.670244 0.175704,-0.609887 0.214875,-2.067636 0.0734,-2.73164 -0.143994,-0.675846 -0.763323,-1.520959 -1.360628,-1.856662 -0.464676,-0.261163 -0.733894,-0.305179 -2.160166,-0.35317 -1.497706,-0.0504 -1.654556,-0.03433 -1.941597,0.198827 l -0.312269,0.25365 v 2.989616 c 0,2.350378 0.03665,3.033765 0.171429,3.196094 0.261951,0.315508 3.368106,0.295338 4.076484,-0.02647 z M 36.851137,23.558067 v -9.18067 H 32.854112 28.857085 V 10.442825 6.5082522 H 20.113591 11.370095 V 19.623494 32.738736 h 12.740521 12.740521 z"
     id="path24" />
  <path
     style="fill:#008fb4;stroke-width:0.124907"
     d="M 22.322209,38.612127 V 36.3638 l 0.780668,1.94e-4 c 1.509348,3.74e-4 2.148561,0.650229 2.146562,2.182292 -0.0021,1.642116 -0.625041,2.313595 -2.146562,2.313973 l -0.780668,1.95e-4 z"
     id="path26" />
  <path
     style="fill:#008fb4;stroke-width:0.124907"
     d="M 16.076855,37.223598 V 36.20979 l 0.843122,0.08987 c 0.463718,0.04942 0.940824,0.141908 1.060235,0.205517 0.281409,0.149902 0.411442,0.681093 0.267159,1.091359 -0.155222,0.441371 -0.599473,0.636847 -1.452301,0.639034 l -0.718215,0.0018 z"
     id="path28" />
</svg>
