<?xml version="1.0" encoding="UTF-8" standalone="no"?>
<svg
   xmlns:ooo="http://xml.openoffice.org/svg/export"
   xmlns:dc="http://purl.org/dc/elements/1.1/"
   xmlns:cc="http://creativecommons.org/ns#"
   xmlns:rdf="http://www.w3.org/1999/02/22-rdf-syntax-ns#"
   xmlns:svg="http://www.w3.org/2000/svg"
   xmlns="http://www.w3.org/2000/svg"
   xmlns:sodipodi="http://sodipodi.sourceforge.net/DTD/sodipodi-0.dtd"
   xmlns:inkscape="http://www.inkscape.org/namespaces/inkscape"
   version="1.2"
   width="12.7mm"
   height="12.7mm"
   viewBox="0 0 1270 1270"
   preserveAspectRatio="xMidYMid"
   fill-rule="evenodd"
   stroke-width="28.222"
   stroke-linejoin="round"
   xml:space="preserve"
   id="svg79"
   sodipodi:docname="png.svg"
   inkscape:version="1.0.1 (3bc2e813f5, 2020-09-07)"><metadata
   id="metadata83"><rdf:RDF><cc:Work
       rdf:about=""><dc:format>image/svg+xml</dc:format><dc:type
         rdf:resource="http://purl.org/dc/dcmitype/StillImage" /></cc:Work></rdf:RDF></metadata><sodipodi:namedview
   pagecolor="#ffffff"
   bordercolor="#666666"
   borderopacity="1"
   objecttolerance="10"
   gridtolerance="10"
   guidetolerance="10"
   inkscape:pageopacity="0"
   inkscape:pageshadow="2"
   inkscape:window-width="1366"
   inkscape:window-height="705"
   id="namedview81"
   showgrid="false"
   inkscape:zoom="7.925489"
   inkscape:cx="24"
   inkscape:cy="39.141022"
   inkscape:window-x="-8"
   inkscape:window-y="-8"
   inkscape:window-maximized="1"
   inkscape:current-layer="svg79"
   inkscape:document-rotation="0" />
 <defs
   class="ClipPathGroup"
   id="defs8">
  <clipPath
   id="presentation_clip_path"
   clipPathUnits="userSpaceOnUse">
   <rect
   x="0"
   y="0"
   width="1270"
   height="1270"
   id="rect2" />
  </clipPath>
  <clipPath
   id="presentation_clip_path_shrink"
   clipPathUnits="userSpaceOnUse">
   <rect
   x="1"
   y="1"
   width="1268"
   height="1268"
   id="rect5" />
  </clipPath>
 </defs>
 <defs
   class="TextShapeIndex"
   id="defs12">
  <g
   ooo:slide="id1"
   ooo:id-list="id3"
   id="g10" />
 </defs>
 <defs
   class="EmbeddedBulletChars"
   id="defs44">
  <g
   id="bullet-char-template-57356"
   transform="scale(0.00048828125,-0.00048828125)">
   <path
   d="M 580,1141 L 1163,571 580,0 -4,571 580,1141 Z"
   id="path14" />
  </g>
  <g
   id="bullet-char-template-57354"
   transform="scale(0.00048828125,-0.00048828125)">
   <path
   d="M 8,1128 L 1137,1128 1137,0 8,0 8,1128 Z"
   id="path17" />
  </g>
  <g
   id="bullet-char-template-10146"
   transform="scale(0.00048828125,-0.00048828125)">
   <path
   d="M 174,0 L 602,739 174,1481 1456,739 174,0 Z M 1358,739 L 309,1346 659,739 1358,739 Z"
   id="path20" />
  </g>
  <g
   id="bullet-char-template-10132"
   transform="scale(0.00048828125,-0.00048828125)">
   <path
   d="M 2015,739 L 1276,0 717,0 1260,543 174,543 174,936 1260,936 717,1481 1274,1481 2015,739 Z"
   id="path23" />
  </g>
  <g
   id="bullet-char-template-10007"
   transform="scale(0.00048828125,-0.00048828125)">
   <path
   d="M 0,-2 C -7,14 -16,27 -25,37 L 356,567 C 262,823 215,952 215,954 215,979 228,992 255,992 264,992 276,990 289,987 310,991 331,999 354,1012 L 381,999 492,748 772,1049 836,1024 860,1049 C 881,1039 901,1025 922,1006 886,937 835,863 770,784 769,783 710,716 594,584 L 774,223 C 774,196 753,168 711,139 L 727,119 C 717,90 699,76 672,76 641,76 570,178 457,381 L 164,-76 C 142,-110 111,-127 72,-127 30,-127 9,-110 8,-76 1,-67 -2,-52 -2,-32 -2,-23 -1,-13 0,-2 Z"
   id="path26" />
  </g>
  <g
   id="bullet-char-template-10004"
   transform="scale(0.00048828125,-0.00048828125)">
   <path
   d="M 285,-33 C 182,-33 111,30 74,156 52,228 41,333 41,471 41,549 55,616 82,672 116,743 169,778 240,778 293,778 328,747 346,684 L 369,508 C 377,444 397,411 428,410 L 1163,1116 C 1174,1127 1196,1133 1229,1133 1271,1133 1292,1118 1292,1087 L 1292,965 C 1292,929 1282,901 1262,881 L 442,47 C 390,-6 338,-33 285,-33 Z"
   id="path29" />
  </g>
  <g
   id="bullet-char-template-9679"
   transform="scale(0.00048828125,-0.00048828125)">
   <path
   d="M 813,0 C 632,0 489,54 383,161 276,268 223,411 223,592 223,773 276,916 383,1023 489,1130 632,1184 813,1184 992,1184 1136,1130 1245,1023 1353,916 1407,772 1407,592 1407,412 1353,268 1245,161 1136,54 992,0 813,0 Z"
   id="path32" />
  </g>
  <g
   id="bullet-char-template-8226"
   transform="scale(0.00048828125,-0.00048828125)">
   <path
   d="M 346,457 C 273,457 209,483 155,535 101,586 74,649 74,723 74,796 101,859 155,911 209,963 273,989 346,989 419,989 480,963 531,910 582,859 608,796 608,723 608,648 583,586 532,535 482,483 420,457 346,457 Z"
   id="path35" />
  </g>
  <g
   id="bullet-char-template-8211"
   transform="scale(0.00048828125,-0.00048828125)">
   <path
   d="M -4,459 L 1135,459 1135,606 -4,606 -4,459 Z"
   id="path38" />
  </g>
  <g
   id="bullet-char-template-61548"
   transform="scale(0.00048828125,-0.00048828125)">
   <path
   d="M 173,740 C 173,903 231,1043 346,1159 462,1274 601,1332 765,1332 928,1332 1067,1274 1183,1159 1299,1043 1357,903 1357,740 1357,577 1299,437 1183,322 1067,206 928,148 765,148 601,148 462,206 346,322 231,437 173,577 173,740 Z"
   id="path41" />
  </g>
 </defs>
 <defs
   class="TextEmbeddedBitmaps"
   id="defs46" />
 <g
   id="g51">
  <g
   id="id2"
   class="Master_Slide">
   <g
   id="bg-id2"
   class="Background" />
   <g
   id="bo-id2"
   class="BackgroundObjects" />
  </g>
 </g>
 
<path
   style="fill:#008fb4;stroke-width:93.2691"
   d="M 224.72819,635.00004 V 96.312345 l 289.99902,0.0663 289.99906,0.0663 121.10606,118.081275 121.10607,118.08132 0.3481,420.53992 0.3482,420.53994 H 636.17983 224.72819 Z m 655.18303,476.39486 9.08828,-3.6401 v -44.697 -44.697 h -33.04831 -33.04832 v 11.5669 c 0,11.5229 0.0556,11.5669 15.02273,11.5669 h 15.02273 l -0.97716,22.3076 -0.97716,22.3076 -11.3449,1.0805 c -18.81598,1.7925 -31.48567,-2.2236 -45.87725,-14.5424 -30.86267,-26.4174 -25.24923,-75.43204 11.0522,-96.50415 11.03219,-6.40391 16.54225,-7.38848 34.60302,-6.18307 11.81478,0.78862 24.66872,2.46623 28.56428,3.72854 5.98856,1.94024 7.68425,0.47228 10.97567,-9.5006 4.79341,-14.52422 3.16372,-17.37739 -12.39448,-21.69837 -32.55333,-9.04099 -75.33856,-0.73158 -97.0006,18.83879 -21.20821,19.16032 -30.58075,40.68576 -30.58853,70.25086 -0.01,38.3705 14.53667,61.5117 49.21878,78.2979 14.92872,7.2255 19.71502,7.8605 49.57249,6.5775 18.17657,-0.7812 37.13805,-3.0581 42.1366,-5.0604 z m -427.14961,-28.59 v -31.396 h 17.58398 c 12.63032,0 22.63779,-2.5603 35.52351,-9.0883 23.36644,-11.8375 32.81818,-25.8766 32.81818,-48.74623 0,-21.79369 -9.43344,-36.80453 -29.77017,-47.37148 -13.6543,-7.09473 -17.5859,-7.55972 -49.01338,-5.79694 -18.79257,1.0542 -35.52329,2.75405 -37.17939,3.77751 -1.68391,1.04087 -3.01112,38.92049 -3.01112,85.93914 v 84.0781 h 16.52414 16.52418 z m 148.71748,-30.4897 v -61.88563 l 14.13791,24.70623 c 7.7759,13.5884 23.67681,40.5691 35.33546,59.957 l 21.19753,35.2508 16.71569,1.3398 c 9.19359,0.7372 17.85712,0.389 19.25225,-0.7734 1.39536,-1.1624 2.13879,-39.9358 1.65243,-86.1633 l -0.88418,-84.04994 -15.69796,-1.00716 -15.69797,-1.00716 -0.0556,58.84187 -0.0556,58.84179 -14.4184,-26.8522 c -7.92947,-14.7687 -22.95961,-41.16603 -33.39961,-58.66074 l -18.98189,-31.80853 h -21.07427 -21.07422 v 87.57807 87.578 h 16.52417 16.52418 z M 974.92517,623.43311 V 380.52794 H 869.17051 763.41588 V 276.42571 172.32348 H 532.0776 300.73932 v 347.00744 347.0074 h 337.0929 337.09295 z"
   id="path60" /><path
   style="fill:#008fb4;stroke-width:93.2691"
   d="m 555.21142,512.72124 v -39.65799 h 39.65799 39.65799 v 39.65799 39.65799 h -39.65799 -39.65799 z"
   id="path63" /><path
   style="fill:#008fb4;stroke-width:93.2691"
   d="m 389.9698,512.72124 v -39.65799 h 39.658 39.65799 v 39.65799 39.65799 h -39.65799 -39.658 z"
   id="path65" /><path
   style="fill:#008fb4;stroke-width:93.2691"
   d="m 472.59061,593.68962 v -41.31039 h 39.65799 39.658 v 41.31039 41.31042 h -39.658 -39.65799 z"
   id="path67" /><path
   style="fill:#008fb4;stroke-width:93.2691"
   d="m 637.20037,595.33579 -1.0205,-39.66422 40.48417,0.006 40.48421,0.006 v 39.658 39.65799 H 677.68458 638.2209 Z"
   id="path69" /><path
   style="fill:#008fb4;stroke-width:93.2691"
   d="m 719.82117,512.71498 -1.02049,-39.66425 38.83178,0.006 38.83177,0.006 v 39.65799 39.65799 h -37.81124 -37.81124 z"
   id="path71" /><path
   style="fill:#008fb4;stroke-width:93.2691"
   d="m 799.76902,595.34205 v -39.658 h 39.65799 39.65799 v 39.658 39.65799 h -39.65799 -39.65799 z"
   id="path73" /><path
   style="fill:#008fb4;stroke-width:93.2691"
   d="m 723.75789,677.96285 v -39.65799 h 38.00556 38.00557 v 39.65799 39.658 h -38.00557 -38.00556 z"
   id="path75" /><path
   style="fill:#008fb4;stroke-width:93.2691"
   d="m 803.07387,767.19334 v -39.65799 h 39.658 39.65795 v 39.65799 39.65799 h -39.65795 -39.658 z"
   id="path77" /><path
   style="fill:#008fb4;stroke-width:93.2691"
   d="m 641.13708,767.19334 v -39.65799 h 39.65799 39.65796 v 39.65799 39.65799 h -39.65796 -39.65799 z"
   id="path79" /><path
   style="fill:#008fb4;stroke-width:93.2691"
   d="m 558.51627,677.96285 v -39.65799 h 39.65796 39.65799 v 39.65799 39.658 h -39.65799 -39.65796 z"
   id="path81" /><path
   style="fill:#008fb4;stroke-width:93.2691"
   d="m 475.89543,763.88852 v -39.658 h 39.65799 39.658 v 39.658 39.65799 h -39.658 -39.65799 z"
   id="path83" /><path
   style="fill:#008fb4;stroke-width:93.2691"
   d="m 393.27462,677.96285 v -39.65799 h 39.658 39.65799 v 39.65799 39.658 h -39.65799 -39.658 z"
   id="path86" /><path
   style="fill:#008fb4;stroke-width:93.2691"
   d="m 456.764,996.05298 0.95494,-28.91728 15.57172,0.20002 c 19.94231,0.25559 29.04352,7.89047 29.04352,24.36334 0,17.49334 -7.2006,25.53204 -26.59614,29.69164 -9.18059,1.9688 -17.42029,3.5797 -18.31044,3.5797 -0.89011,0 -1.18866,-13.0127 -0.66341,-28.91724 z"
   id="path88" /></svg>
