<?xml version="1.0" encoding="UTF-8" standalone="no"?>
<svg
   xmlns:ooo="http://xml.openoffice.org/svg/export"
   xmlns:dc="http://purl.org/dc/elements/1.1/"
   xmlns:cc="http://creativecommons.org/ns#"
   xmlns:rdf="http://www.w3.org/1999/02/22-rdf-syntax-ns#"
   xmlns:svg="http://www.w3.org/2000/svg"
   xmlns="http://www.w3.org/2000/svg"
   xmlns:sodipodi="http://sodipodi.sourceforge.net/DTD/sodipodi-0.dtd"
   xmlns:inkscape="http://www.inkscape.org/namespaces/inkscape"
   version="1.2"
   width="12.7mm"
   height="12.7mm"
   viewBox="0 0 1270 1270"
   preserveAspectRatio="xMidYMid"
   fill-rule="evenodd"
   stroke-width="28.222"
   stroke-linejoin="round"
   xml:space="preserve"
   id="svg79"
   sodipodi:docname="powerpoint.svg"
   inkscape:version="1.0.1 (3bc2e813f5, 2020-09-07)"><metadata
   id="metadata83"><rdf:RDF><cc:Work
       rdf:about=""><dc:format>image/svg+xml</dc:format><dc:type
         rdf:resource="http://purl.org/dc/dcmitype/StillImage" /></cc:Work></rdf:RDF></metadata><sodipodi:namedview
   pagecolor="#ffffff"
   bordercolor="#666666"
   borderopacity="1"
   objecttolerance="10"
   gridtolerance="10"
   guidetolerance="10"
   inkscape:pageopacity="0"
   inkscape:pageshadow="2"
   inkscape:window-width="1366"
   inkscape:window-height="705"
   id="namedview81"
   showgrid="false"
   inkscape:zoom="7.925489"
   inkscape:cx="24"
   inkscape:cy="29.35316"
   inkscape:window-x="-8"
   inkscape:window-y="-8"
   inkscape:window-maximized="1"
   inkscape:current-layer="svg79"
   inkscape:document-rotation="0" />
 <defs
   class="ClipPathGroup"
   id="defs8">
  <clipPath
   id="presentation_clip_path"
   clipPathUnits="userSpaceOnUse">
   <rect
   x="0"
   y="0"
   width="1270"
   height="1270"
   id="rect2" />
  </clipPath>
  <clipPath
   id="presentation_clip_path_shrink"
   clipPathUnits="userSpaceOnUse">
   <rect
   x="1"
   y="1"
   width="1268"
   height="1268"
   id="rect5" />
  </clipPath>
 </defs>
 <defs
   class="TextShapeIndex"
   id="defs12">
  <g
   ooo:slide="id1"
   ooo:id-list="id3"
   id="g10" />
 </defs>
 <defs
   class="EmbeddedBulletChars"
   id="defs44">
  <g
   id="bullet-char-template-57356"
   transform="scale(0.00048828125,-0.00048828125)">
   <path
   d="M 580,1141 L 1163,571 580,0 -4,571 580,1141 Z"
   id="path14" />
  </g>
  <g
   id="bullet-char-template-57354"
   transform="scale(0.00048828125,-0.00048828125)">
   <path
   d="M 8,1128 L 1137,1128 1137,0 8,0 8,1128 Z"
   id="path17" />
  </g>
  <g
   id="bullet-char-template-10146"
   transform="scale(0.00048828125,-0.00048828125)">
   <path
   d="M 174,0 L 602,739 174,1481 1456,739 174,0 Z M 1358,739 L 309,1346 659,739 1358,739 Z"
   id="path20" />
  </g>
  <g
   id="bullet-char-template-10132"
   transform="scale(0.00048828125,-0.00048828125)">
   <path
   d="M 2015,739 L 1276,0 717,0 1260,543 174,543 174,936 1260,936 717,1481 1274,1481 2015,739 Z"
   id="path23" />
  </g>
  <g
   id="bullet-char-template-10007"
   transform="scale(0.00048828125,-0.00048828125)">
   <path
   d="M 0,-2 C -7,14 -16,27 -25,37 L 356,567 C 262,823 215,952 215,954 215,979 228,992 255,992 264,992 276,990 289,987 310,991 331,999 354,1012 L 381,999 492,748 772,1049 836,1024 860,1049 C 881,1039 901,1025 922,1006 886,937 835,863 770,784 769,783 710,716 594,584 L 774,223 C 774,196 753,168 711,139 L 727,119 C 717,90 699,76 672,76 641,76 570,178 457,381 L 164,-76 C 142,-110 111,-127 72,-127 30,-127 9,-110 8,-76 1,-67 -2,-52 -2,-32 -2,-23 -1,-13 0,-2 Z"
   id="path26" />
  </g>
  <g
   id="bullet-char-template-10004"
   transform="scale(0.00048828125,-0.00048828125)">
   <path
   d="M 285,-33 C 182,-33 111,30 74,156 52,228 41,333 41,471 41,549 55,616 82,672 116,743 169,778 240,778 293,778 328,747 346,684 L 369,508 C 377,444 397,411 428,410 L 1163,1116 C 1174,1127 1196,1133 1229,1133 1271,1133 1292,1118 1292,1087 L 1292,965 C 1292,929 1282,901 1262,881 L 442,47 C 390,-6 338,-33 285,-33 Z"
   id="path29" />
  </g>
  <g
   id="bullet-char-template-9679"
   transform="scale(0.00048828125,-0.00048828125)">
   <path
   d="M 813,0 C 632,0 489,54 383,161 276,268 223,411 223,592 223,773 276,916 383,1023 489,1130 632,1184 813,1184 992,1184 1136,1130 1245,1023 1353,916 1407,772 1407,592 1407,412 1353,268 1245,161 1136,54 992,0 813,0 Z"
   id="path32" />
  </g>
  <g
   id="bullet-char-template-8226"
   transform="scale(0.00048828125,-0.00048828125)">
   <path
   d="M 346,457 C 273,457 209,483 155,535 101,586 74,649 74,723 74,796 101,859 155,911 209,963 273,989 346,989 419,989 480,963 531,910 582,859 608,796 608,723 608,648 583,586 532,535 482,483 420,457 346,457 Z"
   id="path35" />
  </g>
  <g
   id="bullet-char-template-8211"
   transform="scale(0.00048828125,-0.00048828125)">
   <path
   d="M -4,459 L 1135,459 1135,606 -4,606 -4,459 Z"
   id="path38" />
  </g>
  <g
   id="bullet-char-template-61548"
   transform="scale(0.00048828125,-0.00048828125)">
   <path
   d="M 173,740 C 173,903 231,1043 346,1159 462,1274 601,1332 765,1332 928,1332 1067,1274 1183,1159 1299,1043 1357,903 1357,740 1357,577 1299,437 1183,322 1067,206 928,148 765,148 601,148 462,206 346,322 231,437 173,577 173,740 Z"
   id="path41" />
  </g>
 </defs>
 <defs
   class="TextEmbeddedBitmaps"
   id="defs46" />
 <g
   id="g51">
  <g
   id="id2"
   class="Master_Slide">
   <g
   id="bg-id2"
   class="Background" />
   <g
   id="bo-id2"
   class="BackgroundObjects" />
  </g>
 </g>
 
<path
   style="fill:#008fb4;stroke-width:93.2691"
   d="m 484.8253,799.02128 c -44.36499,-9.69288 -78.43046,-37.1772 -99.97894,-80.66382 -13.96356,-28.17967 -14.03775,-28.52286 -14.03775,-64.93171 0,-33.00431 0.89159,-38.5054 9.06891,-55.96214 28.15396,-60.10162 74.88243,-91.35208 136.59778,-91.35208 19.82384,0 28.52312,1.24719 29.67737,4.25538 0.89826,2.34029 -5.69575,36.17367 -14.65305,75.18491 -8.95727,39.01129 -15.95463,71.2821 -15.54961,71.71297 0.40486,0.43079 31.86235,-8.86967 69.90525,-20.66788 38.04291,-11.79818 70.89923,-20.79801 73.01405,-19.99958 6.86023,2.58996 8.67009,41.12329 3.16225,67.32701 -9.31057,44.2955 -39.39018,83.55118 -78.78959,102.82522 -33.32798,16.30389 -63.01706,20.00587 -98.41667,12.27172 z"
   id="path58" /><path
   style="fill:#008fb4;stroke-width:93.2691"
   d="m 729.3829,592.03719 v -19.829 h 94.18774 94.18773 v 19.829 19.829 H 823.57064 729.3829 Z"
   id="path60" /><path
   style="fill:#008fb4;stroke-width:93.2691"
   d="m 776.67896,688.70946 c 26.92163,-0.556 70.04972,-0.55489 95.84013,0.003 25.79044,0.55785 3.76362,1.01272 -48.94845,1.01124 -52.71207,-0.002 -73.81334,-0.45784 -46.89168,-1.01383 z"
   id="path63" /><path
   style="fill:#008fb4;stroke-width:93.2691"
   d="M 227.04839,635 V 96.312308 l 289.99905,0.111866 289.99906,0.111866 121.59556,119.68826 121.59564,119.68829 -0.1445,418.88753 -0.1445,418.88748 H 638.50003 227.04839 Z m 261.08177,445.2314 v -30.6644 l 22.86445,-3.6005 c 12.57542,-1.9802 28.08525,-6.8268 34.46623,-10.7705 16.10224,-9.9517 26.62641,-32.4356 24.40542,-52.14006 -2.17434,-19.29196 -10.49831,-30.5224 -29.7975,-40.2025 -14.43536,-7.24054 -17.78533,-7.59995 -50.22694,-5.38871 l -34.76001,2.36918 v 85.53089 85.5309 h 16.52418 16.52417 z m 145.41262,-0.2607 v -30.9252 l 20.65521,-2.1336 c 42.77964,-4.4189 67.45969,-28.4586 64.3416,-62.67214 -1.7969,-19.71735 -10.11775,-31.26757 -29.83529,-41.41458 -14.33094,-7.37493 -17.31831,-7.68937 -51.70972,-5.44268 l -36.50012,2.38437 v 85.56443 85.5645 h 16.52414 16.52418 v -30.9252 z m 185.07061,-41.7811 v -72.70633 h 23.13385 23.13382 v -14.94165 -14.94161 l -65.27045,0.89604 -65.27046,0.89604 -1.01642,14.04553 -1.01605,14.04557 h 24.97627 24.97627 v 72.70631 72.7063 h 18.17656 18.17657 z M 977.24536,623.43308 V 380.5279 H 869.83831 762.43126 V 276.42567 172.32344 H 602.67974 c -87.86335,0 -191.22198,0.98012 -229.68586,2.17805 l -69.93437,2.17805 v 344.82943 344.82946 h 337.09295 337.0929 z"
   id="path67" /><path
   style="fill:#008fb4;stroke-width:93.2691"
   d="m 636.8476,990.26948 v -28.09107 h 10.02066 c 11.49695,0 31.00039,7.40381 34.52461,13.10608 1.31424,2.12619 2.53921,9.16074 2.72293,15.63207 0.46784,16.51074 -12.51156,27.44404 -32.58063,27.44404 h -14.68746 z"
   id="path69" /><path
   style="fill:#008fb4;stroke-width:93.2691"
   d="m 488.13016,989.84902 v -28.51153 l 16.79992,1.61428 c 21.1286,2.03025 30.78966,10.71319 30.78966,27.6726 0,16.87573 -12.88324,27.73623 -32.90215,27.73623 h -14.68743 z"
   id="path71" /><path
   style="fill:#008fb4;stroke-width:93.2691"
   d="m 729.3829,749.01673 v -18.1766 h 94.18774 94.18773 v 18.1766 18.17657 H 823.57064 729.3829 Z"
   id="path73" /><path
   style="fill:#008fb4;stroke-width:93.2691"
   d="m 729.3829,669.70075 v -18.17657 h 94.18774 94.18773 v 18.17657 18.17656 H 823.57064 729.3829 Z"
   id="path75" /></svg>
