<?xml version="1.0" encoding="UTF-8" standalone="no"?>
<svg
   xmlns:ooo="http://xml.openoffice.org/svg/export"
   xmlns:dc="http://purl.org/dc/elements/1.1/"
   xmlns:cc="http://creativecommons.org/ns#"
   xmlns:rdf="http://www.w3.org/1999/02/22-rdf-syntax-ns#"
   xmlns:svg="http://www.w3.org/2000/svg"
   xmlns="http://www.w3.org/2000/svg"
   xmlns:sodipodi="http://sodipodi.sourceforge.net/DTD/sodipodi-0.dtd"
   xmlns:inkscape="http://www.inkscape.org/namespaces/inkscape"
   version="1.2"
   width="12.96mm"
   height="12.96mm"
   viewBox="0 0 1296 1296"
   preserveAspectRatio="xMidYMid"
   fill-rule="evenodd"
   stroke-width="28.222"
   stroke-linejoin="round"
   xml:space="preserve"
   id="svg70"
   sodipodi:docname="spreadsheet.svg"
   inkscape:version="1.0.1 (3bc2e813f5, 2020-09-07)"><metadata
   id="metadata74"><rdf:RDF><cc:Work
       rdf:about=""><dc:format>image/svg+xml</dc:format><dc:type
         rdf:resource="http://purl.org/dc/dcmitype/StillImage" /></cc:Work></rdf:RDF></metadata><sodipodi:namedview
   pagecolor="#ffffff"
   bordercolor="#666666"
   borderopacity="1"
   objecttolerance="10"
   gridtolerance="10"
   guidetolerance="10"
   inkscape:pageopacity="0"
   inkscape:pageshadow="2"
   inkscape:window-width="1366"
   inkscape:window-height="705"
   id="namedview72"
   showgrid="false"
   inkscape:zoom="10.983475"
   inkscape:cx="24.491339"
   inkscape:cy="24.491339"
   inkscape:window-x="-8"
   inkscape:window-y="-8"
   inkscape:window-maximized="1"
   inkscape:current-layer="svg70"
   inkscape:document-rotation="0" />
 <defs
   class="ClipPathGroup"
   id="defs8">
  <clipPath
   id="presentation_clip_path"
   clipPathUnits="userSpaceOnUse">
   <rect
   x="0"
   y="0"
   width="1296"
   height="1296"
   id="rect2" />
  </clipPath>
  <clipPath
   id="presentation_clip_path_shrink"
   clipPathUnits="userSpaceOnUse">
   <rect
   x="1"
   y="1"
   width="1294"
   height="1294"
   id="rect5" />
  </clipPath>
 </defs>
 <defs
   class="TextShapeIndex"
   id="defs12">
  <g
   ooo:slide="id1"
   ooo:id-list="id3"
   id="g10" />
 </defs>
 <defs
   class="EmbeddedBulletChars"
   id="defs44">
  <g
   id="bullet-char-template-57356"
   transform="scale(0.00048828125,-0.00048828125)">
   <path
   d="M 580,1141 L 1163,571 580,0 -4,571 580,1141 Z"
   id="path14" />
  </g>
  <g
   id="bullet-char-template-57354"
   transform="scale(0.00048828125,-0.00048828125)">
   <path
   d="M 8,1128 L 1137,1128 1137,0 8,0 8,1128 Z"
   id="path17" />
  </g>
  <g
   id="bullet-char-template-10146"
   transform="scale(0.00048828125,-0.00048828125)">
   <path
   d="M 174,0 L 602,739 174,1481 1456,739 174,0 Z M 1358,739 L 309,1346 659,739 1358,739 Z"
   id="path20" />
  </g>
  <g
   id="bullet-char-template-10132"
   transform="scale(0.00048828125,-0.00048828125)">
   <path
   d="M 2015,739 L 1276,0 717,0 1260,543 174,543 174,936 1260,936 717,1481 1274,1481 2015,739 Z"
   id="path23" />
  </g>
  <g
   id="bullet-char-template-10007"
   transform="scale(0.00048828125,-0.00048828125)">
   <path
   d="M 0,-2 C -7,14 -16,27 -25,37 L 356,567 C 262,823 215,952 215,954 215,979 228,992 255,992 264,992 276,990 289,987 310,991 331,999 354,1012 L 381,999 492,748 772,1049 836,1024 860,1049 C 881,1039 901,1025 922,1006 886,937 835,863 770,784 769,783 710,716 594,584 L 774,223 C 774,196 753,168 711,139 L 727,119 C 717,90 699,76 672,76 641,76 570,178 457,381 L 164,-76 C 142,-110 111,-127 72,-127 30,-127 9,-110 8,-76 1,-67 -2,-52 -2,-32 -2,-23 -1,-13 0,-2 Z"
   id="path26" />
  </g>
  <g
   id="bullet-char-template-10004"
   transform="scale(0.00048828125,-0.00048828125)">
   <path
   d="M 285,-33 C 182,-33 111,30 74,156 52,228 41,333 41,471 41,549 55,616 82,672 116,743 169,778 240,778 293,778 328,747 346,684 L 369,508 C 377,444 397,411 428,410 L 1163,1116 C 1174,1127 1196,1133 1229,1133 1271,1133 1292,1118 1292,1087 L 1292,965 C 1292,929 1282,901 1262,881 L 442,47 C 390,-6 338,-33 285,-33 Z"
   id="path29" />
  </g>
  <g
   id="bullet-char-template-9679"
   transform="scale(0.00048828125,-0.00048828125)">
   <path
   d="M 813,0 C 632,0 489,54 383,161 276,268 223,411 223,592 223,773 276,916 383,1023 489,1130 632,1184 813,1184 992,1184 1136,1130 1245,1023 1353,916 1407,772 1407,592 1407,412 1353,268 1245,161 1136,54 992,0 813,0 Z"
   id="path32" />
  </g>
  <g
   id="bullet-char-template-8226"
   transform="scale(0.00048828125,-0.00048828125)">
   <path
   d="M 346,457 C 273,457 209,483 155,535 101,586 74,649 74,723 74,796 101,859 155,911 209,963 273,989 346,989 419,989 480,963 531,910 582,859 608,796 608,723 608,648 583,586 532,535 482,483 420,457 346,457 Z"
   id="path35" />
  </g>
  <g
   id="bullet-char-template-8211"
   transform="scale(0.00048828125,-0.00048828125)">
   <path
   d="M -4,459 L 1135,459 1135,606 -4,606 -4,459 Z"
   id="path38" />
  </g>
  <g
   id="bullet-char-template-61548"
   transform="scale(0.00048828125,-0.00048828125)">
   <path
   d="M 173,740 C 173,903 231,1043 346,1159 462,1274 601,1332 765,1332 928,1332 1067,1274 1183,1159 1299,1043 1357,903 1357,740 1357,577 1299,437 1183,322 1067,206 928,148 765,148 601,148 462,206 346,322 231,437 173,577 173,740 Z"
   id="path41" />
  </g>
 </defs>
 <defs
   class="TextEmbeddedBitmaps"
   id="defs46" />
 <g
   id="g51">
  <g
   id="id2"
   class="Master_Slide">
   <g
   id="bg-id2"
   class="Background" />
   <g
   id="bo-id2"
   class="BackgroundObjects" />
  </g>
 </g>
 
<path
   style="fill:#008fb4;stroke-width:95.1786"
   d="M 499.68637,1066.3414 C 385.61186,1046.2115 264.57484,1024.8789 230.7152,1018.9356 l -61.56303,-10.8059 0.85826,-362.63658 0.85826,-362.63657 274.01487,-45.93723 274.01484,-45.93722 v 456.32488 c 0,432.47832 -0.30745,456.30682 -5.90185,455.97962 -3.24596,-0.189 -99.23555,-16.8153 -213.31003,-36.9452 z m 67.4498,-264.44317 c 0,-0.87011 -18.21142,-39.04566 -40.46987,-84.83453 -22.25845,-45.78887 -40.46991,-84.34965 -40.46991,-85.6906 0,-1.34091 16.69383,-38.26845 37.09741,-82.06118 20.40355,-43.79273 37.09738,-80.09364 37.09738,-80.66867 0,-1.41388 -42.85591,0.78195 -56.30919,2.88554 -10.49412,1.64095 -11.33734,3.11632 -31.73422,55.52635 -11.52448,29.6124 -21.96967,53.8408 -23.21149,53.8408 -1.24201,0 -11.24337,-22.00242 -22.22563,-48.89422 l -19.96776,-48.89422 -33.10906,-0.007 c -32.14806,-0.007 -33.0435,0.20002 -30.85119,7.10703 1.24201,3.91264 15.74886,38.81971 32.23784,77.57122 l 29.98001,70.45728 -32.5324,74.23117 c -17.89283,40.8271 -31.76167,75.00185 -30.81967,75.94386 0.94197,0.94197 14.36276,2.06211 29.82384,2.4892 l 28.11111,0.77639 21.10901,-50.12997 c 11.60993,-27.57152 21.67715,-50.69815 22.37157,-51.3926 0.69453,-0.69454 11.54126,24.51991 24.10405,56.03185 l 22.84145,57.29427 h 38.46336 c 21.15486,0 38.46336,-0.71194 38.46336,-1.58205 z"
   id="path56" /><path
   style="fill:#008fb4;stroke-width:95.1786"
   d="m 739.13318,960.30102 v -28.66617 h 69.13609 69.13605 V 882.73374 833.83262 H 808.26927 739.13318 V 820.34264 806.8527 h 69.13609 69.13605 v -47.21487 -47.2149 h -69.13605 -69.13609 v -13.48994 -13.48995 h 69.13609 69.13605 v -48.90115 -48.90111 h -69.13605 -69.13609 v -13.48994 -13.48998 h 69.13609 69.13605 V 513.44599 466.23113 H 808.26927 739.13318 V 452.74118 439.2512 h 69.13609 69.13605 v -48.90111 -48.90111 h -69.13605 -69.13609 v -23.60743 -23.60743 h 183.61269 183.61273 l 9.4624,8.13831 9.4624,8.13835 0.9601,326.58137 c 0.5278,179.61974 0.093,330.09599 -0.9631,334.39171 -4.1723,16.94427 -10.5119,17.48334 -205.61043,17.48334 h -180.5366 z m 327.13162,-72.50854 v -50.58736 h -80.93978 -80.93978 v 50.58736 50.58736 h 80.93978 80.93978 z m 0,-124.78219 v -50.58736 h -80.93978 -80.93978 v 50.58736 50.58736 h 80.93978 80.93978 z m 0,-124.78215 v -47.21486 h -80.93978 -80.93978 v 47.21486 47.2149 h 80.93978 80.93978 z m 0,-124.78215 v -47.21486 h -80.93978 -80.93978 v 47.21486 47.21487 h 80.93978 80.93978 z m 0,-126.46839 v -48.90112 h -80.93978 -80.93978 v 48.90112 48.90111 h 80.93978 80.93978 z"
   id="path58" /></svg>
