<?xml version="1.0" encoding="UTF-8" standalone="no"?>
<svg
   xmlns:ooo="http://xml.openoffice.org/svg/export"
   xmlns:dc="http://purl.org/dc/elements/1.1/"
   xmlns:cc="http://creativecommons.org/ns#"
   xmlns:rdf="http://www.w3.org/1999/02/22-rdf-syntax-ns#"
   xmlns:svg="http://www.w3.org/2000/svg"
   xmlns="http://www.w3.org/2000/svg"
   xmlns:sodipodi="http://sodipodi.sourceforge.net/DTD/sodipodi-0.dtd"
   xmlns:inkscape="http://www.inkscape.org/namespaces/inkscape"
   version="1.2"
   width="12.96mm"
   height="12.96mm"
   viewBox="0 0 1296 1296"
   preserveAspectRatio="xMidYMid"
   fill-rule="evenodd"
   stroke-width="28.222"
   stroke-linejoin="round"
   xml:space="preserve"
   id="svg70"
   sodipodi:docname="url.svg"
   inkscape:version="1.0.1 (3bc2e813f5, 2020-09-07)"><metadata
   id="metadata74"><rdf:RDF><cc:Work
       rdf:about=""><dc:format>image/svg+xml</dc:format><dc:type
         rdf:resource="http://purl.org/dc/dcmitype/StillImage" /></cc:Work></rdf:RDF></metadata><sodipodi:namedview
   pagecolor="#ffffff"
   bordercolor="#666666"
   borderopacity="1"
   objecttolerance="10"
   gridtolerance="10"
   guidetolerance="10"
   inkscape:pageopacity="0"
   inkscape:pageshadow="2"
   inkscape:window-width="1366"
   inkscape:window-height="705"
   id="namedview72"
   showgrid="false"
   inkscape:zoom="10.983475"
   inkscape:cx="24.491339"
   inkscape:cy="24.491339"
   inkscape:window-x="-8"
   inkscape:window-y="-8"
   inkscape:window-maximized="1"
   inkscape:current-layer="svg70"
   inkscape:document-rotation="0" />
 <defs
   class="ClipPathGroup"
   id="defs8">
  <clipPath
   id="presentation_clip_path"
   clipPathUnits="userSpaceOnUse">
   <rect
   x="0"
   y="0"
   width="1296"
   height="1296"
   id="rect2" />
  </clipPath>
  <clipPath
   id="presentation_clip_path_shrink"
   clipPathUnits="userSpaceOnUse">
   <rect
   x="1"
   y="1"
   width="1294"
   height="1294"
   id="rect5" />
  </clipPath>
 </defs>
 <defs
   class="TextShapeIndex"
   id="defs12">
  <g
   ooo:slide="id1"
   ooo:id-list="id3"
   id="g10" />
 </defs>
 <defs
   class="EmbeddedBulletChars"
   id="defs44">
  <g
   id="bullet-char-template-57356"
   transform="scale(0.00048828125,-0.00048828125)">
   <path
   d="M 580,1141 L 1163,571 580,0 -4,571 580,1141 Z"
   id="path14" />
  </g>
  <g
   id="bullet-char-template-57354"
   transform="scale(0.00048828125,-0.00048828125)">
   <path
   d="M 8,1128 L 1137,1128 1137,0 8,0 8,1128 Z"
   id="path17" />
  </g>
  <g
   id="bullet-char-template-10146"
   transform="scale(0.00048828125,-0.00048828125)">
   <path
   d="M 174,0 L 602,739 174,1481 1456,739 174,0 Z M 1358,739 L 309,1346 659,739 1358,739 Z"
   id="path20" />
  </g>
  <g
   id="bullet-char-template-10132"
   transform="scale(0.00048828125,-0.00048828125)">
   <path
   d="M 2015,739 L 1276,0 717,0 1260,543 174,543 174,936 1260,936 717,1481 1274,1481 2015,739 Z"
   id="path23" />
  </g>
  <g
   id="bullet-char-template-10007"
   transform="scale(0.00048828125,-0.00048828125)">
   <path
   d="M 0,-2 C -7,14 -16,27 -25,37 L 356,567 C 262,823 215,952 215,954 215,979 228,992 255,992 264,992 276,990 289,987 310,991 331,999 354,1012 L 381,999 492,748 772,1049 836,1024 860,1049 C 881,1039 901,1025 922,1006 886,937 835,863 770,784 769,783 710,716 594,584 L 774,223 C 774,196 753,168 711,139 L 727,119 C 717,90 699,76 672,76 641,76 570,178 457,381 L 164,-76 C 142,-110 111,-127 72,-127 30,-127 9,-110 8,-76 1,-67 -2,-52 -2,-32 -2,-23 -1,-13 0,-2 Z"
   id="path26" />
  </g>
  <g
   id="bullet-char-template-10004"
   transform="scale(0.00048828125,-0.00048828125)">
   <path
   d="M 285,-33 C 182,-33 111,30 74,156 52,228 41,333 41,471 41,549 55,616 82,672 116,743 169,778 240,778 293,778 328,747 346,684 L 369,508 C 377,444 397,411 428,410 L 1163,1116 C 1174,1127 1196,1133 1229,1133 1271,1133 1292,1118 1292,1087 L 1292,965 C 1292,929 1282,901 1262,881 L 442,47 C 390,-6 338,-33 285,-33 Z"
   id="path29" />
  </g>
  <g
   id="bullet-char-template-9679"
   transform="scale(0.00048828125,-0.00048828125)">
   <path
   d="M 813,0 C 632,0 489,54 383,161 276,268 223,411 223,592 223,773 276,916 383,1023 489,1130 632,1184 813,1184 992,1184 1136,1130 1245,1023 1353,916 1407,772 1407,592 1407,412 1353,268 1245,161 1136,54 992,0 813,0 Z"
   id="path32" />
  </g>
  <g
   id="bullet-char-template-8226"
   transform="scale(0.00048828125,-0.00048828125)">
   <path
   d="M 346,457 C 273,457 209,483 155,535 101,586 74,649 74,723 74,796 101,859 155,911 209,963 273,989 346,989 419,989 480,963 531,910 582,859 608,796 608,723 608,648 583,586 532,535 482,483 420,457 346,457 Z"
   id="path35" />
  </g>
  <g
   id="bullet-char-template-8211"
   transform="scale(0.00048828125,-0.00048828125)">
   <path
   d="M -4,459 L 1135,459 1135,606 -4,606 -4,459 Z"
   id="path38" />
  </g>
  <g
   id="bullet-char-template-61548"
   transform="scale(0.00048828125,-0.00048828125)">
   <path
   d="M 173,740 C 173,903 231,1043 346,1159 462,1274 601,1332 765,1332 928,1332 1067,1274 1183,1159 1299,1043 1357,903 1357,740 1357,577 1299,437 1183,322 1067,206 928,148 765,148 601,148 462,206 346,322 231,437 173,577 173,740 Z"
   id="path41" />
  </g>
 </defs>
 <defs
   class="TextEmbeddedBitmaps"
   id="defs46" />
 <g
   id="g51">
  <g
   id="id2"
   class="Master_Slide">
   <g
   id="bg-id2"
   class="Background" />
   <g
   id="bo-id2"
   class="BackgroundObjects" />
  </g>
 </g>
 
<path
   style="fill:#008fb4;stroke-width:95.1786"
   d="m 324.35947,1121.7669 c -35.6689,-7.6885 -68.86498,-26.1644 -96.01252,-53.4379 -62.2637,-62.5522 -76.7557,-149.16989 -38.14047,-227.96248 8.98987,-18.3434 23.42871,-34.78857 88.46747,-100.76033 44.13711,-44.7703 86.3632,-84.50482 97.71588,-91.95016 24.78068,-16.25169 56.51528,-26.4703 89.71035,-28.8869 23.73975,-1.72837 67.88197,3.16595 76.34477,8.46468 2.33547,1.46241 -5.83962,12.51427 -21.60993,29.21477 l -25.36642,26.86269 -24.97031,2.38511 c -46.63346,4.45441 -59.89337,13.36385 -141.3144,94.95057 -77.77498,77.93326 -86.64527,90.39593 -91.71283,128.85562 -5.75865,43.70457 6.33023,81.6808 35.41064,111.23973 42.38575,43.0833 111.75853,50.9735 162.76994,18.513 8.34693,-5.3115 45.87143,-40.58884 83.38783,-78.39413 76.45166,-77.04044 83.63278,-87.79637 89.90775,-134.6639 l 3.50748,-26.19783 26.1619,-26.00843 c 14.38902,-14.30464 26.99681,-25.17348 28.01731,-24.15298 5.27159,5.27162 12.12341,56.98945 10.2371,77.27021 -6.5,69.88429 -23.947,96.56018 -132.6544,202.82446 -57.38632,56.0966 -63.00143,60.6372 -92.41981,74.7346 -45.62959,21.8658 -82.42211,26.8026 -127.43737,17.0995 z"
   id="path51" /><path
   style="fill:#008fb4;stroke-width:95.1786"
   d="M 503.66562,788.66088 479.10492,763.93516 619.53177,625.0951 c 77.23476,-76.36206 141.85713,-138.84009 143.60528,-138.84009 3.95568,0 46.86108,42.20235 46.86108,46.09321 0,3.00778 -277.01955,281.03838 -280.01618,281.03838 -0.96568,0 -12.80794,-11.12658 -26.31633,-24.72572 z"
   id="path53" /><path
   style="fill:#008fb4;stroke-width:95.1786"
   d="m 775.00164,673.45392 c -12.756,-2.64959 -24.05727,-5.68163 -25.11392,-6.73828 -1.05642,-1.0568 9.78267,-13.69397 24.08731,-28.08299 l 26.00844,-26.1619 26.19783,-3.50748 c 46.86752,-6.27497 57.62346,-13.45609 134.6639,-89.90775 37.80528,-37.51639 73.0827,-75.0409 78.3941,-83.38783 32.4606,-51.01141 24.5703,-120.38419 -18.513,-162.76994 -28.98776,-28.51849 -66.50374,-40.72731 -110.26725,-35.88426 -37.5015,4.15008 -51.7518,14.26871 -129.82808,92.18645 -62.89212,62.7644 -72.81858,74.14604 -82.25709,94.31567 -7.57047,16.17769 -11.21737,29.69568 -12.37455,45.86881 l -1.64057,22.93116 -27.94664,27.80148 -27.94661,27.80147 -3.88856,-13.12619 c -7.25413,-24.48706 -8.17243,-69.06708 -1.99469,-96.83481 11.19151,-50.30366 17.80956,-59.3892 111.16663,-152.61385 91.46477,-91.33501 100.96595,-98.38763 149.24473,-110.78266 104.88903,-26.92907 216.31638,43.72032 238.94518,151.50075 9.435,44.93847 4.6062,80.06356 -17.2874,125.75112 -14.0973,29.41838 -18.638,35.03349 -74.7345,92.41981 -91.13464,93.22991 -118.18021,114.02392 -164.27256,126.30112 -26.55602,7.07351 -64.72513,8.30318 -90.64255,2.91999 z"
   id="path56" /></svg>
