<?xml version="1.0" encoding="UTF-8" standalone="no"?>
<svg
   xmlns:ooo="http://xml.openoffice.org/svg/export"
   xmlns:dc="http://purl.org/dc/elements/1.1/"
   xmlns:cc="http://creativecommons.org/ns#"
   xmlns:rdf="http://www.w3.org/1999/02/22-rdf-syntax-ns#"
   xmlns:svg="http://www.w3.org/2000/svg"
   xmlns="http://www.w3.org/2000/svg"
   xmlns:sodipodi="http://sodipodi.sourceforge.net/DTD/sodipodi-0.dtd"
   xmlns:inkscape="http://www.inkscape.org/namespaces/inkscape"
   version="1.2"
   width="12.96mm"
   height="12.96mm"
   viewBox="0 0 1296 1296"
   preserveAspectRatio="xMidYMid"
   fill-rule="evenodd"
   stroke-width="28.222"
   stroke-linejoin="round"
   xml:space="preserve"
   id="svg70"
   sodipodi:docname="wav.svg"
   inkscape:version="1.0.1 (3bc2e813f5, 2020-09-07)"><metadata
   id="metadata74"><rdf:RDF><cc:Work
       rdf:about=""><dc:format>image/svg+xml</dc:format><dc:type
         rdf:resource="http://purl.org/dc/dcmitype/StillImage" /></cc:Work></rdf:RDF></metadata><sodipodi:namedview
   pagecolor="#ffffff"
   bordercolor="#666666"
   borderopacity="1"
   objecttolerance="10"
   gridtolerance="10"
   guidetolerance="10"
   inkscape:pageopacity="0"
   inkscape:pageshadow="2"
   inkscape:window-width="1366"
   inkscape:window-height="705"
   id="namedview72"
   showgrid="false"
   inkscape:zoom="10.983475"
   inkscape:cx="24.491339"
   inkscape:cy="24.491339"
   inkscape:window-x="-8"
   inkscape:window-y="-8"
   inkscape:window-maximized="1"
   inkscape:current-layer="svg70"
   inkscape:document-rotation="0" />
 <defs
   class="ClipPathGroup"
   id="defs8">
  <clipPath
   id="presentation_clip_path"
   clipPathUnits="userSpaceOnUse">
   <rect
   x="0"
   y="0"
   width="1296"
   height="1296"
   id="rect2" />
  </clipPath>
  <clipPath
   id="presentation_clip_path_shrink"
   clipPathUnits="userSpaceOnUse">
   <rect
   x="1"
   y="1"
   width="1294"
   height="1294"
   id="rect5" />
  </clipPath>
 </defs>
 <defs
   class="TextShapeIndex"
   id="defs12">
  <g
   ooo:slide="id1"
   ooo:id-list="id3"
   id="g10" />
 </defs>
 <defs
   class="EmbeddedBulletChars"
   id="defs44">
  <g
   id="bullet-char-template-57356"
   transform="scale(0.00048828125,-0.00048828125)">
   <path
   d="M 580,1141 L 1163,571 580,0 -4,571 580,1141 Z"
   id="path14" />
  </g>
  <g
   id="bullet-char-template-57354"
   transform="scale(0.00048828125,-0.00048828125)">
   <path
   d="M 8,1128 L 1137,1128 1137,0 8,0 8,1128 Z"
   id="path17" />
  </g>
  <g
   id="bullet-char-template-10146"
   transform="scale(0.00048828125,-0.00048828125)">
   <path
   d="M 174,0 L 602,739 174,1481 1456,739 174,0 Z M 1358,739 L 309,1346 659,739 1358,739 Z"
   id="path20" />
  </g>
  <g
   id="bullet-char-template-10132"
   transform="scale(0.00048828125,-0.00048828125)">
   <path
   d="M 2015,739 L 1276,0 717,0 1260,543 174,543 174,936 1260,936 717,1481 1274,1481 2015,739 Z"
   id="path23" />
  </g>
  <g
   id="bullet-char-template-10007"
   transform="scale(0.00048828125,-0.00048828125)">
   <path
   d="M 0,-2 C -7,14 -16,27 -25,37 L 356,567 C 262,823 215,952 215,954 215,979 228,992 255,992 264,992 276,990 289,987 310,991 331,999 354,1012 L 381,999 492,748 772,1049 836,1024 860,1049 C 881,1039 901,1025 922,1006 886,937 835,863 770,784 769,783 710,716 594,584 L 774,223 C 774,196 753,168 711,139 L 727,119 C 717,90 699,76 672,76 641,76 570,178 457,381 L 164,-76 C 142,-110 111,-127 72,-127 30,-127 9,-110 8,-76 1,-67 -2,-52 -2,-32 -2,-23 -1,-13 0,-2 Z"
   id="path26" />
  </g>
  <g
   id="bullet-char-template-10004"
   transform="scale(0.00048828125,-0.00048828125)">
   <path
   d="M 285,-33 C 182,-33 111,30 74,156 52,228 41,333 41,471 41,549 55,616 82,672 116,743 169,778 240,778 293,778 328,747 346,684 L 369,508 C 377,444 397,411 428,410 L 1163,1116 C 1174,1127 1196,1133 1229,1133 1271,1133 1292,1118 1292,1087 L 1292,965 C 1292,929 1282,901 1262,881 L 442,47 C 390,-6 338,-33 285,-33 Z"
   id="path29" />
  </g>
  <g
   id="bullet-char-template-9679"
   transform="scale(0.00048828125,-0.00048828125)">
   <path
   d="M 813,0 C 632,0 489,54 383,161 276,268 223,411 223,592 223,773 276,916 383,1023 489,1130 632,1184 813,1184 992,1184 1136,1130 1245,1023 1353,916 1407,772 1407,592 1407,412 1353,268 1245,161 1136,54 992,0 813,0 Z"
   id="path32" />
  </g>
  <g
   id="bullet-char-template-8226"
   transform="scale(0.00048828125,-0.00048828125)">
   <path
   d="M 346,457 C 273,457 209,483 155,535 101,586 74,649 74,723 74,796 101,859 155,911 209,963 273,989 346,989 419,989 480,963 531,910 582,859 608,796 608,723 608,648 583,586 532,535 482,483 420,457 346,457 Z"
   id="path35" />
  </g>
  <g
   id="bullet-char-template-8211"
   transform="scale(0.00048828125,-0.00048828125)">
   <path
   d="M -4,459 L 1135,459 1135,606 -4,606 -4,459 Z"
   id="path38" />
  </g>
  <g
   id="bullet-char-template-61548"
   transform="scale(0.00048828125,-0.00048828125)">
   <path
   d="M 173,740 C 173,903 231,1043 346,1159 462,1274 601,1332 765,1332 928,1332 1067,1274 1183,1159 1299,1043 1357,903 1357,740 1357,577 1299,437 1183,322 1067,206 928,148 765,148 601,148 462,206 346,322 231,437 173,577 173,740 Z"
   id="path41" />
  </g>
 </defs>
 <defs
   class="TextEmbeddedBitmaps"
   id="defs46" />
 <g
   id="g51">
  <g
   id="id2"
   class="Master_Slide">
   <g
   id="bg-id2"
   class="Background" />
   <g
   id="bo-id2"
   class="BackgroundObjects" />
  </g>
 </g>
 
<path
   style="fill:#008fb4;stroke-width:2.5695"
   d=""
   id="path51"
   transform="scale(26.458333)" /><path
   style="fill:#008fb4;stroke-width:95.1786"
   d="m 390.34455,1123.2271 c -24.31085,-4.9548 -61.73372,-23.4104 -81.99647,-40.4377 -25.50122,-21.4293 -41.32261,-44.2918 -69.71412,-100.73959 -50.3181,-100.04202 -69.24788,-176.49643 -69.33659,-280.03963 -0.0815,-96.07812 19.4498,-177.84926 63.0135,-263.80541 25.61843,-50.5481 53.91022,-89.20726 97.09814,-132.67914 70.61886,-71.08318 153.63512,-115.13676 247.87805,-131.53948 50.20931,-8.73879 124.52893,-5.31314 176.51202,8.13606 132.53019,34.28847 243.78725,127.7527 311.36992,261.57395 78.8391,156.11006 81.325,336.71834 6.9672,506.19207 -6.5107,14.83897 -12.9394,30.774 -14.2861,35.41117 -1.3468,4.63717 -8.6394,20.4362 -16.2061,35.109 -35.8174,69.4541 -114.51752,113.9422 -185.80846,105.035 -24.00685,-2.9993 -35.72917,-12.6934 -35.72917,-29.5468 0,-25.3356 57.16403,-388.06847 62.42117,-396.09188 7.96092,-12.14993 18.52409,-14.9355 37.56603,-9.90646 44.26653,11.6909 87.59783,44.97792 113.68753,87.33462 8.2206,13.34615 15.9669,27.68042 17.2141,31.85387 8.4272,28.20063 16.8877,-24.66072 16.8678,-105.39032 -0.014,-53.01311 -1.3295,-70.61557 -7.6228,-101.94285 -36.4483,-181.43053 -158.08399,-321.32027 -316.76574,-364.3032 -30.24841,-8.19354 -38.27064,-8.93078 -97.05135,-8.91926 -54.73618,0.0108 -67.77977,1.0442 -89.47489,7.0894 -85.3417,23.77986 -157.25765,69.18083 -211.96993,133.81799 -53.67756,63.41466 -87.54491,131.97267 -106.81213,216.22072 -12.44207,54.40436 -15.47382,144.92319 -6.62909,197.92418 3.19188,19.12772 6.57123,36.03099 7.50935,37.56273 0.93826,1.53168 7.67188,-9.47574 14.96387,-24.46109 15.15793,-31.15015 45.44338,-65.9172 72.60685,-83.35108 9.59368,-6.15737 28.83846,-15.02055 42.76612,-19.69591 28.0484,-9.41555 38.31364,-8.18088 47.32651,5.69223 6.24074,9.60605 63.49949,375.69841 62.08068,396.92191 -1.42906,21.3786 -10.98141,27.5372 -45.17657,29.1266 -14.65068,0.6808 -34.12189,-0.289 -43.26933,-2.1518 z m 28.43544,-59.3683 c 0,-10.2206 -44.02898,-299.25224 -46.53959,-305.51277 -2.21102,-5.51331 -3.89627,-5.08285 -18.83106,4.80953 -34.35314,22.75455 -59.65279,67.30956 -66.76079,117.57199 -11.46732,81.08769 33.99847,162.50695 102.74369,183.99145 20.25291,6.3295 29.38775,6.0621 29.38775,-0.8601 z m 511.51137,-7.8925 c 86.64864,-42.1494 111.98094,-177.26893 48.82921,-260.44955 -14.82722,-19.52977 -45.95837,-45.80702 -49.7621,-42.00328 -1.56909,1.56908 -48.54726,304.88423 -48.54726,313.44613 0,5.9246 27.06113,-0.089 49.48015,-10.9933 z"
   id="path53" /></svg>
