<?xml version="1.0" encoding="UTF-8" standalone="no"?>
<svg
   xmlns:ooo="http://xml.openoffice.org/svg/export"
   xmlns:dc="http://purl.org/dc/elements/1.1/"
   xmlns:cc="http://creativecommons.org/ns#"
   xmlns:rdf="http://www.w3.org/1999/02/22-rdf-syntax-ns#"
   xmlns:svg="http://www.w3.org/2000/svg"
   xmlns="http://www.w3.org/2000/svg"
   xmlns:sodipodi="http://sodipodi.sourceforge.net/DTD/sodipodi-0.dtd"
   xmlns:inkscape="http://www.inkscape.org/namespaces/inkscape"
   version="1.2"
   width="12.96mm"
   height="12.96mm"
   viewBox="0 0 1296 1296"
   preserveAspectRatio="xMidYMid"
   fill-rule="evenodd"
   stroke-width="28.222"
   stroke-linejoin="round"
   xml:space="preserve"
   id="svg72"
   sodipodi:docname="icon.svg"
   inkscape:export-filename="C:\Users\Formacion\Desktop\iconos Adaptable\Gris oscuro\pix_plugins\mod\hsuforum\icon.png"
   inkscape:export-xdpi="94.07"
   inkscape:export-ydpi="94.07"
   inkscape:version="1.0.1 (3bc2e813f5, 2020-09-07)"><metadata
   id="metadata76"><rdf:RDF><cc:Work
       rdf:about=""><dc:format>image/svg+xml</dc:format><dc:type
         rdf:resource="http://purl.org/dc/dcmitype/StillImage" /></cc:Work></rdf:RDF></metadata><sodipodi:namedview
   pagecolor="#ffffff"
   bordercolor="#666666"
   borderopacity="1"
   objecttolerance="10"
   gridtolerance="10"
   guidetolerance="10"
   inkscape:pageopacity="0"
   inkscape:pageshadow="2"
   inkscape:window-width="1366"
   inkscape:window-height="705"
   id="namedview74"
   showgrid="false"
   inkscape:zoom="10.983475"
   inkscape:cx="24.491339"
   inkscape:cy="24.491339"
   inkscape:window-x="-8"
   inkscape:window-y="-8"
   inkscape:window-maximized="1"
   inkscape:current-layer="svg72"
   inkscape:document-rotation="0" />
 <defs
   class="ClipPathGroup"
   id="defs8">
  <clipPath
   id="presentation_clip_path"
   clipPathUnits="userSpaceOnUse">
   <rect
   x="0"
   y="0"
   width="1296"
   height="1296"
   id="rect2" />
  </clipPath>
  <clipPath
   id="presentation_clip_path_shrink"
   clipPathUnits="userSpaceOnUse">
   <rect
   x="1"
   y="1"
   width="1294"
   height="1294"
   id="rect5" />
  </clipPath>
 </defs>
 <defs
   class="TextShapeIndex"
   id="defs12">
  <g
   ooo:slide="id1"
   ooo:id-list="id3"
   id="g10" />
 </defs>
 <defs
   class="EmbeddedBulletChars"
   id="defs44">
  <g
   id="bullet-char-template-57356"
   transform="scale(0.00048828125,-0.00048828125)">
   <path
   d="M 580,1141 L 1163,571 580,0 -4,571 580,1141 Z"
   id="path14" />
  </g>
  <g
   id="bullet-char-template-57354"
   transform="scale(0.00048828125,-0.00048828125)">
   <path
   d="M 8,1128 L 1137,1128 1137,0 8,0 8,1128 Z"
   id="path17" />
  </g>
  <g
   id="bullet-char-template-10146"
   transform="scale(0.00048828125,-0.00048828125)">
   <path
   d="M 174,0 L 602,739 174,1481 1456,739 174,0 Z M 1358,739 L 309,1346 659,739 1358,739 Z"
   id="path20" />
  </g>
  <g
   id="bullet-char-template-10132"
   transform="scale(0.00048828125,-0.00048828125)">
   <path
   d="M 2015,739 L 1276,0 717,0 1260,543 174,543 174,936 1260,936 717,1481 1274,1481 2015,739 Z"
   id="path23" />
  </g>
  <g
   id="bullet-char-template-10007"
   transform="scale(0.00048828125,-0.00048828125)">
   <path
   d="M 0,-2 C -7,14 -16,27 -25,37 L 356,567 C 262,823 215,952 215,954 215,979 228,992 255,992 264,992 276,990 289,987 310,991 331,999 354,1012 L 381,999 492,748 772,1049 836,1024 860,1049 C 881,1039 901,1025 922,1006 886,937 835,863 770,784 769,783 710,716 594,584 L 774,223 C 774,196 753,168 711,139 L 727,119 C 717,90 699,76 672,76 641,76 570,178 457,381 L 164,-76 C 142,-110 111,-127 72,-127 30,-127 9,-110 8,-76 1,-67 -2,-52 -2,-32 -2,-23 -1,-13 0,-2 Z"
   id="path26" />
  </g>
  <g
   id="bullet-char-template-10004"
   transform="scale(0.00048828125,-0.00048828125)">
   <path
   d="M 285,-33 C 182,-33 111,30 74,156 52,228 41,333 41,471 41,549 55,616 82,672 116,743 169,778 240,778 293,778 328,747 346,684 L 369,508 C 377,444 397,411 428,410 L 1163,1116 C 1174,1127 1196,1133 1229,1133 1271,1133 1292,1118 1292,1087 L 1292,965 C 1292,929 1282,901 1262,881 L 442,47 C 390,-6 338,-33 285,-33 Z"
   id="path29" />
  </g>
  <g
   id="bullet-char-template-9679"
   transform="scale(0.00048828125,-0.00048828125)">
   <path
   d="M 813,0 C 632,0 489,54 383,161 276,268 223,411 223,592 223,773 276,916 383,1023 489,1130 632,1184 813,1184 992,1184 1136,1130 1245,1023 1353,916 1407,772 1407,592 1407,412 1353,268 1245,161 1136,54 992,0 813,0 Z"
   id="path32" />
  </g>
  <g
   id="bullet-char-template-8226"
   transform="scale(0.00048828125,-0.00048828125)">
   <path
   d="M 346,457 C 273,457 209,483 155,535 101,586 74,649 74,723 74,796 101,859 155,911 209,963 273,989 346,989 419,989 480,963 531,910 582,859 608,796 608,723 608,648 583,586 532,535 482,483 420,457 346,457 Z"
   id="path35" />
  </g>
  <g
   id="bullet-char-template-8211"
   transform="scale(0.00048828125,-0.00048828125)">
   <path
   d="M -4,459 L 1135,459 1135,606 -4,606 -4,459 Z"
   id="path38" />
  </g>
  <g
   id="bullet-char-template-61548"
   transform="scale(0.00048828125,-0.00048828125)">
   <path
   d="M 173,740 C 173,903 231,1043 346,1159 462,1274 601,1332 765,1332 928,1332 1067,1274 1183,1159 1299,1043 1357,903 1357,740 1357,577 1299,437 1183,322 1067,206 928,148 765,148 601,148 462,206 346,322 231,437 173,577 173,740 Z"
   id="path41" />
  </g>
 </defs>
 <defs
   class="TextEmbeddedBitmaps"
   id="defs46" />
 <g
   id="g51">
  <g
   id="id2"
   class="Master_Slide">
   <g
   id="bg-id2"
   class="Background" />
   <g
   id="bo-id2"
   class="BackgroundObjects" />
  </g>
 </g>
 
<path
   style="fill:#008fb4;stroke-width:95.1786"
   d="m 290.51588,537.35274 c -36.22549,-11.91304 -63.82268,-34.98156 -79.26879,-66.26087 -8.87478,-17.97195 -9.95466,-23.59299 -10.02422,-52.18034 -0.0741,-31.12744 0.31115,-32.75805 13.6243,-57.33235 23.49097,-43.36308 59.26644,-64.0773 110.66771,-64.0773 24.38639,0 30.62383,1.31053 48.31904,10.15304 24.24559,12.11567 52.44756,40.65546 62.39428,63.14171 18.04722,40.79869 8.879,94.11039 -21.99367,127.89006 -25.02683,27.38331 -50.29736,39.18212 -86.62123,40.44335 -15.76642,0.54747 -32.46025,-0.25189 -37.09742,-1.77726 z m 61.01752,-65.47203 c 20.77526,-10.81243 30.94168,-30.74014 29.19683,-57.23012 -4.02228,-61.06541 -85.35822,-77.49424 -112.97864,-22.82029 -27.63108,54.69502 28.83568,108.64691 83.78181,80.05041 z"
   id="path56" /><path
   style="fill:#008fb4;stroke-width:95.1786"
   d="m 108.40139,831.06393 c 0,-123.82136 1.16556,-132.70607 22.8371,-174.08087 40.75884,-77.81576 143.54305,-121.5476 238.43417,-101.44708 29.24577,6.19503 66.99045,23.87865 91.44773,42.84383 l 18.63451,14.44992 -22.1251,21.0623 -22.1251,21.0623 -16.87388,-12.12267 c -26.86432,-19.30011 -56.54114,-28.16778 -94.39002,-28.20452 -37.27421,-0.0362 -58.61881,4.90391 -87.34736,20.21604 -24.7838,13.20965 -41.81615,31.18912 -53.8414,56.83537 -8.73872,18.63703 -8.90474,20.34676 -9.94394,102.42257 l -1.0568,83.46914 h 91.271 91.271 v 32.03867 32.03863 H 231.49728 108.40139 Z"
   id="path58" /><path
   style="fill:#008fb4;stroke-width:95.1786"
   d="m 385.82124,929.00072 c 1.99506,-111.64939 5.01466,-129.26574 31.0741,-181.28776 27.54167,-54.98091 63.54254,-91.42339 119.12926,-120.59059 49.57868,-26.0147 71.48549,-31.19927 130.52398,-30.89049 45.28821,0.23706 53.4136,1.20163 77.56728,9.2093 79.48912,26.35325 145.30435,86.62534 176.40064,161.5437 18.00629,43.38142 20.89006,66.54221 20.89006,167.77553 v 91.19939 H 662.74762 384.08869 Z M 879.71326,900.33459 C 877.58003,828.31547 874.46071,812.19813 855.34947,774.44196 788.8486,643.06258 615.34907,614.8795 513.10025,718.84735 c -29.4979,29.99386 -47.53379,61.39237 -57.3808,99.89378 -5.45168,21.31589 -6.6965,37.36748 -6.6965,86.34853 v 60.16533 h 216.3067 216.30673 z"
   id="path60" /><path
   style="fill:#008fb4;stroke-width:95.1786"
   d="M 615.45749,564.00296 C 556.32788,542.96822 514.77646,489.7695 510.66888,429.84093 c -4.31239,-62.91638 28.83323,-118.38964 88.29899,-147.7792 26.25165,-12.97429 27.47044,-13.22603 64.0333,-13.22603 35.94731,0 38.17151,0.43487 62.56601,12.23123 30.34594,14.67436 49.22174,30.46941 64.93178,54.33402 55.07807,83.66734 15.89558,195.49761 -80.06508,228.51293 -25.6661,8.83043 -70.28638,8.87229 -94.97639,0.0889 z m 86.7464,-64.14857 c 31.13592,-15.61821 46.78655,-38.61975 49.52963,-72.79317 4.45404,-55.48753 -33.40736,-96.98598 -88.55744,-97.0645 -52.11673,-0.0741 -89.12184,36.84749 -89.29693,89.09576 -0.22225,66.71856 69.20798,110.41573 128.32474,80.76191 z"
   id="path62" /><path
   style="fill:#008fb4;stroke-width:95.1786"
   d="m 947.54988,532.44802 c -58.426,-24.5294 -87.86728,-77.85784 -75.56281,-136.87052 8.622,-41.35124 31.34117,-69.68548 70.87048,-88.38619 17.60672,-8.32945 24.53477,-9.68451 49.52638,-9.68677 26.53217,-0.002 31.13007,1.03495 52.92987,11.94087 29.1778,14.59701 51.3274,37.99326 61.4834,64.94374 5.9738,15.85228 7.0151,24.55837 5.9304,49.58113 -1.1531,26.60076 -2.7136,32.96537 -12.6264,51.49232 -22.0773,41.26293 -56.6481,62.40321 -104.73479,64.04608 -24.03045,0.82084 -31.76304,-0.32227 -47.81653,-7.06066 z m 69.00292,-57.47504 c 31.2572,-13.37408 45.2281,-52.02528 29.7598,-82.33258 -16.9898,-33.28868 -53.45272,-43.57145 -86.76118,-24.46725 -13.16657,7.55176 -18.57177,13.16583 -22.76433,23.64403 -7.02288,17.55194 -6.99072,36.71711 0.0926,54.41677 11.03319,27.57466 49.75355,41.54134 79.67441,28.73903 z"
   id="path64" /><path
   style="fill:#008fb4;stroke-width:95.1786"
   d="m 975.13148,909.60893 v -32.03867 h 74.35452 74.3544 l -1.0027,-86.84163 c -0.9931,-85.99779 -1.0901,-87.02762 -9.975,-105.98102 -16.9571,-36.17275 -49.1223,-62.39254 -86.3289,-70.37195 -22.8696,-4.90461 -72.12799,0.6349 -95.65878,10.75753 -9.76681,4.20156 -24.12991,12.50312 -31.91799,18.4479 l -14.16014,10.80868 -22.76666,-20.83945 -22.76666,-20.83946 18.18976,-13.9064 c 25.27949,-19.3266 63.84116,-37.9093 90.3095,-43.5197 48.16258,-10.20887 101.29437,-4.06903 140.03327,16.1821 27.7472,14.50507 64.6915,52.10025 78.7589,80.14653 18.7165,37.31515 20.9195,56.16784 20.9849,179.58511 l 0.059,110.44906 H 1081.3657 975.13225 Z"
   id="path66" /></svg>
