<?xml version="1.0" encoding="UTF-8" standalone="no"?>
<svg
   xmlns:ooo="http://xml.openoffice.org/svg/export"
   xmlns:dc="http://purl.org/dc/elements/1.1/"
   xmlns:cc="http://creativecommons.org/ns#"
   xmlns:rdf="http://www.w3.org/1999/02/22-rdf-syntax-ns#"
   xmlns:svg="http://www.w3.org/2000/svg"
   xmlns="http://www.w3.org/2000/svg"
   xmlns:sodipodi="http://sodipodi.sourceforge.net/DTD/sodipodi-0.dtd"
   xmlns:inkscape="http://www.inkscape.org/namespaces/inkscape"
   version="1.2"
   width="12.7mm"
   height="12.7mm"
   viewBox="0 0 1270 1270"
   preserveAspectRatio="xMidYMid"
   fill-rule="evenodd"
   stroke-width="28.222"
   stroke-linejoin="round"
   xml:space="preserve"
   id="svg79"
   sodipodi:docname="icon.svg"
   inkscape:export-filename="C:\Users\Formacion\Desktop\iconos Adaptable\Gris oscuro\pix_plugins\mod\quiz\icon.png"
   inkscape:export-xdpi="96"
   inkscape:export-ydpi="96"
   inkscape:version="1.0.1 (3bc2e813f5, 2020-09-07)"><metadata
   id="metadata83"><rdf:RDF><cc:Work
       rdf:about=""><dc:format>image/svg+xml</dc:format><dc:type
         rdf:resource="http://purl.org/dc/dcmitype/StillImage" /><dc:title /></cc:Work></rdf:RDF></metadata><sodipodi:namedview
   pagecolor="#ffffff"
   bordercolor="#666666"
   borderopacity="1"
   objecttolerance="10"
   gridtolerance="10"
   guidetolerance="10"
   inkscape:pageopacity="0"
   inkscape:pageshadow="2"
   inkscape:window-width="1366"
   inkscape:window-height="705"
   id="namedview81"
   showgrid="false"
   inkscape:zoom="11.208334"
   inkscape:cx="24"
   inkscape:cy="24"
   inkscape:window-x="-8"
   inkscape:window-y="-8"
   inkscape:window-maximized="1"
   inkscape:current-layer="svg79"
   inkscape:document-rotation="0" />
 <defs
   class="ClipPathGroup"
   id="defs8">
  <clipPath
   id="presentation_clip_path"
   clipPathUnits="userSpaceOnUse">
   <rect
   x="0"
   y="0"
   width="1270"
   height="1270"
   id="rect2" />
  </clipPath>
  <clipPath
   id="presentation_clip_path_shrink"
   clipPathUnits="userSpaceOnUse">
   <rect
   x="1"
   y="1"
   width="1268"
   height="1268"
   id="rect5" />
  </clipPath>
 </defs>
 <defs
   class="TextShapeIndex"
   id="defs12">
  <g
   ooo:slide="id1"
   ooo:id-list="id3"
   id="g10" />
 </defs>
 <defs
   class="EmbeddedBulletChars"
   id="defs44">
  <g
   id="bullet-char-template-57356"
   transform="scale(0.00048828125,-0.00048828125)">
   <path
   d="M 580,1141 L 1163,571 580,0 -4,571 580,1141 Z"
   id="path14" />
  </g>
  <g
   id="bullet-char-template-57354"
   transform="scale(0.00048828125,-0.00048828125)">
   <path
   d="M 8,1128 L 1137,1128 1137,0 8,0 8,1128 Z"
   id="path17" />
  </g>
  <g
   id="bullet-char-template-10146"
   transform="scale(0.00048828125,-0.00048828125)">
   <path
   d="M 174,0 L 602,739 174,1481 1456,739 174,0 Z M 1358,739 L 309,1346 659,739 1358,739 Z"
   id="path20" />
  </g>
  <g
   id="bullet-char-template-10132"
   transform="scale(0.00048828125,-0.00048828125)">
   <path
   d="M 2015,739 L 1276,0 717,0 1260,543 174,543 174,936 1260,936 717,1481 1274,1481 2015,739 Z"
   id="path23" />
  </g>
  <g
   id="bullet-char-template-10007"
   transform="scale(0.00048828125,-0.00048828125)">
   <path
   d="M 0,-2 C -7,14 -16,27 -25,37 L 356,567 C 262,823 215,952 215,954 215,979 228,992 255,992 264,992 276,990 289,987 310,991 331,999 354,1012 L 381,999 492,748 772,1049 836,1024 860,1049 C 881,1039 901,1025 922,1006 886,937 835,863 770,784 769,783 710,716 594,584 L 774,223 C 774,196 753,168 711,139 L 727,119 C 717,90 699,76 672,76 641,76 570,178 457,381 L 164,-76 C 142,-110 111,-127 72,-127 30,-127 9,-110 8,-76 1,-67 -2,-52 -2,-32 -2,-23 -1,-13 0,-2 Z"
   id="path26" />
  </g>
  <g
   id="bullet-char-template-10004"
   transform="scale(0.00048828125,-0.00048828125)">
   <path
   d="M 285,-33 C 182,-33 111,30 74,156 52,228 41,333 41,471 41,549 55,616 82,672 116,743 169,778 240,778 293,778 328,747 346,684 L 369,508 C 377,444 397,411 428,410 L 1163,1116 C 1174,1127 1196,1133 1229,1133 1271,1133 1292,1118 1292,1087 L 1292,965 C 1292,929 1282,901 1262,881 L 442,47 C 390,-6 338,-33 285,-33 Z"
   id="path29" />
  </g>
  <g
   id="bullet-char-template-9679"
   transform="scale(0.00048828125,-0.00048828125)">
   <path
   d="M 813,0 C 632,0 489,54 383,161 276,268 223,411 223,592 223,773 276,916 383,1023 489,1130 632,1184 813,1184 992,1184 1136,1130 1245,1023 1353,916 1407,772 1407,592 1407,412 1353,268 1245,161 1136,54 992,0 813,0 Z"
   id="path32" />
  </g>
  <g
   id="bullet-char-template-8226"
   transform="scale(0.00048828125,-0.00048828125)">
   <path
   d="M 346,457 C 273,457 209,483 155,535 101,586 74,649 74,723 74,796 101,859 155,911 209,963 273,989 346,989 419,989 480,963 531,910 582,859 608,796 608,723 608,648 583,586 532,535 482,483 420,457 346,457 Z"
   id="path35" />
  </g>
  <g
   id="bullet-char-template-8211"
   transform="scale(0.00048828125,-0.00048828125)">
   <path
   d="M -4,459 L 1135,459 1135,606 -4,606 -4,459 Z"
   id="path38" />
  </g>
  <g
   id="bullet-char-template-61548"
   transform="scale(0.00048828125,-0.00048828125)">
   <path
   d="M 173,740 C 173,903 231,1043 346,1159 462,1274 601,1332 765,1332 928,1332 1067,1274 1183,1159 1299,1043 1357,903 1357,740 1357,577 1299,437 1183,322 1067,206 928,148 765,148 601,148 462,206 346,322 231,437 173,577 173,740 Z"
   id="path41" />
  </g>
 </defs>
 <defs
   class="TextEmbeddedBitmaps"
   id="defs46" />
 <g
   id="g51">
  <g
   id="id2"
   class="Master_Slide">
   <g
   id="bg-id2"
   class="Background" />
   <g
   id="bo-id2"
   class="BackgroundObjects" />
  </g>
 </g>
 
<path
   style="fill:#008080;fill-opacity:0;stroke-width:93.2691"
   d="m 181.6911,1089.015 c -26.27298,-8.4467 -55.91187,-30.7212 -68.10687,-51.1842 -14.464912,-24.2719 -18.133926,-39.52601 -16.66422,-69.28247 2.174568,-44.02754 23.62471,-77.01358 62.9287,-96.77172 46.85715,-23.55513 96.94882,-15.67644 134.97853,21.23017 46.32179,44.95377 44.87676,126.12442 -2.99556,168.26322 -31.33699,27.5839 -75.80184,38.7848 -110.14069,27.745 z m 59.46707,-66.7245 c 24.19958,-17.9232 30.97872,-49.26172 16.22358,-74.99853 -17.70384,-30.88019 -62.67309,-33.40102 -85.81339,-4.81041 -22.15655,27.37512 -12.65492,70.01064 18.78105,84.27404 13.44653,6.101 39.65184,3.7981 50.80876,-4.4651 z"
   id="path58" /><path
   style="fill:#008080;fill-opacity:0;stroke-width:93.2691"
   d="m 181.6911,1089.015 c -26.27298,-8.4467 -55.91187,-30.7212 -68.10687,-51.1842 -14.464912,-24.2719 -18.133926,-39.52601 -16.66422,-69.28247 2.174568,-44.02754 23.62471,-77.01358 62.9287,-96.77172 46.85715,-23.55513 96.94882,-15.67644 134.97853,21.23017 46.32179,44.95377 44.87676,126.12442 -2.99556,168.26322 -31.33699,27.5839 -75.80184,38.7848 -110.14069,27.745 z m 59.46707,-66.7245 c 24.19958,-17.9232 30.97872,-49.26172 16.22358,-74.99853 -17.70384,-30.88019 -62.67309,-33.40102 -85.81339,-4.81041 -22.15655,27.37512 -12.65492,70.01064 18.78105,84.27404 13.44653,6.101 39.65184,3.7981 50.80876,-4.4651 z"
   id="path60" /><path
   style="fill:#008080;fill-opacity:1;stroke-width:93.2691"
   d="m 433.41845,965.12453 v -33.04835 h 370.14126 370.14119 v 33.04835 33.04832 H 803.55971 433.41845 Z"
   id="path63" /><path
   style="fill:#008080;fill-opacity:1;stroke-width:93.2691"
   d="m 181.6911,1089.015 c -26.27298,-8.4467 -55.91187,-30.7212 -68.10687,-51.1842 -14.464912,-24.2719 -18.133926,-39.52601 -16.66422,-69.28247 2.174568,-44.02754 23.62471,-77.01358 62.9287,-96.77172 46.85715,-23.55513 96.94882,-15.67644 134.97853,21.23017 46.32179,44.95377 44.87676,126.12442 -2.99556,168.26322 -31.33699,27.5839 -75.80184,38.7848 -110.14069,27.745 z m 59.46707,-66.7245 c 24.19958,-17.9232 30.97872,-49.26172 16.22358,-74.99853 -17.70384,-30.88019 -62.67309,-33.40102 -85.81339,-4.81041 -22.15655,27.37512 -12.65492,70.01064 18.78105,84.27404 13.44653,6.101 39.65184,3.7981 50.80876,-4.4651 z"
   id="path65" /><path
   style="fill:#008080;fill-opacity:1;stroke-width:93.2691"
   d="m 179.89166,749.0362 c -33.08643,-10.85217 -61.35419,-35.18718 -74.82847,-64.41791 -5.69124,-12.34643 -7.045954,-21.61462 -7.063508,-48.32459 -0.01888,-28.72485 1.099915,-35.42624 8.552098,-51.22492 17.42207,-36.93499 55.95474,-63.18001 96.21292,-65.53167 49.69425,-2.90296 93.22247,22.47799 115.2354,67.19262 9.15133,18.58895 10.3247,24.22173 10.3247,49.56397 0,25.3548 -1.17126,30.97068 -10.34603,49.60731 -11.87275,24.11698 -36.86291,48.62311 -59.71643,58.55984 -19.25574,8.37238 -59.61112,10.72837 -78.37068,4.57535 z m 61.26651,-67.14347 c 24.17594,-17.90564 30.87548,-48.48084 16.30392,-74.40745 -17.53186,-31.19371 -62.71847,-34.03529 -85.89373,-5.40149 -22.15655,27.37517 -12.65492,70.01068 18.78105,84.27405 13.44653,6.10106 39.65184,3.79811 50.80876,-4.46511 z"
   id="path67" /><path
   style="fill:#008080;fill-opacity:1;stroke-width:93.2691"
   d="m 433.41845,624.72677 v -33.04831 h 370.14126 370.14119 v 33.04831 33.04832 H 803.55971 433.41845 Z"
   id="path69" /><path
   style="fill:#008080;fill-opacity:1;stroke-width:93.2691"
   d="m 433.41845,287.63387 v -33.04832 h 370.14126 370.14119 v 33.04832 33.04831 H 803.55971 433.41845 Z"
   id="path71" /><path
   style="fill:#008fb4;fill-opacity:1;stroke-width:93.2691"
   d="m 183.69884,410.32965 c -33.28013,-8.65879 -68.8181,-40.30219 -80.58599,-71.75471 -9.173368,-24.51803 -9.173368,-60.83998 0,-85.358 15.21234,-40.65864 62.5717,-74.64255 104.02051,-74.64255 48.97378,0 89.79048,24.94563 110.86674,67.75761 9.11336,18.51183 10.3247,24.27485 10.3247,49.12099 0,34.28306 -8.62193,56.01556 -32.24036,81.2656 -21.74194,23.24391 -44.09977,33.48193 -76.47486,35.01919 -14.18532,0.67342 -30.34512,0.0408 -35.91074,-1.40832 z m 54.28452,-66.73731 c 18.2758,-10.39244 24.83773,-21.47238 26.24284,-44.3115 1.02642,-16.68582 -0.0258,-21.73253 -6.50056,-31.17212 -12.46167,-18.16816 -23.71174,-24.73305 -41.9139,-24.45846 -32.89985,0.49636 -53.48606,18.55962 -56.02348,49.15755 -3.56304,42.96359 41.02464,71.92136 78.1951,50.78453 z"
   id="path73" /><path
   style="fill:#008fb4;fill-opacity:1;stroke-width:93.2691"
   d="m 176.90491,745.74782 c -26.87113,-9.60242 -55.8469,-34.98493 -68.87273,-60.33187 -5.85373,-11.39076 -7.02479,-19.47414 -7.02479,-48.48936 0,-41.71402 6.10994,-58.11859 30.56104,-82.0534 25.34702,-24.81177 41.32013,-30.95031 80.42624,-30.90823 29.68123,0.0319 34.82757,0.96938 50.51157,9.20115 23.71693,12.44785 42.29844,31.8732 53.85432,56.29996 8.18147,17.29405 9.64602,24.44746 9.64825,47.12596 0.002,23.18649 -1.33387,29.41135 -10.06089,46.87582 -13.53099,27.07791 -43.57004,54.93372 -66.62125,61.77917 -20.58006,6.11161 -56.03452,6.35679 -72.42176,0.5008 z M 234.799,686.21683 c 46.82585,-19.56508 38.3981,-96.89256 -11.28637,-103.55665 -40.61004,-5.44694 -70.50255,23.97374 -64.56789,63.5488 2.39623,15.97984 16.95257,36.26842 29.73542,41.44543 10.69797,4.33262 34.05104,3.60453 46.11884,-1.43758 z"
   id="path898" /><path
   style="fill:#008fb4;fill-opacity:1;stroke-width:93.2691"
   d="m 169.03186,1081.4421 c -56.22039,-27.431 -81.201349,-78.2 -66.57353,-135.29794 9.45922,-36.92294 26.70899,-56.8048 64.9211,-74.82716 41.43869,-19.54415 87.92295,-11.73721 123.08208,20.67132 32.34404,29.81369 44.51812,82.44723 28.74526,124.27758 -15.97296,42.3611 -57.16781,71.0724 -105.55967,73.5712 -22.13188,1.1428 -26.90974,0.2445 -44.61524,-8.395 z m 65.76714,-54.8275 c 38.30371,-16.0043 41.74048,-79.36934 5.33833,-98.4249 -13.95859,-7.30699 -39.79378,-7.86317 -52.80122,-1.13681 -30.55542,15.80082 -38.69236,60.38399 -15.7829,86.47641 5.68515,6.475 13.39226,13.0103 17.12695,14.5228 10.69797,4.3326 34.05104,3.6045 46.11884,-1.4376 z"
   id="path900" /><path
   style="fill:#008fb4;fill-opacity:1;stroke-width:93.2691"
   d="m 435.07088,965.12453 v -33.04835 h 368.48883 368.48879 v 33.04835 33.04832 H 803.55971 435.07088 Z"
   id="path902" /><path
   style="fill:#008fb4;fill-opacity:1;stroke-width:93.2691"
   d="m 435.07088,624.72677 v -33.04831 h 368.48883 368.48879 v 33.04831 33.04832 H 803.55971 435.07088 Z"
   id="path904" /><path
   style="fill:#008fb4;fill-opacity:1;stroke-width:93.2691"
   d="m 435.07088,287.63387 v -33.04832 h 368.48883 368.48879 v 33.04832 33.04831 H 803.55971 435.07088 Z"
   id="path906" /></svg>
