<?xml version="1.0" encoding="UTF-8" standalone="no"?>
<svg
   xmlns:ooo="http://xml.openoffice.org/svg/export"
   xmlns:dc="http://purl.org/dc/elements/1.1/"
   xmlns:cc="http://creativecommons.org/ns#"
   xmlns:rdf="http://www.w3.org/1999/02/22-rdf-syntax-ns#"
   xmlns:svg="http://www.w3.org/2000/svg"
   xmlns="http://www.w3.org/2000/svg"
   xmlns:sodipodi="http://sodipodi.sourceforge.net/DTD/sodipodi-0.dtd"
   xmlns:inkscape="http://www.inkscape.org/namespaces/inkscape"
   version="1.2"
   width="12.96mm"
   height="12.96mm"
   viewBox="0 0 1296 1296"
   preserveAspectRatio="xMidYMid"
   fill-rule="evenodd"
   stroke-width="28.222"
   stroke-linejoin="round"
   xml:space="preserve"
   id="svg70"
   sodipodi:docname="icon.svg"
   inkscape:export-filename="C:\Users\Formacion\Desktop\iconos Adaptable\Gris oscuro\pix_plugins\mod\structlabel\icon.png"
   inkscape:export-xdpi="94.07"
   inkscape:export-ydpi="94.07"
   inkscape:version="1.0.1 (3bc2e813f5, 2020-09-07)"><metadata
   id="metadata74"><rdf:RDF><cc:Work
       rdf:about=""><dc:format>image/svg+xml</dc:format><dc:type
         rdf:resource="http://purl.org/dc/dcmitype/StillImage" /></cc:Work></rdf:RDF></metadata><sodipodi:namedview
   pagecolor="#ffffff"
   bordercolor="#666666"
   borderopacity="1"
   objecttolerance="10"
   gridtolerance="10"
   guidetolerance="10"
   inkscape:pageopacity="0"
   inkscape:pageshadow="2"
   inkscape:window-width="1366"
   inkscape:window-height="705"
   id="namedview72"
   showgrid="false"
   inkscape:zoom="10.983475"
   inkscape:cx="24.491339"
   inkscape:cy="24.491339"
   inkscape:window-x="-8"
   inkscape:window-y="-8"
   inkscape:window-maximized="1"
   inkscape:current-layer="svg70"
   inkscape:document-rotation="0" />
 <defs
   class="ClipPathGroup"
   id="defs8">
  <clipPath
   id="presentation_clip_path"
   clipPathUnits="userSpaceOnUse">
   <rect
   x="0"
   y="0"
   width="1296"
   height="1296"
   id="rect2" />
  </clipPath>
  <clipPath
   id="presentation_clip_path_shrink"
   clipPathUnits="userSpaceOnUse">
   <rect
   x="1"
   y="1"
   width="1294"
   height="1294"
   id="rect5" />
  </clipPath>
 </defs>
 <defs
   class="TextShapeIndex"
   id="defs12">
  <g
   ooo:slide="id1"
   ooo:id-list="id3"
   id="g10" />
 </defs>
 <defs
   class="EmbeddedBulletChars"
   id="defs44">
  <g
   id="bullet-char-template-57356"
   transform="scale(0.00048828125,-0.00048828125)">
   <path
   d="M 580,1141 L 1163,571 580,0 -4,571 580,1141 Z"
   id="path14" />
  </g>
  <g
   id="bullet-char-template-57354"
   transform="scale(0.00048828125,-0.00048828125)">
   <path
   d="M 8,1128 L 1137,1128 1137,0 8,0 8,1128 Z"
   id="path17" />
  </g>
  <g
   id="bullet-char-template-10146"
   transform="scale(0.00048828125,-0.00048828125)">
   <path
   d="M 174,0 L 602,739 174,1481 1456,739 174,0 Z M 1358,739 L 309,1346 659,739 1358,739 Z"
   id="path20" />
  </g>
  <g
   id="bullet-char-template-10132"
   transform="scale(0.00048828125,-0.00048828125)">
   <path
   d="M 2015,739 L 1276,0 717,0 1260,543 174,543 174,936 1260,936 717,1481 1274,1481 2015,739 Z"
   id="path23" />
  </g>
  <g
   id="bullet-char-template-10007"
   transform="scale(0.00048828125,-0.00048828125)">
   <path
   d="M 0,-2 C -7,14 -16,27 -25,37 L 356,567 C 262,823 215,952 215,954 215,979 228,992 255,992 264,992 276,990 289,987 310,991 331,999 354,1012 L 381,999 492,748 772,1049 836,1024 860,1049 C 881,1039 901,1025 922,1006 886,937 835,863 770,784 769,783 710,716 594,584 L 774,223 C 774,196 753,168 711,139 L 727,119 C 717,90 699,76 672,76 641,76 570,178 457,381 L 164,-76 C 142,-110 111,-127 72,-127 30,-127 9,-110 8,-76 1,-67 -2,-52 -2,-32 -2,-23 -1,-13 0,-2 Z"
   id="path26" />
  </g>
  <g
   id="bullet-char-template-10004"
   transform="scale(0.00048828125,-0.00048828125)">
   <path
   d="M 285,-33 C 182,-33 111,30 74,156 52,228 41,333 41,471 41,549 55,616 82,672 116,743 169,778 240,778 293,778 328,747 346,684 L 369,508 C 377,444 397,411 428,410 L 1163,1116 C 1174,1127 1196,1133 1229,1133 1271,1133 1292,1118 1292,1087 L 1292,965 C 1292,929 1282,901 1262,881 L 442,47 C 390,-6 338,-33 285,-33 Z"
   id="path29" />
  </g>
  <g
   id="bullet-char-template-9679"
   transform="scale(0.00048828125,-0.00048828125)">
   <path
   d="M 813,0 C 632,0 489,54 383,161 276,268 223,411 223,592 223,773 276,916 383,1023 489,1130 632,1184 813,1184 992,1184 1136,1130 1245,1023 1353,916 1407,772 1407,592 1407,412 1353,268 1245,161 1136,54 992,0 813,0 Z"
   id="path32" />
  </g>
  <g
   id="bullet-char-template-8226"
   transform="scale(0.00048828125,-0.00048828125)">
   <path
   d="M 346,457 C 273,457 209,483 155,535 101,586 74,649 74,723 74,796 101,859 155,911 209,963 273,989 346,989 419,989 480,963 531,910 582,859 608,796 608,723 608,648 583,586 532,535 482,483 420,457 346,457 Z"
   id="path35" />
  </g>
  <g
   id="bullet-char-template-8211"
   transform="scale(0.00048828125,-0.00048828125)">
   <path
   d="M -4,459 L 1135,459 1135,606 -4,606 -4,459 Z"
   id="path38" />
  </g>
  <g
   id="bullet-char-template-61548"
   transform="scale(0.00048828125,-0.00048828125)">
   <path
   d="M 173,740 C 173,903 231,1043 346,1159 462,1274 601,1332 765,1332 928,1332 1067,1274 1183,1159 1299,1043 1357,903 1357,740 1357,577 1299,437 1183,322 1067,206 928,148 765,148 601,148 462,206 346,322 231,437 173,577 173,740 Z"
   id="path41" />
  </g>
 </defs>
 <defs
   class="TextEmbeddedBitmaps"
   id="defs46" />
 <g
   id="g51">
  <g
   id="id2"
   class="Master_Slide">
   <g
   id="bg-id2"
   class="Background" />
   <g
   id="bo-id2"
   class="BackgroundObjects" />
  </g>
 </g>
 
<path
   style="fill:#008fb4;stroke-width:95.1786"
   d="M 395.95806,997.02131 190.01803,795.35488 212.63763,772.301 235.2572,749.24712 182.47116,698.73955 129.68508,648.23198 402.73557,380.34068 C 552.9133,233.00045 680.91708,108.53573 687.18834,103.7524 l 11.40236,-8.696981 184.97396,17.772721 184.97404,17.77274 7.406,70.68398 c 4.0733,38.87619 8.0996,71.37759 8.9473,72.22529 0.8479,0.84788 11.4908,2.33992 23.6514,3.31597 15.2448,1.22385 22.1101,3.16595 22.1101,6.2547 0,2.46402 7.5881,81.52745 16.8624,175.69655 9.2744,94.16914 16.8625,174.91357 16.8625,179.43202 0,6.03135 -12.3279,20.69425 -46.3718,55.15508 -66.3505,67.16321 -510.15398,503.12003 -513.39695,504.31983 -1.49129,0.552 -95.38458,-89.7466 -208.65159,-200.66314 z M 755.24607,960.72492 C 836.51645,881.0304 946.88917,772.69683 1000.5189,719.98365 l 97.5085,-95.84217 -14.5075,-140.35016 c -7.9791,-77.19261 -15.1354,-141.06223 -15.9028,-141.93252 -0.7675,-0.87048 -66.0808,-7.87643 -145.14083,-15.56917 L 778.73064,312.30277 533.97386,551.72025 c -134.61623,131.6796 -244.75681,241.54952 -244.75681,244.15544 0,5.47494 311.48852,312.18891 315.55959,310.72261 1.48796,-0.536 69.19905,-66.1789 150.46943,-145.87338 z M 546.46557,446.82933 C 660.12922,335.24716 755.73932,243.94034 758.9325,243.92523 c 3.19299,-0.0152 61.71541,5.41238 130.04947,12.0611 68.3341,6.64868 124.77333,11.55896 125.42053,10.91177 0.6471,-0.64712 -0.4727,-17.48411 -2.4885,-37.41534 -3.2982,-32.61049 -4.375,-36.38785 -10.7558,-37.7292 -6.30581,-1.32535 -247.68294,-24.54722 -273.79591,-26.34048 -9.5246,-0.65415 -31.08562,19.48392 -257.24107,240.26336 l -246.84507,240.9773 29.52939,29.6669 29.52943,29.66685 28.73467,-28.14078 C 326.87372,662.36934 432.80185,558.41149 546.4655,446.82933 Z"
   id="path52" /><path
   style="fill:#008fb4;stroke-width:95.1786"
   d="m 846.50737,651.93281 c -37.1485,-9.33535 -70.95817,-37.56247 -87.85117,-73.34554 -9.4088,-19.92993 -10.70674,-26.15427 -10.70674,-51.34538 0,-25.12514 1.29497,-31.37403 10.48453,-50.58736 19.01408,-39.755 54.42521,-66.69629 98.41767,-74.87754 53.92374,-10.02818 114.16679,21.60029 137.53571,72.20825 8.63873,18.70811 9.79773,25.00783 9.79773,53.25665 0,28.23827 -1.1605,34.55173 -9.7834,53.22473 -12.63684,27.36527 -41.32402,54.56167 -68.51041,64.95012 -21.82299,8.339 -59.74362,11.45165 -79.38392,6.51607 z m 70.87819,-76.23638 c 13.33344,-10.1699 24.22602,-31.53031 24.33437,-47.71974 0.0852,-12.67829 -7.61247,-32.92645 -16.0739,-42.28325 -19.79354,-21.88807 -62.98413,-25.68021 -86.67524,-7.61013 -14.42739,11.00433 -25.18329,32.00018 -25.18329,49.15858 0,14.79 9.73585,36.28224 21.2311,46.86845 19.74039,18.17928 59.60571,18.94696 82.36696,1.58613 z"
   id="path54" /></svg>
