<?xml version="1.0" encoding="UTF-8" standalone="no"?>
<svg
   xmlns:ooo="http://xml.openoffice.org/svg/export"
   xmlns:dc="http://purl.org/dc/elements/1.1/"
   xmlns:cc="http://creativecommons.org/ns#"
   xmlns:rdf="http://www.w3.org/1999/02/22-rdf-syntax-ns#"
   xmlns:svg="http://www.w3.org/2000/svg"
   xmlns="http://www.w3.org/2000/svg"
   xmlns:sodipodi="http://sodipodi.sourceforge.net/DTD/sodipodi-0.dtd"
   xmlns:inkscape="http://www.inkscape.org/namespaces/inkscape"
   version="1.2"
   width="12.96mm"
   height="12.96mm"
   viewBox="0 0 1296 1296"
   preserveAspectRatio="xMidYMid"
   fill-rule="evenodd"
   stroke-width="28.222"
   stroke-linejoin="round"
   xml:space="preserve"
   id="svg72"
   sodipodi:docname="icon.svg"
   inkscape:export-filename="C:\Users\Formacion\Desktop\iconos Adaptable\Gris oscuro\pix_plugins\mod\workshop\icon.png"
   inkscape:export-xdpi="94.07"
   inkscape:export-ydpi="94.07"
   inkscape:version="1.0.1 (3bc2e813f5, 2020-09-07)"><metadata
   id="metadata76"><rdf:RDF><cc:Work
       rdf:about=""><dc:format>image/svg+xml</dc:format><dc:type
         rdf:resource="http://purl.org/dc/dcmitype/StillImage" /></cc:Work></rdf:RDF></metadata><sodipodi:namedview
   pagecolor="#ffffff"
   bordercolor="#666666"
   borderopacity="1"
   objecttolerance="10"
   gridtolerance="10"
   guidetolerance="10"
   inkscape:pageopacity="0"
   inkscape:pageshadow="2"
   inkscape:window-width="1366"
   inkscape:window-height="705"
   id="namedview74"
   showgrid="false"
   inkscape:zoom="5.4917375"
   inkscape:cx="24.491339"
   inkscape:cy="24.491339"
   inkscape:window-x="-8"
   inkscape:window-y="-8"
   inkscape:window-maximized="1"
   inkscape:current-layer="svg72"
   inkscape:document-rotation="0" />
 <defs
   class="ClipPathGroup"
   id="defs8">
  <clipPath
   id="presentation_clip_path"
   clipPathUnits="userSpaceOnUse">
   <rect
   x="0"
   y="0"
   width="1296"
   height="1296"
   id="rect2" />
  </clipPath>
  <clipPath
   id="presentation_clip_path_shrink"
   clipPathUnits="userSpaceOnUse">
   <rect
   x="1"
   y="1"
   width="1294"
   height="1294"
   id="rect5" />
  </clipPath>
 </defs>
 <defs
   class="TextShapeIndex"
   id="defs12">
  <g
   ooo:slide="id1"
   ooo:id-list="id3"
   id="g10" />
 </defs>
 <defs
   class="EmbeddedBulletChars"
   id="defs44">
  <g
   id="bullet-char-template-57356"
   transform="scale(0.00048828125,-0.00048828125)">
   <path
   d="M 580,1141 L 1163,571 580,0 -4,571 580,1141 Z"
   id="path14" />
  </g>
  <g
   id="bullet-char-template-57354"
   transform="scale(0.00048828125,-0.00048828125)">
   <path
   d="M 8,1128 L 1137,1128 1137,0 8,0 8,1128 Z"
   id="path17" />
  </g>
  <g
   id="bullet-char-template-10146"
   transform="scale(0.00048828125,-0.00048828125)">
   <path
   d="M 174,0 L 602,739 174,1481 1456,739 174,0 Z M 1358,739 L 309,1346 659,739 1358,739 Z"
   id="path20" />
  </g>
  <g
   id="bullet-char-template-10132"
   transform="scale(0.00048828125,-0.00048828125)">
   <path
   d="M 2015,739 L 1276,0 717,0 1260,543 174,543 174,936 1260,936 717,1481 1274,1481 2015,739 Z"
   id="path23" />
  </g>
  <g
   id="bullet-char-template-10007"
   transform="scale(0.00048828125,-0.00048828125)">
   <path
   d="M 0,-2 C -7,14 -16,27 -25,37 L 356,567 C 262,823 215,952 215,954 215,979 228,992 255,992 264,992 276,990 289,987 310,991 331,999 354,1012 L 381,999 492,748 772,1049 836,1024 860,1049 C 881,1039 901,1025 922,1006 886,937 835,863 770,784 769,783 710,716 594,584 L 774,223 C 774,196 753,168 711,139 L 727,119 C 717,90 699,76 672,76 641,76 570,178 457,381 L 164,-76 C 142,-110 111,-127 72,-127 30,-127 9,-110 8,-76 1,-67 -2,-52 -2,-32 -2,-23 -1,-13 0,-2 Z"
   id="path26" />
  </g>
  <g
   id="bullet-char-template-10004"
   transform="scale(0.00048828125,-0.00048828125)">
   <path
   d="M 285,-33 C 182,-33 111,30 74,156 52,228 41,333 41,471 41,549 55,616 82,672 116,743 169,778 240,778 293,778 328,747 346,684 L 369,508 C 377,444 397,411 428,410 L 1163,1116 C 1174,1127 1196,1133 1229,1133 1271,1133 1292,1118 1292,1087 L 1292,965 C 1292,929 1282,901 1262,881 L 442,47 C 390,-6 338,-33 285,-33 Z"
   id="path29" />
  </g>
  <g
   id="bullet-char-template-9679"
   transform="scale(0.00048828125,-0.00048828125)">
   <path
   d="M 813,0 C 632,0 489,54 383,161 276,268 223,411 223,592 223,773 276,916 383,1023 489,1130 632,1184 813,1184 992,1184 1136,1130 1245,1023 1353,916 1407,772 1407,592 1407,412 1353,268 1245,161 1136,54 992,0 813,0 Z"
   id="path32" />
  </g>
  <g
   id="bullet-char-template-8226"
   transform="scale(0.00048828125,-0.00048828125)">
   <path
   d="M 346,457 C 273,457 209,483 155,535 101,586 74,649 74,723 74,796 101,859 155,911 209,963 273,989 346,989 419,989 480,963 531,910 582,859 608,796 608,723 608,648 583,586 532,535 482,483 420,457 346,457 Z"
   id="path35" />
  </g>
  <g
   id="bullet-char-template-8211"
   transform="scale(0.00048828125,-0.00048828125)">
   <path
   d="M -4,459 L 1135,459 1135,606 -4,606 -4,459 Z"
   id="path38" />
  </g>
  <g
   id="bullet-char-template-61548"
   transform="scale(0.00048828125,-0.00048828125)">
   <path
   d="M 173,740 C 173,903 231,1043 346,1159 462,1274 601,1332 765,1332 928,1332 1067,1274 1183,1159 1299,1043 1357,903 1357,740 1357,577 1299,437 1183,322 1067,206 928,148 765,148 601,148 462,206 346,322 231,437 173,577 173,740 Z"
   id="path41" />
  </g>
 </defs>
 <defs
   class="TextEmbeddedBitmaps"
   id="defs46" />
 <g
   id="g51">
  <g
   id="id2"
   class="Master_Slide">
   <g
   id="bg-id2"
   class="Background" />
   <g
   id="bo-id2"
   class="BackgroundObjects" />
  </g>
 </g>
 
<path
   style="fill:#008fb4;stroke-width:95.1786"
   d="M 872.35675,639.97364 C 772.42618,618.02371 692.25776,538.04375 670.18222,438.27436 661.71331,399.99957 664.4458,342.73164 676.4839,306.20296 714.64411,190.4086 823.70441,115.55873 942.73269,123.47198 c 25.62891,1.70392 70.45321,12.21493 76.33071,17.89916 0.8223,0.79529 -31.34687,34.41378 -71.48725,74.70771 -76.25116,76.54282 -83.51766,86.37124 -83.3822,112.78009 0.11853,22.88857 10.22665,38.99113 47.62191,75.8547 36.60565,36.08514 50.97678,44.82016 73.7397,44.82016 24.11244,0 39.17074,-11.29963 113.65214,-85.28358 67.9358,-67.48203 71.6778,-70.63394 74.6286,-62.85956 14.0893,37.12064 16.2045,107.39568 4.4893,149.15212 -27.2668,97.1874 -103.3908,168.87551 -201.22728,189.50142 -28.67992,6.04631 -77.04193,6.01372 -104.74157,-0.0704 z"
   id="path53" /><path
   style="fill:#008fb4;stroke-width:95.1786"
   d="M 347.31009,638.92214 C 232.78534,526.41163 135.22644,429.06032 130.51255,422.58588 c -11.91248,-16.36171 -21.83056,-50.73379 -21.83056,-75.65616 0,-65.44085 46.25121,-122.68074 112.29887,-138.97963 27.84133,-6.87056 66.64959,-2.90295 93.91122,9.60128 25.57279,11.72954 63.52471,47.43174 265.10005,249.38557 L 756.2093,643.48504 655.87317,743.48587 555.537,843.4867 Z m 191.99022,69.70556 c 5.34744,-5.02367 7.80545,-11.14513 7.80545,-19.43884 0,-11.47917 -8.42868,-20.52797 -162.80382,-174.78162 C 229.54886,359.77595 220.89522,351.73158 209.30607,351.73158 c -15.25906,0 -25.76441,8.47091 -28.58376,23.04836 -2.15064,11.12032 -0.3519,13.06867 162.666,176.21265 153.84696,153.96565 165.61662,164.96795 176.47368,164.96795 7.30213,0 14.53867,-2.72997 19.43832,-7.33284 z m 77.56728,-74.19479 c 5.63552,-5.29429 7.80546,-11.08253 7.80546,-20.82079 0,-13.01062 -2.41993,-15.94362 -68.38417,-82.88128 C 518.67758,492.56451 446.40155,418.97061 395.67547,367.18881 l -92.22927,-94.1487 h -14.78355 c -19.51381,0 -31.59109,10.66441 -31.59109,27.89538 0,11.48025 8.49554,20.59446 164.48926,176.46787 152.76031,152.64252 165.30969,164.36239 175.99529,164.36239 7.17193,0 14.44617,-2.7622 19.31148,-7.33284 z"
   id="path55" /><path
   style="fill:#008fb4;stroke-width:95.1786"
   d="m 929.60034,1096.809 c -59.20014,-39.3139 -108.46148,-72.7568 -109.46968,-74.3176 -1.00827,-1.5609 -5.30481,-19.949 -9.548,-40.86277 l -7.71493,-38.02497 -67.19629,-67.50007 -67.19629,-67.5001 30.39195,-30.25111 30.39195,-30.25116 66.58728,66.30466 66.58732,66.3047 33.72488,7.01802 c 18.54869,3.85993 37.13613,7.79497 41.30539,8.74457 7.58424,1.72726 30.81741,34.81276 116.30168,165.62053 l 35.5594,54.4126 -26.0441,25.8913 -26.044,25.8912 z"
   id="path58" /><path
   style="fill:#008fb4;stroke-width:95.1786"
   d="m 235.10637,1165.3763 c -39.62359,-14.1605 -67.26708,-38.4191 -85.06749,-74.6511 -8.53925,-17.3813 -9.31824,-22.215 -9.31824,-57.8215 0,-37.25087 0.46599,-39.80075 11.28682,-61.78127 10.44116,-21.20898 19.38857,-30.48977 119.41878,-123.86811 59.47258,-55.51775 109.0384,-100.94136 110.14628,-100.94136 1.10792,0 42.66067,40.66731 92.33962,90.37182 l 90.32532,90.37181 -31.07359,33.56723 c -17.09046,18.46198 -62.76151,67.29178 -101.4912,108.51078 -65.43718,69.643 -72.21513,75.832 -95.83127,87.5037 -22.36213,11.052 -28.92054,12.6933 -54.62105,13.67 -21.77398,0.8275 -33.51033,-0.4278 -46.11398,-4.932 z m 60.74885,-71.326 c 48.55544,-22.4098 50.98852,-84.95 4.15326,-106.75533 -26.66626,-12.41515 -42.05922,-10.59595 -64.96027,7.67722 -20.86446,16.64811 -27.07909,44.77371 -15.47627,70.04111 7.59169,16.5324 16.25526,24.5315 33.06076,30.5251 17.42666,6.2151 27.26597,5.8763 43.22252,-1.488 z"
   id="path60" /></svg>
