<?xml version="1.0" encoding="UTF-8" standalone="no"?>
<svg
   xmlns:ooo="http://xml.openoffice.org/svg/export"
   xmlns:dc="http://purl.org/dc/elements/1.1/"
   xmlns:cc="http://creativecommons.org/ns#"
   xmlns:rdf="http://www.w3.org/1999/02/22-rdf-syntax-ns#"
   xmlns:svg="http://www.w3.org/2000/svg"
   xmlns="http://www.w3.org/2000/svg"
   xmlns:sodipodi="http://sodipodi.sourceforge.net/DTD/sodipodi-0.dtd"
   xmlns:inkscape="http://www.inkscape.org/namespaces/inkscape"
   version="1.2"
   width="12.7mm"
   height="12.7mm"
   viewBox="0 0 1270 1270"
   preserveAspectRatio="xMidYMid"
   fill-rule="evenodd"
   stroke-width="28.222"
   stroke-linejoin="round"
   xml:space="preserve"
   id="svg79"
   sodipodi:docname="icon.svg"
   inkscape:export-filename="C:\Users\Formacion\Desktop\iconos Adaptable\Gris oscuro\pix_plugins\mod\choicegroup\icon.png"
   inkscape:export-xdpi="96"
   inkscape:export-ydpi="96"
   inkscape:version="1.0.1 (3bc2e813f5, 2020-09-07)"><metadata
   id="metadata83"><rdf:RDF><cc:Work
       rdf:about=""><dc:format>image/svg+xml</dc:format><dc:type
         rdf:resource="http://purl.org/dc/dcmitype/StillImage" /></cc:Work></rdf:RDF></metadata><sodipodi:namedview
   pagecolor="#ffffff"
   bordercolor="#666666"
   borderopacity="1"
   objecttolerance="10"
   gridtolerance="10"
   guidetolerance="10"
   inkscape:pageopacity="0"
   inkscape:pageshadow="2"
   inkscape:window-width="1366"
   inkscape:window-height="705"
   id="namedview81"
   showgrid="false"
   inkscape:zoom="11.208334"
   inkscape:cx="24"
   inkscape:cy="27.568773"
   inkscape:window-x="-8"
   inkscape:window-y="-8"
   inkscape:window-maximized="1"
   inkscape:current-layer="svg79"
   inkscape:document-rotation="0" />
 <defs
   class="ClipPathGroup"
   id="defs8">
  <clipPath
   id="presentation_clip_path"
   clipPathUnits="userSpaceOnUse">
   <rect
   x="0"
   y="0"
   width="1270"
   height="1270"
   id="rect2" />
  </clipPath>
  <clipPath
   id="presentation_clip_path_shrink"
   clipPathUnits="userSpaceOnUse">
   <rect
   x="1"
   y="1"
   width="1268"
   height="1268"
   id="rect5" />
  </clipPath>
 </defs>
 <defs
   class="TextShapeIndex"
   id="defs12">
  <g
   ooo:slide="id1"
   ooo:id-list="id3"
   id="g10" />
 </defs>
 <defs
   class="EmbeddedBulletChars"
   id="defs44">
  <g
   id="bullet-char-template-57356"
   transform="scale(0.00048828125,-0.00048828125)">
   <path
   d="M 580,1141 L 1163,571 580,0 -4,571 580,1141 Z"
   id="path14" />
  </g>
  <g
   id="bullet-char-template-57354"
   transform="scale(0.00048828125,-0.00048828125)">
   <path
   d="M 8,1128 L 1137,1128 1137,0 8,0 8,1128 Z"
   id="path17" />
  </g>
  <g
   id="bullet-char-template-10146"
   transform="scale(0.00048828125,-0.00048828125)">
   <path
   d="M 174,0 L 602,739 174,1481 1456,739 174,0 Z M 1358,739 L 309,1346 659,739 1358,739 Z"
   id="path20" />
  </g>
  <g
   id="bullet-char-template-10132"
   transform="scale(0.00048828125,-0.00048828125)">
   <path
   d="M 2015,739 L 1276,0 717,0 1260,543 174,543 174,936 1260,936 717,1481 1274,1481 2015,739 Z"
   id="path23" />
  </g>
  <g
   id="bullet-char-template-10007"
   transform="scale(0.00048828125,-0.00048828125)">
   <path
   d="M 0,-2 C -7,14 -16,27 -25,37 L 356,567 C 262,823 215,952 215,954 215,979 228,992 255,992 264,992 276,990 289,987 310,991 331,999 354,1012 L 381,999 492,748 772,1049 836,1024 860,1049 C 881,1039 901,1025 922,1006 886,937 835,863 770,784 769,783 710,716 594,584 L 774,223 C 774,196 753,168 711,139 L 727,119 C 717,90 699,76 672,76 641,76 570,178 457,381 L 164,-76 C 142,-110 111,-127 72,-127 30,-127 9,-110 8,-76 1,-67 -2,-52 -2,-32 -2,-23 -1,-13 0,-2 Z"
   id="path26" />
  </g>
  <g
   id="bullet-char-template-10004"
   transform="scale(0.00048828125,-0.00048828125)">
   <path
   d="M 285,-33 C 182,-33 111,30 74,156 52,228 41,333 41,471 41,549 55,616 82,672 116,743 169,778 240,778 293,778 328,747 346,684 L 369,508 C 377,444 397,411 428,410 L 1163,1116 C 1174,1127 1196,1133 1229,1133 1271,1133 1292,1118 1292,1087 L 1292,965 C 1292,929 1282,901 1262,881 L 442,47 C 390,-6 338,-33 285,-33 Z"
   id="path29" />
  </g>
  <g
   id="bullet-char-template-9679"
   transform="scale(0.00048828125,-0.00048828125)">
   <path
   d="M 813,0 C 632,0 489,54 383,161 276,268 223,411 223,592 223,773 276,916 383,1023 489,1130 632,1184 813,1184 992,1184 1136,1130 1245,1023 1353,916 1407,772 1407,592 1407,412 1353,268 1245,161 1136,54 992,0 813,0 Z"
   id="path32" />
  </g>
  <g
   id="bullet-char-template-8226"
   transform="scale(0.00048828125,-0.00048828125)">
   <path
   d="M 346,457 C 273,457 209,483 155,535 101,586 74,649 74,723 74,796 101,859 155,911 209,963 273,989 346,989 419,989 480,963 531,910 582,859 608,796 608,723 608,648 583,586 532,535 482,483 420,457 346,457 Z"
   id="path35" />
  </g>
  <g
   id="bullet-char-template-8211"
   transform="scale(0.00048828125,-0.00048828125)">
   <path
   d="M -4,459 L 1135,459 1135,606 -4,606 -4,459 Z"
   id="path38" />
  </g>
  <g
   id="bullet-char-template-61548"
   transform="scale(0.00048828125,-0.00048828125)">
   <path
   d="M 173,740 C 173,903 231,1043 346,1159 462,1274 601,1332 765,1332 928,1332 1067,1274 1183,1159 1299,1043 1357,903 1357,740 1357,577 1299,437 1183,322 1067,206 928,148 765,148 601,148 462,206 346,322 231,437 173,577 173,740 Z"
   id="path41" />
  </g>
 </defs>
 <defs
   class="TextEmbeddedBitmaps"
   id="defs46" />
 <g
   id="g51">
  <g
   id="id2"
   class="Master_Slide">
   <g
   id="bg-id2"
   class="Background" />
   <g
   id="bo-id2"
   class="BackgroundObjects" />
  </g>
 </g>
 
<path
   style="fill:#008fb4;stroke-width:93.2691"
   d="M 865.94909,1015.0039 C 818.1056,1002.4743 773.3014,976.06507 741.37501,941.57532 l -19.07876,-20.61061 -172.08999,-1.65243 -172.09002,-1.65243 -17.67539,-9.79041 C 344.03654,898.78305 313.672,869.50416 313.672,862.77269 c 0,-1.62761 -30.70843,-3.00889 -68.57527,-3.08483 -56.12646,-0.11112 -71.41056,-1.16236 -84.19378,-5.78346 -22.48133,-8.1269 -43.39883,-27.08857 -54.1709,-49.10588 -7.836564,-16.01737 -9.175069,-22.78366 -9.03055,-45.65059 0.22262,-35.25011 5.45845,-56.87018 22.03789,-91.00293 18.51406,-38.1155 52.18475,-72.31533 90.65659,-92.08121 14.99569,-7.70441 27.26489,-14.70821 27.26489,-15.56398 0,-0.85567 -3.78699,-7.27851 -8.41553,-14.27275 -30.72036,-46.42158 -32.33789,-114.3314 -3.85445,-161.82478 21.73583,-36.24234 64.73206,-65.44514 107.69806,-73.14784 30.41146,-5.45202 65.31627,1.43832 95.89054,18.92944 12.56394,7.18763 14.89015,7.62176 17.34398,3.23707 17.55834,-31.375 62.54978,-66.26677 101.58417,-78.78059 71.79127,-23.0151 164.17993,10.52728 207.10007,75.18914 20.10922,30.29582 28.83757,59.86974 29.13446,98.71522 0.32226,42.23839 -7.82583,69.71627 -31.22531,105.29401 -18.63478,28.33332 -18.60574,28.59743 3.90967,35.54 11.08005,3.41635 12.9807,2.86628 28.42933,-8.23258 37.62022,-27.02746 86.52615,-41.92265 138.15775,-42.07848 112.08679,-0.33708 205.11869,66.61013 241.60229,173.86365 11.5897,34.07111 14.5719,92.41862 6.6721,130.54091 -11.5531,55.7527 -54.8753,120.5574 -101.9749,152.54217 -61.3511,41.6627 -137.74187,56.2798 -203.76401,38.9895 z m 100.5592,-64.36715 c 34.40861,-8.78454 60.67551,-23.84309 86.56861,-49.62876 98.9098,-98.49961 61.6382,-262.26563 -70.40051,-309.32947 -24.47729,-8.72469 -71.9051,-11.76432 -98.24058,-6.29616 -66.92792,13.8964 -127.49149,71.61176 -142.65653,135.94755 -5.89196,24.99597 -6.54597,65.03372 -1.46352,89.58645 13.54107,65.41343 71.34055,123.52844 139.19958,139.95942 24.20551,5.86099 63.52257,5.75294 86.99284,-0.24077 z M 687.11808,854.82622 c 0,-0.93197 -2.97445,-12.42759 -6.60964,-25.54605 -4.78186,-17.25575 -6.60968,-34.00558 -6.60968,-60.5689 0,-46.10943 7.72311,-78.03142 28.1843,-116.49448 11.09757,-20.86124 13.91407,-28.83116 10.85654,-30.72084 -14.79074,-9.14118 -182.78017,-7.59466 -214.19695,1.97173 -74.58732,22.71217 -128.74643,91.40709 -134.23385,170.26079 -2.19287,31.51309 3.7318,44.60661 25.04843,55.35592 14.60656,7.3657 16.08082,7.43589 156.15332,7.43589 77.77413,0 141.40753,-0.76232 141.40753,-1.69428 z m -386.6654,-71.18586 c 0,-38.5493 30.45759,-110.46473 61.14646,-144.37704 9.99325,-11.04287 18.16953,-21.16776 18.16953,-22.49974 0,-1.33202 -24.16658,-1.64169 -53.70353,-0.68824 -44.37602,1.43241 -56.99857,2.98704 -72.67478,8.95068 -55.13556,20.97492 -91.74065,73.32272 -91.74065,131.19539 0,18.19083 1.17866,22.46222 8.11186,29.39534 8.02941,8.02942 8.73502,8.11191 69.40149,8.11191 h 61.28962 z M 475.60879,564.23783 c 0,-3.48821 -6.34231,-4.95366 -8.22877,-1.90135 -1.14162,1.84727 0.24448,3.35894 3.07669,3.35894 2.83368,0 5.15227,-0.65601 5.15227,-1.45722 z m -87.39425,-19.60664 c 9.19052,-4.27961 22.33705,-14.30193 29.21902,-22.27534 13.61081,-15.7693 13.63756,-16.06919 5.42386,-60.76289 -1.67021,-9.08828 -3.1252,-25.52726 -3.23373,-36.53104 -0.1778,-18.11586 -1.21349,-20.99203 -10.95,-30.42914 -18.96993,-18.38637 -53.0004,-25.62342 -78.81052,-16.76009 -44.81326,15.38903 -68.39858,56.18365 -59.67905,103.22456 10.33485,55.75527 68.03513,86.81445 118.03046,63.53394 z m 263.72774,-3.34523 c 24.36771,-11.92201 45.02584,-32.50577 56.905,-56.70009 8.6303,-17.57734 9.66672,-23.06184 9.66672,-51.15365 0,-28.89298 -0.88789,-33.26923 -10.86217,-53.52954 -12.02321,-24.42264 -31.66385,-43.98124 -56.35038,-56.11497 -22.55659,-11.08687 -64.7925,-12.37314 -90.43333,-2.75405 -24.61904,9.23567 -48.34112,30.93453 -62.21137,56.90537 -9.57757,17.93317 -11.32612,24.80588 -12.45463,48.95312 -1.5276,32.68567 5.3337,55.7077 23.81701,79.91458 32.64278,42.75093 94.36694,57.74643 141.92315,34.47934 z"
   id="path60" /><path
   style="fill:#008fb4;stroke-width:93.2691"
   d="m 901.67797,912.95682 -9.66028,-9.66028 V 851.81744 800.3383 H 840.635 789.25229 l -8.18403,-8.8307 c -10.99789,-11.86693 -12.9075,-21.49405 -6.65994,-33.57556 9.72103,-18.79835 15.07555,-20.38555 68.77222,-20.38555 h 48.83715 v -47.76456 c 0,-51.80866 2.07581,-60.49645 16.4895,-69.01081 13.85655,-8.18525 22.57264,-6.76026 35.0659,5.73301 l 11.23644,11.2364 v 49.90298 49.90298 h 48.08417 c 56.4548,0 65.1805,2.77442 71.1252,22.61649 3.143,10.49035 2.8715,14.44736 -1.5813,23.05862 -9.0714,17.54227 -19.1096,20.42156 -71.1962,20.42156 h -46.43172 v 49.8267 49.82668 l -9.66028,9.66028 c -13.33274,13.33274 -30.13855,13.33274 -43.47129,0 z"
   id="path63" /></svg>
