<?xml version="1.0" encoding="UTF-8" standalone="no"?>
<svg
   xmlns:ooo="http://xml.openoffice.org/svg/export"
   xmlns:dc="http://purl.org/dc/elements/1.1/"
   xmlns:cc="http://creativecommons.org/ns#"
   xmlns:rdf="http://www.w3.org/1999/02/22-rdf-syntax-ns#"
   xmlns:svg="http://www.w3.org/2000/svg"
   xmlns="http://www.w3.org/2000/svg"
   xmlns:sodipodi="http://sodipodi.sourceforge.net/DTD/sodipodi-0.dtd"
   xmlns:inkscape="http://www.inkscape.org/namespaces/inkscape"
   version="1.2"
   width="12.7mm"
   height="12.7mm"
   viewBox="0 0 1270 1270"
   preserveAspectRatio="xMidYMid"
   fill-rule="evenodd"
   stroke-width="28.222"
   stroke-linejoin="round"
   xml:space="preserve"
   id="svg79"
   sodipodi:docname="icon.svg"
   inkscape:export-filename="C:\Users\Formacion\Desktop\iconos Adaptable\Gris oscuro\pix_plugins\mod\hotquestion\icon.png"
   inkscape:export-xdpi="96"
   inkscape:export-ydpi="96"
   inkscape:version="1.0.1 (3bc2e813f5, 2020-09-07)"><metadata
   id="metadata83"><rdf:RDF><cc:Work
       rdf:about=""><dc:format>image/svg+xml</dc:format><dc:type
         rdf:resource="http://purl.org/dc/dcmitype/StillImage" /></cc:Work></rdf:RDF></metadata><sodipodi:namedview
   pagecolor="#ffffff"
   bordercolor="#666666"
   borderopacity="1"
   objecttolerance="10"
   gridtolerance="10"
   guidetolerance="10"
   inkscape:pageopacity="0"
   inkscape:pageshadow="2"
   inkscape:window-width="1366"
   inkscape:window-height="705"
   id="namedview81"
   showgrid="false"
   inkscape:zoom="11.208334"
   inkscape:cx="24"
   inkscape:cy="24"
   inkscape:window-x="-8"
   inkscape:window-y="-8"
   inkscape:window-maximized="1"
   inkscape:current-layer="svg79"
   inkscape:document-rotation="0" />
 <defs
   class="ClipPathGroup"
   id="defs8">
  <clipPath
   id="presentation_clip_path"
   clipPathUnits="userSpaceOnUse">
   <rect
   x="0"
   y="0"
   width="1270"
   height="1270"
   id="rect2" />
  </clipPath>
  <clipPath
   id="presentation_clip_path_shrink"
   clipPathUnits="userSpaceOnUse">
   <rect
   x="1"
   y="1"
   width="1268"
   height="1268"
   id="rect5" />
  </clipPath>
 </defs>
 <defs
   class="TextShapeIndex"
   id="defs12">
  <g
   ooo:slide="id1"
   ooo:id-list="id3"
   id="g10" />
 </defs>
 <defs
   class="EmbeddedBulletChars"
   id="defs44">
  <g
   id="bullet-char-template-57356"
   transform="scale(0.00048828125,-0.00048828125)">
   <path
   d="M 580,1141 L 1163,571 580,0 -4,571 580,1141 Z"
   id="path14" />
  </g>
  <g
   id="bullet-char-template-57354"
   transform="scale(0.00048828125,-0.00048828125)">
   <path
   d="M 8,1128 L 1137,1128 1137,0 8,0 8,1128 Z"
   id="path17" />
  </g>
  <g
   id="bullet-char-template-10146"
   transform="scale(0.00048828125,-0.00048828125)">
   <path
   d="M 174,0 L 602,739 174,1481 1456,739 174,0 Z M 1358,739 L 309,1346 659,739 1358,739 Z"
   id="path20" />
  </g>
  <g
   id="bullet-char-template-10132"
   transform="scale(0.00048828125,-0.00048828125)">
   <path
   d="M 2015,739 L 1276,0 717,0 1260,543 174,543 174,936 1260,936 717,1481 1274,1481 2015,739 Z"
   id="path23" />
  </g>
  <g
   id="bullet-char-template-10007"
   transform="scale(0.00048828125,-0.00048828125)">
   <path
   d="M 0,-2 C -7,14 -16,27 -25,37 L 356,567 C 262,823 215,952 215,954 215,979 228,992 255,992 264,992 276,990 289,987 310,991 331,999 354,1012 L 381,999 492,748 772,1049 836,1024 860,1049 C 881,1039 901,1025 922,1006 886,937 835,863 770,784 769,783 710,716 594,584 L 774,223 C 774,196 753,168 711,139 L 727,119 C 717,90 699,76 672,76 641,76 570,178 457,381 L 164,-76 C 142,-110 111,-127 72,-127 30,-127 9,-110 8,-76 1,-67 -2,-52 -2,-32 -2,-23 -1,-13 0,-2 Z"
   id="path26" />
  </g>
  <g
   id="bullet-char-template-10004"
   transform="scale(0.00048828125,-0.00048828125)">
   <path
   d="M 285,-33 C 182,-33 111,30 74,156 52,228 41,333 41,471 41,549 55,616 82,672 116,743 169,778 240,778 293,778 328,747 346,684 L 369,508 C 377,444 397,411 428,410 L 1163,1116 C 1174,1127 1196,1133 1229,1133 1271,1133 1292,1118 1292,1087 L 1292,965 C 1292,929 1282,901 1262,881 L 442,47 C 390,-6 338,-33 285,-33 Z"
   id="path29" />
  </g>
  <g
   id="bullet-char-template-9679"
   transform="scale(0.00048828125,-0.00048828125)">
   <path
   d="M 813,0 C 632,0 489,54 383,161 276,268 223,411 223,592 223,773 276,916 383,1023 489,1130 632,1184 813,1184 992,1184 1136,1130 1245,1023 1353,916 1407,772 1407,592 1407,412 1353,268 1245,161 1136,54 992,0 813,0 Z"
   id="path32" />
  </g>
  <g
   id="bullet-char-template-8226"
   transform="scale(0.00048828125,-0.00048828125)">
   <path
   d="M 346,457 C 273,457 209,483 155,535 101,586 74,649 74,723 74,796 101,859 155,911 209,963 273,989 346,989 419,989 480,963 531,910 582,859 608,796 608,723 608,648 583,586 532,535 482,483 420,457 346,457 Z"
   id="path35" />
  </g>
  <g
   id="bullet-char-template-8211"
   transform="scale(0.00048828125,-0.00048828125)">
   <path
   d="M -4,459 L 1135,459 1135,606 -4,606 -4,459 Z"
   id="path38" />
  </g>
  <g
   id="bullet-char-template-61548"
   transform="scale(0.00048828125,-0.00048828125)">
   <path
   d="M 173,740 C 173,903 231,1043 346,1159 462,1274 601,1332 765,1332 928,1332 1067,1274 1183,1159 1299,1043 1357,903 1357,740 1357,577 1299,437 1183,322 1067,206 928,148 765,148 601,148 462,206 346,322 231,437 173,577 173,740 Z"
   id="path41" />
  </g>
 </defs>
 <defs
   class="TextEmbeddedBitmaps"
   id="defs46" />
 <g
   id="g51">
  <g
   id="id2"
   class="Master_Slide">
   <g
   id="bg-id2"
   class="Background" />
   <g
   id="bo-id2"
   class="BackgroundObjects" />
  </g>
 </g>
 
<path
   style="fill:#008fb4;stroke-width:93.2691"
   d="m 719.01174,565.34433 c -39.78315,-9.33042 -88.89796,-47.43029 -108.44862,-84.12681 -17.92121,-33.63809 -24.03656,-82.93225 -15.42634,-124.34735 9.76126,-46.95168 44.10422,-90.37489 88.89433,-112.39783 44.71448,-21.98578 79.96551,-22.36438 124.24853,-1.33461 42.35252,20.11311 74.07548,57.02024 87.77327,102.11721 5.80105,19.09879 6.67242,28.90683 5.49705,61.8734 -1.36387,38.24889 -1.73132,39.85165 -15.51682,67.67223 -16.69661,33.69514 -39.32022,57.95836 -68.51823,73.484 -34.83365,18.52228 -67.87067,24.24392 -98.50317,17.05962 z m 65.25416,-72.36848 c 18.67396,-9.3461 36.6824,-28.13822 45.43401,-47.4113 8.43435,-18.57432 8.79721,-69.73749 0.65564,-92.45129 -17.10888,-47.73141 -74.97671,-73.66817 -116.58098,-52.25239 -38.65427,19.89723 -56.18217,50.48416 -56.18217,98.04037 0,46.45202 16.48551,75.33975 53.72031,94.13454 17.37058,8.76802 23.51645,10.2205 38.815,9.17307 10.37818,-0.71046 25.02468,-4.67184 34.13815,-9.233 z"
   id="path58" /><path
   style="fill:#008fb4;stroke-width:93.2691"
   d="m 439.51274,875.56621 c 0.0444,-181.81746 0.1778,-183.29842 19.8051,-220.12606 26.88425,-50.44001 84.64851,-87.61236 140.2619,-90.26106 l 22.95565,-1.09347 52.31928,62.76377 c 28.77563,34.52009 54.34998,64.79451 56.83192,67.27645 3.81362,3.81366 31.55853,-25.23345 179.1146,-187.52122 96.03111,-105.61864 175.63531,-192.03389 176.89831,-192.03389 1.2631,0 20.5275,24.91019 42.8099,55.35596 22.2824,30.44577 41.7771,57.04635 43.3214,59.11242 1.7754,2.37512 -27.6107,56.28163 -79.9067,146.58299 l -82.7146,142.82648 V 880.04122 1041.6339 H 725.3415 439.47351 Z m 508.90497,-40.4842 1.65243,-142.1078 73.53256,-127.13004 c 40.4428,-69.92151 73.483,-128.66489 73.4225,-130.54087 -0.059,-1.87579 -3.1419,-7.05377 -6.8472,-11.50617 -4.7698,-5.73131 -8.0184,-7.17894 -11.1244,-4.95725 -2.4129,1.72577 -80.62557,87.16345 -173.8058,189.86109 -93.18024,102.69769 -170.42452,187.13928 -171.65394,187.64805 -1.22941,0.50858 -33.04435,-36.29884 -70.6998,-81.79459 -40.46698,-48.89274 -70.75365,-82.70641 -74.0624,-82.68734 -9.44911,0.0556 -38.38346,15.01225 -51.76158,26.75838 -7.35859,6.46096 -17.3265,20.82512 -23.74389,34.21598 l -11.06087,23.08015 v 131.48358 131.48358 l 222.25,-0.84937 222.24996,-0.84936 z"
   id="path60" /><path
   style="fill:#008fb4;stroke-width:93.2691"
   d="m 329.15073,631.64284 c -38.22634,-9.50789 -77.56296,-43.1402 -90.74431,-77.58525 -30.55785,-79.85261 10.44953,-165.16886 89.06973,-185.31042 66.74423,-17.0991 139.16957,38.86956 146.56324,113.26067 6.19248,62.3052 -20.12222,112.80458 -72.0043,138.18046 -26.03251,12.7327 -51.59422,16.74998 -72.88436,11.45454 z m 50.21675,-70.54181 c 5.80895,-3.00408 14.64513,-11.63209 19.63594,-19.1737 8.14124,-12.30231 9.07417,-16.65397 9.07417,-42.32703 0,-26.10448 -0.82973,-29.81228 -9.45718,-42.26172 -10.27488,-14.82663 -31.43486,-27.09854 -46.72495,-27.09854 -16.65057,0 -37.93174,12.87331 -48.29489,29.21436 -8.36671,13.1929 -9.53301,18.11222 -9.48533,40.00792 0.0815,36.94466 13.23272,56.95631 44.49763,67.70465 13.51058,4.64473 22.68239,3.27967 40.75461,-6.06594 z"
   id="path63" /><path
   style="fill:#008fb4;stroke-width:93.2691"
   d="m 99.764055,839.21304 0.964125,-136.32433 9.03541,-19.28663 c 22.18464,-47.35448 54.33392,-69.97979 110.17986,-77.53984 l 20.07032,-2.71701 51.80981,72.30285 c 53.6267,74.83843 56.57211,80.92167 48.14053,99.42698 -6.6998,14.70443 -30.95194,20.20427 -45.17216,10.24402 -4.04213,-2.83109 -23.7806,-28.81489 -43.86333,-57.74158 -20.08274,-28.92669 -37.70938,-53.3327 -39.17027,-54.23563 -5.634,-3.48192 -33.19089,17.89872 -39.82209,30.89701 -6.35498,12.45678 -6.76384,19.05186 -6.76384,109.10174 v 95.8435 l 108.79756,0.95456 108.79756,0.95457 8.24436,7.74926 c 10.935,10.27829 13.25121,21.1239 7.46753,34.96622 -9.0691,21.70546 -9.24305,21.72876 -162.22691,21.72876 H 98.799938 Z"
   id="path65" /></svg>
