<?xml version="1.0" encoding="UTF-8" standalone="no"?>
<svg
   xmlns:ooo="http://xml.openoffice.org/svg/export"
   xmlns:dc="http://purl.org/dc/elements/1.1/"
   xmlns:cc="http://creativecommons.org/ns#"
   xmlns:rdf="http://www.w3.org/1999/02/22-rdf-syntax-ns#"
   xmlns:svg="http://www.w3.org/2000/svg"
   xmlns="http://www.w3.org/2000/svg"
   xmlns:sodipodi="http://sodipodi.sourceforge.net/DTD/sodipodi-0.dtd"
   xmlns:inkscape="http://www.inkscape.org/namespaces/inkscape"
   version="1.2"
   width="12.7mm"
   height="12.7mm"
   viewBox="0 0 1270 1270"
   preserveAspectRatio="xMidYMid"
   fill-rule="evenodd"
   stroke-width="28.222"
   stroke-linejoin="round"
   xml:space="preserve"
   id="svg79"
   sodipodi:docname="icon.svg"
   inkscape:version="1.0.1 (3bc2e813f5, 2020-09-07)"
   inkscape:export-filename="C:\Users\Formacion\Desktop\iconos Adaptable\Gris oscuro\pix_plugins\mod\journal\icon.png"
   inkscape:export-xdpi="96"
   inkscape:export-ydpi="96"><metadata
   id="metadata83"><rdf:RDF><cc:Work
       rdf:about=""><dc:format>image/svg+xml</dc:format><dc:type
         rdf:resource="http://purl.org/dc/dcmitype/StillImage" /></cc:Work></rdf:RDF></metadata><sodipodi:namedview
   pagecolor="#ffffff"
   bordercolor="#666666"
   borderopacity="1"
   objecttolerance="10"
   gridtolerance="10"
   guidetolerance="10"
   inkscape:pageopacity="0"
   inkscape:pageshadow="2"
   inkscape:window-width="1366"
   inkscape:window-height="705"
   id="namedview81"
   showgrid="false"
   inkscape:zoom="7.9254886"
   inkscape:cx="24"
   inkscape:cy="24"
   inkscape:window-x="-8"
   inkscape:window-y="-8"
   inkscape:window-maximized="1"
   inkscape:current-layer="svg79"
   inkscape:document-rotation="0" />
 <defs
   class="ClipPathGroup"
   id="defs8">
  <clipPath
   id="presentation_clip_path"
   clipPathUnits="userSpaceOnUse">
   <rect
   x="0"
   y="0"
   width="1270"
   height="1270"
   id="rect2" />
  </clipPath>
  <clipPath
   id="presentation_clip_path_shrink"
   clipPathUnits="userSpaceOnUse">
   <rect
   x="1"
   y="1"
   width="1268"
   height="1268"
   id="rect5" />
  </clipPath>
 </defs>
 <defs
   class="TextShapeIndex"
   id="defs12">
  <g
   ooo:slide="id1"
   ooo:id-list="id3"
   id="g10" />
 </defs>
 <defs
   class="EmbeddedBulletChars"
   id="defs44">
  <g
   id="bullet-char-template-57356"
   transform="scale(0.00048828125,-0.00048828125)">
   <path
   d="M 580,1141 L 1163,571 580,0 -4,571 580,1141 Z"
   id="path14" />
  </g>
  <g
   id="bullet-char-template-57354"
   transform="scale(0.00048828125,-0.00048828125)">
   <path
   d="M 8,1128 L 1137,1128 1137,0 8,0 8,1128 Z"
   id="path17" />
  </g>
  <g
   id="bullet-char-template-10146"
   transform="scale(0.00048828125,-0.00048828125)">
   <path
   d="M 174,0 L 602,739 174,1481 1456,739 174,0 Z M 1358,739 L 309,1346 659,739 1358,739 Z"
   id="path20" />
  </g>
  <g
   id="bullet-char-template-10132"
   transform="scale(0.00048828125,-0.00048828125)">
   <path
   d="M 2015,739 L 1276,0 717,0 1260,543 174,543 174,936 1260,936 717,1481 1274,1481 2015,739 Z"
   id="path23" />
  </g>
  <g
   id="bullet-char-template-10007"
   transform="scale(0.00048828125,-0.00048828125)">
   <path
   d="M 0,-2 C -7,14 -16,27 -25,37 L 356,567 C 262,823 215,952 215,954 215,979 228,992 255,992 264,992 276,990 289,987 310,991 331,999 354,1012 L 381,999 492,748 772,1049 836,1024 860,1049 C 881,1039 901,1025 922,1006 886,937 835,863 770,784 769,783 710,716 594,584 L 774,223 C 774,196 753,168 711,139 L 727,119 C 717,90 699,76 672,76 641,76 570,178 457,381 L 164,-76 C 142,-110 111,-127 72,-127 30,-127 9,-110 8,-76 1,-67 -2,-52 -2,-32 -2,-23 -1,-13 0,-2 Z"
   id="path26" />
  </g>
  <g
   id="bullet-char-template-10004"
   transform="scale(0.00048828125,-0.00048828125)">
   <path
   d="M 285,-33 C 182,-33 111,30 74,156 52,228 41,333 41,471 41,549 55,616 82,672 116,743 169,778 240,778 293,778 328,747 346,684 L 369,508 C 377,444 397,411 428,410 L 1163,1116 C 1174,1127 1196,1133 1229,1133 1271,1133 1292,1118 1292,1087 L 1292,965 C 1292,929 1282,901 1262,881 L 442,47 C 390,-6 338,-33 285,-33 Z"
   id="path29" />
  </g>
  <g
   id="bullet-char-template-9679"
   transform="scale(0.00048828125,-0.00048828125)">
   <path
   d="M 813,0 C 632,0 489,54 383,161 276,268 223,411 223,592 223,773 276,916 383,1023 489,1130 632,1184 813,1184 992,1184 1136,1130 1245,1023 1353,916 1407,772 1407,592 1407,412 1353,268 1245,161 1136,54 992,0 813,0 Z"
   id="path32" />
  </g>
  <g
   id="bullet-char-template-8226"
   transform="scale(0.00048828125,-0.00048828125)">
   <path
   d="M 346,457 C 273,457 209,483 155,535 101,586 74,649 74,723 74,796 101,859 155,911 209,963 273,989 346,989 419,989 480,963 531,910 582,859 608,796 608,723 608,648 583,586 532,535 482,483 420,457 346,457 Z"
   id="path35" />
  </g>
  <g
   id="bullet-char-template-8211"
   transform="scale(0.00048828125,-0.00048828125)">
   <path
   d="M -4,459 L 1135,459 1135,606 -4,606 -4,459 Z"
   id="path38" />
  </g>
  <g
   id="bullet-char-template-61548"
   transform="scale(0.00048828125,-0.00048828125)">
   <path
   d="M 173,740 C 173,903 231,1043 346,1159 462,1274 601,1332 765,1332 928,1332 1067,1274 1183,1159 1299,1043 1357,903 1357,740 1357,577 1299,437 1183,322 1067,206 928,148 765,148 601,148 462,206 346,322 231,437 173,577 173,740 Z"
   id="path41" />
  </g>
 </defs>
 <defs
   class="TextEmbeddedBitmaps"
   id="defs46" />
 <g
   id="g51">
  <g
   id="id2"
   class="Master_Slide">
   <g
   id="bg-id2"
   class="Background" />
   <g
   id="bo-id2"
   class="BackgroundObjects" />
  </g>
 </g>
 
<path
   style="fill:#008fb4;stroke-width:131.902"
   d="m 292.98244,1013.3918 -139.04375,-144.08887 0.026,-317.08356 c 0.0173,-210.86413 1.7017,-323.11871 5.02856,-335.09947 6.76014,-24.34597 36.90083,-56.18854 59.63182,-62.99891 24.35949,-7.29828 625.73464,-7.70289 651.89491,-0.43857 9.82153,2.72738 25.90498,12.22927 35.74106,21.11556 30.27471,27.35138 32.86578,37.41468 32.86578,127.64488 0,43.95364 1.54463,79.91569 3.43228,79.91569 1.88764,0 26.62666,-23.12867 54.97546,-51.39705 l 51.54334,-51.39705 91.0789,91.26507 91.0789,91.26503 -146.0544,142.81941 -146.05437,142.81936 V 915.7265 c 0,141.0566 -1.15978,170.7691 -7.23368,185.3058 -9.20671,22.0347 -23.2352,37.0308 -45.15968,48.2743 -16.34753,8.3835 -29.86077,8.8721 -236.02383,8.5333 l -218.68352,-0.3593 z m 570.32464,76.7732 c 10.33078,-7.236 10.38741,-8.0196 10.38564,-143.71747 l -0.002,-136.44187 -24.53537,25.93913 -24.53536,25.93917 -113.45722,31.97407 c -62.40146,17.58572 -114.18352,31.15134 -115.07127,30.14573 -0.88788,-1.00568 7.71778,-54.40791 19.12332,-118.67183 L 635.95249,688.48844 754.82345,569.27502 873.69449,450.06161 V 340.62982 c 0,-95.26865 -1.00123,-110.53796 -7.73496,-117.97882 -7.34581,-8.11709 -23.37511,-8.54707 -318.61467,-8.54707 -282.71807,0 -311.65395,0.70083 -319.42677,7.73497 -8.11024,7.33966 -8.54707,22.98539 -8.54707,306.12992 V 826.36374 H 347.89886 476.4267 v 135.53846 135.5384 h 188.24645 c 162.8135,0 189.64992,-0.9831 198.63393,-7.2756 z M 415.66807,966.57593 v -79.45356 h -75.16928 c -43.51226,0 -74.51321,1.80208 -73.61143,4.27928 1.79467,4.9298 143.98011,154.62785 146.86777,154.62785 1.05198,0 1.91283,-35.7541 1.91283,-79.45357 z M 740.27208,819.9585 c 30.72521,-8.601 56.50628,-17.56512 57.29138,-19.92034 0.78491,-2.35511 -19.76376,-23.96366 -45.66404,-48.01886 -33.54471,-31.15507 -48.53469,-42.29332 -52.10877,-38.71928 -7.65455,7.65455 -26.98237,122.42389 -20.60509,122.35392 2.87221,-0.0327 30.36131,-7.09444 61.08652,-15.69544 z m 181.40034,-142.05642 73.57389,-73.68184 -45.58625,-45.13349 -45.58625,-45.13349 -77.11668,74.32462 -77.11671,74.32462 44.86954,44.49071 c 24.67823,24.46991 46.78629,44.49071 49.12903,44.49071 2.34288,0 37.36778,-33.15681 77.83343,-73.68184 z m 170.60688,-165.93103 47.8262,-47.98959 -46.7434,-46.56805 -46.7434,-46.56804 -49.07217,48.90511 -49.0721,48.90512 45.48124,45.65252 c 25.01463,25.10887 46.60983,45.65252 47.98933,45.65252 1.3794,0 24.0298,-21.59533 50.3343,-47.98959 z"
   id="path59" /></svg>
