<?xml version="1.0" encoding="UTF-8" standalone="no"?>
<svg
   xmlns:ooo="http://xml.openoffice.org/svg/export"
   xmlns:dc="http://purl.org/dc/elements/1.1/"
   xmlns:cc="http://creativecommons.org/ns#"
   xmlns:rdf="http://www.w3.org/1999/02/22-rdf-syntax-ns#"
   xmlns:svg="http://www.w3.org/2000/svg"
   xmlns="http://www.w3.org/2000/svg"
   xmlns:sodipodi="http://sodipodi.sourceforge.net/DTD/sodipodi-0.dtd"
   xmlns:inkscape="http://www.inkscape.org/namespaces/inkscape"
   version="1.2"
   width="12.7mm"
   height="12.7mm"
   viewBox="0 0 1270 1270"
   preserveAspectRatio="xMidYMid"
   fill-rule="evenodd"
   stroke-width="28.222"
   stroke-linejoin="round"
   xml:space="preserve"
   id="svg79"
   sodipodi:docname="icon.svg"
   inkscape:version="1.0.1 (3bc2e813f5, 2020-09-07)"><metadata
   id="metadata83"><rdf:RDF><cc:Work
       rdf:about=""><dc:format>image/svg+xml</dc:format><dc:type
         rdf:resource="http://purl.org/dc/dcmitype/StillImage" /><dc:title /></cc:Work></rdf:RDF></metadata><sodipodi:namedview
   pagecolor="#ffffff"
   bordercolor="#666666"
   borderopacity="1"
   objecttolerance="10"
   gridtolerance="10"
   guidetolerance="10"
   inkscape:pageopacity="0"
   inkscape:pageshadow="2"
   inkscape:window-width="1366"
   inkscape:window-height="705"
   id="namedview81"
   showgrid="false"
   inkscape:zoom="3.9627445"
   inkscape:cx="16.155704"
   inkscape:cy="31.570511"
   inkscape:window-x="-8"
   inkscape:window-y="-8"
   inkscape:window-maximized="1"
   inkscape:current-layer="svg79"
   inkscape:document-rotation="0" />
 <defs
   class="ClipPathGroup"
   id="defs8">
  <clipPath
   id="presentation_clip_path"
   clipPathUnits="userSpaceOnUse">
   <rect
   x="0"
   y="0"
   width="1270"
   height="1270"
   id="rect2" />
  </clipPath>
  <clipPath
   id="presentation_clip_path_shrink"
   clipPathUnits="userSpaceOnUse">
   <rect
   x="1"
   y="1"
   width="1268"
   height="1268"
   id="rect5" />
  </clipPath>
 </defs>
 <defs
   class="TextShapeIndex"
   id="defs12">
  <g
   ooo:slide="id1"
   ooo:id-list="id3"
   id="g10" />
 </defs>
 <defs
   class="EmbeddedBulletChars"
   id="defs44">
  <g
   id="bullet-char-template-57356"
   transform="scale(0.00048828125,-0.00048828125)">
   <path
   d="M 580,1141 L 1163,571 580,0 -4,571 580,1141 Z"
   id="path14" />
  </g>
  <g
   id="bullet-char-template-57354"
   transform="scale(0.00048828125,-0.00048828125)">
   <path
   d="M 8,1128 L 1137,1128 1137,0 8,0 8,1128 Z"
   id="path17" />
  </g>
  <g
   id="bullet-char-template-10146"
   transform="scale(0.00048828125,-0.00048828125)">
   <path
   d="M 174,0 L 602,739 174,1481 1456,739 174,0 Z M 1358,739 L 309,1346 659,739 1358,739 Z"
   id="path20" />
  </g>
  <g
   id="bullet-char-template-10132"
   transform="scale(0.00048828125,-0.00048828125)">
   <path
   d="M 2015,739 L 1276,0 717,0 1260,543 174,543 174,936 1260,936 717,1481 1274,1481 2015,739 Z"
   id="path23" />
  </g>
  <g
   id="bullet-char-template-10007"
   transform="scale(0.00048828125,-0.00048828125)">
   <path
   d="M 0,-2 C -7,14 -16,27 -25,37 L 356,567 C 262,823 215,952 215,954 215,979 228,992 255,992 264,992 276,990 289,987 310,991 331,999 354,1012 L 381,999 492,748 772,1049 836,1024 860,1049 C 881,1039 901,1025 922,1006 886,937 835,863 770,784 769,783 710,716 594,584 L 774,223 C 774,196 753,168 711,139 L 727,119 C 717,90 699,76 672,76 641,76 570,178 457,381 L 164,-76 C 142,-110 111,-127 72,-127 30,-127 9,-110 8,-76 1,-67 -2,-52 -2,-32 -2,-23 -1,-13 0,-2 Z"
   id="path26" />
  </g>
  <g
   id="bullet-char-template-10004"
   transform="scale(0.00048828125,-0.00048828125)">
   <path
   d="M 285,-33 C 182,-33 111,30 74,156 52,228 41,333 41,471 41,549 55,616 82,672 116,743 169,778 240,778 293,778 328,747 346,684 L 369,508 C 377,444 397,411 428,410 L 1163,1116 C 1174,1127 1196,1133 1229,1133 1271,1133 1292,1118 1292,1087 L 1292,965 C 1292,929 1282,901 1262,881 L 442,47 C 390,-6 338,-33 285,-33 Z"
   id="path29" />
  </g>
  <g
   id="bullet-char-template-9679"
   transform="scale(0.00048828125,-0.00048828125)">
   <path
   d="M 813,0 C 632,0 489,54 383,161 276,268 223,411 223,592 223,773 276,916 383,1023 489,1130 632,1184 813,1184 992,1184 1136,1130 1245,1023 1353,916 1407,772 1407,592 1407,412 1353,268 1245,161 1136,54 992,0 813,0 Z"
   id="path32" />
  </g>
  <g
   id="bullet-char-template-8226"
   transform="scale(0.00048828125,-0.00048828125)">
   <path
   d="M 346,457 C 273,457 209,483 155,535 101,586 74,649 74,723 74,796 101,859 155,911 209,963 273,989 346,989 419,989 480,963 531,910 582,859 608,796 608,723 608,648 583,586 532,535 482,483 420,457 346,457 Z"
   id="path35" />
  </g>
  <g
   id="bullet-char-template-8211"
   transform="scale(0.00048828125,-0.00048828125)">
   <path
   d="M -4,459 L 1135,459 1135,606 -4,606 -4,459 Z"
   id="path38" />
  </g>
  <g
   id="bullet-char-template-61548"
   transform="scale(0.00048828125,-0.00048828125)">
   <path
   d="M 173,740 C 173,903 231,1043 346,1159 462,1274 601,1332 765,1332 928,1332 1067,1274 1183,1159 1299,1043 1357,903 1357,740 1357,577 1299,437 1183,322 1067,206 928,148 765,148 601,148 462,206 346,322 231,437 173,577 173,740 Z"
   id="path41" />
  </g>
 </defs>
 <defs
   class="TextEmbeddedBitmaps"
   id="defs46" />
 <g
   id="g51">
  <g
   id="id2"
   class="Master_Slide">
   <g
   id="bg-id2"
   class="Background" />
   <g
   id="bo-id2"
   class="BackgroundObjects" />
  </g>
 </g>
 
<path
   style="fill:#0088aa;fill-opacity:1;stroke-width:93.2691"
   d="m 433.71648,954.46867 v -33.5562 l 40.17684,2.16027 c 22.09728,1.1883 188.66083,2.16027 370.14125,2.16027 H 1173.999 v 31.39593 31.39592 H 803.8577 433.71648 Z"
   id="path901" /><path
   style="fill:#0088aa;fill-opacity:1;stroke-width:93.2691"
   d="M 433.71648,617.88364 V 584.83532 H 803.8577 1173.999 v 33.04832 33.04832 H 803.8577 433.71648 Z"
   id="path903" /><path
   style="fill:#0088aa;fill-opacity:1;stroke-width:93.2691"
   d="M 433.71648,277.48591 V 244.43756 H 803.8577 1173.999 v 33.04835 33.04832 H 803.8577 433.71648 Z"
   id="path905" /><path
   style="fill:#0088aa;fill-opacity:1;stroke-width:93.2691"
   d="m 191.57637,402.98093 c -37.60363,-6.40873 -74.43812,-36.12181 -87.68184,-70.7298 -9.77082,-25.53275 -9.871954,-60.65077 -0.25016,-86.86337 8.36695,-22.79404 35.23486,-50.9953 60.72826,-63.74201 14.14699,-7.07351 21.04078,-8.26207 47.92007,-8.26207 27.05419,0 33.97713,1.21015 50.06148,8.75106 24.22554,11.35779 43.92156,31.34555 55.9568,56.78561 8.22629,17.38873 9.64602,24.39576 9.64825,47.6184 0.003,32.23025 -7.01047,53.74638 -24.46158,75.04319 -27.10772,33.0814 -69.2534,48.67083 -111.92128,41.39899 z m 43.94942,-66.83424 c 19.76995,-9.98747 29.64422,-25.34117 29.64422,-46.09432 0,-19.9243 -6.22637,-32.55088 -21.97467,-44.56268 -9.93884,-7.58072 -15.38919,-9.20404 -30.90264,-9.20404 -15.51346,0 -20.96381,1.62317 -30.90264,9.20404 -15.53943,11.85249 -21.97468,24.60989 -21.97468,43.56311 0,18.52617 6.42522,31.73501 20.65173,42.45531 18.40045,13.86555 34.5245,15.2142 55.45868,4.63858 z"
   id="path907" /><path
   style="fill:#0088aa;fill-opacity:1;stroke-width:93.2691"
   d="M 193.63185,743.24157 C 170.68809,740.17415 147.64151,728.36674 129.56636,710.41895 72.897636,654.14954 89.882784,556.45196 162.23122,522.5325 c 16.28952,-7.6371 22.87249,-8.75109 51.71391,-8.75109 31.38158,0 34.104,0.57229 53.98056,11.34882 23.52042,12.75204 39.18789,29.92685 51.57366,56.53548 6.81045,14.63094 8.40402,23.11674 8.43021,44.89072 0.0365,30.33646 -4.8352,47.24498 -19.9359,69.19305 -24.5387,35.66583 -67.95613,53.69616 -114.36181,47.49209 z m 47.68088,-69.78628 c 22.66483,-13.93156 31.02832,-50.66741 16.42142,-72.12942 -11.53225,-16.94438 -23.38977,-24.02967 -42.82576,-25.58994 -14.38857,-1.15496 -19.52321,-0.0201 -28.97569,6.40502 -17.14977,11.65716 -26.51732,27.49044 -26.51732,44.82027 0,44.98055 43.85523,69.87766 81.89735,46.49407 z"
   id="path909" /><path
   style="fill:#0088aa;fill-opacity:1;stroke-width:93.2691"
   d="m 175.42665,1079.1135 c -27.59886,-10.5098 -55.09107,-34.608 -68.09987,-59.6927 -12.731396,-24.54982 -14.420599,-66.53629 -3.82248,-95.01085 9.47714,-25.46278 32.42982,-49.44515 60.86833,-63.59895 17.30435,-8.61237 23.4056,-9.8732 47.92007,-9.90279 35.19947,-0.0408 57.96939,9.58438 83.82529,35.44028 23.24479,23.24479 31.84479,45.60766 31.84124,82.79757 -0.002,23.0451 -1.43055,30.13324 -9.46515,46.96994 -11.56615,24.2371 -32.39201,45.266 -56.60667,57.1586 -14.81133,7.2743 -23.42759,9.0777 -46.28989,9.6885 -17.75315,0.4741 -32.53662,-0.9423 -40.17087,-3.8496 z m 65.88608,-65.4165 c 32.50062,-19.5097 30.54737,-74.86773 -3.25003,-92.10985 -47.60055,-24.284 -96.40279,25.28794 -71.99522,73.13073 14.07909,27.59732 47.03913,35.91082 75.24518,18.97912 z"
   id="path911" /><path
   style="fill:#008fb4;fill-opacity:1;stroke-width:93.2691"
   d="M 181.82785,738.82449 C 130.66757,725.05537 91.675182,667.91778 98.138186,616.18961 c 4.665264,-37.33948 30.384964,-74.03532 63.872634,-91.13094 12.59939,-6.43203 21.77617,-8.17424 47.95336,-9.10392 29.62437,-1.05198 33.89943,-0.40264 50.36378,7.65277 23.11896,11.31105 45.10308,33.39747 55.84572,56.10557 7.22809,15.27887 8.47854,22.48585 8.45106,48.70661 -0.0365,34.70767 -6.74514,54.14417 -26.42497,76.55823 -27.04601,30.8037 -75.41117,44.87061 -116.37192,33.84656 z m 59.4241,-63.67521 c 15.82931,-11.81829 21.75879,-23.04066 23.27913,-44.05906 1.24386,-17.19863 0.29633,-21.6639 -6.92687,-32.57622 -21.30059,-32.18736 -71.26087,-31.68263 -91.41257,0.92345 -9.32309,15.08507 -9.13933,41.43277 0.40746,58.419 13.88321,24.70183 52.68921,33.69095 74.65281,17.29275 z"
   id="path921" /><path
   style="fill:#008fb4;fill-opacity:1;stroke-width:93.2691"
   d="m 163.38307,1070.4552 c -21.7408,-10.864 -45.52492,-34.4329 -55.09147,-54.5929 -12.929935,-27.24785 -12.03373,-73.9149 1.94572,-101.31684 9.5533,-18.72609 32.75498,-40.0729 56.3936,-51.88527 37.2688,-18.62344 81.67065,-12.72881 116.74466,15.49857 14.50967,11.67727 22.7078,21.64026 30.68287,37.28807 9.95099,19.5247 10.88618,23.94969 10.92122,51.67653 0.0331,26.20116 -1.13755,32.64371 -8.611,47.39204 -12.33347,24.3389 -32.23351,44.4801 -55.37089,56.042 -17.66691,8.8283 -23.38577,10.0028 -48.70508,10.0028 -25.38321,0 -31.01714,-1.1638 -48.90963,-10.105 z m 78.60626,-55.4059 c 15.29266,-11.3205 23.18112,-26.59109 23.17557,-44.86352 -0.0104,-33.9465 -19.89297,-54.86723 -52.14463,-54.86723 -32.69649,0 -53.60489,20.51853 -53.60489,52.60532 0,24.72679 12.09148,44.09193 33.05002,52.93143 11.51107,4.8549 39.56532,1.5657 49.52393,-5.806 z"
   id="path923" /><path
   style="fill:#008fb4;fill-opacity:1;stroke-width:93.2691"
   d="m 433.71648,954.52734 v -33.49752 l 15.33299,2.10175 c 8.43316,1.1557 174.99672,2.10174 370.14126,2.10174 H 1173.999 v 31.39592 31.39593 H 803.8577 433.71648 Z"
   id="path925" /><path
   style="fill:#008fb4;fill-opacity:1;stroke-width:93.2691"
   d="M 433.71648,617.88364 V 584.83532 H 803.8577 1173.999 v 33.04832 33.04832 H 803.8577 433.71648 Z"
   id="path927" /><path
   style="fill:#008fb4;fill-opacity:1;stroke-width:93.2691"
   d="M 433.71648,277.48591 V 244.43756 H 803.8577 1173.999 v 33.04835 33.04832 H 803.8577 433.71648 Z"
   id="path929" /></svg>
