<?xml version="1.0" encoding="UTF-8" standalone="no"?>
<svg
   xmlns:ooo="http://xml.openoffice.org/svg/export"
   xmlns:dc="http://purl.org/dc/elements/1.1/"
   xmlns:cc="http://creativecommons.org/ns#"
   xmlns:rdf="http://www.w3.org/1999/02/22-rdf-syntax-ns#"
   xmlns:svg="http://www.w3.org/2000/svg"
   xmlns="http://www.w3.org/2000/svg"
   xmlns:sodipodi="http://sodipodi.sourceforge.net/DTD/sodipodi-0.dtd"
   xmlns:inkscape="http://www.inkscape.org/namespaces/inkscape"
   version="1.2"
   width="12.96mm"
   height="12.96mm"
   viewBox="0 0 1296 1296"
   preserveAspectRatio="xMidYMid"
   fill-rule="evenodd"
   stroke-width="28.222"
   stroke-linejoin="round"
   xml:space="preserve"
   id="svg72"
   sodipodi:docname="icon.svg"
   inkscape:export-filename="C:\Users\Formacion\Desktop\iconos Adaptable\Gris oscuro\pix_plugins\mod\feedback\icon.png"
   inkscape:export-xdpi="94.07"
   inkscape:export-ydpi="94.07"
   inkscape:version="1.0.1 (3bc2e813f5, 2020-09-07)"><metadata
   id="metadata76"><rdf:RDF><cc:Work
       rdf:about=""><dc:format>image/svg+xml</dc:format><dc:type
         rdf:resource="http://purl.org/dc/dcmitype/StillImage" /></cc:Work></rdf:RDF></metadata><sodipodi:namedview
   pagecolor="#ffffff"
   bordercolor="#666666"
   borderopacity="1"
   objecttolerance="10"
   gridtolerance="10"
   guidetolerance="10"
   inkscape:pageopacity="0"
   inkscape:pageshadow="2"
   inkscape:window-width="1366"
   inkscape:window-height="705"
   id="namedview74"
   showgrid="false"
   inkscape:zoom="7.7664897"
   inkscape:cx="24.491339"
   inkscape:cy="21.916173"
   inkscape:window-x="-8"
   inkscape:window-y="-8"
   inkscape:window-maximized="1"
   inkscape:current-layer="svg72"
   inkscape:document-rotation="0" />
 <defs
   class="ClipPathGroup"
   id="defs8">
  <clipPath
   id="presentation_clip_path"
   clipPathUnits="userSpaceOnUse">
   <rect
   x="0"
   y="0"
   width="1296"
   height="1296"
   id="rect2" />
  </clipPath>
  <clipPath
   id="presentation_clip_path_shrink"
   clipPathUnits="userSpaceOnUse">
   <rect
   x="1"
   y="1"
   width="1294"
   height="1294"
   id="rect5" />
  </clipPath>
 </defs>
 <defs
   class="TextShapeIndex"
   id="defs12">
  <g
   ooo:slide="id1"
   ooo:id-list="id3"
   id="g10" />
 </defs>
 <defs
   class="EmbeddedBulletChars"
   id="defs44">
  <g
   id="bullet-char-template-57356"
   transform="scale(0.00048828125,-0.00048828125)">
   <path
   d="M 580,1141 L 1163,571 580,0 -4,571 580,1141 Z"
   id="path14" />
  </g>
  <g
   id="bullet-char-template-57354"
   transform="scale(0.00048828125,-0.00048828125)">
   <path
   d="M 8,1128 L 1137,1128 1137,0 8,0 8,1128 Z"
   id="path17" />
  </g>
  <g
   id="bullet-char-template-10146"
   transform="scale(0.00048828125,-0.00048828125)">
   <path
   d="M 174,0 L 602,739 174,1481 1456,739 174,0 Z M 1358,739 L 309,1346 659,739 1358,739 Z"
   id="path20" />
  </g>
  <g
   id="bullet-char-template-10132"
   transform="scale(0.00048828125,-0.00048828125)">
   <path
   d="M 2015,739 L 1276,0 717,0 1260,543 174,543 174,936 1260,936 717,1481 1274,1481 2015,739 Z"
   id="path23" />
  </g>
  <g
   id="bullet-char-template-10007"
   transform="scale(0.00048828125,-0.00048828125)">
   <path
   d="M 0,-2 C -7,14 -16,27 -25,37 L 356,567 C 262,823 215,952 215,954 215,979 228,992 255,992 264,992 276,990 289,987 310,991 331,999 354,1012 L 381,999 492,748 772,1049 836,1024 860,1049 C 881,1039 901,1025 922,1006 886,937 835,863 770,784 769,783 710,716 594,584 L 774,223 C 774,196 753,168 711,139 L 727,119 C 717,90 699,76 672,76 641,76 570,178 457,381 L 164,-76 C 142,-110 111,-127 72,-127 30,-127 9,-110 8,-76 1,-67 -2,-52 -2,-32 -2,-23 -1,-13 0,-2 Z"
   id="path26" />
  </g>
  <g
   id="bullet-char-template-10004"
   transform="scale(0.00048828125,-0.00048828125)">
   <path
   d="M 285,-33 C 182,-33 111,30 74,156 52,228 41,333 41,471 41,549 55,616 82,672 116,743 169,778 240,778 293,778 328,747 346,684 L 369,508 C 377,444 397,411 428,410 L 1163,1116 C 1174,1127 1196,1133 1229,1133 1271,1133 1292,1118 1292,1087 L 1292,965 C 1292,929 1282,901 1262,881 L 442,47 C 390,-6 338,-33 285,-33 Z"
   id="path29" />
  </g>
  <g
   id="bullet-char-template-9679"
   transform="scale(0.00048828125,-0.00048828125)">
   <path
   d="M 813,0 C 632,0 489,54 383,161 276,268 223,411 223,592 223,773 276,916 383,1023 489,1130 632,1184 813,1184 992,1184 1136,1130 1245,1023 1353,916 1407,772 1407,592 1407,412 1353,268 1245,161 1136,54 992,0 813,0 Z"
   id="path32" />
  </g>
  <g
   id="bullet-char-template-8226"
   transform="scale(0.00048828125,-0.00048828125)">
   <path
   d="M 346,457 C 273,457 209,483 155,535 101,586 74,649 74,723 74,796 101,859 155,911 209,963 273,989 346,989 419,989 480,963 531,910 582,859 608,796 608,723 608,648 583,586 532,535 482,483 420,457 346,457 Z"
   id="path35" />
  </g>
  <g
   id="bullet-char-template-8211"
   transform="scale(0.00048828125,-0.00048828125)">
   <path
   d="M -4,459 L 1135,459 1135,606 -4,606 -4,459 Z"
   id="path38" />
  </g>
  <g
   id="bullet-char-template-61548"
   transform="scale(0.00048828125,-0.00048828125)">
   <path
   d="M 173,740 C 173,903 231,1043 346,1159 462,1274 601,1332 765,1332 928,1332 1067,1274 1183,1159 1299,1043 1357,903 1357,740 1357,577 1299,437 1183,322 1067,206 928,148 765,148 601,148 462,206 346,322 231,437 173,577 173,740 Z"
   id="path41" />
  </g>
 </defs>
 <defs
   class="TextEmbeddedBitmaps"
   id="defs46" />
 <g
   id="g51">
  <g
   id="id2"
   class="Master_Slide">
   <g
   id="bg-id2"
   class="Background" />
   <g
   id="bo-id2"
   class="BackgroundObjects" />
  </g>
 </g>
 
<path
   style="fill:#008fb4;stroke-width:95.1786"
   d="M 460.10415,1071.1201 C 307.0774,1009.0263 164.78984,951.17501 143.9096,942.56163 l -37.9641,-15.66069 0.8667,-225.61372 0.8667,-225.61371 195.60447,-87.35807 195.60445,-87.35803 2.81701,-93.76857 c 1.54946,-51.5727 3.37117,-94.32578 4.0487,-95.00687 0.67749,-0.68119 71.1174,27.3765 156.53322,62.35013 l 155.30145,63.58842 v 57.56061 57.5606 l 183.824,73.50552 183.8241,73.50548 -0.8664,229.25624 -0.8664,229.25617 -217.52568,112.63846 c -119.6391,61.9511 -219.80206,112.633 -222.58437,112.6264 -2.7822,-0.01 -130.26243,-50.8161 -283.28922,-112.9099 z M 713.04095,928.35745 V 756.84105 L 449.14356,653.15873 C 304.00002,596.13341 183.33516,548.70315 180.99946,547.75807 c -3.38746,-1.37054 -4.06984,32.9396 -3.37264,169.59146 l 0.87418,171.3097 264.74049,105.45637 c 145.60727,58.001 265.87875,105.5242 267.26988,105.6073 1.39129,0.082 2.52921,-77.0315 2.52921,-171.36545 z m 244.26797,77.08655 167.09288,-85.99848 0.041,-172.90864 0.041,-172.90872 -14.3331,7.21179 c -7.8831,3.96649 -84.523,43.59985 -170.31072,88.07423 l -155.97768,80.8624 v 171.95716 c 0,106.10636 1.21645,171.52666 3.17632,170.83296 1.74689,-0.6182 78.3682,-39.8235 170.26932,-87.1227 z M 917.26043,608.90049 c 93.56987,-47.45093 170.12107,-87.2885 170.11387,-88.52788 -0.01,-1.61761 -190.9814,-78.85363 -266.85225,-107.92482 -1.61539,-0.61896 -2.93407,36.91525 -2.93407,83.5237 v 84.64787 l 11.65545,5.55811 c 12.54954,5.98445 16.26567,11.56337 13.13565,19.72013 -5.9726,15.56424 -8.2617,14.82567 -195.35034,-63.02803 C 547.778,501.56808 463.50965,464.92209 459.7657,461.43406 c -6.11565,-5.6976 -6.31241,-7.0804 -1.93653,-13.61199 5.17994,-7.73186 18.96,-9.28202 36.8429,-4.1446 l 9.27434,2.66441 v -45.93952 -45.93948 l -10.96059,4.65414 c -41.10162,17.45277 -274.54205,121.7571 -276.73458,123.64871 -1.49575,1.29053 95.63187,41.46955 215.83941,89.28664 120.20747,47.81705 238.28815,94.94386 262.40146,104.7262 24.11331,9.78237 45.8221,17.92339 48.24181,18.09122 2.41956,0.16669 80.95652,-38.51833 174.52637,-85.96926 z M 779.68169,409.6187 778.80454,255.58963 664.13984,209.00074 C 601.07429,183.37687 546.8038,161.52551 543.53877,160.44215 c -5.61693,-1.86357 -5.88915,6.24108 -5.05871,150.62131 l 0.87752,152.59099 116.35095,49.70373 c 63.99299,27.33705 118.26326,49.83556 120.60055,49.99666 3.3719,0.23336 4.06847,-31.51716 3.37264,-153.73614 z"
   id="path54" /><path
   style="fill:#008fb4;stroke-width:95.1786"
   d="m 655.70864,292.32567 c -43.58945,-19.27434 -82.66819,-37.51084 -86.84163,-40.52558 -12.64799,-9.13637 -7.93411,-25.3182 7.41948,-25.46952 11.22714,-0.11112 177.27571,74.80231 180.92739,81.62553 4.95854,9.26516 -2.00285,19.63887 -13.09605,19.51559 -5.03563,-0.0556 -44.81975,-15.87169 -88.40919,-35.14602 z"
   id="path56" /><path
   style="fill:#008fb4;stroke-width:95.1786"
   d="m 649.74419,377.5874 c -71.52772,-31.50483 -85.53932,-38.81511 -87.21824,-45.50443 -2.44808,-9.75374 3.80518,-17.99951 13.65004,-17.99951 4.02943,0 39.12826,14.20548 77.99745,31.56776 96.56229,43.13284 101.90285,45.77698 104.11772,51.54878 3.2793,8.54544 -4.21997,18.06411 -14.17333,17.99021 -5.03563,-0.037 -47.50375,-16.95868 -94.37364,-37.60281 z"
   id="path58" /><path
   style="fill:#008fb4;stroke-width:95.1786"
   d="m 716.41345,488.03453 c -81.764,-34.72826 -150.06365,-66.48871 -152.55503,-70.94056 -1.64502,-2.93926 -2.03841,-8.34545 -0.87419,-12.01347 4.40241,-13.87077 15.77531,-11.60108 76.41174,15.2495 123.9513,54.88719 124.8286,55.40578 117.35663,69.3673 -4.63469,8.65997 -17.26064,8.13953 -40.33915,-1.6628 z"
   id="path60" /></svg>
