<?xml version="1.0" encoding="UTF-8" standalone="no"?>
<svg
   xmlns:ooo="http://xml.openoffice.org/svg/export"
   xmlns:dc="http://purl.org/dc/elements/1.1/"
   xmlns:cc="http://creativecommons.org/ns#"
   xmlns:rdf="http://www.w3.org/1999/02/22-rdf-syntax-ns#"
   xmlns:svg="http://www.w3.org/2000/svg"
   xmlns="http://www.w3.org/2000/svg"
   xmlns:sodipodi="http://sodipodi.sourceforge.net/DTD/sodipodi-0.dtd"
   xmlns:inkscape="http://www.inkscape.org/namespaces/inkscape"
   version="1.2"
   width="12.96mm"
   height="12.96mm"
   viewBox="0 0 1296 1296"
   preserveAspectRatio="xMidYMid"
   fill-rule="evenodd"
   stroke-width="28.222"
   stroke-linejoin="round"
   xml:space="preserve"
   id="svg70"
   sodipodi:docname="icon.svg"
   inkscape:version="1.0.1 (3bc2e813f5, 2020-09-07)"
   inkscape:export-filename="C:\Users\Formacion\Desktop\iconos Adaptable\Gris oscuro\pix_plugins\mod\peerwork\icon.png"
   inkscape:export-xdpi="94.07"
   inkscape:export-ydpi="94.07"><metadata
   id="metadata74"><rdf:RDF><cc:Work
       rdf:about=""><dc:format>image/svg+xml</dc:format><dc:type
         rdf:resource="http://purl.org/dc/dcmitype/StillImage" /></cc:Work></rdf:RDF></metadata><sodipodi:namedview
   pagecolor="#ffffff"
   bordercolor="#666666"
   borderopacity="1"
   objecttolerance="10"
   gridtolerance="10"
   guidetolerance="10"
   inkscape:pageopacity="0"
   inkscape:pageshadow="2"
   inkscape:window-width="1366"
   inkscape:window-height="705"
   id="namedview72"
   showgrid="false"
   inkscape:zoom="10.983475"
   inkscape:cx="24.491339"
   inkscape:cy="24.491339"
   inkscape:window-x="-8"
   inkscape:window-y="-8"
   inkscape:window-maximized="1"
   inkscape:current-layer="svg70"
   inkscape:document-rotation="0" />
 <defs
   class="ClipPathGroup"
   id="defs8">
  <clipPath
   id="presentation_clip_path"
   clipPathUnits="userSpaceOnUse">
   <rect
   x="0"
   y="0"
   width="1296"
   height="1296"
   id="rect2" />
  </clipPath>
  <clipPath
   id="presentation_clip_path_shrink"
   clipPathUnits="userSpaceOnUse">
   <rect
   x="1"
   y="1"
   width="1294"
   height="1294"
   id="rect5" />
  </clipPath>
 </defs>
 <defs
   class="TextShapeIndex"
   id="defs12">
  <g
   ooo:slide="id1"
   ooo:id-list="id3"
   id="g10" />
 </defs>
 <defs
   class="EmbeddedBulletChars"
   id="defs44">
  <g
   id="bullet-char-template-57356"
   transform="scale(0.00048828125,-0.00048828125)">
   <path
   d="M 580,1141 L 1163,571 580,0 -4,571 580,1141 Z"
   id="path14" />
  </g>
  <g
   id="bullet-char-template-57354"
   transform="scale(0.00048828125,-0.00048828125)">
   <path
   d="M 8,1128 L 1137,1128 1137,0 8,0 8,1128 Z"
   id="path17" />
  </g>
  <g
   id="bullet-char-template-10146"
   transform="scale(0.00048828125,-0.00048828125)">
   <path
   d="M 174,0 L 602,739 174,1481 1456,739 174,0 Z M 1358,739 L 309,1346 659,739 1358,739 Z"
   id="path20" />
  </g>
  <g
   id="bullet-char-template-10132"
   transform="scale(0.00048828125,-0.00048828125)">
   <path
   d="M 2015,739 L 1276,0 717,0 1260,543 174,543 174,936 1260,936 717,1481 1274,1481 2015,739 Z"
   id="path23" />
  </g>
  <g
   id="bullet-char-template-10007"
   transform="scale(0.00048828125,-0.00048828125)">
   <path
   d="M 0,-2 C -7,14 -16,27 -25,37 L 356,567 C 262,823 215,952 215,954 215,979 228,992 255,992 264,992 276,990 289,987 310,991 331,999 354,1012 L 381,999 492,748 772,1049 836,1024 860,1049 C 881,1039 901,1025 922,1006 886,937 835,863 770,784 769,783 710,716 594,584 L 774,223 C 774,196 753,168 711,139 L 727,119 C 717,90 699,76 672,76 641,76 570,178 457,381 L 164,-76 C 142,-110 111,-127 72,-127 30,-127 9,-110 8,-76 1,-67 -2,-52 -2,-32 -2,-23 -1,-13 0,-2 Z"
   id="path26" />
  </g>
  <g
   id="bullet-char-template-10004"
   transform="scale(0.00048828125,-0.00048828125)">
   <path
   d="M 285,-33 C 182,-33 111,30 74,156 52,228 41,333 41,471 41,549 55,616 82,672 116,743 169,778 240,778 293,778 328,747 346,684 L 369,508 C 377,444 397,411 428,410 L 1163,1116 C 1174,1127 1196,1133 1229,1133 1271,1133 1292,1118 1292,1087 L 1292,965 C 1292,929 1282,901 1262,881 L 442,47 C 390,-6 338,-33 285,-33 Z"
   id="path29" />
  </g>
  <g
   id="bullet-char-template-9679"
   transform="scale(0.00048828125,-0.00048828125)">
   <path
   d="M 813,0 C 632,0 489,54 383,161 276,268 223,411 223,592 223,773 276,916 383,1023 489,1130 632,1184 813,1184 992,1184 1136,1130 1245,1023 1353,916 1407,772 1407,592 1407,412 1353,268 1245,161 1136,54 992,0 813,0 Z"
   id="path32" />
  </g>
  <g
   id="bullet-char-template-8226"
   transform="scale(0.00048828125,-0.00048828125)">
   <path
   d="M 346,457 C 273,457 209,483 155,535 101,586 74,649 74,723 74,796 101,859 155,911 209,963 273,989 346,989 419,989 480,963 531,910 582,859 608,796 608,723 608,648 583,586 532,535 482,483 420,457 346,457 Z"
   id="path35" />
  </g>
  <g
   id="bullet-char-template-8211"
   transform="scale(0.00048828125,-0.00048828125)">
   <path
   d="M -4,459 L 1135,459 1135,606 -4,606 -4,459 Z"
   id="path38" />
  </g>
  <g
   id="bullet-char-template-61548"
   transform="scale(0.00048828125,-0.00048828125)">
   <path
   d="M 173,740 C 173,903 231,1043 346,1159 462,1274 601,1332 765,1332 928,1332 1067,1274 1183,1159 1299,1043 1357,903 1357,740 1357,577 1299,437 1183,322 1067,206 928,148 765,148 601,148 462,206 346,322 231,437 173,577 173,740 Z"
   id="path41" />
  </g>
 </defs>
 <defs
   class="TextEmbeddedBitmaps"
   id="defs46" />
 <g
   id="g51">
  <g
   id="id2"
   class="Master_Slide">
   <g
   id="bg-id2"
   class="Background" />
   <g
   id="bo-id2"
   class="BackgroundObjects" />
  </g>
 </g>
 
<path
   style="fill:#008fb4;stroke-width:95.1786"
   d="m 471.26483,1112.5592 c 9.88875,-64.1125 43.77606,-115.01546 93.8531,-140.97915 l 21.68411,-11.24271 -17.95846,-16.41305 c -10.26169,-9.37858 -21.8018,-24.26847 -26.92585,-34.74156 -16.62671,-33.9838 -14.52207,-79.31454 5.12053,-110.28767 l 9.36899,-14.77337 -6.35213,-17.0282 c -8.11283,-21.74827 -26.01888,-40.13294 -49.83123,-51.1631 -24.57029,-11.38127 -79.98959,-14.36075 -109.19476,-5.87058 -39.69759,11.5404 -66.71567,45.94155 -71.55227,91.10487 l -2.37771,22.20347 H 252.3644 c -60.3677,0 -65.22993,-0.46117 -72.07486,-6.83833 -4.03702,-3.76107 -8.16313,-10.21095 -9.16915,-14.33309 -1.00605,-4.12207 -1.40388,-145.3532 -0.88381,-313.84689 l 0.9453,-306.3521 7.9617,-6.4464 c 7.75175,-6.27634 20.08336,-6.44636 467.55947,-6.44636 447.47265,0 459.80775,0.17039 467.55945,6.44625 l 7.9617,6.44621 0.9116,312.33911 0.9116,312.33911 -8.3462,8.34627 c -7.1365,7.13648 -11.4663,8.34622 -29.8719,8.34622 h -21.5257 l -0.035,29.50928 c -0.048,40.44517 -8.7149,62.45499 -34.9092,88.6493 l -19.5821,19.58204 18.2822,8.9446 c 51.124,25.01265 95.851,91.28263 95.851,142.01793 v 14.821 h -26.7526 c -29.3886,0 -27.7754,1.2561 -32.2475,-25.1074 -5.6115,-33.0797 -32.4506,-66.9203 -65.28306,-82.3133 -16.67309,-7.8169 -23.25206,-8.9212 -52.7726,-8.858 -28.38162,0.059 -36.24497,1.3135 -49.63076,7.9061 -35.86544,17.6646 -64.83291,56.0295 -69.02396,91.4164 l -2.0084,16.9562 h -27.89996 -27.89997 l -2.38549,-14.3331 c -6.81848,-40.9688 -30.27533,-73.9694 -65.6572,-92.371 -16.96645,-8.8239 -21.56936,-9.6468 -53.95986,-9.6468 -32.2228,0 -37.01625,0.8457 -53.2378,9.3925 -9.80467,5.1659 -23.61639,14.6232 -30.69268,21.0162 -16.74313,15.1264 -33.8762,47.588 -36.41048,68.986 l -2.00803,16.9562 h -28.49286 -28.49282 z m 338.68458,-95.4262 c 9.93739,-14.5911 36.9804,-36.5359 58.49454,-47.46704 14.15784,-7.19353 20.98691,-14.77067 13.3124,-14.77067 -5.81421,0 -32.18306,-29.53991 -40.64115,-45.52861 -7.96781,-15.06185 -8.9206,-20.55372 -8.92293,-51.4305 l -0.003,-34.56803 -33.72491,-4e-4 -33.72492,-4.5e-4 v 32.88222 c 0,29.17094 -1.06347,35.04805 -9.42355,52.07199 -5.56373,11.32979 -16.83585,25.96417 -27.5204,35.72928 l -18.09682,16.53948 14.03042,6.84781 c 20.04602,9.78378 53.057,35.83332 62.93157,49.66032 4.63717,6.4933 9.94883,11.8374 11.8037,11.8758 1.85467,0.037 7.02298,-5.2902 11.48465,-11.8412 z M 678.0886,911.98523 c 6.13299,-2.88962 15.23872,-10.6134 20.23494,-17.1637 7.90776,-10.36763 9.08398,-15.03451 9.08398,-36.04221 0,-21.23828 -1.1331,-25.6182 -9.4487,-36.52034 -16.09327,-21.09942 -40.60822,-29.02452 -66.50645,-21.5001 -13.57278,3.94342 -14.99229,5.31037 -14.01761,13.49854 0.96938,8.14261 -0.007,9.11073 -9.18774,9.11073 -12.97288,0 -20.56294,13.13205 -20.56294,35.57712 0,46.99268 45.98238,73.97035 90.40452,53.03996 z m 285.62821,5.41112 c 38.52259,-10.66989 55.91949,-48.90078 39.10259,-85.93059 -15.82627,-34.84843 -64.68582,-44.68007 -95.05395,-19.12695 -13.87666,11.67642 -19.92967,26.62126 -19.92967,49.20593 0,32.08671 23.6548,55.83894 59.01856,59.26163 1.85467,0.1778 9.44299,-1.35499 16.86247,-3.41002 z M 270.66998,761.43019 c 0,-12.24723 24.96482,-53.32592 41.45285,-68.20912 17.32676,-15.64028 59.10368,-38.47743 70.38828,-38.47743 11.4808,0 9.29182,-6.26623 -5.14442,-14.72644 -19.02372,-11.14865 -34.67834,-29.17583 -45.65089,-52.56949 -7.29306,-15.54906 -8.77221,-23.53617 -8.77221,-47.36877 0,-24.10717 1.45018,-31.7609 9.11851,-48.12517 27.52918,-58.74741 97.27252,-84.78444 154.44726,-57.6592 26.34515,12.49882 47.6574,33.33572 59.86241,58.5272 12.15093,25.0798 12.90191,67.40368 1.63613,92.21078 -10.38393,22.86538 -25.38399,40.70057 -44.82612,53.29866 -9.16985,5.94186 -16.67249,11.75066 -16.67249,12.90843 0,1.15792 7.17575,4.02425 15.9461,6.36995 35.59608,9.52052 76.54538,43.15813 92.48886,75.97468 6.7448,13.88288 8.33678,15.16256 16.1309,12.96665 4.75615,-1.34016 23.06492,-2.43623 40.6862,-2.43623 29.93052,0 33.31127,0.7212 51.37938,10.9606 l 19.34071,10.96059 h 74.61866 74.61866 l 24.71528,-12.21497 c 24.06404,-11.89308 25.54656,-12.1786 56.25792,-10.83543 27.89593,1.22015 33.76218,2.63218 50.74194,12.21501 16.1695,9.12554 22.6665,10.83539 41.1715,10.83539 h 21.9723 V 496.23664 226.43741 H 646.7026 226.82754 v 269.79923 269.79924 h 21.92118 c 16.27863,0 21.92119,-1.18534 21.92119,-4.60562 z m 193.1834,-165.2898 c 31.22754,-13.36138 44.45074,-49.45733 29.80321,-81.35513 -25.69114,-55.94737 -109.27495,-41.13163 -114.36703,20.27227 -3.89838,47.00913 41.24522,79.61765 84.56382,61.08286 z"
   id="path54" /></svg>
