<?xml version="1.0" encoding="UTF-8" standalone="no"?>
<svg
   xmlns:ooo="http://xml.openoffice.org/svg/export"
   xmlns:dc="http://purl.org/dc/elements/1.1/"
   xmlns:cc="http://creativecommons.org/ns#"
   xmlns:rdf="http://www.w3.org/1999/02/22-rdf-syntax-ns#"
   xmlns:svg="http://www.w3.org/2000/svg"
   xmlns="http://www.w3.org/2000/svg"
   xmlns:sodipodi="http://sodipodi.sourceforge.net/DTD/sodipodi-0.dtd"
   xmlns:inkscape="http://www.inkscape.org/namespaces/inkscape"
   version="1.2"
   width="12.96mm"
   height="12.96mm"
   viewBox="0 0 1296 1296"
   preserveAspectRatio="xMidYMid"
   fill-rule="evenodd"
   stroke-width="28.222"
   stroke-linejoin="round"
   xml:space="preserve"
   id="svg72"
   sodipodi:docname="icon.svg"
   inkscape:version="1.0.1 (3bc2e813f5, 2020-09-07)"
   inkscape:export-filename="C:\Users\Formacion\Desktop\iconos Adaptable\Gris oscuro\pix_plugins\mod\assign\icon.png"
   inkscape:export-xdpi="501.72839"
   inkscape:export-ydpi="501.72839"><metadata
   id="metadata76"><rdf:RDF><cc:Work
       rdf:about=""><dc:format>image/svg+xml</dc:format><dc:type
         rdf:resource="http://purl.org/dc/dcmitype/StillImage" /><dc:title /></cc:Work></rdf:RDF></metadata><sodipodi:namedview
   pagecolor="#ffffff"
   bordercolor="#666666"
   borderopacity="1"
   objecttolerance="10"
   gridtolerance="10"
   guidetolerance="10"
   inkscape:pageopacity="0"
   inkscape:pageshadow="2"
   inkscape:window-width="1366"
   inkscape:window-height="705"
   id="namedview74"
   showgrid="false"
   inkscape:zoom="5.4917375"
   inkscape:cx="24.491339"
   inkscape:cy="24.491339"
   inkscape:window-x="-8"
   inkscape:window-y="-8"
   inkscape:window-maximized="1"
   inkscape:current-layer="svg72"
   inkscape:document-rotation="0" />
 <defs
   class="ClipPathGroup"
   id="defs8">
  <clipPath
   id="presentation_clip_path"
   clipPathUnits="userSpaceOnUse">
   <rect
   x="0"
   y="0"
   width="1296"
   height="1296"
   id="rect2" />
  </clipPath>
  <clipPath
   id="presentation_clip_path_shrink"
   clipPathUnits="userSpaceOnUse">
   <rect
   x="1"
   y="1"
   width="1294"
   height="1294"
   id="rect5" />
  </clipPath>
 </defs>
 <defs
   class="TextShapeIndex"
   id="defs12">
  <g
   ooo:slide="id1"
   ooo:id-list="id3"
   id="g10" />
 </defs>
 <defs
   class="EmbeddedBulletChars"
   id="defs44">
  <g
   id="bullet-char-template-57356"
   transform="scale(0.00048828125,-0.00048828125)">
   <path
   d="M 580,1141 L 1163,571 580,0 -4,571 580,1141 Z"
   id="path14" />
  </g>
  <g
   id="bullet-char-template-57354"
   transform="scale(0.00048828125,-0.00048828125)">
   <path
   d="M 8,1128 L 1137,1128 1137,0 8,0 8,1128 Z"
   id="path17" />
  </g>
  <g
   id="bullet-char-template-10146"
   transform="scale(0.00048828125,-0.00048828125)">
   <path
   d="M 174,0 L 602,739 174,1481 1456,739 174,0 Z M 1358,739 L 309,1346 659,739 1358,739 Z"
   id="path20" />
  </g>
  <g
   id="bullet-char-template-10132"
   transform="scale(0.00048828125,-0.00048828125)">
   <path
   d="M 2015,739 L 1276,0 717,0 1260,543 174,543 174,936 1260,936 717,1481 1274,1481 2015,739 Z"
   id="path23" />
  </g>
  <g
   id="bullet-char-template-10007"
   transform="scale(0.00048828125,-0.00048828125)">
   <path
   d="M 0,-2 C -7,14 -16,27 -25,37 L 356,567 C 262,823 215,952 215,954 215,979 228,992 255,992 264,992 276,990 289,987 310,991 331,999 354,1012 L 381,999 492,748 772,1049 836,1024 860,1049 C 881,1039 901,1025 922,1006 886,937 835,863 770,784 769,783 710,716 594,584 L 774,223 C 774,196 753,168 711,139 L 727,119 C 717,90 699,76 672,76 641,76 570,178 457,381 L 164,-76 C 142,-110 111,-127 72,-127 30,-127 9,-110 8,-76 1,-67 -2,-52 -2,-32 -2,-23 -1,-13 0,-2 Z"
   id="path26" />
  </g>
  <g
   id="bullet-char-template-10004"
   transform="scale(0.00048828125,-0.00048828125)">
   <path
   d="M 285,-33 C 182,-33 111,30 74,156 52,228 41,333 41,471 41,549 55,616 82,672 116,743 169,778 240,778 293,778 328,747 346,684 L 369,508 C 377,444 397,411 428,410 L 1163,1116 C 1174,1127 1196,1133 1229,1133 1271,1133 1292,1118 1292,1087 L 1292,965 C 1292,929 1282,901 1262,881 L 442,47 C 390,-6 338,-33 285,-33 Z"
   id="path29" />
  </g>
  <g
   id="bullet-char-template-9679"
   transform="scale(0.00048828125,-0.00048828125)">
   <path
   d="M 813,0 C 632,0 489,54 383,161 276,268 223,411 223,592 223,773 276,916 383,1023 489,1130 632,1184 813,1184 992,1184 1136,1130 1245,1023 1353,916 1407,772 1407,592 1407,412 1353,268 1245,161 1136,54 992,0 813,0 Z"
   id="path32" />
  </g>
  <g
   id="bullet-char-template-8226"
   transform="scale(0.00048828125,-0.00048828125)">
   <path
   d="M 346,457 C 273,457 209,483 155,535 101,586 74,649 74,723 74,796 101,859 155,911 209,963 273,989 346,989 419,989 480,963 531,910 582,859 608,796 608,723 608,648 583,586 532,535 482,483 420,457 346,457 Z"
   id="path35" />
  </g>
  <g
   id="bullet-char-template-8211"
   transform="scale(0.00048828125,-0.00048828125)">
   <path
   d="M -4,459 L 1135,459 1135,606 -4,606 -4,459 Z"
   id="path38" />
  </g>
  <g
   id="bullet-char-template-61548"
   transform="scale(0.00048828125,-0.00048828125)">
   <path
   d="M 173,740 C 173,903 231,1043 346,1159 462,1274 601,1332 765,1332 928,1332 1067,1274 1183,1159 1299,1043 1357,903 1357,740 1357,577 1299,437 1183,322 1067,206 928,148 765,148 601,148 462,206 346,322 231,437 173,577 173,740 Z"
   id="path41" />
  </g>
 </defs>
 <defs
   class="TextEmbeddedBitmaps"
   id="defs46" />
 <g
   id="g51">
  <g
   id="id2"
   class="Master_Slide">
   <g
   id="bg-id2"
   class="Background" />
   <g
   id="bo-id2"
   class="BackgroundObjects" />
  </g>
 </g>
 
<path
   style="fill:#008080;fill-opacity:1;stroke-width:95.1786"
   d="m 782.34613,1185.4907 c -71.98822,-17.6935 -143.92291,-68.8586 -181.15434,-128.8499 l -11.8037,-19.0195 -186.4976,-0.1629 c -202.28632,-0.1778 -200.64471,-0.03 -209.11347,-18.6167 -3.05594,-6.7071 -4.02906,-111.88654 -4.02906,-435.47172 0,-466.97899 -1.0505,-442.44977 19.27693,-450.17822 5.56221,-2.11471 86.41639,-3.22633 218.20723,-2.99963 l 209.37083,0.3593 120.56655,120.27548 120.56655,120.27551 v 108.67291 108.67292 l 12.64684,2.03173 c 107.56985,17.2799 187.02841,74.46146 234.46441,168.73009 24.8177,49.31964 33.6335,99.55826 28.6155,163.07175 -9.8586,124.78138 -111.9881,239.40268 -235.95782,264.81868 -36.51474,7.4862 -101.28532,6.7138 -135.15885,-1.6117 z m 138.77923,-47.5291 c 40.26396,-9.7473 95.25154,-42.5814 121.83434,-72.7495 75.9732,-86.22012 80.1141,-211.61353 10.08,-305.23331 -28.0953,-37.55698 -83.18403,-73.44117 -131.46128,-85.63244 -29.34059,-7.40926 -85.80958,-7.25694 -114.6647,0.30745 -64.85296,17.00531 -123.4365,64.26236 -152.72205,123.1948 -20.65517,41.56523 -26.03166,63.8795 -25.9701,107.78514 0.0593,42.8748 6.16325,70.89804 22.772,104.56026 27.99657,56.7427 76.23882,99.3008 137.37146,121.1857 38.10017,13.6394 92.46819,16.3341 132.76033,6.58 z M 569.55524,967.31808 c -1.13866,-5.1009 -3.01038,-25.20938 -4.15941,-44.68551 -8.73839,-148.12818 93.63841,-280.94745 240.67478,-312.24125 l 27.82304,-5.92155 V 517.35936 430.24892 H 725.71453 617.53539 l -9.85801,-9.85805 -9.85805,-9.85804 V 304.03996 197.5471 H 427.50853 257.19776 V 587.06974 976.59242 H 414.41174 571.62568 Z M 786.67878,365.29432 c 0,-0.48265 -28.07599,-28.92254 -62.39105,-63.20004 l -62.3911,-62.32268 v 63.20001 63.20001 h 62.3911 c 34.31506,0 62.39105,-0.39487 62.39105,-0.87715 z"
   id="path53" /><path
   style="fill:#008fb4;fill-opacity:1;stroke-width:95.1786"
   d="m 756.69885,972.74642 -62.0186,-60.91383 22.38109,-22.38106 22.38106,-22.38109 40.49461,40.38912 40.49466,40.38912 85.20246,-85.15331 85.20243,-85.15331 21.80124,21.99675 21.8012,21.99675 -106.15445,106.19461 c -58.38496,58.407 -106.92232,106.13503 -107.86077,106.06233 -0.93864,-0.074 -29.6147,-27.5435 -63.72493,-61.04608 z"
   id="path55" /><path
   style="fill:#008fb4;fill-opacity:1;stroke-width:95.1786"
   d="m 758.07536,971.32824 -60.64214,-58.87113 21.00585,-21.00585 21.00585,-21.00585 40.49335,40.3879 40.4934,40.38787 85.20657,-85.15742 85.20658,-85.15746 20.10658,20.31861 20.1066,20.31858 -104.46366,104.50439 c -57.45499,57.47741 -105.23159,104.42502 -106.17023,104.32792 -0.93863,-0.096 -28.99562,-26.6684 -62.34875,-59.04756 z"
   id="path880" /><path
   style="fill:#008fb4;fill-opacity:1;stroke-width:95.1786"
   d="m 784.33679,1183.9825 c -24.45328,-5.3149 -70.07043,-25.9999 -97.52145,-44.2209 -28.93328,-19.2048 -57.52471,-47.1243 -77.6057,-75.782 l -17.94491,-25.6093 -184.73905,-2.1336 c -101.60647,-1.1735 -189.29191,-3.4101 -194.85654,-4.9701 -19.94275,-5.5915 -19.01389,15.5016 -19.15772,-435.03623 -0.0741,-227.62282 0.97901,-422.67268 2.33733,-433.44413 1.89357,-15.01755 4.26023,-20.75782 10.14878,-24.61615 6.60242,-4.32603 37.38056,-5.02956 219.47443,-5.01667 l 211.79514,0.015 120.73446,120.69957 120.73449,120.69953 0.0101,107.93727 0.0101,107.93726 31.18423,6.04554 c 56.32678,10.9198 106.54572,36.76978 148.43052,76.40406 43.1898,40.86911 75.7052,96.02356 88.9838,150.93975 8.1192,33.57824 7.2735,105.84171 -1.6335,139.58582 -28.2487,107.01908 -119.2965,197.28908 -222.12467,220.22728 -29.98597,6.689 -108.16215,6.8801 -138.2621,0.3371 z m 131.75002,-43.7926 c 48.37238,-10.2484 110.22629,-48.8597 138.47789,-86.4425 56.8337,-75.60553 64.8059,-171.10724 21.6432,-259.26948 -33.294,-68.00472 -111.41719,-120.00726 -190.04065,-126.49999 -74.9384,-6.18848 -141.15993,19.14717 -193.17684,73.90746 -27.04935,28.47592 -43.68565,56.33263 -56.46061,94.54051 -8.39268,25.10133 -8.86974,29.83614 -7.64529,75.88104 1.06457,40.03182 2.71997,53.1612 8.95589,71.03047 39.78183,113.99629 160.17965,181.86669 278.24641,156.85249 z M 570.0323,957.20059 c -5.01181,-30.77085 -1.02235,-103.09455 7.20183,-130.5628 32.10942,-107.24221 117.29228,-188.25538 223.5899,-212.64513 13.5511,-3.10928 26.53543,-6.21785 28.85402,-6.9079 3.23225,-0.96197 4.2156,-21.73023 4.2156,-89.04524 v -87.7906 H 726.97765 620.06159 L 608.94046,419.46991 597.81933,408.69086 V 303.11896 197.5471 H 427.50853 257.19776 V 587.06974 976.59242 H 415.19428 573.19081 Z M 786.67878,363.60807 c 0,-1.4098 -28.07599,-30.60878 -62.39105,-64.88625 l -62.3911,-62.32272 v 64.88626 64.88626 h 62.3911 c 34.31506,0 62.39105,-1.15348 62.39105,-2.56366 z"
   id="path884" /></svg>
