<?xml version="1.0" encoding="UTF-8" standalone="no"?>
<svg
   xmlns:ooo="http://xml.openoffice.org/svg/export"
   xmlns:dc="http://purl.org/dc/elements/1.1/"
   xmlns:cc="http://creativecommons.org/ns#"
   xmlns:rdf="http://www.w3.org/1999/02/22-rdf-syntax-ns#"
   xmlns:svg="http://www.w3.org/2000/svg"
   xmlns="http://www.w3.org/2000/svg"
   xmlns:sodipodi="http://sodipodi.sourceforge.net/DTD/sodipodi-0.dtd"
   xmlns:inkscape="http://www.inkscape.org/namespaces/inkscape"
   version="1.2"
   width="12.7mm"
   height="12.7mm"
   viewBox="0 0 1270 1270"
   preserveAspectRatio="xMidYMid"
   fill-rule="evenodd"
   stroke-width="28.222"
   stroke-linejoin="round"
   xml:space="preserve"
   id="svg79"
   sodipodi:docname="icon.svg"
   inkscape:export-filename="C:\Users\Formacion\Desktop\iconos Adaptable\Gris oscuro\pix_plugins\mod\scheduler\icon.png"
   inkscape:export-xdpi="96"
   inkscape:export-ydpi="96"
   inkscape:version="1.0.1 (3bc2e813f5, 2020-09-07)"><metadata
   id="metadata83"><rdf:RDF><cc:Work
       rdf:about=""><dc:format>image/svg+xml</dc:format><dc:type
         rdf:resource="http://purl.org/dc/dcmitype/StillImage" /></cc:Work></rdf:RDF></metadata><sodipodi:namedview
   pagecolor="#ffffff"
   bordercolor="#666666"
   borderopacity="1"
   objecttolerance="10"
   gridtolerance="10"
   guidetolerance="10"
   inkscape:pageopacity="0"
   inkscape:pageshadow="2"
   inkscape:window-width="1366"
   inkscape:window-height="705"
   id="namedview81"
   showgrid="false"
   inkscape:zoom="11.208334"
   inkscape:cx="24"
   inkscape:cy="24"
   inkscape:window-x="-8"
   inkscape:window-y="-8"
   inkscape:window-maximized="1"
   inkscape:current-layer="svg79"
   inkscape:document-rotation="0" />
 <defs
   class="ClipPathGroup"
   id="defs8">
  <clipPath
   id="presentation_clip_path"
   clipPathUnits="userSpaceOnUse">
   <rect
   x="0"
   y="0"
   width="1270"
   height="1270"
   id="rect2" />
  </clipPath>
  <clipPath
   id="presentation_clip_path_shrink"
   clipPathUnits="userSpaceOnUse">
   <rect
   x="1"
   y="1"
   width="1268"
   height="1268"
   id="rect5" />
  </clipPath>
 </defs>
 <defs
   class="TextShapeIndex"
   id="defs12">
  <g
   ooo:slide="id1"
   ooo:id-list="id3"
   id="g10" />
 </defs>
 <defs
   class="EmbeddedBulletChars"
   id="defs44">
  <g
   id="bullet-char-template-57356"
   transform="scale(0.00048828125,-0.00048828125)">
   <path
   d="M 580,1141 L 1163,571 580,0 -4,571 580,1141 Z"
   id="path14" />
  </g>
  <g
   id="bullet-char-template-57354"
   transform="scale(0.00048828125,-0.00048828125)">
   <path
   d="M 8,1128 L 1137,1128 1137,0 8,0 8,1128 Z"
   id="path17" />
  </g>
  <g
   id="bullet-char-template-10146"
   transform="scale(0.00048828125,-0.00048828125)">
   <path
   d="M 174,0 L 602,739 174,1481 1456,739 174,0 Z M 1358,739 L 309,1346 659,739 1358,739 Z"
   id="path20" />
  </g>
  <g
   id="bullet-char-template-10132"
   transform="scale(0.00048828125,-0.00048828125)">
   <path
   d="M 2015,739 L 1276,0 717,0 1260,543 174,543 174,936 1260,936 717,1481 1274,1481 2015,739 Z"
   id="path23" />
  </g>
  <g
   id="bullet-char-template-10007"
   transform="scale(0.00048828125,-0.00048828125)">
   <path
   d="M 0,-2 C -7,14 -16,27 -25,37 L 356,567 C 262,823 215,952 215,954 215,979 228,992 255,992 264,992 276,990 289,987 310,991 331,999 354,1012 L 381,999 492,748 772,1049 836,1024 860,1049 C 881,1039 901,1025 922,1006 886,937 835,863 770,784 769,783 710,716 594,584 L 774,223 C 774,196 753,168 711,139 L 727,119 C 717,90 699,76 672,76 641,76 570,178 457,381 L 164,-76 C 142,-110 111,-127 72,-127 30,-127 9,-110 8,-76 1,-67 -2,-52 -2,-32 -2,-23 -1,-13 0,-2 Z"
   id="path26" />
  </g>
  <g
   id="bullet-char-template-10004"
   transform="scale(0.00048828125,-0.00048828125)">
   <path
   d="M 285,-33 C 182,-33 111,30 74,156 52,228 41,333 41,471 41,549 55,616 82,672 116,743 169,778 240,778 293,778 328,747 346,684 L 369,508 C 377,444 397,411 428,410 L 1163,1116 C 1174,1127 1196,1133 1229,1133 1271,1133 1292,1118 1292,1087 L 1292,965 C 1292,929 1282,901 1262,881 L 442,47 C 390,-6 338,-33 285,-33 Z"
   id="path29" />
  </g>
  <g
   id="bullet-char-template-9679"
   transform="scale(0.00048828125,-0.00048828125)">
   <path
   d="M 813,0 C 632,0 489,54 383,161 276,268 223,411 223,592 223,773 276,916 383,1023 489,1130 632,1184 813,1184 992,1184 1136,1130 1245,1023 1353,916 1407,772 1407,592 1407,412 1353,268 1245,161 1136,54 992,0 813,0 Z"
   id="path32" />
  </g>
  <g
   id="bullet-char-template-8226"
   transform="scale(0.00048828125,-0.00048828125)">
   <path
   d="M 346,457 C 273,457 209,483 155,535 101,586 74,649 74,723 74,796 101,859 155,911 209,963 273,989 346,989 419,989 480,963 531,910 582,859 608,796 608,723 608,648 583,586 532,535 482,483 420,457 346,457 Z"
   id="path35" />
  </g>
  <g
   id="bullet-char-template-8211"
   transform="scale(0.00048828125,-0.00048828125)">
   <path
   d="M -4,459 L 1135,459 1135,606 -4,606 -4,459 Z"
   id="path38" />
  </g>
  <g
   id="bullet-char-template-61548"
   transform="scale(0.00048828125,-0.00048828125)">
   <path
   d="M 173,740 C 173,903 231,1043 346,1159 462,1274 601,1332 765,1332 928,1332 1067,1274 1183,1159 1299,1043 1357,903 1357,740 1357,577 1299,437 1183,322 1067,206 928,148 765,148 601,148 462,206 346,322 231,437 173,577 173,740 Z"
   id="path41" />
  </g>
 </defs>
 <defs
   class="TextEmbeddedBitmaps"
   id="defs46" />
 <g
   id="g51">
  <g
   id="id2"
   class="Master_Slide">
   <g
   id="bg-id2"
   class="Background" />
   <g
   id="bo-id2"
   class="BackgroundObjects" />
  </g>
 </g>
 
<path
   style="fill:#008fb4;stroke-width:93.2691"
   d="m 444.96965,878.3162 c -23.67022,-5.93644 -41.31842,-14.09968 -41.26023,-19.08501 0.0276,-2.36474 2.08508,-10.99197 4.57187,-19.17143 4.92784,-16.20747 5.83488,-16.47484 28.15996,-8.29982 20.33391,7.44593 51.98298,9.81464 69.10716,5.17217 7.87109,-2.13397 19.62582,-8.75039 26.12159,-14.70332 10.16976,-9.31991 12.01025,-13.30952 13.24814,-28.71841 1.18756,-14.78403 0.0889,-19.90563 -6.31927,-29.46175 -11.00826,-16.4152 -31.2655,-25.58935 -62.52422,-28.3161 l -26.14775,-2.28102 v -17.74985 -17.74985 l 22.3076,-0.0324 c 43.25433,-0.063 70.98354,-21.90148 65.42566,-51.52766 -2.49957,-13.3246 -17.66239,-26.71097 -33.65339,-29.7109 -16.81666,-3.15484 -48.96879,0.8464 -65.47629,8.14865 l -14.08573,6.23085 -5.79576,-18.3863 c -5.55543,-17.62394 -5.54921,-18.56658 0.15187,-22.73414 27.11706,-19.82847 93.8068,-25.98743 125.3154,-11.57318 45.81954,20.96113 60.57924,60.62094 37.17935,99.90226 -8.33633,13.99419 -14.58478,19.97957 -27.91289,26.73771 l -17.17222,8.70735 15.04103,5.74423 c 50.78297,19.39421 67.41068,74.30996 36.20908,119.58647 -24.22792,35.15706 -88.38746,52.84001 -142.48933,39.27128 z"
   id="path55" /><path
   style="fill:#008fb4;stroke-width:93.2691"
   d="m 747.36181,752.4817 c 0,-86.43662 -1.10977,-127.23605 -3.46043,-127.23605 -1.9032,0 -14.46277,6.03839 -27.91001,13.41868 l -24.4495,13.41868 -3.13706,-12.59247 c -7.46937,-29.98245 -10.07122,-25.93868 29.43853,-45.75357 33.3854,-16.74342 37.7132,-18.06381 59.20707,-18.06381 h 23.18886 v 152.02229 152.0223 h -26.43864 -26.43867 z"
   id="path58" /><path
   style="fill:#008fb4;stroke-width:93.2691"
   d="m 150.83956,1046.1162 c -3.63527,-0.7779 -9.99332,-2.1377 -14.12888,-3.0219 -12.07528,-2.5818 -33.31521,-23.9824 -37.012104,-37.2922 -2.158604,-7.7716 -3.358457,-125.35604 -3.370348,-330.28954 -0.01802,-311.22704 0.126313,-318.50525 6.560732,-331.11797 7.94462,-15.57276 23.48169,-27.88678 41.34092,-32.76517 7.82013,-2.13619 45.27703,-3.6186 91.70906,-3.62934 l 78.48977,-0.0184 V 265.01886 222.056 h 49.57249 49.57249 V 339.37756 456.69911 H 364.0012 314.42871 V 415.38872 374.0783 H 236.76515 159.10159 V 679.77532 985.47234 H 634.99751 1110.8934 V 679.77532 374.0783 h -77.6636 -77.66352 v 42.96285 42.96281 h -49.5725 -49.57249 V 341.03006 222.05608 h 49.57249 49.5725 v 42.96285 42.96281 h 83.49812 c 81.3022,0 83.8879,0.20373 98.3188,7.7849 9.0363,4.74656 19.0125,13.92111 25.5613,23.50731 l 10.7407,15.72241 -0.056,322.67388 -0.055,322.67386 -7.4096,13.0819 c -4.0752,7.195 -13.8453,17.6053 -21.7112,23.1338 l -14.3018,10.052 -486.35233,0.4593 c -267.4938,0.2519 -489.32671,-0.1778 -492.96202,-0.9549 z"
   id="path60" /><path
   style="fill:#008fb4;stroke-width:93.2691"
   d="M 433.40272,341.03006 V 307.98174 H 634.99751 836.5923 v 33.04832 33.04831 H 634.99751 433.40272 Z"
   id="path63" /></svg>
