<?xml version="1.0" encoding="UTF-8" standalone="no"?>
<svg
   xmlns:ooo="http://xml.openoffice.org/svg/export"
   xmlns:dc="http://purl.org/dc/elements/1.1/"
   xmlns:cc="http://creativecommons.org/ns#"
   xmlns:rdf="http://www.w3.org/1999/02/22-rdf-syntax-ns#"
   xmlns:svg="http://www.w3.org/2000/svg"
   xmlns="http://www.w3.org/2000/svg"
   xmlns:sodipodi="http://sodipodi.sourceforge.net/DTD/sodipodi-0.dtd"
   xmlns:inkscape="http://www.inkscape.org/namespaces/inkscape"
   version="1.2"
   width="12.96mm"
   height="12.96mm"
   viewBox="0 0 1296 1296"
   preserveAspectRatio="xMidYMid"
   fill-rule="evenodd"
   stroke-width="28.222"
   stroke-linejoin="round"
   xml:space="preserve"
   id="svg72"
   sodipodi:docname="icon.svg"
   inkscape:export-filename="C:\Users\Formacion\Desktop\iconos Adaptable\Gris oscuro\pix_plugins\mod\url\icon.png"
   inkscape:export-xdpi="94.07"
   inkscape:export-ydpi="94.07"
   inkscape:version="1.0.1 (3bc2e813f5, 2020-09-07)"><metadata
   id="metadata76"><rdf:RDF><cc:Work
       rdf:about=""><dc:format>image/svg+xml</dc:format><dc:type
         rdf:resource="http://purl.org/dc/dcmitype/StillImage" /></cc:Work></rdf:RDF></metadata><sodipodi:namedview
   pagecolor="#ffffff"
   bordercolor="#666666"
   borderopacity="1"
   objecttolerance="10"
   gridtolerance="10"
   guidetolerance="10"
   inkscape:pageopacity="0"
   inkscape:pageshadow="2"
   inkscape:window-width="1366"
   inkscape:window-height="705"
   id="namedview74"
   showgrid="false"
   inkscape:zoom="10.983475"
   inkscape:cx="24.491339"
   inkscape:cy="24.491339"
   inkscape:window-x="-8"
   inkscape:window-y="-8"
   inkscape:window-maximized="1"
   inkscape:current-layer="svg72"
   inkscape:document-rotation="0" />
 <defs
   class="ClipPathGroup"
   id="defs8">
  <clipPath
   id="presentation_clip_path"
   clipPathUnits="userSpaceOnUse">
   <rect
   x="0"
   y="0"
   width="1296"
   height="1296"
   id="rect2" />
  </clipPath>
  <clipPath
   id="presentation_clip_path_shrink"
   clipPathUnits="userSpaceOnUse">
   <rect
   x="1"
   y="1"
   width="1294"
   height="1294"
   id="rect5" />
  </clipPath>
 </defs>
 <defs
   class="TextShapeIndex"
   id="defs12">
  <g
   ooo:slide="id1"
   ooo:id-list="id3"
   id="g10" />
 </defs>
 <defs
   class="EmbeddedBulletChars"
   id="defs44">
  <g
   id="bullet-char-template-57356"
   transform="scale(0.00048828125,-0.00048828125)">
   <path
   d="M 580,1141 L 1163,571 580,0 -4,571 580,1141 Z"
   id="path14" />
  </g>
  <g
   id="bullet-char-template-57354"
   transform="scale(0.00048828125,-0.00048828125)">
   <path
   d="M 8,1128 L 1137,1128 1137,0 8,0 8,1128 Z"
   id="path17" />
  </g>
  <g
   id="bullet-char-template-10146"
   transform="scale(0.00048828125,-0.00048828125)">
   <path
   d="M 174,0 L 602,739 174,1481 1456,739 174,0 Z M 1358,739 L 309,1346 659,739 1358,739 Z"
   id="path20" />
  </g>
  <g
   id="bullet-char-template-10132"
   transform="scale(0.00048828125,-0.00048828125)">
   <path
   d="M 2015,739 L 1276,0 717,0 1260,543 174,543 174,936 1260,936 717,1481 1274,1481 2015,739 Z"
   id="path23" />
  </g>
  <g
   id="bullet-char-template-10007"
   transform="scale(0.00048828125,-0.00048828125)">
   <path
   d="M 0,-2 C -7,14 -16,27 -25,37 L 356,567 C 262,823 215,952 215,954 215,979 228,992 255,992 264,992 276,990 289,987 310,991 331,999 354,1012 L 381,999 492,748 772,1049 836,1024 860,1049 C 881,1039 901,1025 922,1006 886,937 835,863 770,784 769,783 710,716 594,584 L 774,223 C 774,196 753,168 711,139 L 727,119 C 717,90 699,76 672,76 641,76 570,178 457,381 L 164,-76 C 142,-110 111,-127 72,-127 30,-127 9,-110 8,-76 1,-67 -2,-52 -2,-32 -2,-23 -1,-13 0,-2 Z"
   id="path26" />
  </g>
  <g
   id="bullet-char-template-10004"
   transform="scale(0.00048828125,-0.00048828125)">
   <path
   d="M 285,-33 C 182,-33 111,30 74,156 52,228 41,333 41,471 41,549 55,616 82,672 116,743 169,778 240,778 293,778 328,747 346,684 L 369,508 C 377,444 397,411 428,410 L 1163,1116 C 1174,1127 1196,1133 1229,1133 1271,1133 1292,1118 1292,1087 L 1292,965 C 1292,929 1282,901 1262,881 L 442,47 C 390,-6 338,-33 285,-33 Z"
   id="path29" />
  </g>
  <g
   id="bullet-char-template-9679"
   transform="scale(0.00048828125,-0.00048828125)">
   <path
   d="M 813,0 C 632,0 489,54 383,161 276,268 223,411 223,592 223,773 276,916 383,1023 489,1130 632,1184 813,1184 992,1184 1136,1130 1245,1023 1353,916 1407,772 1407,592 1407,412 1353,268 1245,161 1136,54 992,0 813,0 Z"
   id="path32" />
  </g>
  <g
   id="bullet-char-template-8226"
   transform="scale(0.00048828125,-0.00048828125)">
   <path
   d="M 346,457 C 273,457 209,483 155,535 101,586 74,649 74,723 74,796 101,859 155,911 209,963 273,989 346,989 419,989 480,963 531,910 582,859 608,796 608,723 608,648 583,586 532,535 482,483 420,457 346,457 Z"
   id="path35" />
  </g>
  <g
   id="bullet-char-template-8211"
   transform="scale(0.00048828125,-0.00048828125)">
   <path
   d="M -4,459 L 1135,459 1135,606 -4,606 -4,459 Z"
   id="path38" />
  </g>
  <g
   id="bullet-char-template-61548"
   transform="scale(0.00048828125,-0.00048828125)">
   <path
   d="M 173,740 C 173,903 231,1043 346,1159 462,1274 601,1332 765,1332 928,1332 1067,1274 1183,1159 1299,1043 1357,903 1357,740 1357,577 1299,437 1183,322 1067,206 928,148 765,148 601,148 462,206 346,322 231,437 173,577 173,740 Z"
   id="path41" />
  </g>
 </defs>
 <defs
   class="TextEmbeddedBitmaps"
   id="defs46" />
 <g
   id="g51">
  <g
   id="id2"
   class="Master_Slide">
   <g
   id="bg-id2"
   class="Background" />
   <g
   id="bo-id2"
   class="BackgroundObjects" />
  </g>
 </g>
 
<path
   style="fill:#008fb4;stroke-width:95.1786"
   d="m 287.36217,1174.0878 c -18.69826,-8.8451 -31.90365,-20.3728 -89.81885,-78.4077 -78.29472,-78.4565 -85.74935,-89.4905 -88.11908,-130.4291 -1.18025,-20.38966 -0.005,-29.21688 6.06297,-45.52862 7.06962,-19.00519 15.30691,-28.05061 135.54179,-148.83915 149.23572,-149.92296 146.61888,-147.9705 198.21273,-147.89008 28.09188,0.0444 34.14201,1.15385 49.11296,9.01128 28.35576,14.88234 28.73448,16.71245 8.07838,39.03973 -9.84535,10.64188 -18.97856,20.61624 -20.29602,22.16525 -1.31757,1.54908 -7.37089,0.24447 -13.45202,-2.90111 -7.86787,-4.06862 -16.32885,-5.2804 -29.33744,-4.20159 l -18.2808,1.51611 -122.89414,122.7949 C 171.02122,941.46325 169.21529,943.72727 174.2207,970.82784 c 2.04507,11.0725 11.61597,22.27027 65.35679,76.46596 34.62852,34.9216 67.05898,65.6534 72.06775,68.2929 11.7095,6.1707 34.21083,6.1516 45.86358,-0.037 14.03417,-7.4555 246.08491,-241.78076 250.08281,-252.534 5.17272,-13.91337 4.33421,-26.28543 -2.71922,-40.12012 l -6.24875,-12.25657 22.86382,-22.68861 22.86386,-22.68865 10.50046,16.52654 c 15.19719,23.91851 21.634,48.79651 19.04953,73.62583 -4.3005,41.31565 -8.12368,46.12051 -145.42562,182.76578 -144.43687,143.7461 -147.7998,146.2871 -193.59431,146.2824 -21.57625,0 -29.04233,-1.6321 -47.51934,-10.3724 z"
   id="path50" /><path
   style="fill:#008fb4;stroke-width:95.1786"
   d="m 463.93568,847.36986 c -10.97826,-4.62413 -18.06644,-17.05506 -18.06644,-31.68415 0,-11.85477 2.43326,-15.58854 24.45057,-37.51957 13.44779,-13.39509 94.39958,-93.6376 179.89282,-178.3167 145.88923,-144.49991 156.17266,-153.96198 167.32657,-153.96198 23.64233,0 38.90357,22.97206 28.40267,42.75309 -2.77961,5.23628 -83.68928,88.03059 -179.79903,183.98732 C 484.43761,854.04384 482.9115,855.36267 463.93568,847.36986 Z"
   id="path52" /><path
   style="fill:#008fb4;stroke-width:95.1786"
   d="m 822.63547,671.73283 c -14.28123,-3.58378 -29.7322,-10.96022 -44.04028,-21.02529 l -9.58186,-6.74036 22.78469,-22.96061 c 21.30848,-21.47302 23.23428,-22.64572 29.72405,-18.10008 4.16926,2.92037 15.01066,4.86054 27.1584,4.86054 h 20.21897 L 989.81307,487.20048 c 66.50253,-66.31159 123.08283,-124.66466 125.73393,-129.67343 2.6511,-5.00877 4.8203,-17.10955 4.8203,-26.89066 v -17.78378 l -70.0684,-70.06842 -70.06844,-70.06846 h -18.79653 c -15.29743,0 -21.24506,1.77911 -31.9494,9.5569 -15.49986,11.26222 -233.84752,233.88349 -239.83334,244.52745 -5.79188,10.29906 -5.28496,31.07551 1.05753,43.34038 l 5.39253,10.42804 -22.42239,22.28627 c -25.48682,25.33205 -23.74908,25.66795 -41.73226,-8.0662 -7.92091,-14.85863 -8.98993,-20.66976 -8.99601,-48.90111 -0.006,-27.08231 1.21904,-34.38641 7.91747,-47.21486 5.17468,-9.91017 51.98087,-59.39365 134.8903,-142.60597 146.71486,-147.25076 144.6003,-145.6659 194.41578,-145.71318 45.65056,-0.0433 55.68606,6.47085 139.19516,90.35215 79.4252,79.77938 86.5231,90.76305 86.5231,133.88966 0,46.86726 -0.826,47.96036 -145.7812,192.91555 -107.76198,107.76195 -130.02469,128.46106 -145.99035,135.73659 -21.15098,9.6385 -52.20238,13.32437 -71.4853,8.48543 z"
   id="path54" /></svg>
