<?xml version="1.0" encoding="UTF-8" standalone="no"?>
<svg
   xmlns:ooo="http://xml.openoffice.org/svg/export"
   xmlns:dc="http://purl.org/dc/elements/1.1/"
   xmlns:cc="http://creativecommons.org/ns#"
   xmlns:rdf="http://www.w3.org/1999/02/22-rdf-syntax-ns#"
   xmlns:svg="http://www.w3.org/2000/svg"
   xmlns="http://www.w3.org/2000/svg"
   xmlns:sodipodi="http://sodipodi.sourceforge.net/DTD/sodipodi-0.dtd"
   xmlns:inkscape="http://www.inkscape.org/namespaces/inkscape"
   version="1.2"
   width="12.7mm"
   height="12.7mm"
   viewBox="0 0 1270 1270"
   preserveAspectRatio="xMidYMid"
   fill-rule="evenodd"
   stroke-width="28.222"
   stroke-linejoin="round"
   xml:space="preserve"
   id="svg79"
   sodipodi:docname="icon.svg"
   inkscape:export-filename="C:\Users\Formacion\Desktop\iconos Adaptable\Gris oscuro\pix_plugins\mod\book\icon.png"
   inkscape:export-xdpi="96"
   inkscape:export-ydpi="96"
   inkscape:version="1.0.1 (3bc2e813f5, 2020-09-07)"><metadata
   id="metadata83"><rdf:RDF><cc:Work
       rdf:about=""><dc:format>image/svg+xml</dc:format><dc:type
         rdf:resource="http://purl.org/dc/dcmitype/StillImage" /><dc:title /></cc:Work></rdf:RDF></metadata><sodipodi:namedview
   pagecolor="#ffffff"
   bordercolor="#666666"
   borderopacity="1"
   objecttolerance="10"
   gridtolerance="10"
   guidetolerance="10"
   inkscape:pageopacity="0"
   inkscape:pageshadow="2"
   inkscape:window-width="1366"
   inkscape:window-height="705"
   id="namedview81"
   showgrid="false"
   inkscape:zoom="5.6568542"
   inkscape:cx="24.454777"
   inkscape:cy="23.972816"
   inkscape:window-x="-8"
   inkscape:window-y="-8"
   inkscape:window-maximized="1"
   inkscape:current-layer="svg79"
   inkscape:document-rotation="0" />
 <defs
   class="ClipPathGroup"
   id="defs8">
  <clipPath
   id="presentation_clip_path"
   clipPathUnits="userSpaceOnUse">
   <rect
   x="0"
   y="0"
   width="1270"
   height="1270"
   id="rect2" />
  </clipPath>
  <clipPath
   id="presentation_clip_path_shrink"
   clipPathUnits="userSpaceOnUse">
   <rect
   x="1"
   y="1"
   width="1268"
   height="1268"
   id="rect5" />
  </clipPath>
 
  
 </defs>
 <defs
   class="TextShapeIndex"
   id="defs12">
  <g
   ooo:slide="id1"
   ooo:id-list="id3"
   id="g10" />
 </defs>
 <defs
   class="EmbeddedBulletChars"
   id="defs44">
  <g
   id="bullet-char-template-57356"
   transform="scale(0.00048828125,-0.00048828125)">
   <path
   d="M 580,1141 L 1163,571 580,0 -4,571 580,1141 Z"
   id="path14" />
  </g>
  <g
   id="bullet-char-template-57354"
   transform="scale(0.00048828125,-0.00048828125)">
   <path
   d="M 8,1128 L 1137,1128 1137,0 8,0 8,1128 Z"
   id="path17" />
  </g>
  <g
   id="bullet-char-template-10146"
   transform="scale(0.00048828125,-0.00048828125)">
   <path
   d="M 174,0 L 602,739 174,1481 1456,739 174,0 Z M 1358,739 L 309,1346 659,739 1358,739 Z"
   id="path20" />
  </g>
  <g
   id="bullet-char-template-10132"
   transform="scale(0.00048828125,-0.00048828125)">
   <path
   d="M 2015,739 L 1276,0 717,0 1260,543 174,543 174,936 1260,936 717,1481 1274,1481 2015,739 Z"
   id="path23" />
  </g>
  <g
   id="bullet-char-template-10007"
   transform="scale(0.00048828125,-0.00048828125)">
   <path
   d="M 0,-2 C -7,14 -16,27 -25,37 L 356,567 C 262,823 215,952 215,954 215,979 228,992 255,992 264,992 276,990 289,987 310,991 331,999 354,1012 L 381,999 492,748 772,1049 836,1024 860,1049 C 881,1039 901,1025 922,1006 886,937 835,863 770,784 769,783 710,716 594,584 L 774,223 C 774,196 753,168 711,139 L 727,119 C 717,90 699,76 672,76 641,76 570,178 457,381 L 164,-76 C 142,-110 111,-127 72,-127 30,-127 9,-110 8,-76 1,-67 -2,-52 -2,-32 -2,-23 -1,-13 0,-2 Z"
   id="path26" />
  </g>
  <g
   id="bullet-char-template-10004"
   transform="scale(0.00048828125,-0.00048828125)">
   <path
   d="M 285,-33 C 182,-33 111,30 74,156 52,228 41,333 41,471 41,549 55,616 82,672 116,743 169,778 240,778 293,778 328,747 346,684 L 369,508 C 377,444 397,411 428,410 L 1163,1116 C 1174,1127 1196,1133 1229,1133 1271,1133 1292,1118 1292,1087 L 1292,965 C 1292,929 1282,901 1262,881 L 442,47 C 390,-6 338,-33 285,-33 Z"
   id="path29" />
  </g>
  <g
   id="bullet-char-template-9679"
   transform="scale(0.00048828125,-0.00048828125)">
   <path
   d="M 813,0 C 632,0 489,54 383,161 276,268 223,411 223,592 223,773 276,916 383,1023 489,1130 632,1184 813,1184 992,1184 1136,1130 1245,1023 1353,916 1407,772 1407,592 1407,412 1353,268 1245,161 1136,54 992,0 813,0 Z"
   id="path32" />
  </g>
  <g
   id="bullet-char-template-8226"
   transform="scale(0.00048828125,-0.00048828125)">
   <path
   d="M 346,457 C 273,457 209,483 155,535 101,586 74,649 74,723 74,796 101,859 155,911 209,963 273,989 346,989 419,989 480,963 531,910 582,859 608,796 608,723 608,648 583,586 532,535 482,483 420,457 346,457 Z"
   id="path35" />
  </g>
  <g
   id="bullet-char-template-8211"
   transform="scale(0.00048828125,-0.00048828125)">
   <path
   d="M -4,459 L 1135,459 1135,606 -4,606 -4,459 Z"
   id="path38" />
  </g>
  <g
   id="bullet-char-template-61548"
   transform="scale(0.00048828125,-0.00048828125)">
   <path
   d="M 173,740 C 173,903 231,1043 346,1159 462,1274 601,1332 765,1332 928,1332 1067,1274 1183,1159 1299,1043 1357,903 1357,740 1357,577 1299,437 1183,322 1067,206 928,148 765,148 601,148 462,206 346,322 231,437 173,577 173,740 Z"
   id="path41" />
  </g>
 </defs>
 <defs
   class="TextEmbeddedBitmaps"
   id="defs46" />
 <g
   id="g51">
  <g
   id="id2"
   class="Master_Slide">
   <g
   id="bg-id2"
   class="Background" />
   <g
   id="bo-id2"
   class="BackgroundObjects" />
  </g>
 </g>
 <path
   style="fill:#ffffff;fill-opacity:1;stroke-width:93.2691"
   d="m 319.52335,1170.2719 c -26.75064,-3.7709 -53.23717,-25.5439 -66.7256,-54.8509 l -7.60513,-16.5242 -0.87493,-429.44458 c -0.57081,-280.0956 0.29263,-435.82977 2.47957,-447.80481 8.45801,-46.29572 40.70038,-87.20912 87.39277,-110.89554 l 26.05889,-13.21933 313.43935,-0.907102 313.43936,-0.907116 v 120.707288 120.7073 h 31.39597 31.3958 v 388.42395 c 0,428.63954 1.3691,400.75184 -20.8226,424.14224 -5.8153,6.1293 -16.522,13.9042 -23.7926,17.2778 -12.61521,5.8531 -28.24597,6.1166 -342.05016,5.7645 -180.85693,-0.2037 -335.53571,-1.3143 -343.73055,-2.4696 z m 663.4881,-412.59907 0.84124,-351.13844 -7.45088,-0.44331 c -4.098,-0.24446 -145.01453,-1.35906 -313.14791,-2.47846 l -305.69699,-2.03543 -22.67868,-10.74072 c -12.47326,-5.90739 -23.25528,-10.74071 -23.96004,-10.74071 -0.7049,0 -1.28126,159.54034 -1.28126,354.53412 0,385.95662 -0.99606,364.99642 17.70395,372.56542 3.89526,1.5765 152.82539,2.5851 330.95584,2.2414 l 323.87358,-0.6253 z M 924.33567,251.20725 v -89.23048 l -271.82245,0.0741 c -305.27145,0.0815 -285.01292,-1.53352 -311.37033,24.8238 -17.98791,17.98792 -24.75123,35.11584 -24.75123,62.6817 0,27.5658 6.76332,44.69372 24.75123,62.68164 25.84039,25.84039 15.35663,24.74235 237.01159,24.8238 l 197.46371,0.0741 v -26.33755 -26.33754 l -194.77015,-0.92717 -194.77016,-0.92715 -10.12945,-9.70658 c -13.9787,-13.3952 -14.16591,-31.38062 -0.46932,-45.07738 l 9.66029,-9.66028 h 228.28767 228.28764 v 61.13943 61.13937 h 41.31057 41.31039 z"
   id="path59" /><path
   style="fill:#008fb4;fill-opacity:1;stroke-width:93.2691"
   d="m 319.55135,1170.1837 c -8.17947,-1.2038 -18.34948,-4.1021 -22.60005,-6.4408 -15.03409,-8.272 -34.20701,-28.2847 -42.92715,-44.8074 l -8.83153,-16.7339 -0.88652,-431.03432 c -0.58044,-282.18281 0.2741,-437.39636 2.47956,-449.4572 8.50706,-46.56227 41.69559,-88.57344 88.08708,-111.50373 l 25.64106,-12.67381 313.30693,-0.907102 313.3069,-0.907116 v 120.707288 120.7073 h 31.39597 31.3958 v 388.42395 c 0,428.63954 1.3691,400.75184 -20.8226,424.14224 -5.8153,6.1293 -16.522,13.9042 -23.7926,17.2778 -12.61521,5.8531 -28.24597,6.1166 -342.05016,5.7645 -180.85693,-0.2037 -335.52312,-1.3539 -343.70255,-2.5578 z m 663.4601,-412.51087 0.84124,-351.13844 -7.45088,-0.44331 c -4.098,-0.24446 -145.01453,-1.35906 -313.14791,-2.47846 l -305.69699,-2.03543 -22.67868,-10.74072 c -12.47326,-5.90739 -23.25528,-10.74071 -23.96004,-10.74071 -0.7049,0 -1.28126,159.54034 -1.28126,354.53412 0,385.95662 -0.99606,364.99642 17.70395,372.56542 3.89526,1.5765 152.82539,2.5851 330.95584,2.2414 l 323.87358,-0.6253 z M 924.33567,251.11608 v -89.32164 l -275.12731,0.91752 c -306.70359,1.02273 -282.03943,-0.94567 -307.78484,24.561 -18.44875,18.27759 -25.03186,34.65711 -25.03186,62.28204 0,27.3845 6.75944,44.68985 24.31159,62.24201 25.14236,25.14236 10.24936,23.57712 234.14637,24.60795 l 200.76857,0.9242 v -26.43568 -26.43563 l -194.77015,-0.92716 -194.77016,-0.92715 -10.12945,-9.70658 c -13.9787,-13.3952 -14.16591,-31.38062 -0.46932,-45.07738 l 9.66029,-9.66028 h 228.28767 228.28764 v 61.13943 61.13937 h 41.31057 41.31039 z"
   id="path61" />
</svg>
