<?xml version="1.0" encoding="UTF-8" standalone="no"?>
<svg
   xmlns:ooo="http://xml.openoffice.org/svg/export"
   xmlns:dc="http://purl.org/dc/elements/1.1/"
   xmlns:cc="http://creativecommons.org/ns#"
   xmlns:rdf="http://www.w3.org/1999/02/22-rdf-syntax-ns#"
   xmlns:svg="http://www.w3.org/2000/svg"
   xmlns="http://www.w3.org/2000/svg"
   xmlns:sodipodi="http://sodipodi.sourceforge.net/DTD/sodipodi-0.dtd"
   xmlns:inkscape="http://www.inkscape.org/namespaces/inkscape"
   version="1.2"
   width="12.7mm"
   height="12.7mm"
   viewBox="0 0 1270 1270"
   preserveAspectRatio="xMidYMid"
   fill-rule="evenodd"
   stroke-width="28.222"
   stroke-linejoin="round"
   xml:space="preserve"
   id="svg83"
   sodipodi:docname="icon.svg"
   inkscape:export-filename="C:\Users\Formacion\Desktop\iconos Adaptable\Gris oscuro\pix_plugins\mod\mapleta\icon.png"
   inkscape:export-xdpi="96"
   inkscape:export-ydpi="96"
   inkscape:version="1.0.1 (3bc2e813f5, 2020-09-07)"><metadata
   id="metadata87"><rdf:RDF><cc:Work
       rdf:about=""><dc:format>image/svg+xml</dc:format><dc:type
         rdf:resource="http://purl.org/dc/dcmitype/StillImage" /></cc:Work></rdf:RDF></metadata><sodipodi:namedview
   pagecolor="#ffffff"
   bordercolor="#666666"
   borderopacity="1"
   objecttolerance="10"
   gridtolerance="10"
   guidetolerance="10"
   inkscape:pageopacity="0"
   inkscape:pageshadow="2"
   inkscape:window-width="1366"
   inkscape:window-height="705"
   id="namedview85"
   showgrid="false"
   inkscape:zoom="11.208334"
   inkscape:cx="24"
   inkscape:cy="26.740519"
   inkscape:window-x="-8"
   inkscape:window-y="-8"
   inkscape:window-maximized="1"
   inkscape:current-layer="svg83"
   inkscape:document-rotation="0" />
 <defs
   class="ClipPathGroup"
   id="defs8">
  <clipPath
   id="presentation_clip_path"
   clipPathUnits="userSpaceOnUse">
   <rect
   x="0"
   y="0"
   width="1270"
   height="1270"
   id="rect2" />
  </clipPath>
  <clipPath
   id="presentation_clip_path_shrink"
   clipPathUnits="userSpaceOnUse">
   <rect
   x="1"
   y="1"
   width="1268"
   height="1268"
   id="rect5" />
  </clipPath>
 </defs>
 <defs
   class="TextShapeIndex"
   id="defs12">
  <g
   ooo:slide="id1"
   ooo:id-list="id3"
   id="g10" />
 </defs>
 <defs
   class="EmbeddedBulletChars"
   id="defs44">
  <g
   id="bullet-char-template-57356"
   transform="scale(0.00048828125,-0.00048828125)">
   <path
   d="M 580,1141 L 1163,571 580,0 -4,571 580,1141 Z"
   id="path14" />
  </g>
  <g
   id="bullet-char-template-57354"
   transform="scale(0.00048828125,-0.00048828125)">
   <path
   d="M 8,1128 L 1137,1128 1137,0 8,0 8,1128 Z"
   id="path17" />
  </g>
  <g
   id="bullet-char-template-10146"
   transform="scale(0.00048828125,-0.00048828125)">
   <path
   d="M 174,0 L 602,739 174,1481 1456,739 174,0 Z M 1358,739 L 309,1346 659,739 1358,739 Z"
   id="path20" />
  </g>
  <g
   id="bullet-char-template-10132"
   transform="scale(0.00048828125,-0.00048828125)">
   <path
   d="M 2015,739 L 1276,0 717,0 1260,543 174,543 174,936 1260,936 717,1481 1274,1481 2015,739 Z"
   id="path23" />
  </g>
  <g
   id="bullet-char-template-10007"
   transform="scale(0.00048828125,-0.00048828125)">
   <path
   d="M 0,-2 C -7,14 -16,27 -25,37 L 356,567 C 262,823 215,952 215,954 215,979 228,992 255,992 264,992 276,990 289,987 310,991 331,999 354,1012 L 381,999 492,748 772,1049 836,1024 860,1049 C 881,1039 901,1025 922,1006 886,937 835,863 770,784 769,783 710,716 594,584 L 774,223 C 774,196 753,168 711,139 L 727,119 C 717,90 699,76 672,76 641,76 570,178 457,381 L 164,-76 C 142,-110 111,-127 72,-127 30,-127 9,-110 8,-76 1,-67 -2,-52 -2,-32 -2,-23 -1,-13 0,-2 Z"
   id="path26" />
  </g>
  <g
   id="bullet-char-template-10004"
   transform="scale(0.00048828125,-0.00048828125)">
   <path
   d="M 285,-33 C 182,-33 111,30 74,156 52,228 41,333 41,471 41,549 55,616 82,672 116,743 169,778 240,778 293,778 328,747 346,684 L 369,508 C 377,444 397,411 428,410 L 1163,1116 C 1174,1127 1196,1133 1229,1133 1271,1133 1292,1118 1292,1087 L 1292,965 C 1292,929 1282,901 1262,881 L 442,47 C 390,-6 338,-33 285,-33 Z"
   id="path29" />
  </g>
  <g
   id="bullet-char-template-9679"
   transform="scale(0.00048828125,-0.00048828125)">
   <path
   d="M 813,0 C 632,0 489,54 383,161 276,268 223,411 223,592 223,773 276,916 383,1023 489,1130 632,1184 813,1184 992,1184 1136,1130 1245,1023 1353,916 1407,772 1407,592 1407,412 1353,268 1245,161 1136,54 992,0 813,0 Z"
   id="path32" />
  </g>
  <g
   id="bullet-char-template-8226"
   transform="scale(0.00048828125,-0.00048828125)">
   <path
   d="M 346,457 C 273,457 209,483 155,535 101,586 74,649 74,723 74,796 101,859 155,911 209,963 273,989 346,989 419,989 480,963 531,910 582,859 608,796 608,723 608,648 583,586 532,535 482,483 420,457 346,457 Z"
   id="path35" />
  </g>
  <g
   id="bullet-char-template-8211"
   transform="scale(0.00048828125,-0.00048828125)">
   <path
   d="M -4,459 L 1135,459 1135,606 -4,606 -4,459 Z"
   id="path38" />
  </g>
  <g
   id="bullet-char-template-61548"
   transform="scale(0.00048828125,-0.00048828125)">
   <path
   d="M 173,740 C 173,903 231,1043 346,1159 462,1274 601,1332 765,1332 928,1332 1067,1274 1183,1159 1299,1043 1357,903 1357,740 1357,577 1299,437 1183,322 1067,206 928,148 765,148 601,148 462,206 346,322 231,437 173,577 173,740 Z"
   id="path41" />
  </g>
 </defs>
 <defs
   class="TextEmbeddedBitmaps"
   id="defs46" />
 <g
   id="g51">
  <g
   id="id2"
   class="Master_Slide">
   <g
   id="bg-id2"
   class="Background" />
   <g
   id="bo-id2"
   class="BackgroundObjects" />
  </g>
 </g>
 
<path
   style="fill:#008fb4;stroke-width:93.2691"
   d="m 481.72826,1017.6215 c -8.21773,-3.2619 -292.94946,-284.8808 -310.34863,-306.95578 -7.57958,-9.61646 -8.86944,-13.96986 -7.6494,-25.81749 1.32979,-12.91498 5.33022,-18.4033 42.68159,-58.55835 22.66776,-24.36927 46.10132,-47.32821 52.07451,-51.01986 12.67995,-7.83661 31.45782,-8.68653 44.11888,-1.99691 10.99504,5.80939 180.08447,175.68532 185.65839,186.52193 3.87904,7.54154 12.01435,-0.14816 229.25528,-216.72456 151.19752,-150.73436 229.46349,-226.4849 238.10209,-230.44962 22.26226,-10.21738 31.7666,-4.83842 82.04013,46.43033 24.1418,24.6197 45.7005,47.99722 47.9082,51.94997 5.4326,9.72696 5.2393,23.81868 -0.4749,34.61581 -7.3153,13.82272 -564.11542,568.24123 -574.66414,572.20613 -11.17681,4.2009 -17.72655,4.1549 -28.70214,-0.2 z"
   id="path56" /><path
   style="fill:#008fb4;stroke-width:93.2691"
   d="M 172.72946,608.21592 C 181.51037,487.69852 227.77053,385.60765 311.29,302.42874 375.0406,238.93806 453.64468,195.28831 541.21525,174.7486 c 40.76688,-9.5619 145.00772,-12.16356 188.37543,-4.70148 40.63634,6.99206 77.17698,18.8371 113.09636,36.66132 59.48795,29.51962 131.79806,84.24357 111.31624,84.24357 -1.99136,0 -7.94895,3.08186 -13.2388,6.84856 l -9.61794,6.84859 -17.33091,-14.71646 C 882.52128,263.35919 835.41028,235.50812 798.23604,221.6043 755.10658,205.47321 729.62447,201.09841 668.3947,199.313 c -92.48718,-2.69663 -149.2495,8.67927 -218.25631,43.74199 -50.43549,25.62653 -79.10048,46.02819 -115.89426,82.48508 -44.91091,44.49967 -81.61394,102.01375 -105.35917,165.099 -9.30435,24.71939 -21.45779,81.37654 -21.45779,100.03228 0,11.20226 -2.32511,15.08411 -18.49261,30.87679 l -18.49261,18.0637 z"
   id="path58" /><path
   style="fill:#008fb4;stroke-width:93.2691"
   d="m 605.65949,1105.2698 c -85.56213,-8.5619 -148.70762,-27.1087 -208.21039,-61.1546 -76.81197,-43.9496 -136.18439,-105.97087 -176.40819,-184.27828 -16.05479,-31.25543 -40.05242,-96.43213 -40.05242,-108.781 0,-7.91573 41.97658,34.54635 44.63936,45.1556 4.42948,17.64858 25.62557,58.88221 45.95674,89.40166 24.52044,36.808 74.19287,86.63897 109.94126,110.29215 46.05868,30.47507 105.86834,54.69967 166.29908,67.35597 40.27337,8.4346 145.86664,8.3979 184.39664,-0.063 152.8251,-33.5636 272.73823,-139.92853 324.33093,-287.68674 26.2773,-75.25629 29.4516,-166.35119 8.6262,-247.54897 l -7.8116,-30.4574 12.6141,-12.86453 12.6142,-12.86457 10.2054,31.85913 c 13.8699,43.29893 20.1251,85.0647 20.1177,134.32534 -0.016,111.61513 -32.4249,203.5371 -104.4453,296.24684 -63.73011,82.038 -172.47081,146.5623 -277.23009,164.5021 -30.40257,5.2064 -101.83069,8.9383 -125.58362,6.5614 z"
   id="path60" /></svg>
