<?xml version="1.0" encoding="UTF-8" standalone="no"?>
<svg
   xmlns:ooo="http://xml.openoffice.org/svg/export"
   xmlns:dc="http://purl.org/dc/elements/1.1/"
   xmlns:cc="http://creativecommons.org/ns#"
   xmlns:rdf="http://www.w3.org/1999/02/22-rdf-syntax-ns#"
   xmlns:svg="http://www.w3.org/2000/svg"
   xmlns="http://www.w3.org/2000/svg"
   xmlns:sodipodi="http://sodipodi.sourceforge.net/DTD/sodipodi-0.dtd"
   xmlns:inkscape="http://www.inkscape.org/namespaces/inkscape"
   version="1.2"
   width="12.96mm"
   height="12.96mm"
   viewBox="0 0 1296 1296"
   preserveAspectRatio="xMidYMid"
   fill-rule="evenodd"
   stroke-width="28.222"
   stroke-linejoin="round"
   xml:space="preserve"
   id="svg70"
   sodipodi:docname="icon.svg"
   inkscape:version="1.0.1 (3bc2e813f5, 2020-09-07)"
   inkscape:export-filename="C:\Users\Formacion\Desktop\iconos Adaptable\Gris oscuro\pix_plugins\mod\booking\icon.png"
   inkscape:export-xdpi="94.07"
   inkscape:export-ydpi="94.07"><metadata
   id="metadata74"><rdf:RDF><cc:Work
       rdf:about=""><dc:format>image/svg+xml</dc:format><dc:type
         rdf:resource="http://purl.org/dc/dcmitype/StillImage" /><dc:title /></cc:Work></rdf:RDF></metadata><sodipodi:namedview
   pagecolor="#ffffff"
   bordercolor="#666666"
   borderopacity="1"
   objecttolerance="10"
   gridtolerance="10"
   guidetolerance="10"
   inkscape:pageopacity="0"
   inkscape:pageshadow="2"
   inkscape:window-width="1366"
   inkscape:window-height="705"
   id="namedview72"
   showgrid="false"
   inkscape:zoom="3.8832448"
   inkscape:cx="25.66208"
   inkscape:cy="24.491339"
   inkscape:window-x="-8"
   inkscape:window-y="-8"
   inkscape:window-maximized="1"
   inkscape:current-layer="svg70"
   inkscape:document-rotation="0" />
 <defs
   class="ClipPathGroup"
   id="defs8">
  <clipPath
   id="presentation_clip_path"
   clipPathUnits="userSpaceOnUse">
   <rect
   x="0"
   y="0"
   width="1296"
   height="1296"
   id="rect2" />
  </clipPath>
  <clipPath
   id="presentation_clip_path_shrink"
   clipPathUnits="userSpaceOnUse">
   <rect
   x="1"
   y="1"
   width="1294"
   height="1294"
   id="rect5" />
  </clipPath>
 </defs>
 <defs
   class="TextShapeIndex"
   id="defs12">
  <g
   ooo:slide="id1"
   ooo:id-list="id3"
   id="g10" />
 </defs>
 <defs
   class="EmbeddedBulletChars"
   id="defs44">
  <g
   id="bullet-char-template-57356"
   transform="scale(0.00048828125,-0.00048828125)">
   <path
   d="M 580,1141 L 1163,571 580,0 -4,571 580,1141 Z"
   id="path14" />
  </g>
  <g
   id="bullet-char-template-57354"
   transform="scale(0.00048828125,-0.00048828125)">
   <path
   d="M 8,1128 L 1137,1128 1137,0 8,0 8,1128 Z"
   id="path17" />
  </g>
  <g
   id="bullet-char-template-10146"
   transform="scale(0.00048828125,-0.00048828125)">
   <path
   d="M 174,0 L 602,739 174,1481 1456,739 174,0 Z M 1358,739 L 309,1346 659,739 1358,739 Z"
   id="path20" />
  </g>
  <g
   id="bullet-char-template-10132"
   transform="scale(0.00048828125,-0.00048828125)">
   <path
   d="M 2015,739 L 1276,0 717,0 1260,543 174,543 174,936 1260,936 717,1481 1274,1481 2015,739 Z"
   id="path23" />
  </g>
  <g
   id="bullet-char-template-10007"
   transform="scale(0.00048828125,-0.00048828125)">
   <path
   d="M 0,-2 C -7,14 -16,27 -25,37 L 356,567 C 262,823 215,952 215,954 215,979 228,992 255,992 264,992 276,990 289,987 310,991 331,999 354,1012 L 381,999 492,748 772,1049 836,1024 860,1049 C 881,1039 901,1025 922,1006 886,937 835,863 770,784 769,783 710,716 594,584 L 774,223 C 774,196 753,168 711,139 L 727,119 C 717,90 699,76 672,76 641,76 570,178 457,381 L 164,-76 C 142,-110 111,-127 72,-127 30,-127 9,-110 8,-76 1,-67 -2,-52 -2,-32 -2,-23 -1,-13 0,-2 Z"
   id="path26" />
  </g>
  <g
   id="bullet-char-template-10004"
   transform="scale(0.00048828125,-0.00048828125)">
   <path
   d="M 285,-33 C 182,-33 111,30 74,156 52,228 41,333 41,471 41,549 55,616 82,672 116,743 169,778 240,778 293,778 328,747 346,684 L 369,508 C 377,444 397,411 428,410 L 1163,1116 C 1174,1127 1196,1133 1229,1133 1271,1133 1292,1118 1292,1087 L 1292,965 C 1292,929 1282,901 1262,881 L 442,47 C 390,-6 338,-33 285,-33 Z"
   id="path29" />
  </g>
  <g
   id="bullet-char-template-9679"
   transform="scale(0.00048828125,-0.00048828125)">
   <path
   d="M 813,0 C 632,0 489,54 383,161 276,268 223,411 223,592 223,773 276,916 383,1023 489,1130 632,1184 813,1184 992,1184 1136,1130 1245,1023 1353,916 1407,772 1407,592 1407,412 1353,268 1245,161 1136,54 992,0 813,0 Z"
   id="path32" />
  </g>
  <g
   id="bullet-char-template-8226"
   transform="scale(0.00048828125,-0.00048828125)">
   <path
   d="M 346,457 C 273,457 209,483 155,535 101,586 74,649 74,723 74,796 101,859 155,911 209,963 273,989 346,989 419,989 480,963 531,910 582,859 608,796 608,723 608,648 583,586 532,535 482,483 420,457 346,457 Z"
   id="path35" />
  </g>
  <g
   id="bullet-char-template-8211"
   transform="scale(0.00048828125,-0.00048828125)">
   <path
   d="M -4,459 L 1135,459 1135,606 -4,606 -4,459 Z"
   id="path38" />
  </g>
  <g
   id="bullet-char-template-61548"
   transform="scale(0.00048828125,-0.00048828125)">
   <path
   d="M 173,740 C 173,903 231,1043 346,1159 462,1274 601,1332 765,1332 928,1332 1067,1274 1183,1159 1299,1043 1357,903 1357,740 1357,577 1299,437 1183,322 1067,206 928,148 765,148 601,148 462,206 346,322 231,437 173,577 173,740 Z"
   id="path41" />
  </g>
 </defs>
 <defs
   class="TextEmbeddedBitmaps"
   id="defs46" />
 <g
   id="g51">
  <g
   id="id2"
   class="Master_Slide">
   <g
   id="bg-id2"
   class="Background" />
   <g
   id="bo-id2"
   class="BackgroundObjects" />
  </g>
 </g>
 
<path
   style="fill:#ffffff;stroke-width:95.1786"
   d="M 95.227764,631.74398 V 216.92762 H 199.77497 304.32218 v -33.72488 -33.72491 h 32.03867 32.03868 v 33.72491 33.72488 h 175.3695 175.36951 v -33.72488 -33.72491 h 33.72492 33.72488 v 33.72491 33.72488 h 102.86097 102.86096 v 246.69654 246.6965 l -31.99451,32.37712 -31.99456,32.37708 -0.0444,-142.50207 -0.0444,-142.5021 -383.62083,0.85751 -383.62079,0.85752 -0.86529,245.34869 -0.8653,245.3487 h 141.25862 141.25854 l 34.97611,27.40379 c 19.23681,15.072 37.19832,29.4894 39.9144,32.0386 4.19226,3.9348 -27.26704,4.6349 -208.25132,4.6349 H 95.227764 Z M 928.23297,355.19976 v -70.8223 h -70.8223 -70.82233 v 33.72492 33.72488 H 752.86346 719.13854 V 318.10238 284.37746 H 543.76903 368.39953 v 33.72492 33.72488 H 336.36085 304.32218 V 318.10238 284.37746 H 231.81364 159.3051 v 70.8223 70.82229 h 384.46393 384.46394 z"
   id="path80" /><path
   style="fill:#ffffff;stroke-width:95.1786"
   d="m 655.26741,1059.942 c -58.31503,-46.3945 -106.62869,-84.95508 -107.36375,-85.69014 -0.7349,-0.73491 7.33896,-12.86279 17.94221,-26.95051 12.68543,-16.85411 20.56898,-24.62497 23.05147,-22.72203 2.07507,1.59057 39.93006,31.96344 84.12229,67.49525 44.19223,35.53173 81.48537,64.60323 82.87362,64.60323 1.38832,0 91.02004,-92.57484 199.18163,-205.7219 108.16162,-113.14707 197.63362,-205.72193 198.82682,-205.72193 1.1931,0 11.8713,9.78903 23.7293,21.75338 l 21.56,21.75339 -59.068,61.71575 c -32.4875,33.94368 -129.9619,136.07919 -216.60999,226.96781 -86.64809,90.8886 -158.59415,165.6164 -159.88017,166.0617 -1.28608,0.4452 -50.05044,-37.1495 -108.36543,-83.544 z"
   id="path82" /><path
   style="fill:#008fb4;fill-opacity:1;stroke-width:95.1786"
   d="M 96.914008,631.74402 V 216.92766 H 201.46122 306.00843 v -33.72492 -33.72488 h 30.35242 30.35239 v 33.72488 33.72492 H 543.769 720.82475 v -33.72492 -33.72488 h 32.03867 32.03867 v 33.72488 33.72492 h 102.86097 102.86097 v 247.10525 247.10525 l -30.35243,30.21178 -30.35242,30.21181 V 630.83057 490.09939 H 545.98609 162.053 l -2.20695,58.17546 c -1.21385,31.99652 -2.21138,142.78284 -2.21694,246.19184 l -0.0103,188.01635 H 298.8438 440.06882 l 37.28039,29.82736 37.28044,29.8275 -62.99761,2.2017 c -34.6487,1.2109 -128.63474,2.2059 -208.85784,2.2114 l -145.860229,0.01 z M 929.91918,355.19979 v -70.82233 h -72.50854 -72.50855 v 33.72492 33.72492 H 752.86342 720.82475 V 318.10238 284.37746 H 543.769 366.71324 v 33.72492 33.72492 h -30.35239 -30.35242 v -33.72492 -33.72492 h -74.19479 -74.19479 v 70.82233 70.8223 H 543.769 929.91918 Z"
   id="path52" /><path
   style="fill:#008fb4;fill-opacity:1;stroke-width:95.1786"
   d="M 740.58356,1124.9513 C 712.22112,1102.9165 555.75075,978.85458 552.04614,975.46416 c -1.75281,-1.6039 2.78405,-10.5195 10.66419,-20.95651 25.37632,-33.61072 14.82107,-36.93795 101.17423,31.89217 42.08734,33.54678 80.0586,63.31118 84.38059,66.14308 9.87819,6.4724 -9.758,25.5203 219.11297,-212.54759 101.19738,-105.26386 185.00388,-191.38885 186.23668,-191.38885 4.0201,0 40.5687,35.56385 40.5687,39.47571 0,4.82909 -427.08267,453.08833 -431.3602,452.74883 -1.10273,-0.089 -11.11054,-7.2333 -22.23974,-15.8797 z"
   id="path877" /></svg>
