<?xml version="1.0" encoding="UTF-8" standalone="no"?>
<svg
   xmlns:ooo="http://xml.openoffice.org/svg/export"
   xmlns:dc="http://purl.org/dc/elements/1.1/"
   xmlns:cc="http://creativecommons.org/ns#"
   xmlns:rdf="http://www.w3.org/1999/02/22-rdf-syntax-ns#"
   xmlns:svg="http://www.w3.org/2000/svg"
   xmlns="http://www.w3.org/2000/svg"
   xmlns:sodipodi="http://sodipodi.sourceforge.net/DTD/sodipodi-0.dtd"
   xmlns:inkscape="http://www.inkscape.org/namespaces/inkscape"
   version="1.2"
   width="12.96mm"
   height="12.96mm"
   viewBox="0 0 1296 1296"
   preserveAspectRatio="xMidYMid"
   fill-rule="evenodd"
   stroke-width="28.222"
   stroke-linejoin="round"
   xml:space="preserve"
   id="svg72"
   sodipodi:docname="icon.svg"
   inkscape:export-filename="C:\Users\Formacion\Desktop\iconos Adaptable\Gris oscuro\pix_plugins\mod\chat\icon.png"
   inkscape:export-xdpi="94.074074"
   inkscape:export-ydpi="94.074074"
   inkscape:version="1.0.1 (3bc2e813f5, 2020-09-07)"><metadata
   id="metadata76"><rdf:RDF><cc:Work
       rdf:about=""><dc:format>image/svg+xml</dc:format><dc:type
         rdf:resource="http://purl.org/dc/dcmitype/StillImage" /></cc:Work></rdf:RDF></metadata><sodipodi:namedview
   pagecolor="#ffffff"
   bordercolor="#666666"
   borderopacity="1"
   objecttolerance="10"
   gridtolerance="10"
   guidetolerance="10"
   inkscape:pageopacity="0"
   inkscape:pageshadow="2"
   inkscape:window-width="1366"
   inkscape:window-height="705"
   id="namedview74"
   showgrid="false"
   inkscape:zoom="10.983475"
   inkscape:cx="24.491339"
   inkscape:cy="24.491339"
   inkscape:window-x="-8"
   inkscape:window-y="-8"
   inkscape:window-maximized="1"
   inkscape:current-layer="svg72"
   inkscape:document-rotation="0" />
 <defs
   class="ClipPathGroup"
   id="defs8">
  <clipPath
   id="presentation_clip_path"
   clipPathUnits="userSpaceOnUse">
   <rect
   x="0"
   y="0"
   width="1296"
   height="1296"
   id="rect2" />
  </clipPath>
  <clipPath
   id="presentation_clip_path_shrink"
   clipPathUnits="userSpaceOnUse">
   <rect
   x="1"
   y="1"
   width="1294"
   height="1294"
   id="rect5" />
  </clipPath>
 </defs>
 <defs
   class="TextShapeIndex"
   id="defs12">
  <g
   ooo:slide="id1"
   ooo:id-list="id3"
   id="g10" />
 </defs>
 <defs
   class="EmbeddedBulletChars"
   id="defs44">
  <g
   id="bullet-char-template-57356"
   transform="scale(0.00048828125,-0.00048828125)">
   <path
   d="M 580,1141 L 1163,571 580,0 -4,571 580,1141 Z"
   id="path14" />
  </g>
  <g
   id="bullet-char-template-57354"
   transform="scale(0.00048828125,-0.00048828125)">
   <path
   d="M 8,1128 L 1137,1128 1137,0 8,0 8,1128 Z"
   id="path17" />
  </g>
  <g
   id="bullet-char-template-10146"
   transform="scale(0.00048828125,-0.00048828125)">
   <path
   d="M 174,0 L 602,739 174,1481 1456,739 174,0 Z M 1358,739 L 309,1346 659,739 1358,739 Z"
   id="path20" />
  </g>
  <g
   id="bullet-char-template-10132"
   transform="scale(0.00048828125,-0.00048828125)">
   <path
   d="M 2015,739 L 1276,0 717,0 1260,543 174,543 174,936 1260,936 717,1481 1274,1481 2015,739 Z"
   id="path23" />
  </g>
  <g
   id="bullet-char-template-10007"
   transform="scale(0.00048828125,-0.00048828125)">
   <path
   d="M 0,-2 C -7,14 -16,27 -25,37 L 356,567 C 262,823 215,952 215,954 215,979 228,992 255,992 264,992 276,990 289,987 310,991 331,999 354,1012 L 381,999 492,748 772,1049 836,1024 860,1049 C 881,1039 901,1025 922,1006 886,937 835,863 770,784 769,783 710,716 594,584 L 774,223 C 774,196 753,168 711,139 L 727,119 C 717,90 699,76 672,76 641,76 570,178 457,381 L 164,-76 C 142,-110 111,-127 72,-127 30,-127 9,-110 8,-76 1,-67 -2,-52 -2,-32 -2,-23 -1,-13 0,-2 Z"
   id="path26" />
  </g>
  <g
   id="bullet-char-template-10004"
   transform="scale(0.00048828125,-0.00048828125)">
   <path
   d="M 285,-33 C 182,-33 111,30 74,156 52,228 41,333 41,471 41,549 55,616 82,672 116,743 169,778 240,778 293,778 328,747 346,684 L 369,508 C 377,444 397,411 428,410 L 1163,1116 C 1174,1127 1196,1133 1229,1133 1271,1133 1292,1118 1292,1087 L 1292,965 C 1292,929 1282,901 1262,881 L 442,47 C 390,-6 338,-33 285,-33 Z"
   id="path29" />
  </g>
  <g
   id="bullet-char-template-9679"
   transform="scale(0.00048828125,-0.00048828125)">
   <path
   d="M 813,0 C 632,0 489,54 383,161 276,268 223,411 223,592 223,773 276,916 383,1023 489,1130 632,1184 813,1184 992,1184 1136,1130 1245,1023 1353,916 1407,772 1407,592 1407,412 1353,268 1245,161 1136,54 992,0 813,0 Z"
   id="path32" />
  </g>
  <g
   id="bullet-char-template-8226"
   transform="scale(0.00048828125,-0.00048828125)">
   <path
   d="M 346,457 C 273,457 209,483 155,535 101,586 74,649 74,723 74,796 101,859 155,911 209,963 273,989 346,989 419,989 480,963 531,910 582,859 608,796 608,723 608,648 583,586 532,535 482,483 420,457 346,457 Z"
   id="path35" />
  </g>
  <g
   id="bullet-char-template-8211"
   transform="scale(0.00048828125,-0.00048828125)">
   <path
   d="M -4,459 L 1135,459 1135,606 -4,606 -4,459 Z"
   id="path38" />
  </g>
  <g
   id="bullet-char-template-61548"
   transform="scale(0.00048828125,-0.00048828125)">
   <path
   d="M 173,740 C 173,903 231,1043 346,1159 462,1274 601,1332 765,1332 928,1332 1067,1274 1183,1159 1299,1043 1357,903 1357,740 1357,577 1299,437 1183,322 1067,206 928,148 765,148 601,148 462,206 346,322 231,437 173,577 173,740 Z"
   id="path41" />
  </g>
 </defs>
 <defs
   class="TextEmbeddedBitmaps"
   id="defs46" />
 <g
   id="g51">
  <g
   id="id2"
   class="Master_Slide">
   <g
   id="bg-id2"
   class="Background" />
   <g
   id="bo-id2"
   class="BackgroundObjects" />
  </g>
 </g>
 
<path
   style="fill:#008fb4;stroke-width:95.1786"
   d="m 321.48578,844.23205 -21.39374,-94.07701 -16.31919,-7.37537 C 261.10646,732.53572 221.80944,706.2827 201.14823,687.58088 163.47696,653.48225 123.61313,590.64495 114.13228,550.41789 103.11892,503.68846 108.88444,461.06969 132.654,413.50515 167.69308,343.38957 237.56396,282.8613 311.03852,258.97287 c 53.41078,-17.36517 77.52194,-20.51256 155.31489,-20.27423 67.21125,0.20743 74.89991,0.8664 105.2413,9.04227 75.77054,20.41711 134.00715,58.2914 172.29153,112.05023 l 11.94094,16.76739 -32.60156,5.54518 c -63.1413,10.73967 -111.46778,35.73161 -155.69749,80.51861 -41.43937,41.96158 -67.06235,92.52116 -74.10701,146.22906 -7.02191,53.53461 -3.56637,100.86082 11.81137,161.77066 4.58472,18.15927 8.33578,33.83415 8.33578,34.83302 0,0.99901 -24.58866,1.41943 -54.64142,0.93493 l -54.64142,-0.88122 -28.26579,63.85053 c -15.54621,35.11784 -29.36252,64.99794 -30.70295,66.4003 -1.34054,1.4024 -12.06436,-39.78493 -23.83091,-91.52725 z m 47.0654,-63.63743 8.43124,-16.0096 39.62677,-0.95011 c 21.79472,-0.52266 39.62647,-1.28128 39.62617,-1.68614 -3.3e-4,-0.40487 -2.27658,-12.63114 -5.05874,-27.16954 -9.78937,-51.15847 -5.04267,-142.30138 9.52549,-182.90123 20.14092,-56.13057 65.31586,-117.3993 113.57101,-154.03122 18.63977,-14.15002 60.79022,-36.73555 90.8455,-48.67786 8.12731,-3.22929 8.04634,-3.38523 -7.21787,-13.88714 -59.06305,-40.63645 -126.46199,-57.6249 -211.78228,-53.38141 -80.04745,3.98124 -129.31201,16.56874 -174.56674,44.60331 -48.77465,30.21508 -90.56102,78.21167 -109.19835,125.42712 -10.56754,26.77168 -10.91674,81.90039 -0.68009,107.38316 22.62757,56.32875 88.82366,121.62446 152.06927,150.00082 12.44374,5.58318 23.59735,11.72451 24.78584,13.64745 1.18829,1.92283 5.62548,19.28356 9.86001,38.57897 4.23456,19.29545 8.60648,35.07827 9.71539,35.0729 1.10903,-0.007 5.81029,-7.21409 10.44746,-16.01933 z"
   id="path54" /><path
   style="fill:#008fb4;stroke-width:95.1786"
   d="M 967.46529,1004.3657 913.80244,952.75158 869.66303,950.5976 C 805.04873,947.44425 725.03877,931.32053 684.04587,913.19152 634.68889,891.36353 590.29456,848.54559 566.01119,799.34811 547.53166,761.9091 540.66836,731.95865 540.65662,688.70406 540.62617,576.7597 612.24875,485.87253 724.34895,455.60334 c 38.37331,-10.36152 135.47441,-12.86813 184.65707,-4.76682 67.08616,11.05038 133.08788,38.59312 184.63068,77.04703 68.3866,51.02049 91.377,97.6248 91.2703,185.01672 -0.055,44.25416 -9.3021,89.50018 -25.0925,122.76367 -10.1159,21.30985 -14.3537,26.14701 -39.5962,45.19624 -25.6422,19.35083 -63.2075,40.36249 -80.0234,44.75993 -8.5609,2.2388 -9.8263,9.90172 -12.5304,75.88249 -1.2354,30.1416 -3.2112,54.7296 -4.3912,54.6401 -1.1798,-0.089 -26.29347,-23.3892 -55.80801,-51.7769 z m 18.28099,-61.88178 c 0.0169,-6.95576 0.97975,-20.56049 2.14175,-30.2327 l 2.11248,-17.58583 17.25009,-5.57325 c 29.6439,-9.57749 76.6022,-36.09751 95.0584,-53.68478 14.7525,-14.05806 18.8763,-20.73408 24.7958,-40.14161 23.7314,-77.80639 14.6672,-152.11746 -23.9149,-196.06006 -27.4267,-31.23727 -85.4717,-65.86734 -136.02172,-81.15151 -28.67218,-8.66927 -34.92629,-9.25649 -112.97842,-10.60766 -73.72669,-1.27646 -86.25811,-0.68342 -116.34828,5.50383 -98.35195,20.22368 -151.12811,83.36602 -151.12811,180.81238 0,133.61329 108.85409,210.71452 297.56812,210.76712 l 48.64045,0.0135 23.30654,25.29368 c 12.8186,13.91152 24.69749,25.29368 26.39748,25.29368 1.70022,0 3.1041,-5.69108 3.12039,-12.64684 z"
   id="path879" /></svg>
