<?xml version="1.0" encoding="UTF-8" standalone="no"?>
<svg
   xmlns:ooo="http://xml.openoffice.org/svg/export"
   xmlns:dc="http://purl.org/dc/elements/1.1/"
   xmlns:cc="http://creativecommons.org/ns#"
   xmlns:rdf="http://www.w3.org/1999/02/22-rdf-syntax-ns#"
   xmlns:svg="http://www.w3.org/2000/svg"
   xmlns="http://www.w3.org/2000/svg"
   xmlns:sodipodi="http://sodipodi.sourceforge.net/DTD/sodipodi-0.dtd"
   xmlns:inkscape="http://www.inkscape.org/namespaces/inkscape"
   version="1.2"
   width="12.7mm"
   height="12.7mm"
   viewBox="0 0 1270 1270"
   preserveAspectRatio="xMidYMid"
   fill-rule="evenodd"
   stroke-width="28.222"
   stroke-linejoin="round"
   xml:space="preserve"
   id="svg79"
   sodipodi:docname="icon.svg"
   inkscape:export-filename="C:\Users\Formacion\Desktop\iconos Adaptable\Gris oscuro\pix_plugins\mod\mediagallery\icon.png"
   inkscape:export-xdpi="96"
   inkscape:export-ydpi="96"
   inkscape:version="1.0.1 (3bc2e813f5, 2020-09-07)"><metadata
   id="metadata83"><rdf:RDF><cc:Work
       rdf:about=""><dc:format>image/svg+xml</dc:format><dc:type
         rdf:resource="http://purl.org/dc/dcmitype/StillImage" /></cc:Work></rdf:RDF></metadata><sodipodi:namedview
   pagecolor="#ffffff"
   bordercolor="#666666"
   borderopacity="1"
   objecttolerance="10"
   gridtolerance="10"
   guidetolerance="10"
   inkscape:pageopacity="0"
   inkscape:pageshadow="2"
   inkscape:window-width="1366"
   inkscape:window-height="705"
   id="namedview81"
   showgrid="false"
   inkscape:zoom="11.208334"
   inkscape:cx="24"
   inkscape:cy="24"
   inkscape:window-x="-8"
   inkscape:window-y="-8"
   inkscape:window-maximized="1"
   inkscape:current-layer="svg79"
   inkscape:document-rotation="0" />
 <defs
   class="ClipPathGroup"
   id="defs8">
  <clipPath
   id="presentation_clip_path"
   clipPathUnits="userSpaceOnUse">
   <rect
   x="0"
   y="0"
   width="1270"
   height="1270"
   id="rect2" />
  </clipPath>
  <clipPath
   id="presentation_clip_path_shrink"
   clipPathUnits="userSpaceOnUse">
   <rect
   x="1"
   y="1"
   width="1268"
   height="1268"
   id="rect5" />
  </clipPath>
 </defs>
 <defs
   class="TextShapeIndex"
   id="defs12">
  <g
   ooo:slide="id1"
   ooo:id-list="id3"
   id="g10" />
 </defs>
 <defs
   class="EmbeddedBulletChars"
   id="defs44">
  <g
   id="bullet-char-template-57356"
   transform="scale(0.00048828125,-0.00048828125)">
   <path
   d="M 580,1141 L 1163,571 580,0 -4,571 580,1141 Z"
   id="path14" />
  </g>
  <g
   id="bullet-char-template-57354"
   transform="scale(0.00048828125,-0.00048828125)">
   <path
   d="M 8,1128 L 1137,1128 1137,0 8,0 8,1128 Z"
   id="path17" />
  </g>
  <g
   id="bullet-char-template-10146"
   transform="scale(0.00048828125,-0.00048828125)">
   <path
   d="M 174,0 L 602,739 174,1481 1456,739 174,0 Z M 1358,739 L 309,1346 659,739 1358,739 Z"
   id="path20" />
  </g>
  <g
   id="bullet-char-template-10132"
   transform="scale(0.00048828125,-0.00048828125)">
   <path
   d="M 2015,739 L 1276,0 717,0 1260,543 174,543 174,936 1260,936 717,1481 1274,1481 2015,739 Z"
   id="path23" />
  </g>
  <g
   id="bullet-char-template-10007"
   transform="scale(0.00048828125,-0.00048828125)">
   <path
   d="M 0,-2 C -7,14 -16,27 -25,37 L 356,567 C 262,823 215,952 215,954 215,979 228,992 255,992 264,992 276,990 289,987 310,991 331,999 354,1012 L 381,999 492,748 772,1049 836,1024 860,1049 C 881,1039 901,1025 922,1006 886,937 835,863 770,784 769,783 710,716 594,584 L 774,223 C 774,196 753,168 711,139 L 727,119 C 717,90 699,76 672,76 641,76 570,178 457,381 L 164,-76 C 142,-110 111,-127 72,-127 30,-127 9,-110 8,-76 1,-67 -2,-52 -2,-32 -2,-23 -1,-13 0,-2 Z"
   id="path26" />
  </g>
  <g
   id="bullet-char-template-10004"
   transform="scale(0.00048828125,-0.00048828125)">
   <path
   d="M 285,-33 C 182,-33 111,30 74,156 52,228 41,333 41,471 41,549 55,616 82,672 116,743 169,778 240,778 293,778 328,747 346,684 L 369,508 C 377,444 397,411 428,410 L 1163,1116 C 1174,1127 1196,1133 1229,1133 1271,1133 1292,1118 1292,1087 L 1292,965 C 1292,929 1282,901 1262,881 L 442,47 C 390,-6 338,-33 285,-33 Z"
   id="path29" />
  </g>
  <g
   id="bullet-char-template-9679"
   transform="scale(0.00048828125,-0.00048828125)">
   <path
   d="M 813,0 C 632,0 489,54 383,161 276,268 223,411 223,592 223,773 276,916 383,1023 489,1130 632,1184 813,1184 992,1184 1136,1130 1245,1023 1353,916 1407,772 1407,592 1407,412 1353,268 1245,161 1136,54 992,0 813,0 Z"
   id="path32" />
  </g>
  <g
   id="bullet-char-template-8226"
   transform="scale(0.00048828125,-0.00048828125)">
   <path
   d="M 346,457 C 273,457 209,483 155,535 101,586 74,649 74,723 74,796 101,859 155,911 209,963 273,989 346,989 419,989 480,963 531,910 582,859 608,796 608,723 608,648 583,586 532,535 482,483 420,457 346,457 Z"
   id="path35" />
  </g>
  <g
   id="bullet-char-template-8211"
   transform="scale(0.00048828125,-0.00048828125)">
   <path
   d="M -4,459 L 1135,459 1135,606 -4,606 -4,459 Z"
   id="path38" />
  </g>
  <g
   id="bullet-char-template-61548"
   transform="scale(0.00048828125,-0.00048828125)">
   <path
   d="M 173,740 C 173,903 231,1043 346,1159 462,1274 601,1332 765,1332 928,1332 1067,1274 1183,1159 1299,1043 1357,903 1357,740 1357,577 1299,437 1183,322 1067,206 928,148 765,148 601,148 462,206 346,322 231,437 173,577 173,740 Z"
   id="path41" />
  </g>
 </defs>
 <defs
   class="TextEmbeddedBitmaps"
   id="defs46" />
 <g
   id="g51">
  <g
   id="id2"
   class="Master_Slide">
   <g
   id="bg-id2"
   class="Background" />
   <g
   id="bo-id2"
   class="BackgroundObjects" />
  </g>
 </g>
 
<path
   style="fill:#008fb4;stroke-width:93.2691"
   d="m 499.55724,767.34481 c -13.60796,-6.16632 -23.07385,-15.45697 -27.81088,-27.29593 -4.5272,-11.31467 -5.23747,-34.74608 -5.23747,-172.78744 v -159.6977 l 7.51827,-14.21722 c 11.53585,-21.81465 32.88307,-31.06014 53.5624,-23.19786 4.74852,1.80541 54.29389,31.29683 110.10083,65.53656 55.80697,34.23972 113.36457,69.34555 127.90584,78.01297 14.54126,8.66741 29.41301,19.7015 33.04835,24.52014 9.26249,12.2776 9.20463,42.80635 -0.10372,55.27531 -11.16721,14.95728 -232.6457,157.21857 -267.31974,171.70627 -12.25783,5.12168 -23.42437,5.87811 -31.66281,2.14509 z M 573.0582,666.69209 c 20.466,-13.22618 63.5895,-40.36712 95.83001,-60.31317 32.24052,-19.94605 58.63785,-37.28114 58.66078,-38.52237 0.0229,-1.24127 -12.9711,-10.10226 -28.87561,-19.6912 -15.9045,-9.58891 -56.90341,-34.97274 -91.10868,-56.40853 -34.20531,-21.43579 -65.06417,-40.51159 -68.57527,-42.39071 -6.25519,-3.34783 -6.38388,-0.94938 -6.38388,118.97854 0,67.3173 0.72935,122.39511 1.62095,122.39511 0.89159,0 18.36581,-10.82147 38.83178,-24.04767 z"
   id="path58" /><path
   style="fill:#008fb4;stroke-width:93.2691"
   d="m 165.3801,1102.586 c -28.88961,-10.3237 -47.78282,-27.7808 -61.23088,-56.5768 l -7.716987,-16.5241 -0.03229,-395.10487 -0.03229,-395.10478 8.741897,-17.54268 c 11.26312,-22.60215 27.63936,-38.80277 49.20216,-48.67456 l 17.2053,-7.87684 465.58607,0.87122 465.58612,0.87122 17.7099,9.80923 c 22.1007,12.24123 38.0927,30.64453 46.7605,53.81124 6.5959,17.62924 6.6765,23.31858 5.8099,410.06147 l -0.879,392.18415 -9.3133,18.966 c -10.8674,22.1306 -30.6762,39.7951 -54.983,49.0309 -16.2393,6.1705 -30.4878,6.3575 -473.60066,6.2168 -364.89087,-0.1148 -459.2644,-1.0049 -468.81359,-4.4175 z m 933.1148,-70.6766 10.8039,-10.795 1.0957,-41.2561 1.0957,-41.25612 H 787.34713 463.20399 v 16.52417 16.52414 h -66.09656 -66.09666 v -16.52414 -16.52417 h -85.92563 -85.92566 v 39.87524 c 0,21.93138 1.58205,42.83138 3.51562,46.44448 1.93358,3.6131 8.25414,9.4675 14.04553,13.0098 10.31977,6.3121 19.50926,6.4239 460.75003,5.6066 l 450.22014,-0.8338 z M 331.01077,855.98137 v -16.52418 h 66.09666 66.09664 v 16.52418 16.52414 h 323.87358 323.87355 l -0.01,-306.5232 c 0,-285.22094 -0.4067,-307.32388 -5.7834,-318.04415 -3.1767,-6.3365 -9.4948,-13.37867 -14.039,-15.64921 -6.467,-3.23152 -94.06331,-4.13671 -403.18953,-4.16693 -217.21011,-0.0212 -420.95302,0.94604 -452.76203,2.1499 l -57.8346,2.18842 -9.08828,9.71784 -9.08828,9.71785 V 562.2008 872.50551 h 85.92566 85.92563 z"
   id="path60" /></svg>
