<?xml version="1.0" encoding="UTF-8" standalone="no"?>
<svg
   xmlns:ooo="http://xml.openoffice.org/svg/export"
   xmlns:dc="http://purl.org/dc/elements/1.1/"
   xmlns:cc="http://creativecommons.org/ns#"
   xmlns:rdf="http://www.w3.org/1999/02/22-rdf-syntax-ns#"
   xmlns:svg="http://www.w3.org/2000/svg"
   xmlns="http://www.w3.org/2000/svg"
   xmlns:sodipodi="http://sodipodi.sourceforge.net/DTD/sodipodi-0.dtd"
   xmlns:inkscape="http://www.inkscape.org/namespaces/inkscape"
   version="1.2"
   width="12.7mm"
   height="12.7mm"
   viewBox="0 0 1270 1270"
   preserveAspectRatio="xMidYMid"
   fill-rule="evenodd"
   stroke-width="28.222"
   stroke-linejoin="round"
   xml:space="preserve"
   id="svg99"
   sodipodi:docname="icon.svg"
   inkscape:export-filename="C:\Users\Formacion\Desktop\iconos Adaptable\Gris oscuro\pix_plugins\mod\equella\icon.png"
   inkscape:export-xdpi="96.435402"
   inkscape:export-ydpi="96.435402"
   inkscape:version="1.0.1 (3bc2e813f5, 2020-09-07)"><metadata
   id="metadata103"><rdf:RDF><cc:Work
       rdf:about=""><dc:format>image/svg+xml</dc:format><dc:type
         rdf:resource="http://purl.org/dc/dcmitype/StillImage" /></cc:Work></rdf:RDF></metadata><sodipodi:namedview
   pagecolor="#ffffff"
   bordercolor="#666666"
   borderopacity="1"
   objecttolerance="10"
   gridtolerance="10"
   guidetolerance="10"
   inkscape:pageopacity="0"
   inkscape:pageshadow="2"
   inkscape:window-width="1366"
   inkscape:window-height="705"
   id="namedview101"
   showgrid="false"
   inkscape:zoom="11.208334"
   inkscape:cx="24"
   inkscape:cy="24"
   inkscape:window-x="-8"
   inkscape:window-y="-8"
   inkscape:window-maximized="1"
   inkscape:current-layer="svg99"
   inkscape:document-rotation="0" />
 <defs
   class="ClipPathGroup"
   id="defs8">
  <clipPath
   id="presentation_clip_path"
   clipPathUnits="userSpaceOnUse">
   <rect
   x="0"
   y="0"
   width="1270"
   height="1270"
   id="rect2" />
  </clipPath>
  <clipPath
   id="presentation_clip_path_shrink"
   clipPathUnits="userSpaceOnUse">
   <rect
   x="1"
   y="1"
   width="1268"
   height="1268"
   id="rect5" />
  </clipPath>
 </defs>
 <defs
   class="TextShapeIndex"
   id="defs12">
  <g
   ooo:slide="id1"
   ooo:id-list="id3"
   id="g10" />
 </defs>
 <defs
   class="EmbeddedBulletChars"
   id="defs44">
  <g
   id="bullet-char-template-57356"
   transform="scale(0.00048828125,-0.00048828125)">
   <path
   d="M 580,1141 L 1163,571 580,0 -4,571 580,1141 Z"
   id="path14" />
  </g>
  <g
   id="bullet-char-template-57354"
   transform="scale(0.00048828125,-0.00048828125)">
   <path
   d="M 8,1128 L 1137,1128 1137,0 8,0 8,1128 Z"
   id="path17" />
  </g>
  <g
   id="bullet-char-template-10146"
   transform="scale(0.00048828125,-0.00048828125)">
   <path
   d="M 174,0 L 602,739 174,1481 1456,739 174,0 Z M 1358,739 L 309,1346 659,739 1358,739 Z"
   id="path20" />
  </g>
  <g
   id="bullet-char-template-10132"
   transform="scale(0.00048828125,-0.00048828125)">
   <path
   d="M 2015,739 L 1276,0 717,0 1260,543 174,543 174,936 1260,936 717,1481 1274,1481 2015,739 Z"
   id="path23" />
  </g>
  <g
   id="bullet-char-template-10007"
   transform="scale(0.00048828125,-0.00048828125)">
   <path
   d="M 0,-2 C -7,14 -16,27 -25,37 L 356,567 C 262,823 215,952 215,954 215,979 228,992 255,992 264,992 276,990 289,987 310,991 331,999 354,1012 L 381,999 492,748 772,1049 836,1024 860,1049 C 881,1039 901,1025 922,1006 886,937 835,863 770,784 769,783 710,716 594,584 L 774,223 C 774,196 753,168 711,139 L 727,119 C 717,90 699,76 672,76 641,76 570,178 457,381 L 164,-76 C 142,-110 111,-127 72,-127 30,-127 9,-110 8,-76 1,-67 -2,-52 -2,-32 -2,-23 -1,-13 0,-2 Z"
   id="path26" />
  </g>
  <g
   id="bullet-char-template-10004"
   transform="scale(0.00048828125,-0.00048828125)">
   <path
   d="M 285,-33 C 182,-33 111,30 74,156 52,228 41,333 41,471 41,549 55,616 82,672 116,743 169,778 240,778 293,778 328,747 346,684 L 369,508 C 377,444 397,411 428,410 L 1163,1116 C 1174,1127 1196,1133 1229,1133 1271,1133 1292,1118 1292,1087 L 1292,965 C 1292,929 1282,901 1262,881 L 442,47 C 390,-6 338,-33 285,-33 Z"
   id="path29" />
  </g>
  <g
   id="bullet-char-template-9679"
   transform="scale(0.00048828125,-0.00048828125)">
   <path
   d="M 813,0 C 632,0 489,54 383,161 276,268 223,411 223,592 223,773 276,916 383,1023 489,1130 632,1184 813,1184 992,1184 1136,1130 1245,1023 1353,916 1407,772 1407,592 1407,412 1353,268 1245,161 1136,54 992,0 813,0 Z"
   id="path32" />
  </g>
  <g
   id="bullet-char-template-8226"
   transform="scale(0.00048828125,-0.00048828125)">
   <path
   d="M 346,457 C 273,457 209,483 155,535 101,586 74,649 74,723 74,796 101,859 155,911 209,963 273,989 346,989 419,989 480,963 531,910 582,859 608,796 608,723 608,648 583,586 532,535 482,483 420,457 346,457 Z"
   id="path35" />
  </g>
  <g
   id="bullet-char-template-8211"
   transform="scale(0.00048828125,-0.00048828125)">
   <path
   d="M -4,459 L 1135,459 1135,606 -4,606 -4,459 Z"
   id="path38" />
  </g>
  <g
   id="bullet-char-template-61548"
   transform="scale(0.00048828125,-0.00048828125)">
   <path
   d="M 173,740 C 173,903 231,1043 346,1159 462,1274 601,1332 765,1332 928,1332 1067,1274 1183,1159 1299,1043 1357,903 1357,740 1357,577 1299,437 1183,322 1067,206 928,148 765,148 601,148 462,206 346,322 231,437 173,577 173,740 Z"
   id="path41" />
  </g>
 </defs>
 <defs
   class="TextEmbeddedBitmaps"
   id="defs46" />
 <g
   id="g51">
  <g
   id="id2"
   class="Master_Slide">
   <g
   id="bg-id2"
   class="Background" />
   <g
   id="bo-id2"
   class="BackgroundObjects" />
  </g>
 </g>
 
<path
   style="fill:#008fb4;stroke-width:93.2691"
   d="m 584.76708,846.52765 c -27.01556,-7.37926 -45.12331,-31.60477 -45.27377,-60.56965 -0.0408,-7.68455 7.50094,-53.78694 16.7575,-102.4498 9.25653,-48.66282 20.37533,-109.12831 24.70846,-134.36765 8.92867,-52.00746 15.86428,-69.09889 35.08739,-86.4658 28.40455,-25.6618 24.38326,-25.14222 191.60783,-24.75861 164.03017,0.37634 161.91446,0.12964 180.28586,21.05311 13.41705,15.28109 16.19095,30.59253 11.16992,61.65404 -23.17027,143.33647 -44.94429,262.0057 -50.33896,274.34939 -8.3523,19.11099 -23.38451,34.67752 -44.16659,45.73653 l -16.52418,8.79318 -143.76019,0.66971 c -109.72764,0.51118 -147.49895,-0.35189 -159.55327,-3.64416 z"
   id="path65" /><path
   style="fill:#008fb4;stroke-width:93.2691"
   d="m 903.68764,353.59015 c -5.86192,-4.10584 -7.34499,-8.35971 -7.34499,-21.06722 0,-24.33638 13.03696,-96.47039 19.45158,-107.62645 9.71343,-16.89322 16.39238,-18.40545 76.9578,-17.42422 53.17267,0.86159 55.39687,1.17274 63.61807,8.9046 4.6854,4.40659 8.519,11.11265 8.519,14.90238 0,12.0351 -19.9704,98.31362 -25.0133,108.0655 -8.7064,16.83644 -18.786,19.39006 -76.53704,19.39006 -41.99236,0 -53.75438,-1.01457 -59.65112,-5.14465 z"
   id="path67" /><path
   style="fill:#008fb4;stroke-width:93.2691"
   d="m 613.96684,351.38977 c -12.25053,-17.49011 0.84788,-38.92264 23.78768,-38.92264 15.79471,0 20.65436,4.64113 20.58957,19.66375 -0.0593,13.5871 -2.17472,17.56671 -12.12526,22.80433 -11.90248,6.26497 -26.50483,4.65977 -32.25199,-3.54526 z"
   id="path69" /><path
   style="fill:#008fb4;stroke-width:93.2691"
   d="m 501.45007,304.63926 c -5.80976,-4.2482 -5.92785,-6.25552 -1.94357,-33.03535 2.70367,-18.17235 6.60245,-31.51327 10.75108,-36.78738 6.12143,-7.78212 8.36046,-8.27503 37.58903,-8.27503 43.62675,0 45.11331,2.82739 32.64371,62.08416 -1.25682,5.9726 -5.39382,13.03667 -9.19333,15.69797 -9.27364,6.49551 -61.07519,6.72958 -69.8468,0.31485 z"
   id="path71" /><path
   style="fill:#008fb4;stroke-width:93.2691"
   d="m 327.72677,567.45421 c -4.7946,-3.88241 -7.47934,-9.58042 -7.3964,-15.69792 0.22225,-16.38753 17.23445,-106.76742 21.33188,-113.32846 9.19882,-14.72966 18.99464,-16.90122 76.23972,-16.90122 52.4547,0 54.51029,0.25558 61.45571,7.64888 4.1416,4.40855 7.18572,11.92742 7.18572,17.74851 0,16.30982 -12.84794,87.36403 -18.62459,103.00139 -7.80801,21.1362 -16.23618,23.62351 -80.04811,23.62351 -46.21119,0 -53.53369,-0.74194 -60.14393,-6.09469 z"
   id="path73" /><path
   style="fill:#008fb4;stroke-width:93.2691"
   d="m 207.06351,449.74332 c -7.45408,-11.37635 -1.48834,-29.32696 11.54018,-34.72353 12.30091,-5.09523 30.09135,-3.1715 34.40482,3.72058 5.40997,8.64389 -2.56329,30.6259 -12.80019,35.29022 -14.20445,6.47196 -27.19622,4.79149 -33.14481,-4.28727 z"
   id="path75" /><path
   style="fill:#008fb4;stroke-width:93.2691"
   d="m 288.98882,809.657 c -6.01423,-4.21253 -7.32743,-8.25422 -7.24802,-22.3076 0.11483,-20.41803 14.06046,-97.44848 19.47184,-107.55981 7.55673,-14.11984 15.89073,-16.16654 75.25422,-18.48131 54.48963,-2.12471 57.09614,-1.93691 63.61803,4.58505 8.92659,8.9266 8.72757,21.13905 -1.25534,77.03096 -9.10133,50.95563 -11.28341,56.44087 -26.02948,65.43222 -9.26738,5.6507 -16.88007,6.42195 -63.49797,6.4328 -42.60618,0.01 -54.40506,-0.9942 -60.31317,-5.13231 z"
   id="path77" /><path
   style="fill:#008fb4;stroke-width:93.2691"
   d="m 321.96276,979.38232 c -5.10931,-5.1093 -4.93355,-12.34054 0.9879,-40.64945 6.97691,-33.35413 13.21969,-38.00556 51.00793,-38.00556 37.69637,0 37.95948,0.31115 32.98104,39.13181 -5.33663,41.61283 -7.43985,43.48899 -48.75261,43.48899 -20.68358,0 -33.68161,-1.42314 -36.22441,-3.96579 z"
   id="path79" /><path
   style="fill:#008fb4;stroke-width:93.2691"
   d="m 601.11094,1053.8512 c -7.54509,-7.5451 3.85203,-62.19394 14.89956,-71.44287 5.88822,-4.92958 12.24683,-5.74283 38.75951,-4.95725 l 31.71578,0.93975 -0.12594,21.48142 c -0.15928,27.04495 -3.65009,44.61585 -10.15305,51.11865 -3.89019,3.8902 -12.92187,5.0635 -38.97735,5.0635 -18.65263,0 -34.90532,-0.9916 -36.11711,-2.2033 z"
   id="path81" /><path
   style="fill:#008fb4;stroke-width:93.2691"
   d="m 774.34403,1050.591 c -7.41759,-5.1955 -7.70455,-6.7759 -5.85088,-32.2221 2.47624,-33.99125 13.7941,-88.85455 20.41452,-98.95863 8.81773,-13.45753 18.5102,-15.37814 77.6071,-15.37814 h 55.78679 l 7.02669,8.93297 c 7.98778,10.15486 7.99404,10.06462 -5.41727,78.42846 -4.61217,23.51034 -10.49194,45.96054 -13.06615,49.88934 -8.33126,12.7151 -18.78094,14.7715 -75.06175,14.7715 -44.53901,0 -54.9622,-0.9268 -61.43905,-5.4634 z"
   id="path83" /></svg>
