<?xml version="1.0" encoding="UTF-8" standalone="no"?>
<svg
   xmlns:ooo="http://xml.openoffice.org/svg/export"
   xmlns:dc="http://purl.org/dc/elements/1.1/"
   xmlns:cc="http://creativecommons.org/ns#"
   xmlns:rdf="http://www.w3.org/1999/02/22-rdf-syntax-ns#"
   xmlns:svg="http://www.w3.org/2000/svg"
   xmlns="http://www.w3.org/2000/svg"
   xmlns:sodipodi="http://sodipodi.sourceforge.net/DTD/sodipodi-0.dtd"
   xmlns:inkscape="http://www.inkscape.org/namespaces/inkscape"
   version="1.2"
   width="12.96mm"
   height="12.96mm"
   viewBox="0 0 1296 1296"
   preserveAspectRatio="xMidYMid"
   fill-rule="evenodd"
   stroke-width="28.222"
   stroke-linejoin="round"
   xml:space="preserve"
   id="svg72"
   sodipodi:docname="icon.svg"
   inkscape:version="1.0.1 (3bc2e813f5, 2020-09-07)"
   inkscape:export-filename="C:\Users\Formacion\Desktop\iconos Adaptable\Gris oscuro\pix_plugins\mod\courseguide\icon.png"
   inkscape:export-xdpi="94.07"
   inkscape:export-ydpi="94.07"><metadata
   id="metadata76"><rdf:RDF><cc:Work
       rdf:about=""><dc:format>image/svg+xml</dc:format><dc:type
         rdf:resource="http://purl.org/dc/dcmitype/StillImage" /></cc:Work></rdf:RDF></metadata><sodipodi:namedview
   pagecolor="#ffffff"
   bordercolor="#666666"
   borderopacity="1"
   objecttolerance="10"
   gridtolerance="10"
   guidetolerance="10"
   inkscape:pageopacity="0"
   inkscape:pageshadow="2"
   inkscape:window-width="1366"
   inkscape:window-height="705"
   id="namedview74"
   showgrid="false"
   inkscape:zoom="10.983475"
   inkscape:cx="24.491339"
   inkscape:cy="24.491339"
   inkscape:window-x="-8"
   inkscape:window-y="-8"
   inkscape:window-maximized="1"
   inkscape:current-layer="svg72"
   inkscape:document-rotation="0" />
 <defs
   class="ClipPathGroup"
   id="defs8">
  <clipPath
   id="presentation_clip_path"
   clipPathUnits="userSpaceOnUse">
   <rect
   x="0"
   y="0"
   width="1296"
   height="1296"
   id="rect2" />
  </clipPath>
  <clipPath
   id="presentation_clip_path_shrink"
   clipPathUnits="userSpaceOnUse">
   <rect
   x="1"
   y="1"
   width="1294"
   height="1294"
   id="rect5" />
  </clipPath>
 </defs>
 <defs
   class="TextShapeIndex"
   id="defs12">
  <g
   ooo:slide="id1"
   ooo:id-list="id3"
   id="g10" />
 </defs>
 <defs
   class="EmbeddedBulletChars"
   id="defs44">
  <g
   id="bullet-char-template-57356"
   transform="scale(0.00048828125,-0.00048828125)">
   <path
   d="M 580,1141 L 1163,571 580,0 -4,571 580,1141 Z"
   id="path14" />
  </g>
  <g
   id="bullet-char-template-57354"
   transform="scale(0.00048828125,-0.00048828125)">
   <path
   d="M 8,1128 L 1137,1128 1137,0 8,0 8,1128 Z"
   id="path17" />
  </g>
  <g
   id="bullet-char-template-10146"
   transform="scale(0.00048828125,-0.00048828125)">
   <path
   d="M 174,0 L 602,739 174,1481 1456,739 174,0 Z M 1358,739 L 309,1346 659,739 1358,739 Z"
   id="path20" />
  </g>
  <g
   id="bullet-char-template-10132"
   transform="scale(0.00048828125,-0.00048828125)">
   <path
   d="M 2015,739 L 1276,0 717,0 1260,543 174,543 174,936 1260,936 717,1481 1274,1481 2015,739 Z"
   id="path23" />
  </g>
  <g
   id="bullet-char-template-10007"
   transform="scale(0.00048828125,-0.00048828125)">
   <path
   d="M 0,-2 C -7,14 -16,27 -25,37 L 356,567 C 262,823 215,952 215,954 215,979 228,992 255,992 264,992 276,990 289,987 310,991 331,999 354,1012 L 381,999 492,748 772,1049 836,1024 860,1049 C 881,1039 901,1025 922,1006 886,937 835,863 770,784 769,783 710,716 594,584 L 774,223 C 774,196 753,168 711,139 L 727,119 C 717,90 699,76 672,76 641,76 570,178 457,381 L 164,-76 C 142,-110 111,-127 72,-127 30,-127 9,-110 8,-76 1,-67 -2,-52 -2,-32 -2,-23 -1,-13 0,-2 Z"
   id="path26" />
  </g>
  <g
   id="bullet-char-template-10004"
   transform="scale(0.00048828125,-0.00048828125)">
   <path
   d="M 285,-33 C 182,-33 111,30 74,156 52,228 41,333 41,471 41,549 55,616 82,672 116,743 169,778 240,778 293,778 328,747 346,684 L 369,508 C 377,444 397,411 428,410 L 1163,1116 C 1174,1127 1196,1133 1229,1133 1271,1133 1292,1118 1292,1087 L 1292,965 C 1292,929 1282,901 1262,881 L 442,47 C 390,-6 338,-33 285,-33 Z"
   id="path29" />
  </g>
  <g
   id="bullet-char-template-9679"
   transform="scale(0.00048828125,-0.00048828125)">
   <path
   d="M 813,0 C 632,0 489,54 383,161 276,268 223,411 223,592 223,773 276,916 383,1023 489,1130 632,1184 813,1184 992,1184 1136,1130 1245,1023 1353,916 1407,772 1407,592 1407,412 1353,268 1245,161 1136,54 992,0 813,0 Z"
   id="path32" />
  </g>
  <g
   id="bullet-char-template-8226"
   transform="scale(0.00048828125,-0.00048828125)">
   <path
   d="M 346,457 C 273,457 209,483 155,535 101,586 74,649 74,723 74,796 101,859 155,911 209,963 273,989 346,989 419,989 480,963 531,910 582,859 608,796 608,723 608,648 583,586 532,535 482,483 420,457 346,457 Z"
   id="path35" />
  </g>
  <g
   id="bullet-char-template-8211"
   transform="scale(0.00048828125,-0.00048828125)">
   <path
   d="M -4,459 L 1135,459 1135,606 -4,606 -4,459 Z"
   id="path38" />
  </g>
  <g
   id="bullet-char-template-61548"
   transform="scale(0.00048828125,-0.00048828125)">
   <path
   d="M 173,740 C 173,903 231,1043 346,1159 462,1274 601,1332 765,1332 928,1332 1067,1274 1183,1159 1299,1043 1357,903 1357,740 1357,577 1299,437 1183,322 1067,206 928,148 765,148 601,148 462,206 346,322 231,437 173,577 173,740 Z"
   id="path41" />
  </g>
 </defs>
 <defs
   class="TextEmbeddedBitmaps"
   id="defs46" />
 <g
   id="g51">
  <g
   id="id2"
   class="Master_Slide">
   <g
   id="bg-id2"
   class="Background" />
   <g
   id="bo-id2"
   class="BackgroundObjects" />
  </g>
 </g>
 
<path
   style="fill:#008fb4;stroke-width:95.1786"
   d="m 554.18489,972.86347 c -15.07059,-7.72189 -26.79776,-22.46673 -31.36822,-39.44015 -7.76779,-28.84731 17.11066,-139.51462 76.54142,-340.48084 3.68861,-12.47334 -9.60461,-5.10101 -40.82129,22.63905 l -32.11786,28.54093 -21.83692,-15.26509 c -12.01031,-8.39579 -22.59664,-16.49436 -23.52524,-17.9968 -2.41696,-3.91094 49.4783,-58.49009 71.9617,-75.6832 66.05755,-50.51443 128.96519,-66.29773 156.09836,-39.16456 8.12713,8.12709 9.5646,12.27649 9.53864,27.53418 -0.0408,23.42104 -12.99577,79.67292 -28.60547,124.19845 -21.36715,60.94835 -38.75173,121.26256 -47.10359,163.42142 -11.15646,56.31626 -12.97717,69.29107 -9.71221,69.21206 1.55427,-0.0371 20.27846,-15.12712 41.60946,-33.53231 l 38.78362,-33.46392 21.92122,21.90863 21.92119,21.90866 -21.92119,20.15271 c -39.91784,36.69751 -92.45466,77.72271 -112.79035,88.07626 -24.96493,12.71041 -52.45885,15.69126 -68.57327,7.43452 z"
   id="path53" /><path
   style="fill:#008fb4;stroke-width:95.1786"
   d="m 642.805,422.12631 c -15.77034,-7.31713 -33.48696,-24.99749 -38.57679,-38.49781 -6.24333,-16.55996 -4.33372,-43.65471 4.22557,-59.95486 9.05161,-17.23771 33.85893,-35.254 52.99399,-38.48685 26.72338,-4.51486 61.30555,13.71894 74.28977,39.17012 8.51354,16.6879 9.57042,43.39428 2.3877,60.33424 -15.15556,35.74336 -60.54623,53.56966 -95.32024,37.43516 z"
   id="path55" /><path
   style="fill:#008fb4;stroke-width:95.1786"
   d="M 583.78644,1197.0525 C 473.53396,1184.384 366.88133,1136.5563 279.03106,1060.3868 193.51889,986.24463 126.64501,868.77298 102.61057,750.48405 93.019424,703.27978 93.99815,584.55324 104.37494,536.45323 131.06568,412.73251 200.6214,296.9603 293.75223,221.24376 364.77125,163.5044 447.9905,123.40232 536.57154,104.23282 c 30.9279,-6.692993 45.01814,-7.663195 111.2922,-7.663195 65.78044,0 80.43654,0.994124 110.10428,7.468495 116.5123,25.42636 231.3891,91.89648 303.25218,175.46811 194.6347,226.34632 184.5297,549.69485 -23.6856,757.91007 -121.03314,121.0332 -285.65682,178.9505 -453.74816,159.6362 z m 151.13389,-109.1293 c 82.06788,-16.0047 169.49473,-62.8832 229.86635,-123.25482 60.76652,-60.76649 106.94902,-147.2124 123.77362,-231.68366 8.362,-41.98266 8.2058,-130.04318 -0.3037,-171.23781 -24.2804,-117.54269 -94.30324,-223.36369 -189.14253,-285.83883 -80.52833,-53.04782 -158.47414,-76.67677 -252.9368,-76.67677 -96.56633,0 -171.88903,23.68007 -257.52526,80.96119 -92.92939,62.15947 -165.68592,177.24437 -184.4859,291.81632 -6.70166,40.84163 -4.81231,134.9648 3.43895,171.3313 22.3546,98.52295 84.81437,197.83295 161.1831,256.27844 45.63137,34.92194 113.03153,69.11884 161.03802,81.70594 58.67851,15.3852 145.68446,18.1846 205.09374,6.5987 z"
   id="path58" /></svg>
