<?xml version="1.0" encoding="UTF-8" standalone="no"?>
<svg
   xmlns:ooo="http://xml.openoffice.org/svg/export"
   xmlns:dc="http://purl.org/dc/elements/1.1/"
   xmlns:cc="http://creativecommons.org/ns#"
   xmlns:rdf="http://www.w3.org/1999/02/22-rdf-syntax-ns#"
   xmlns:svg="http://www.w3.org/2000/svg"
   xmlns="http://www.w3.org/2000/svg"
   xmlns:sodipodi="http://sodipodi.sourceforge.net/DTD/sodipodi-0.dtd"
   xmlns:inkscape="http://www.inkscape.org/namespaces/inkscape"
   version="1.2"
   width="12.96mm"
   height="12.96mm"
   viewBox="0 0 1296 1296"
   preserveAspectRatio="xMidYMid"
   fill-rule="evenodd"
   stroke-width="28.222"
   stroke-linejoin="round"
   xml:space="preserve"
   id="svg72"
   sodipodi:docname="icon.svg"
   inkscape:export-filename="C:\Users\Formacion\Desktop\iconos Adaptable\Gris oscuro\pix_plugins\mod\turnitintool\icon.png"
   inkscape:export-xdpi="94.07"
   inkscape:export-ydpi="94.07"
   inkscape:version="1.0.1 (3bc2e813f5, 2020-09-07)"><metadata
   id="metadata76"><rdf:RDF><cc:Work
       rdf:about=""><dc:format>image/svg+xml</dc:format><dc:type
         rdf:resource="http://purl.org/dc/dcmitype/StillImage" /></cc:Work></rdf:RDF></metadata><sodipodi:namedview
   pagecolor="#ffffff"
   bordercolor="#666666"
   borderopacity="1"
   objecttolerance="10"
   gridtolerance="10"
   guidetolerance="10"
   inkscape:pageopacity="0"
   inkscape:pageshadow="2"
   inkscape:window-width="1366"
   inkscape:window-height="705"
   id="namedview74"
   showgrid="false"
   inkscape:zoom="10.983475"
   inkscape:cx="24.491339"
   inkscape:cy="24.491339"
   inkscape:window-x="-8"
   inkscape:window-y="-8"
   inkscape:window-maximized="1"
   inkscape:current-layer="svg72"
   inkscape:document-rotation="0" />
 <defs
   class="ClipPathGroup"
   id="defs8">
  <clipPath
   id="presentation_clip_path"
   clipPathUnits="userSpaceOnUse">
   <rect
   x="0"
   y="0"
   width="1296"
   height="1296"
   id="rect2" />
  </clipPath>
  <clipPath
   id="presentation_clip_path_shrink"
   clipPathUnits="userSpaceOnUse">
   <rect
   x="1"
   y="1"
   width="1294"
   height="1294"
   id="rect5" />
  </clipPath>
 </defs>
 <defs
   class="TextShapeIndex"
   id="defs12">
  <g
   ooo:slide="id1"
   ooo:id-list="id3"
   id="g10" />
 </defs>
 <defs
   class="EmbeddedBulletChars"
   id="defs44">
  <g
   id="bullet-char-template-57356"
   transform="scale(0.00048828125,-0.00048828125)">
   <path
   d="M 580,1141 L 1163,571 580,0 -4,571 580,1141 Z"
   id="path14" />
  </g>
  <g
   id="bullet-char-template-57354"
   transform="scale(0.00048828125,-0.00048828125)">
   <path
   d="M 8,1128 L 1137,1128 1137,0 8,0 8,1128 Z"
   id="path17" />
  </g>
  <g
   id="bullet-char-template-10146"
   transform="scale(0.00048828125,-0.00048828125)">
   <path
   d="M 174,0 L 602,739 174,1481 1456,739 174,0 Z M 1358,739 L 309,1346 659,739 1358,739 Z"
   id="path20" />
  </g>
  <g
   id="bullet-char-template-10132"
   transform="scale(0.00048828125,-0.00048828125)">
   <path
   d="M 2015,739 L 1276,0 717,0 1260,543 174,543 174,936 1260,936 717,1481 1274,1481 2015,739 Z"
   id="path23" />
  </g>
  <g
   id="bullet-char-template-10007"
   transform="scale(0.00048828125,-0.00048828125)">
   <path
   d="M 0,-2 C -7,14 -16,27 -25,37 L 356,567 C 262,823 215,952 215,954 215,979 228,992 255,992 264,992 276,990 289,987 310,991 331,999 354,1012 L 381,999 492,748 772,1049 836,1024 860,1049 C 881,1039 901,1025 922,1006 886,937 835,863 770,784 769,783 710,716 594,584 L 774,223 C 774,196 753,168 711,139 L 727,119 C 717,90 699,76 672,76 641,76 570,178 457,381 L 164,-76 C 142,-110 111,-127 72,-127 30,-127 9,-110 8,-76 1,-67 -2,-52 -2,-32 -2,-23 -1,-13 0,-2 Z"
   id="path26" />
  </g>
  <g
   id="bullet-char-template-10004"
   transform="scale(0.00048828125,-0.00048828125)">
   <path
   d="M 285,-33 C 182,-33 111,30 74,156 52,228 41,333 41,471 41,549 55,616 82,672 116,743 169,778 240,778 293,778 328,747 346,684 L 369,508 C 377,444 397,411 428,410 L 1163,1116 C 1174,1127 1196,1133 1229,1133 1271,1133 1292,1118 1292,1087 L 1292,965 C 1292,929 1282,901 1262,881 L 442,47 C 390,-6 338,-33 285,-33 Z"
   id="path29" />
  </g>
  <g
   id="bullet-char-template-9679"
   transform="scale(0.00048828125,-0.00048828125)">
   <path
   d="M 813,0 C 632,0 489,54 383,161 276,268 223,411 223,592 223,773 276,916 383,1023 489,1130 632,1184 813,1184 992,1184 1136,1130 1245,1023 1353,916 1407,772 1407,592 1407,412 1353,268 1245,161 1136,54 992,0 813,0 Z"
   id="path32" />
  </g>
  <g
   id="bullet-char-template-8226"
   transform="scale(0.00048828125,-0.00048828125)">
   <path
   d="M 346,457 C 273,457 209,483 155,535 101,586 74,649 74,723 74,796 101,859 155,911 209,963 273,989 346,989 419,989 480,963 531,910 582,859 608,796 608,723 608,648 583,586 532,535 482,483 420,457 346,457 Z"
   id="path35" />
  </g>
  <g
   id="bullet-char-template-8211"
   transform="scale(0.00048828125,-0.00048828125)">
   <path
   d="M -4,459 L 1135,459 1135,606 -4,606 -4,459 Z"
   id="path38" />
  </g>
  <g
   id="bullet-char-template-61548"
   transform="scale(0.00048828125,-0.00048828125)">
   <path
   d="M 173,740 C 173,903 231,1043 346,1159 462,1274 601,1332 765,1332 928,1332 1067,1274 1183,1159 1299,1043 1357,903 1357,740 1357,577 1299,437 1183,322 1067,206 928,148 765,148 601,148 462,206 346,322 231,437 173,577 173,740 Z"
   id="path41" />
  </g>
 </defs>
 <defs
   class="TextEmbeddedBitmaps"
   id="defs46" />
 <g
   id="g51">
  <g
   id="id2"
   class="Master_Slide">
   <g
   id="bg-id2"
   class="Background" />
   <g
   id="bo-id2"
   class="BackgroundObjects" />
  </g>
 </g>
 
<path
   style="fill:#008fb4;stroke-width:95.1786"
   d="m 390.37591,1182.2717 c -30.88757,-4.262 -69.67597,-17.6285 -91.01797,-31.3649 -59.05501,-38.0097 -90.26758,-112.341 -79.89699,-190.27122 7.83176,-58.85224 28.89006,-108.46118 76.43711,-180.06983 l 28.39285,-42.76127 -17.81553,-16.22451 c -58.13956,-52.9474 -86.93171,-83.57693 -89.01823,-94.69891 -1.66132,-8.85566 2.48661,-25.30609 18.3437,-72.75069 39.3654,-117.78135 54.48447,-196.14947 61.0953,-316.68113 1.65613,-30.19251 4.05725,-57.5513 5.33619,-60.7973 2.18879,-5.5551 18.86061,-5.90189 283.74868,-5.90189 H 867.4043 l -2.0121,37.94052 c -5.4552,102.86712 -9.46774,150.74877 -17.11307,204.20867 -20.51523,143.45223 -54.33605,270.4212 -106.42852,399.55056 -27.80566,68.92599 -31.24535,75.17492 -47.18697,85.72457 -12.12567,8.02441 -18.35159,9.38839 -53.05011,11.62256 -44.05925,2.83702 -99.91519,-0.95049 -130.36941,-8.8401 -46.86704,-12.14141 -89.55845,-42.90299 -116.26419,-83.77492 -7.44612,-11.39598 -14.12188,-22.26341 -14.83501,-24.1499 -1.6602,-4.39188 -33.47899,26.0577 -45.9913,44.01228 -36.28342,52.06491 -55.56698,124.25089 -47.34617,177.23531 7.10285,45.779 31.37632,78.5646 72.36922,97.7475 29.76658,13.9295 51.99543,15.2668 109.9113,6.6124 89.89638,-13.4333 157.62766,-35.2049 244.07776,-78.4567 175.98581,-88.04743 303.76547,-213.96205 383.03167,-377.44126 42.8088,-88.28918 60.2853,-177.46447 45.7305,-233.34405 -19.976,-76.69325 -84.8655,-120.41338 -191.41688,-128.96949 -26.96989,-2.16583 -36.43167,-8.26825 -12.8196,-8.26825 21.10004,0 91.10918,9.77292 111.46488,15.55994 44.4373,12.63325 86.605,46.13469 107.5637,85.45735 31.1034,58.35588 32.2327,136.1369 3.2545,224.1466 -13.2196,40.14935 -51.2977,117.43975 -76.2152,154.70067 -59.134,88.42731 -187.98438,213.78946 -289.226,281.39609 -133.13241,88.9026 -302.45383,142.8847 -404.1575,128.8513 z M 661.37852,842.99092 c 10.82431,-6.39406 12.56008,-9.37147 27.19202,-46.64383 64.05856,-163.1781 98.69852,-312.54684 112.61611,-485.60513 2.83295,-35.22407 5.1505,-66.71471 5.1505,-69.97916 0,-5.60407 -12.11655,-5.9354 -217.04568,-5.9354 H 372.24583 l -5.35386,26.13678 c -4.53801,22.15384 -73.16936,338.41448 -78.30904,360.8565 l -1.738,7.5881 h 99.55274 99.55274 V 739.01474 848.6207 h 82.94877 c 71.41711,0 84.27372,-0.7827 92.47919,-5.62978 z"
   id="path51" /></svg>
